#N canvas 665 161 700 835 10;
#X declare -path chair;
#X declare -path abstractions;
#X declare -path ../;
#X obj 41 636 hip~ 4;
#X obj 384 36 declare -path chair;
#X obj 40 673 dac~;
#X obj 39 211 chair.gain~;
#X obj 40 492 chair.gain~;
#X obj 384 57 declare -path abstractions;
#X text 189 85 Rotaries:;
#X obj 235 241 tgl 15 0 empty \$0-active empty 17 7 0 10 -262144 -1
-1 1 1;
#N canvas 864 596 450 300 init 0;
#X obj 95 66 loadbang;
#X msg 96 93 1;
#X obj 96 116 s \$0-active;
#X connect 0 0 1 0;
#X connect 1 0 2 0;
#X restore 385 80 pd init;
#X obj 95 639 hip~ 4;
#X obj 40 266 chair.feedback-cancellation~ 50 1;
#N canvas 0 50 450 300 (subpatch) 0;
#X array \$0-scope 1024 float 0;
#X coords 0 -1 1023 1 200 140 1 0 0;
#X restore 370 453 graph;
#X obj 119 579 tabwrite~ \$0-scope;
#X obj 119 555 metro 150;
#X obj 119 533 tgl 15 0 empty \$0-active empty 17 7 0 10 -262144 -1
-1 1 1;
#X obj 41 602 chair.chrismoore-reverb~ 2368 2368 2467 0.921 0.018;
#X obj 39 457 clone fm-karplus 14 \$0;
#X text 188 100 FM-amount \, Cut-off \, Fm-Freq;
#X obj 39 180 adc~ 1;
#X obj 168 294 notein 1;
#X obj 168 317 stripnote;
#X obj 168 389 % 14;
#X obj 168 366 change;
#X obj 168 343 t f f, f 8;
#X obj 168 433 pack f f;
#X floatatom 229 386 5 0 0 0 - - -;
#X obj 169 411 t f f, f 11;
#X obj 232 433 s \$0-current;
#X obj 384 14 declare -path ../;
#N canvas 4 61 765 382 mapping 0;
#X obj 149 149 * 9000;
#X obj 54 192 s \$0-fm-amount;
#X obj 149 170 + 0;
#X obj 235 170 * 1;
#X obj 54 167 * 0.499;
#X obj 149 193 s \$0-lp;
#X obj 235 192 s \$0-fm-freq;
#X obj 54 9 inlet;
#X obj 54 36 route 0 1 2;
#X connect 0 0 2 0;
#X connect 2 0 5 0;
#X connect 3 0 6 0;
#X connect 4 0 1 0;
#X connect 7 0 8 0;
#X connect 8 0 4 0;
#X connect 8 1 0 0;
#X connect 8 2 3 0;
#X restore 40 121 pd mapping;
#X obj 40 54 chair.encoders 0 0.5 1;
#X connect 0 0 2 0;
#X connect 3 0 10 0;
#X connect 4 0 12 0;
#X connect 4 0 15 0;
#X connect 7 0 10 2;
#X connect 9 0 2 1;
#X connect 10 0 16 0;
#X connect 13 0 12 0;
#X connect 14 0 13 0;
#X connect 15 0 0 0;
#X connect 15 1 9 0;
#X connect 16 0 4 0;
#X connect 18 0 3 0;
#X connect 19 0 20 0;
#X connect 19 1 20 1;
#X connect 20 0 23 0;
#X connect 21 0 26 0;
#X connect 22 0 21 0;
#X connect 23 0 22 0;
#X connect 23 1 24 1;
#X connect 23 1 25 0;
#X connect 24 0 16 1;
#X connect 26 0 24 0;
#X connect 26 1 27 0;
#X connect 30 0 29 0;
#X coords 0 835 1 834 85 60 0;
