#N canvas 592 219 535 764 10;
#X declare -path chair;
#X declare -path abstractions;
#X obj 349 38 declare -path chair;
#X obj 349 60 declare -path abstractions;
#X obj 37 146 chair.gain~;
#X obj 36 538 chair.gain~;
#X obj 35 625 dac~;
#X obj 35 590 hip~ 4;
#X obj 37 210 chair.feedback-cancellation~;
#X obj 202 187 tgl 15 0 empty \$0-active empty 17 7 0 10 -262144 -1
-1 1 1;
#X obj 399 228 unpack f f;
#X obj 215 417 line~;
#X msg 215 395 \$1 20;
#X obj 272 417 line~;
#X msg 272 395 \$1 20;
#X floatatom 58 413 3 0 10 1 gain - -;
#N canvas 933 430 696 683 nested-comb-code 0;
#X obj 330 36 inlet~;
#X obj 68 650 outlet~;
#X obj 68 605 +~, f 28;
#X obj 7 35 block~ 1;
#X obj 232 300 *~, f 17;
#X obj 232 446 +~, f 58;
#X obj 232 407 *~, f 31;
#X obj 231 340 +~, f 24;
#X obj 372 300 *~, f 18;
#X obj 476 214 *~ -1;
#X obj 179 38 inlet~ gain;
#X obj 414 37 inlet~;
#X text 270 634 http://www.richarddudas.com/documents/ahn_dudas_icmc2013.pdf
;
#X obj 67 563 *~, f 19;
#X obj 67 35 inlet~;
#X obj 489 35 inlet~ del2;
#X obj 579 35 inlet~ del1;
#X text 67 11 in1;
#X text 179 17 in2;
#X text 330 13 in3;
#X text 414 13 in4;
#X text 488 12 in5;
#X text 578 12 in6;
#X text 439 214 mul4;
#X text 343 300 mul5;
#X text 199 340 add8;
#X text 199 407 mul9;
#X text 197 447 add10;
#X text 200 301 mul7;
#X obj 67 498 +~;
#X text 29 498 add11;
#X text 27 564 mul12;
#N canvas 1367 923 200 150 read-del1 0;
#X obj 20 20 inlet~;
#X obj 20 120 outlet~;
#X obj 20 60 delread4~ \$0-del1;
#X connect 0 0 2 0;
#X connect 2 0 1 0;
#X restore 578 215 pd read-del1;
#N canvas 1078 801 200 150 read-del2 0;
#X obj 20 20 inlet~;
#X obj 20 120 outlet~;
#X obj 21 60 delread4~ \$0-del2;
#X connect 0 0 2 0;
#X connect 2 0 1 0;
#X restore 233 259 pd read-del2;
#N canvas 2249 775 200 150 write-del1 0;
#X obj 20 20 inlet~;
#X obj 30 60 delwrite~ \$0-del1 48000;
#X connect 0 0 1 0;
#X restore 249 374 pd write-del1;
#N canvas 2266 987 200 150 write-del2 0;
#X obj 20 20 inlet~;
#X obj 19 60 delwrite~ \$0-del2 48000;
#X connect 0 0 1 0;
#X restore 84 531 pd write-del2;
#X obj 606 81 samplerate~;
#X obj 606 60 loadbang;
#X obj 606 103 / 1000;
#X obj 489 147 /~ 48;
#X obj 579 148 /~ 48;
#X text 268 650 (Translated to Pd);
#X text 28 605 add13;
#X text 267 606 Jae-hyun Ahn \, Richard Dudas: Musical Applications
of Nested Comb Filters for Inharmonic Resonator Effects. ICMC 2013
;
#X connect 0 0 4 1;
#X connect 2 0 1 0;
#X connect 4 0 7 0;
#X connect 5 0 29 1;
#X connect 5 0 2 1;
#X connect 6 0 5 0;
#X connect 7 0 6 0;
#X connect 7 0 34 0;
#X connect 8 0 7 1;
#X connect 9 0 8 1;
#X connect 10 0 13 1;
#X connect 11 0 9 0;
#X connect 11 0 6 1;
#X connect 13 0 2 0;
#X connect 14 0 29 0;
#X connect 15 0 39 0;
#X connect 16 0 40 0;
#X connect 29 0 13 0;
#X connect 29 0 35 0;
#X connect 32 0 8 0;
#X connect 32 0 5 1;
#X connect 33 0 4 0;
#X connect 36 0 38 0;
#X connect 37 0 36 0;
#X connect 38 0 39 1;
#X connect 38 0 40 1;
#X connect 39 0 33 0;
#X connect 40 0 32 0;
#X restore 36 480 pd nested-comb-code;
#X obj 399 313 * 900;
#X obj 456 313 * 900;
#X obj 399 335 + 1;
#X obj 456 334 + 1;
#N canvas 87 513 664 365 rotaries 0;
#X obj 285 180 s \$0-led1;
#X obj 474 179 s \$0-led2;
#X obj 112 173 s \$0-led0;
#X obj 103 119 vsl 15 35 0 1 0 0 empty empty empty 0 -9 0 10 -262144
-1 -1 3213 1;
#X obj 130 119 vsl 15 35 0 1 0 0 empty empty empty 0 -9 0 10 -262144
-1 -1 2945 1;
#X obj 160 119 vsl 15 35 0 1 0 0 empty empty empty 0 -9 0 10 -262144
-1 -1 3320 1;
#X obj 375 -7 loadbang;
#X obj 103 298 outlet;
#X obj 287 300 outlet;
#X obj 486 299 outlet;
#X obj 485 244 * 1400;
#X msg 375 22 48;
#X msg 323 22 46;
#X msg 413 21 30;
#X obj 86 29 ctlin 14 1;
#X obj 154 29 ctlin 15 1;
#X obj 226 29 ctlin 16 1;
#X obj 92 59 / 127;
#X obj 157 63 / 127;
#X obj 223 65 / 127;
#X connect 3 0 2 0;
#X connect 3 0 7 0;
#X connect 4 0 0 0;
#X connect 4 0 8 0;
#X connect 5 0 1 0;
#X connect 5 0 10 0;
#X connect 6 0 11 0;
#X connect 6 0 13 0;
#X connect 6 0 12 0;
#X connect 10 0 9 0;
#X connect 11 0 18 0;
#X connect 12 0 17 0;
#X connect 13 0 19 0;
#X connect 14 0 17 0;
#X connect 15 0 18 0;
#X connect 16 0 19 0;
#X connect 17 0 3 0;
#X connect 18 0 4 0;
#X connect 19 0 5 0;
#X coords 0 -1 1 1 85 60 1 100 100;
#X restore 251 211 pd rotaries;
#X obj 58 369 loadbang;
#X msg 58 392 1;
#X obj 426 281 t f f, f 10;
#X text 180 128 Rotaries: coefficient1 \, coefficient2 \, delay-length-multiplicator
;
#N canvas 1202 590 450 300 init 0;
#X obj 82 37 loadbang;
#X msg 82 60 1;
#X obj 82 83 s \$0-active;
#X connect 0 0 1 0;
#X connect 1 0 2 0;
#X restore 350 83 pd init;
#X obj 37 108 adc~ 1;
#N canvas 0 23 450 300 position 0;
#X obj 47 121 s \$0-xy;
#X obj 36 36 ctlin 12;
#X obj 107 36 ctlin 13;
#X obj 46 96 pack 0 0;
#X obj 44 67 / 127;
#X obj 103 67 / 127;
#X connect 1 0 4 0;
#X connect 2 0 5 0;
#X connect 3 0 0 0;
#X connect 4 0 3 0;
#X connect 5 0 3 1;
#X restore 61 299 pd position;
#X obj 399 192 r \$0-xy;
#X connect 2 0 6 0;
#X connect 3 0 5 0;
#X connect 5 0 4 0;
#X connect 5 0 4 1;
#X connect 6 0 14 0;
#X connect 7 0 6 2;
#X connect 8 0 15 0;
#X connect 8 1 16 0;
#X connect 9 0 14 4;
#X connect 10 0 9 0;
#X connect 11 0 14 5;
#X connect 12 0 11 0;
#X connect 13 0 14 1;
#X connect 14 0 3 0;
#X connect 15 0 17 0;
#X connect 16 0 18 0;
#X connect 17 0 10 0;
#X connect 18 0 12 0;
#X connect 19 0 14 2;
#X connect 19 1 14 3;
#X connect 19 2 22 0;
#X connect 20 0 21 0;
#X connect 21 0 13 0;
#X connect 22 0 15 1;
#X connect 22 1 16 1;
#X connect 25 0 2 0;
#X connect 27 0 8 0;
