#N canvas 783 270 675 622 10;
#X declare -path ./abstractions;
#X declare -path ./chair;
#X declare -path ../;
#X obj 38 346 chair.gain~;
#X obj 37 402 dac~;
#N canvas 892 63 679 977 snare 1;
#X obj 45 63 inlet~;
#X obj 140 822 *~ 0.98;
#X obj 46 843 +~;
#X obj 57 873 delwrite~ \$0-del 200;
#X obj 47 902 outlet~;
#X obj 181 605 +~;
#X obj 180 528 noise~;
#X obj 202 315 noise~;
#X obj 140 455 allp~ 2.2;
#X obj 141 501 allp~ 2.5;
#X obj 140 799 *~ -1;
#X obj 202 338 lop~ 100;
#X obj 180 551 lop~ 500;
#X obj 180 572 *~ 0.01;
#X obj 141 753 lop~ 7000;
#X obj 267 528 / 100;
#X obj 139 408 allp4~ 6.53;
#X obj 171 222 noise~;
#X obj 170 291 +~;
#X obj 255 243 r \$0-param-1;
#X obj 255 266 / 10;
#X obj 202 361 +~ 1;
#X obj 170 268 *~ 0.5;
#X obj 190 434 sig~ 0.5;
#X obj 171 244 lop~ 2000;
#X obj 192 479 sig~ 0.14;
#X obj 258 107 r \$0-param-2;
#X obj 258 178 * 15000;
#X obj 258 201 + 1000;
#X obj 258 130 / 100;
#X obj 258 153 pow 3;
#X obj 267 371 r \$0-param-2;
#X obj 267 394 / 100;
#X obj 267 416 pow 3;
#X obj 267 484 * 0.25;
#X obj 267 505 + 0.75;
#X obj 323 676 r \$0-param-2;
#X obj 323 698 / 100;
#X obj 323 720 pow 3;
#X obj 323 786 + 0.7;
#X obj 323 764 * 0.275;
#X obj 140 778 hip~;
#X obj 202 384 *~ 0.75;
#X obj 138 185 delread4~ \$0-del;
#X obj 139 161 +~;
#X obj 189 24 r \$0-xy;
#X obj 189 88 pow 2;
#X obj 189 67 / 0.72;
#X obj 189 111 expr 1-$f1;
#X obj 189 132 + 2;
#X obj 224 628 / 100;
#X obj 224 651 moses 0.5;
#X obj 277 672 - 0.5;
#X obj 224 674 * 2;
#X obj 277 695 * 2;
#X obj 277 718 pow 2;
#X obj 277 740 * 200;
#X obj 224 696 sqrt;
#X obj 224 605 r \$0-param-3;
#X obj 222 740 + 2000;
#X obj 222 717 * 7000;
#X obj 45 87 chair.dc-offset~;
#X obj 139 133 *~ 0.5;
#X obj 138 110 lop~ 20;
#X obj 46 10 block~ 1;
#X obj 189 46 chair.distance 0.5 0.5;
#X msg 267 439 1 \$1;
#X obj 267 461 -;
#X msg 267 549 1 \$1;
#X obj 267 570 -;
#X text 247 904 Philipp Schmalfuß \, 2018;
#X obj 141 630 allp~ 4;
#X obj 323 742 expr 1-$f1;
#X connect 0 0 61 0;
#X connect 1 0 2 1;
#X connect 2 0 3 0;
#X connect 2 0 4 0;
#X connect 5 0 71 2;
#X connect 6 0 12 0;
#X connect 7 0 11 0;
#X connect 8 0 9 0;
#X connect 9 0 71 0;
#X connect 10 0 1 0;
#X connect 11 0 21 0;
#X connect 12 0 13 0;
#X connect 13 0 5 0;
#X connect 14 0 41 0;
#X connect 15 0 13 1;
#X connect 15 0 68 0;
#X connect 16 0 8 0;
#X connect 17 0 24 0;
#X connect 18 0 16 1;
#X connect 19 0 20 0;
#X connect 20 0 18 1;
#X connect 21 0 42 0;
#X connect 22 0 18 0;
#X connect 23 0 8 2;
#X connect 24 0 22 0;
#X connect 25 0 9 2;
#X connect 26 0 29 0;
#X connect 27 0 28 0;
#X connect 28 0 24 1;
#X connect 29 0 30 0;
#X connect 30 0 27 0;
#X connect 31 0 32 0;
#X connect 32 0 33 0;
#X connect 33 0 66 0;
#X connect 34 0 35 0;
#X connect 35 0 15 0;
#X connect 36 0 37 0;
#X connect 37 0 38 0;
#X connect 38 0 72 0;
#X connect 39 0 1 1;
#X connect 40 0 39 0;
#X connect 41 0 10 0;
#X connect 42 0 16 2;
#X connect 43 0 16 0;
#X connect 44 0 43 0;
#X connect 45 0 65 0;
#X connect 46 0 48 0;
#X connect 47 0 46 0;
#X connect 48 0 49 0;
#X connect 49 0 44 1;
#X connect 50 0 51 0;
#X connect 51 0 53 0;
#X connect 51 1 52 0;
#X connect 52 0 54 0;
#X connect 53 0 57 0;
#X connect 54 0 55 0;
#X connect 55 0 56 0;
#X connect 56 0 41 1;
#X connect 57 0 60 0;
#X connect 58 0 50 0;
#X connect 59 0 14 1;
#X connect 60 0 59 0;
#X connect 61 0 2 0;
#X connect 61 1 63 0;
#X connect 62 0 44 0;
#X connect 63 0 62 0;
#X connect 65 0 47 0;
#X connect 66 0 67 0;
#X connect 67 0 34 0;
#X connect 68 0 69 0;
#X connect 69 0 5 1;
#X connect 71 0 14 0;
#X connect 72 0 40 0;
#X restore 38 310 pd snare;
#N canvas 4 61 450 300 init 0;
#X obj 235 49 loadbang;
#X msg 131 93 0.75;
#X obj 131 116 s \$0-shake;
#X msg 201 102 -20;
#X obj 201 125 s \$0-sensitivity;
#X obj 306 128 s \$0-activate;
#X msg 309 102 1;
#X connect 0 0 1 0;
#X connect 0 0 3 0;
#X connect 0 0 6 0;
#X connect 1 0 2 0;
#X connect 3 0 4 0;
#X connect 6 0 5 0;
#X restore 228 130 pd init;
#X obj 228 106 declare -path ./abstractions;
#X obj 228 84 declare -path ./chair;
#X obj 39 239 chair.feedback-cancellation~;
#X obj 204 218 tgl 15 0 empty \$0-activate empty 17 7 0 10 -262144
-1 -1 1 1;
#N canvas 4 61 450 300 position 0;
#X obj 47 121 s \$0-xy;
#X obj 36 36 ctlin 12;
#X obj 107 36 ctlin 13;
#X obj 46 96 pack 0 0;
#X obj 44 67 / 127;
#X obj 103 67 / 127;
#X connect 1 0 4 0;
#X connect 2 0 5 0;
#X connect 3 0 0 0;
#X connect 4 0 3 0;
#X connect 5 0 3 1;
#X restore 39 54 pd position;
#X text 36 163 rotaries: 1: drumhead tuning \, 2: rattle tension \,
3: high-low-damping, f 69;
#X obj 39 206 adc~ 1;
#X obj 228 61 declare -path ../;
#X obj 40 89 chair.encoders 0.5 0.5 0.5 \$0;
#X connect 0 0 1 0;
#X connect 0 0 1 1;
#X connect 2 0 0 0;
#X connect 6 0 2 0;
#X connect 7 0 6 2;
#X connect 10 0 6 0;
