#N canvas 214 440 812 517 10;
#X declare -path abstractions;
#X declare -path chair;
#N canvas 77 296 1240 686 rotaries 0;
#X obj 103 119 vsl 15 35 0 1 0 0 \$0-hsl1 \$0-hsl1r empty 0 -9 0 10
-262144 -1 -1 2337 1;
#X obj 130 119 vsl 15 35 0 1 0 0 \$0-hsl2 \$0-hsl2r empty 0 -9 0 10
-262144 -1 -1 3028 1;
#X obj 159 119 vsl 15 35 0 1 0 0 \$0-hsl3 \$0-hsl3r empty 0 -9 0 10
-262144 -1 -1 956 1;
#X obj 440 536 list prepend;
#X obj 440 556 list trim;
#X obj 349 196 * 64;
#X obj 543 200 * 64;
#X obj 752 190 * 64;
#X obj 440 469 pack 0 0 0;
#X obj 504 378 t b f;
#X obj 570 376 t b f;
#X obj 440 582 s \$0-params-list;
#X obj 661 506 text set \$0-rotary-states;
#X obj 662 529 text define -k \$0-rotary-states;
#A set 0.558824 0.0588235 0.470588 \; 0.456801 0.487135 0.296875 \;
0.421875 0.875 0.5625 \; 0.65625 0.8125 0.875 \; 0 0.5625 1 \; 0 1
0 \; 0.184743 0.250919 0.860294 \; 0.6875 0.890625 0.28125 \; -0.00275707
1.00092 1.00092 \; 0.794118 0.297794 0.235294 \; 0.0441179 1.00092
0.547794 \; 0.356618 0.891544 0.641544 \; 0.296875 0.625 0.34375 \;
0.078125 0.859375 0.671875 \; 0.015625 0.015625 0 \; 0.03125 0 0 \;
0.046875 0 0 \; 0.0625 0 0 \; 0.28125 0.015625 0 \; 0.46875 0.65625
0.625 \; 0.125 0.328125 0.71875 \; 0.296875 0 0 \; 0.3125 0 0.484375
\; 0.53125 0 -0.015625 \;;
#X obj 686 61 text get \$0-rotary-states;
#X obj 686 14 r \$0-fieldn;
#X obj 686 84 unpack f f f;
#X obj 662 122 s \$0-hsl1r;
#X obj 696 144 s \$0-hsl2r;
#X obj 731 166 s \$0-hsl3r;
#X obj 264 248 s \$0-hsl1r;
#X obj 456 250 s \$0-hsl2r;
#X obj 665 241 s \$0-hsl3r;
#X obj 440 330 r \$0-hsl1;
#X obj 504 331 r \$0-hsl2;
#X obj 571 332 r \$0-hsl3;
#X obj 264 218 rotary-range 64;
#X obj 456 222 rotary-range 64;
#X obj 665 213 rotary-range 64;
#X obj 440 353 change;
#X obj 504 354 change;
#X obj 571 355 change;
#X obj 440 376 t b f;
#X obj 440 446 f;
#X obj 440 424 del 0;
#X obj 528 537 r \$0-fieldn;
#X obj 686 37 t f f;
#X obj 261 547 s \$0-fieldn;
#X obj 261 302 notein;
#X obj 261 326 stripnote;
#X obj 261 412 mod 12;
#X obj 261 349 t f f;
#X obj 331 388 div 12;
#X obj 261 435 list prepend;
#X obj 331 413 !=;
#X obj 261 458 list trim;
#X obj 261 481 route 0 1;
#X obj 286 505 + 12;
#X floatatom 524 560 5 0 0 0 - - -;
#X msg 858 222 0.558824 0.0588235 0.470588 \, 0.456801 0.487135 0.296875
\, 0.421875 0.875 0.5625 \, 0.65625 0.8125 0.875 \, 0 0.5625 1 \, 0
1 0 \, 0.184743 0.250919 0.860294 \, 0.6875 0.890625 0.28125 \, -0.00275707
1.00092 1.00092 \, 0.794118 0.297794 0.235294 \, 0.0441179 1.00092
0.547794 \, 0.356618 0.891544 0.641544 \, 0.53125 0.984375 0.671875
\, 0.3125 0.859375 0.671875 \,;
#X obj 858 414 t a b;
#X obj 883 436 f;
#X obj 921 439 + 1;
#X obj 858 129 bng 15 250 50 0 empty empty empty 17 7 0 10 -262144
-1 -1;
#X obj 858 152 t b b;
#X msg 891 190 0;
#X obj 857 101 r \$0-reset;
#X obj 241 111 ctlin 11;
#X obj 429 137 ctlin 12;
#X obj 603 124 ctlin 13;
#X obj 241 136 ../chair.rotary-relative;
#X obj 428 165 ../chair.rotary-relative;
#X obj 604 182 ../chair.rotary-relative;
#X obj 355 358 ctlin 16;
#X connect 3 0 4 0;
#X connect 4 0 11 0;
#X connect 5 0 26 1;
#X connect 6 0 27 1;
#X connect 7 0 28 1;
#X connect 8 0 3 0;
#X connect 8 0 12 0;
#X connect 9 0 34 0;
#X connect 9 1 8 1;
#X connect 10 0 34 0;
#X connect 10 1 8 2;
#X connect 14 0 16 0;
#X connect 15 0 36 0;
#X connect 16 0 17 0;
#X connect 16 0 5 0;
#X connect 16 1 18 0;
#X connect 16 1 6 0;
#X connect 16 2 19 0;
#X connect 16 2 7 0;
#X connect 23 0 29 0;
#X connect 24 0 30 0;
#X connect 25 0 31 0;
#X connect 26 0 20 0;
#X connect 27 0 21 0;
#X connect 28 0 22 0;
#X connect 29 0 32 0;
#X connect 30 0 9 0;
#X connect 31 0 10 0;
#X connect 32 0 34 0;
#X connect 32 1 33 1;
#X connect 33 0 8 0;
#X connect 34 0 33 0;
#X connect 35 0 3 1;
#X connect 35 0 48 0;
#X connect 36 0 14 0;
#X connect 36 1 12 1;
#X connect 38 0 39 0;
#X connect 38 1 39 1;
#X connect 39 0 41 0;
#X connect 40 0 43 0;
#X connect 41 0 40 0;
#X connect 41 1 42 0;
#X connect 42 0 44 0;
#X connect 43 0 45 0;
#X connect 44 0 43 1;
#X connect 45 0 46 0;
#X connect 46 0 37 0;
#X connect 46 1 47 0;
#X connect 47 0 37 0;
#X connect 49 0 50 0;
#X connect 50 0 12 0;
#X connect 50 1 51 0;
#X connect 51 0 52 0;
#X connect 51 0 12 1;
#X connect 52 0 51 1;
#X connect 53 0 54 0;
#X connect 54 0 49 0;
#X connect 54 1 55 0;
#X connect 55 0 51 1;
#X connect 56 0 53 0;
#X connect 57 0 60 0;
#X connect 58 0 61 0;
#X connect 59 0 62 0;
#X connect 60 0 26 0;
#X connect 61 0 27 0;
#X connect 62 0 28 0;
#X connect 63 0 44 1;
#X coords 0 -1 1 1 85 60 1 100 100;
#X restore 98 97 pd rotaries;
#N canvas 4 61 450 300 init 0;
#X obj 235 49 loadbang;
#X msg 131 93 0.75;
#X obj 131 116 s \$0-shake;
#X msg 201 102 -20;
#X obj 201 125 s \$0-sensitivity;
#X obj 306 128 s \$0-activate;
#X msg 309 102 1;
#X connect 0 0 1 0;
#X connect 0 0 3 0;
#X connect 0 0 6 0;
#X connect 1 0 2 0;
#X connect 3 0 4 0;
#X connect 6 0 5 0;
#X restore 412 79 pd init;
#N canvas 75 270 1359 611 instruments 0;
#X obj 267 321 cowbell~ \$0 5;
#X obj 615 342 *~ 0.5;
#X obj 683 341 *~ 0.5;
#X obj 729 341 *~ 0.5;
#X obj 798 341 *~ 0.5;
#X obj 729 318 stcymb~ \$0 8;
#X obj 1080 313 bongo~ \$0 10;
#X obj 13 320 stsnare~ \$0 6;
#X obj 97 320 stsnare~ \$0 7;
#X obj 614 320 stcymb~ \$0 3;
#X obj 353 321 cowbell~ \$0 0;
#X obj 439 321 cowbell~ \$0 1;
#X obj 527 321 cowbell~ \$0 9;
#X obj 844 340 *~ 0.5;
#X obj 912 340 *~ 0.5;
#X obj 843 317 stcymb~ \$0 4;
#X obj 959 339 *~ 0.5;
#X obj 1032 339 *~ 0.5;
#X obj 958 316 stcymb~ \$0 13;
#X obj 1172 311 bongo~ \$0 11;
#X obj 1263 311 bongo~ \$0 12;
#X obj 183 320 stsnare~ \$0 2;
#X obj 12 155 inlet~;
#X obj 12 516 outlet~;
#X obj 1033 544 outlet~;
#X obj 1081 338 *~ 1.5;
#X obj 1125 337 *~ 1.5;
#X obj 1173 334 *~ 1.5;
#X obj 1219 334 *~ 1.5;
#X obj 1263 334 *~ 1.5;
#X obj 1309 334 *~ 1.5;
#X connect 0 0 23 0;
#X connect 0 1 24 0;
#X connect 1 0 23 0;
#X connect 2 0 24 0;
#X connect 3 0 23 0;
#X connect 4 0 24 0;
#X connect 5 0 3 0;
#X connect 5 1 4 0;
#X connect 6 0 25 0;
#X connect 6 1 26 0;
#X connect 7 0 23 0;
#X connect 7 1 24 0;
#X connect 8 0 23 0;
#X connect 8 1 24 0;
#X connect 9 0 1 0;
#X connect 9 1 2 0;
#X connect 10 0 23 0;
#X connect 10 1 24 0;
#X connect 11 0 23 0;
#X connect 11 1 24 0;
#X connect 12 0 23 0;
#X connect 12 1 24 0;
#X connect 13 0 23 0;
#X connect 14 0 24 0;
#X connect 15 0 13 0;
#X connect 15 1 14 0;
#X connect 16 0 23 0;
#X connect 17 0 24 0;
#X connect 18 0 16 0;
#X connect 18 1 17 0;
#X connect 19 0 27 0;
#X connect 19 1 28 0;
#X connect 20 0 29 0;
#X connect 20 1 30 0;
#X connect 21 0 23 0;
#X connect 21 1 24 0;
#X connect 22 0 9 0;
#X connect 22 0 6 0;
#X connect 22 0 0 0;
#X connect 22 0 21 0;
#X connect 22 0 12 0;
#X connect 22 0 11 0;
#X connect 22 0 10 0;
#X connect 22 0 18 0;
#X connect 22 0 15 0;
#X connect 22 0 5 0;
#X connect 22 0 20 0;
#X connect 22 0 19 0;
#X connect 22 0 7 0;
#X connect 22 0 8 0;
#X connect 25 0 23 0;
#X connect 26 0 24 0;
#X connect 27 0 23 0;
#X connect 28 0 24 0;
#X connect 29 0 23 0;
#X connect 30 0 24 0;
#X restore 49 327 pd instruments;
#N canvas 4 60 573 492 midside 0;
#X obj 23 427 outlet~;
#X obj 131 429 outlet~;
#X obj 22 187 +~;
#X obj 144 186 -~;
#X obj 23 332 +~;
#X obj 131 334 -~;
#X obj 21 34 inlet~ left;
#X obj 160 31 inlet~ right;
#X obj 21 210 *~ 0.707107;
#X obj 145 209 *~ 0.707107;
#X obj 22 252 *~;
#X obj 96 149 sig~ 1;
#X obj 96 172 -~;
#X obj 97 257 *~ 2;
#X obj 282 249 *~ 2;
#X obj 146 257 *~;
#X obj 282 218 clip~ 0 1;
#X obj 173 155 clip~ 0 1;
#X obj 281 189 +~ 1;
#X text 242 417 philipp schmalfuß \, 2019;
#X text 239 327 based on Robin Schmidt's stereo processing tutorial:
http://www.rs-met.com/documents/tutorials/StereoProcessing.pdf, f
63;
#X obj 24 354 *~ 0.353554;
#X obj 132 357 *~ 0.353554;
#X obj 281 120 sig~ -0.5;
#X connect 2 0 8 0;
#X connect 3 0 9 0;
#X connect 4 0 21 0;
#X connect 5 0 22 0;
#X connect 6 0 2 0;
#X connect 6 0 3 0;
#X connect 7 0 2 1;
#X connect 7 0 3 1;
#X connect 8 0 10 0;
#X connect 9 0 15 0;
#X connect 10 0 4 0;
#X connect 10 0 5 0;
#X connect 11 0 12 0;
#X connect 12 0 13 0;
#X connect 13 0 10 1;
#X connect 14 0 15 1;
#X connect 15 0 4 1;
#X connect 15 0 5 1;
#X connect 16 0 14 0;
#X connect 17 0 12 1;
#X connect 18 0 16 0;
#X connect 21 0 0 0;
#X connect 22 0 1 0;
#X connect 23 0 18 0;
#X connect 23 0 17 0;
#X restore 49 353 pd midside;
#X obj 50 388 chair.stereogain~;
#X obj 50 462 dac~;
#X obj 49 235 chair.dynamics~;
#N canvas 235 123 590 300 init 0;
#X obj 213 67 loadbang;
#X obj 213 139 outlet;
#X msg 213 90 threshold-compress -17.1717 \, threshold-expand -42.4242
\, attack 0 \, release 70 \, compress 65.6566 \, expand 72.7273 \,
gain 18.1818 \, dry/wet 0 \, lookahead 64 \, peak \,;
#X obj 83 146 ctlout 102;
#X msg 83 119 0;
#X connect 0 0 2 0;
#X connect 0 0 4 0;
#X connect 2 0 1 0;
#X connect 4 0 3 0;
#X restore 136 214 pd init;
#X obj 267 186 bng 30 250 50 0 empty empty empty 17 7 0 10 -262144
-1 -1;
#X obj 267 221 s \$0-reset;
#X obj 50 63 adc~ 1;
#X obj 413 36 declare -path abstractions;
#X obj 50 435 hip~ 4;
#X obj 94 435 hip~ 4;
#X obj 413 58 declare -path chair;
#X connect 2 0 3 0;
#X connect 2 1 3 1;
#X connect 3 0 4 0;
#X connect 3 1 4 1;
#X connect 4 0 12 0;
#X connect 4 1 13 0;
#X connect 6 0 2 0;
#X connect 7 0 6 1;
#X connect 8 0 9 0;
#X connect 10 0 6 0;
#X connect 12 0 5 0;
#X connect 13 0 5 1;
