#N canvas 532 180 697 901 10;
#X declare -path chair;
#X declare -path abstractions;
#X declare -path ../;
#X obj 27 647 hip~ 4;
#X obj 341 26 declare -path chair;
#X obj 26 684 dac~;
#X obj 27 510 chair.gain~;
#X obj 341 47 declare -path abstractions;
#X text 105 217 Rotaries:;
#X obj 26 375 chair.dc-offset~;
#X obj 221 316 tgl 15 0 empty \$0-active empty 17 7 0 10 -262144 -1
-1 1 1;
#N canvas 864 596 450 300 init 0;
#X obj 95 66 loadbang;
#X msg 96 93 1;
#X obj 96 116 s \$0-active;
#X connect 0 0 1 0;
#X connect 1 0 2 0;
#X restore 342 70 pd init;
#X obj 116 649 hip~ 4;
#X obj 26 341 chair.feedback-cancellation~ 50 1;
#X obj 26 613 chair.chrismoore-reverb~ 2368 2368 2467 0.921 0.138;
#X text 104 233 Feedback \, Cut-off \, Delay 2 Size;
#N canvas 0 50 450 300 (subpatch) 0;
#X array \$0-scope 1024 float 0;
#X coords 0 -1 1023 1 200 140 1 0 0;
#X restore 340 335 graph;
#X obj 338 573 tabwrite~ \$0-scope;
#X obj 338 518 metro 150;
#X obj 338 496 tgl 15 0 empty \$0-active empty 17 7 0 10 -262144 -1
-1 1 1;
#X obj 123 317 mtof;
#X obj 403 495 r \$0-touch;
#X obj 403 518 sel 1;
#X obj 403 544 del 10;
#X floatatom 442 519 5 0 0 0 - - -;
#X obj 27 475 clone simple-2D-waveguide 5 \$0;
#X obj 123 293 r \$0-midinote;
#X obj 28 149 adc~ 1;
#X obj 342 111 notein 1;
#X obj 342 139 stripnote;
#X floatatom 354 166 5 0 0 0 - - -;
#X obj 400 223 % 5;
#X obj 342 223 f;
#X obj 370 223 + 1;
#X obj 435 252 s \$0-midinote;
#X obj 342 190 t b f, f 16;
#X obj 342 252 s \$0-current;
#X obj 142 443 pack f f, f 14;
#X obj 223 420 r \$0-midinote;
#X obj 142 420 r \$0-current;
#N canvas 4 61 450 300 mapping 0;
#X obj 37 37 inlet;
#X obj 37 60 route 0 1 2;
#X obj 94 115 * 9000;
#X obj 94 136 + 0;
#X obj 37 118 * 1;
#X obj 94 160 s \$0-lp;
#X obj 152 160 s \$0-timbre;
#X obj 37 159 s \$0-fb;
#X obj 152 106 * 2;
#X connect 0 0 1 0;
#X connect 1 0 4 0;
#X connect 1 1 2 0;
#X connect 1 2 8 0;
#X connect 2 0 3 0;
#X connect 3 0 5 0;
#X connect 4 0 7 0;
#X connect 8 0 6 0;
#X restore 108 194 pd mapping;
#X obj 341 4 declare -path ../;
#X obj 108 126 chair.encoders;
#X connect 0 0 2 0;
#X connect 3 0 14 0;
#X connect 3 0 11 0;
#X connect 6 0 22 0;
#X connect 7 0 10 2;
#X connect 9 0 2 1;
#X connect 10 0 6 0;
#X connect 11 0 0 0;
#X connect 11 1 9 0;
#X connect 15 0 14 0;
#X connect 16 0 15 0;
#X connect 17 0 10 1;
#X connect 18 0 19 0;
#X connect 19 0 20 0;
#X connect 20 0 14 0;
#X connect 21 0 20 1;
#X connect 22 0 3 0;
#X connect 23 0 17 0;
#X connect 24 0 10 0;
#X connect 25 0 26 0;
#X connect 25 1 26 1;
#X connect 26 0 27 0;
#X connect 26 0 32 0;
#X connect 28 0 29 1;
#X connect 29 0 30 0;
#X connect 29 0 33 0;
#X connect 30 0 28 0;
#X connect 32 0 29 0;
#X connect 32 1 31 0;
#X connect 34 0 22 1;
#X connect 35 0 34 1;
#X connect 36 0 34 0;
#X connect 39 0 37 0;
