#N canvas 532 169 697 901 10;
#X declare -path chair;
#X declare -path abstractions;
#N canvas 75 683 664 369 rotaries 0;
#X floatatom 114 264 5 0 0 0 - - -;
#X obj 283 195 * 9000;
#X floatatom 294 237 5 0 0 0 - - -;
#X obj 285 168 s \$0-led1;
#X obj 467 169 s \$0-led2;
#X obj 110 169 s \$0-led0;
#X obj 103 119 vsl 15 35 0 1 0 0 empty empty empty 0 -9 0 10 -262144
-1 -1 0 1;
#X obj 130 119 vsl 15 35 0 1 0 0 empty empty empty 0 -9 0 10 -262144
-1 -1 0 1;
#X obj 159 120 vsl 15 35 0.01 1 0 0 empty empty empty 0 -9 0 10 -262144
-1 -1 0 1;
#X obj 283 216 + 0;
#X obj 103 232 * 1;
#X obj 283 304 s \$0-lp;
#X obj 467 301 s \$0-timbre;
#X obj 104 300 s \$0-fb;
#X floatatom 490 266 5 0 0 0 - - -;
#X obj 467 220 * 2;
#X obj 103 18 ctlin 14 1;
#X obj 171 18 ctlin 15 1;
#X obj 243 18 ctlin 16 1;
#X obj 103 50 / 127;
#X obj 174 52 / 127;
#X obj 240 54 / 127;
#X connect 1 0 9 0;
#X connect 6 0 5 0;
#X connect 6 0 10 0;
#X connect 7 0 3 0;
#X connect 7 0 1 0;
#X connect 8 0 4 0;
#X connect 8 0 15 0;
#X connect 9 0 2 0;
#X connect 9 0 11 0;
#X connect 10 0 0 0;
#X connect 10 0 13 0;
#X connect 15 0 12 0;
#X connect 15 0 14 0;
#X connect 16 0 19 0;
#X connect 17 0 20 0;
#X connect 18 0 21 0;
#X connect 19 0 6 0;
#X connect 20 0 7 0;
#X connect 21 0 8 0;
#X coords 0 -1 1 1 85 60 1 100 100;
#X restore 111 153 pd rotaries;
#X obj 27 647 hip~ 4;
#X obj 341 26 declare -path chair;
#X obj 26 684 dac~;
#X obj 27 279 chair.gain~;
#X obj 27 510 chair.gain~;
#X obj 341 47 declare -path abstractions;
#X text 105 217 Rotaries:;
#X obj 26 375 chair.dc-offset~;
#X obj 221 316 tgl 15 0 empty \$0-active empty 17 7 0 10 -262144 -1
-1 1 1;
#N canvas 864 596 450 300 init 0;
#X obj 95 66 loadbang;
#X msg 96 93 1;
#X obj 96 116 s \$0-active;
#X connect 0 0 1 0;
#X connect 1 0 2 0;
#X restore 342 70 pd init;
#X obj 116 649 hip~ 4;
#X obj 26 341 chair.feedback-cancellation~ 50 1;
#X obj 26 613 chair.chrismoore-reverb~ 2368 2368 2467 0.921 0.138;
#X text 104 233 Feedback \, Cut-off \, Delay 2 Size;
#N canvas 0 50 450 300 (subpatch) 0;
#X array \$0-scope 1024 float 0;
#X coords 0 -1 1023 1 200 140 1 0 0;
#X restore 340 335 graph;
#X obj 338 573 tabwrite~ \$0-scope;
#X obj 338 518 metro 150;
#X obj 338 496 tgl 15 0 empty \$0-active empty 17 7 0 10 -262144 -1
-1 1 1;
#X obj 123 317 mtof;
#X obj 403 495 r \$0-touch;
#X obj 403 518 sel 1;
#X obj 403 544 del 10;
#X floatatom 442 519 5 0 0 0 - - -;
#X obj 27 475 clone simple-2D-waveguide 5 \$0;
#X obj 123 293 r \$0-midinote;
#X obj 28 149 adc~ 1;
#X obj 342 111 notein 1;
#X obj 342 139 stripnote;
#X floatatom 354 166 5 0 0 0 - - -;
#X obj 400 223 % 5;
#X obj 342 223 f;
#X obj 370 223 + 1;
#X obj 435 252 s \$0-midinote;
#X obj 342 190 t b f, f 16;
#X obj 342 252 s \$0-current;
#X obj 142 443 pack f f, f 14;
#X obj 223 420 r \$0-midinote;
#X obj 142 420 r \$0-current;
#X connect 1 0 3 0;
#X connect 4 0 12 0;
#X connect 5 0 16 0;
#X connect 5 0 13 0;
#X connect 8 0 24 0;
#X connect 9 0 12 2;
#X connect 11 0 3 1;
#X connect 12 0 8 0;
#X connect 13 0 1 0;
#X connect 13 1 11 0;
#X connect 17 0 16 0;
#X connect 18 0 17 0;
#X connect 19 0 12 1;
#X connect 20 0 21 0;
#X connect 21 0 22 0;
#X connect 22 0 16 0;
#X connect 23 0 22 1;
#X connect 24 0 5 0;
#X connect 25 0 19 0;
#X connect 26 0 4 0;
#X connect 27 0 28 0;
#X connect 27 1 28 1;
#X connect 28 0 29 0;
#X connect 28 0 34 0;
#X connect 30 0 31 1;
#X connect 31 0 32 0;
#X connect 31 0 35 0;
#X connect 32 0 30 0;
#X connect 34 0 31 0;
#X connect 34 1 33 0;
#X connect 36 0 24 1;
#X connect 37 0 36 1;
#X connect 38 0 36 0;
