#N canvas 586 139 916 901 10;
#X declare -path chair;
#X declare -path abstractions;
#X declare -path ../;
#X obj 37 549 hip~ 4;
#X obj 356 23 declare -path chair;
#X obj 36 586 dac~;
#X obj 38 230 chair.gain~;
#X obj 38 493 chair.gain~;
#X obj 356 44 declare -path abstractions;
#X text 120 163 Rotaries:;
#N canvas 354 244 463 284 instance-iteration 0;
#X obj 42 165 outlet;
#X obj 134 55 r \$0-midinote;
#X obj 42 56 r \$0-current;
#X obj 42 108 pack f f;
#X connect 1 0 3 1;
#X connect 2 0 3 0;
#X connect 3 0 0 0;
#X restore 209 433 pd instance-iteration;
#X obj 38 392 chair.dc-offset~;
#X obj 233 336 tgl 15 0 empty \$0-active empty 17 7 0 10 -262144 -1
-1 1 1;
#N canvas 864 596 450 300 init 0;
#X obj 95 66 loadbang;
#X msg 96 93 1;
#X obj 96 116 s \$0-active;
#X connect 0 0 1 0;
#X connect 1 0 2 0;
#X restore 357 67 pd init;
#X obj 38 358 chair.feedback-cancellation~ 50 1;
#X text 119 179 Feedback \, Cut-off \, Delay 2 Size;
#N canvas 0 50 450 300 (subpatch) 0;
#X array \$0-scope 1024 float 0;
#X coords 0 -1 1023 1 200 140 1 0 0;
#X restore 356 302 graph;
#X obj 355 555 tabwrite~ \$0-scope;
#X obj 355 503 metro 150;
#X obj 355 481 tgl 15 0 empty \$0-active empty 17 7 0 10 -262144 -1
-1 1 1;
#X obj 135 332 mtof;
#X obj 420 482 r \$0-touch;
#X obj 420 505 sel 1;
#X floatatom 459 507 5 0 0 0 - - -;
#X obj 38 458 clone karplus-dispersion 4 \$0;
#X obj 135 308 r \$0-midinote;
#X obj 420 531 del 0;
#X obj 355 100 notein 1;
#X obj 355 128 stripnote;
#X floatatom 367 155 5 0 0 0 - - -;
#X obj 355 212 f;
#X obj 383 212 + 1;
#X obj 448 241 s \$0-midinote;
#X obj 355 179 t b f, f 16;
#X obj 355 241 s \$0-current;
#X obj 37 95 adc~ 1;
#X obj 413 212 % 4;
#X obj 356 1 declare -path ../;
#N canvas 4 61 450 300 mapping 0;
#X obj 21 25 inlet;
#X obj 21 48 route 0 1 2;
#X obj 120 106 * 9000;
#X obj 120 162 s \$0-lp;
#X obj 183 162 s \$0-timbre;
#X obj 21 158 s \$0-fb;
#X obj 183 107 * 2;
#X obj 21 130 expr tanh($f1);
#X obj 21 103 * 4;
#X connect 0 0 1 0;
#X connect 1 0 8 0;
#X connect 1 1 2 0;
#X connect 1 2 6 0;
#X connect 2 0 3 0;
#X connect 6 0 4 0;
#X connect 7 0 5 0;
#X connect 8 0 7 0;
#X restore 124 128 pd mapping;
#X obj 124 56 chair.encoders;
#X connect 0 0 2 0;
#X connect 0 0 2 1;
#X connect 3 0 11 0;
#X connect 4 0 14 0;
#X connect 4 0 0 0;
#X connect 7 0 21 1;
#X connect 8 0 21 0;
#X connect 9 0 11 2;
#X connect 11 0 8 0;
#X connect 15 0 14 0;
#X connect 16 0 15 0;
#X connect 17 0 11 1;
#X connect 18 0 19 0;
#X connect 19 0 23 0;
#X connect 20 0 23 1;
#X connect 21 0 4 0;
#X connect 22 0 17 0;
#X connect 23 0 14 0;
#X connect 24 0 25 0;
#X connect 24 1 25 1;
#X connect 25 0 26 0;
#X connect 25 0 30 0;
#X connect 27 0 28 0;
#X connect 27 0 31 0;
#X connect 28 0 33 0;
#X connect 30 0 27 0;
#X connect 30 1 29 0;
#X connect 32 0 3 0;
#X connect 33 0 27 1;
#X connect 36 0 35 0;
