#N canvas 542 217 1321 821 10;
#X declare -path abstractions;
#X declare -lib chair;
#X obj 44 587 dac~;
#X obj 633 393 hsl 128 15 0 1 0 0 empty empty empty -2 -8 0 10 -262144
-1 -1 8432 1;
#X floatatom 936 387 5 0 0 0 - - -;
#X text 931 366 get an integer division of string;
#X msg 664 325 0.5;
#X msg 788 325 0.2;
#X msg 822 325 0.16667;
#X msg 942 325 0.125;
#X msg 630 325 0;
#X msg 788 301 0.4;
#X msg 883 301 0.28574;
#X msg 883 325 0.14286;
#X msg 990 325 0.11111;
#X msg 696 325 0.33333;
#X msg 696 301 0.66667;
#X msg 990 301 0.22222;
#X msg 1050 325 0.1;
#X msg 1085 325 0.090909;
#X msg 1085 301 0.181818;
#X text 838 275 harmonic nodes;
#X floatatom 630 506 8 0 0 0 - - -;
#X text 663 415 del time offset multiplier;
#X floatatom 1019 399 5 0 0 0 - - -;
#X obj 936 413 expr 1./$f1;
#X msg 751 325 0.25;
#X msg 943 299 0.375;
#X msg 989 277 0.44444;
#X msg 1050 302 0.3;
#X msg 1085 278 0.545455;
#X obj 1019 425 expr 1 - (1./$f1);
#X obj 249 32 declare -path abstractions;
#X obj 249 55 declare -lib chair;
#X obj 43 357 chair.gain~;
#X obj 43 522 chair.gain~;
#X obj 630 592 s \$0-offset;
#X msg 599 188 1 \$1;
#N canvas 79 704 664 369 rotaries 0;
#X floatatom 136 275 5 0 0 0 - - -;
#X obj 283 195 * 9000;
#X floatatom 294 237 5 0 0 0 - - -;
#X obj 285 168 s \$0-led1;
#X obj 467 169 s \$0-led2;
#X obj 110 169 s \$0-led0;
#X obj 103 119 vsl 15 35 0 1 0 0 empty empty empty 0 -9 0 10 -262144
-1 -1 3293 1;
#X obj 130 119 vsl 15 35 0 1 0 0 empty empty empty 0 -9 0 10 -262144
-1 -1 2811 1;
#X obj 159 120 vsl 15 35 0 1 0 0 empty empty empty 0 -9 0 10 -262144
-1 -1 910 1;
#X obj 467 220 * 1;
#X obj 283 304 s \$0-lp;
#X obj 103 298 s \$0-feedback;
#X obj 103 219 sqrt;
#X obj 103 243 sqrt;
#X obj 283 216 + 500;
#X obj 467 301 s \$0-x;
#X obj 103 18 ctlin 14 1;
#X obj 171 18 ctlin 15 1;
#X obj 243 18 ctlin 16 1;
#X obj 103 50 / 127;
#X obj 174 52 / 127;
#X obj 240 54 / 127;
#X connect 1 0 14 0;
#X connect 6 0 5 0;
#X connect 6 0 12 0;
#X connect 7 0 3 0;
#X connect 7 0 1 0;
#X connect 8 0 4 0;
#X connect 8 0 9 0;
#X connect 9 0 15 0;
#X connect 12 0 13 0;
#X connect 13 0 11 0;
#X connect 13 0 0 0;
#X connect 14 0 2 0;
#X connect 14 0 10 0;
#X connect 16 0 19 0;
#X connect 17 0 20 0;
#X connect 18 0 21 0;
#X connect 19 0 6 0;
#X connect 20 0 7 0;
#X connect 21 0 8 0;
#X coords 0 -1 1 1 85 60 1 100 100;
#X restore 139 203 pd rotaries;
#X obj 299 319 r \$0-feedback;
#X floatatom 299 343 5 0 0 0 - - -;
#X obj 42 447 chair.feedback-cancellation~ 50 1;
#X text 124 264 Rotaries: Feedback \, Lowpass \, none;
#X obj 630 538 list prepend;
#X obj 630 566 list trim;
#X obj 699 511 r \$0-current;
#X obj 42 477 clone karplus-division 14 \$0;
#X msg 464 417 ratios;
#X msg 454 395 isomorphic;
#X msg 446 372 chromatic;
#X msg 435 347 b_minor;
#X msg 421 321 g_major;
#X obj 404 447 s \$0-tuning;
#X text 415 676 Based on a Patch by Richard Dudas \, 2018;
#X obj 44 151 adc~ 1;
#X obj 368 124 notein 1;
#X obj 368 152 stripnote;
#X floatatom 380 179 5 0 0 0 - - -;
#X obj 461 265 s \$0-midinote;
#X obj 368 265 s \$0-current;
#X obj 368 235 % 14;
#X obj 368 203 t f f, f 16;
#X obj 599 71 bendin;
#X floatatom 611 98 5 0 0 0 - - -;
#X obj 599 231 - 1;
#X floatatom 666 163 5 0 0 0 - - -;
#X floatatom 666 189 5 0 0 0 - - -;
#X floatatom 667 255 5 0 0 0 - - -;
#X obj 599 140 / 16383;
#X connect 1 0 20 0;
#X connect 2 0 23 0;
#X connect 4 0 1 0;
#X connect 5 0 1 0;
#X connect 6 0 1 0;
#X connect 7 0 1 0;
#X connect 8 0 1 0;
#X connect 9 0 1 0;
#X connect 10 0 1 0;
#X connect 11 0 1 0;
#X connect 12 0 1 0;
#X connect 13 0 1 0;
#X connect 14 0 1 0;
#X connect 15 0 1 0;
#X connect 16 0 1 0;
#X connect 17 0 1 0;
#X connect 18 0 1 0;
#X connect 20 0 41 0;
#X connect 22 0 29 0;
#X connect 23 0 1 0;
#X connect 24 0 1 0;
#X connect 25 0 1 0;
#X connect 26 0 1 0;
#X connect 27 0 1 0;
#X connect 28 0 1 0;
#X connect 29 0 1 0;
#X connect 32 0 39 0;
#X connect 33 0 0 0;
#X connect 33 0 0 1;
#X connect 35 0 62 0;
#X connect 37 0 38 0;
#X connect 39 0 44 0;
#X connect 41 0 42 0;
#X connect 42 0 34 0;
#X connect 43 0 41 1;
#X connect 44 0 33 0;
#X connect 45 0 50 0;
#X connect 46 0 50 0;
#X connect 47 0 50 0;
#X connect 48 0 50 0;
#X connect 49 0 50 0;
#X connect 52 0 32 0;
#X connect 53 0 54 0;
#X connect 53 1 54 1;
#X connect 54 0 55 0;
#X connect 54 0 59 0;
#X connect 58 0 57 0;
#X connect 59 0 58 0;
#X connect 59 1 56 0;
#X connect 60 0 61 0;
#X connect 60 0 66 0;
#X connect 62 0 65 0;
#X connect 62 0 1 0;
#X connect 66 0 64 0;
#X connect 66 0 35 0;
