#N canvas 249 125 851 579 10;
#X declare -path chair;
#X declare -path ../;
#X obj 17 508 dac~;
#X floatatom 77 214 5 0 0 0 - - -;
#X obj 59 28 notein;
#X obj 59 97 mtof;
#X obj 59 160 / 1;
#X obj 16 336 adc~ 1;
#X text 185 33 lowpass;
#X text 278 32 rotation/timbre;
#X text 235 34 decay;
#X obj 293 183 hsl 128 15 0 100 0 0 empty empty empty -2 -8 0 10 -262144
-1 -1 6297 1;
#X obj 313 257 hsl 128 15 0.01 1 1 0 empty empty empty -2 -8 0 10 -262144
-1 -1 0 1;
#X obj 290 227 osc~;
#X obj 289 281 *~ 0;
#X floatatom 301 205 5 0 0 0 - - -;
#X obj 288 317 +~;
#X obj 60 362 *~;
#N canvas 879 470 859 570 two-delay-rotation 0;
#X obj 50 28 block~ 1;
#X obj 45 269 inlet~;
#X obj 240 503 outlet~;
#X obj 117 360 +~;
#X obj 130 161 *~;
#X obj 116 450 clip~ -10 10;
#X obj 116 502 delwrite~ ted1 1000;
#X obj 439 501 outlet~;
#X obj 309 358 +~;
#X obj 291 162 *~;
#X obj 309 453 clip~ -10 10;
#X obj 309 501 delwrite~ ted2 1000;
#X obj 45 303 hip~ 10;
#X obj 131 268 *~;
#X obj 172 267 *~;
#X obj 323 267 *~;
#X obj 363 267 *~;
#X obj 324 299 +~, f 7;
#X obj 132 299 -~, f 7;
#X obj 308 417 lop~ 4000;
#X obj 116 415 lop~ 4000;
#X obj 306 19 inlet;
#X obj 670 65 inlet;
#X obj 670 148 * 12000;
#X obj 443 163 cos~;
#X obj 490 165 -~ 0.25;
#X obj 490 192 cos~;
#X obj 444 61 inlet~;
#X obj 129 133 delread4~ ted1 10;
#X obj 290 134 delread4~ ted2 10;
#X obj 128 67 inlet~;
#X text 419 128 quadratur oscillator / calculated by psoc? -> needs
two outputs!, f 33;
#X text 405 266 4 * 4 quadrant multiplier;
#X text 187 300 differential opamp;
#X text 373 300 summing opamp;
#X text 150 362 summing opamp;
#X text 341 358 summing opamp;
#X text 391 405 2 x VCF;
#X floatatom 354 56 5 0 0 0 - - -;
#X obj 306 81 line~;
#X msg 306 56 \$1 10;
#X obj 454 358 t f f;
#X connect 1 0 12 0;
#X connect 3 0 20 0;
#X connect 4 0 13 0;
#X connect 4 0 15 0;
#X connect 5 0 2 0;
#X connect 5 0 6 0;
#X connect 8 0 19 0;
#X connect 9 0 14 0;
#X connect 9 0 16 0;
#X connect 10 0 7 0;
#X connect 10 0 11 0;
#X connect 12 0 3 0;
#X connect 12 0 8 0;
#X connect 13 0 18 0;
#X connect 14 0 18 1;
#X connect 15 0 17 0;
#X connect 16 0 17 1;
#X connect 17 0 8 1;
#X connect 18 0 3 1;
#X connect 19 0 10 0;
#X connect 20 0 5 0;
#X connect 21 0 38 0;
#X connect 21 0 40 0;
#X connect 22 0 23 0;
#X connect 23 0 41 0;
#X connect 24 0 13 1;
#X connect 24 0 16 1;
#X connect 25 0 26 0;
#X connect 26 0 15 1;
#X connect 26 0 14 1;
#X connect 27 0 24 0;
#X connect 27 0 25 0;
#X connect 28 0 4 0;
#X connect 29 0 9 0;
#X connect 30 0 28 0;
#X connect 30 0 29 0;
#X connect 39 0 4 1;
#X connect 39 0 9 1;
#X connect 40 0 39 0;
#X connect 41 0 20 1;
#X connect 41 1 19 1;
#X restore 17 388 pd two-delay-rotation;
#X f 29;
#X obj 287 353 *~ 0.5;
#X obj 59 63 stripnote;
#X obj 59 238 sig~;
#X msg 59 128 1 \$1;
#X floatatom 99 96 5 0 0 0 - - -;
#X obj 59 189 * 1000;
#X obj 413 86 declare -path chair;
#X obj 413 63 declare -path ../;
#X obj 188 260 route 0 1 2;
#X obj 188 65 chair.encoders 0.8 0.9 0.2;
#X obj 290 139 ctlin 1;
#X obj 290 162 * 0.787;
#X obj 17 435 chair.stereogain~;
#X obj 17 481 hip~ 4;
#X obj 62 481 hip~ 4;
#X obj 514 155 chair.touch.pos.relative;
#X floatatom 364 287 5 0 0 0 - - -;
#X obj 472 294 abs;
#X obj 215 364 *;
#X obj 211 341 t f f;
#X obj 210 317 -;
#X msg 211 288 1 \$1;
#X obj 214 390 * -1;
#X obj 216 415 + 1;
#X connect 2 0 18 0;
#X connect 2 1 18 1;
#X connect 3 0 20 0;
#X connect 4 0 22 0;
#X connect 5 0 16 0;
#X connect 9 0 11 0;
#X connect 9 0 13 0;
#X connect 10 0 12 1;
#X connect 10 0 33 0;
#X connect 11 0 12 0;
#X connect 12 0 14 0;
#X connect 14 0 17 0;
#X connect 14 0 15 1;
#X connect 15 0 16 1;
#X connect 16 0 29 0;
#X connect 16 1 29 1;
#X connect 17 0 16 3;
#X connect 18 0 3 0;
#X connect 18 0 21 0;
#X connect 19 0 15 0;
#X connect 20 0 4 0;
#X connect 22 0 1 0;
#X connect 22 0 19 0;
#X connect 25 0 16 4;
#X connect 25 1 38 0;
#X connect 25 2 14 1;
#X connect 26 0 25 0;
#X connect 27 0 28 0;
#X connect 28 0 9 0;
#X connect 29 0 30 0;
#X connect 29 1 31 0;
#X connect 30 0 0 0;
#X connect 31 0 0 1;
#X connect 32 0 34 0;
#X connect 34 0 10 0;
#X connect 35 0 39 0;
#X connect 36 0 35 0;
#X connect 36 1 35 1;
#X connect 37 0 36 0;
#X connect 38 0 37 0;
#X connect 39 0 40 0;
#X connect 40 0 16 2;
