#N canvas 564 180 527 643 10;
#X declare -path chair;
#X declare -path abstractions;
#X declare -path ../;
#X obj 292 52 declare -path chair;
#X obj 292 74 declare -path abstractions;
#X obj 61 532 dac~;
#X obj 61 497 hip~ 4;
#X obj 223 242 tgl 15 0 empty \$0-active empty 17 7 0 10 -262144 -1
-1 1 1;
#X text 59 118 Rotaries:;
#X obj 252 375 pack f f;
#X obj 62 443 chair.stereogain~;
#X obj 104 498 hip~ 4;
#X text 58 134 Dynamic-level \, Decay \, Brightness;
#X obj 60 262 chair.feedback-cancellation~;
#N canvas 4 181 450 300 init 0;
#X obj 37 37 loadbang;
#X msg 37 60 1;
#X obj 37 83 s \$0-active;
#X connect 0 0 1 0;
#X connect 1 0 2 0;
#X restore 292 97 pd init;
#X obj 61 407 clone karplus-faustgen 14 \$0;
#X obj 60 224 adc~ 1;
#N canvas 0 23 450 300 position 0;
#X obj 47 121 s \$0-xy;
#X obj 36 17 ctlin 12;
#X obj 107 17 ctlin 13;
#X obj 46 96 pack 0 0;
#X obj 103 74 t b f;
#X obj 36 49 / 127;
#X obj 107 48 / 127;
#X connect 1 0 5 0;
#X connect 2 0 6 0;
#X connect 3 0 0 0;
#X connect 4 0 3 0;
#X connect 4 1 3 1;
#X connect 5 0 3 0;
#X connect 6 0 4 0;
#X restore 60 171 pd position;
#X obj 252 203 notein 1;
#X obj 315 377 s \$0-current;
#X obj 252 260 change;
#X obj 252 316 % 14;
#X obj 252 286 t f f;
#X obj 252 234 stripnote;
#X obj 252 349 t f f, f 11;
#X obj 292 29 declare -path ../;
#N canvas 4 61 450 300 mapping 0;
#X obj 17 28 inlet;
#X obj 17 51 route 0 1 2;
#X obj 198 239 s \$0-bend;
#X obj 17 238 s \$0-sustain;
#X obj 99 239 s \$0-damping;
#X obj 99 167 - 1;
#X obj 99 214 *;
#X obj 99 190 t f f;
#X connect 0 0 1 0;
#X connect 1 0 3 0;
#X connect 1 1 5 0;
#X connect 1 2 2 0;
#X connect 5 0 7 0;
#X connect 6 0 4 0;
#X connect 7 0 6 0;
#X connect 7 1 6 1;
#X restore 60 96 pd mapping;
#X obj 60 30 chair.encoders;
#X connect 3 0 2 0;
#X connect 4 0 10 2;
#X connect 6 0 12 1;
#X connect 7 0 3 0;
#X connect 7 1 8 0;
#X connect 8 0 2 1;
#X connect 10 0 12 0;
#X connect 12 0 7 0;
#X connect 12 1 7 1;
#X connect 13 0 10 0;
#X connect 15 0 20 0;
#X connect 15 1 20 1;
#X connect 17 0 19 0;
#X connect 18 0 21 0;
#X connect 19 0 18 0;
#X connect 19 1 6 1;
#X connect 20 0 17 0;
#X connect 21 0 6 0;
#X connect 21 1 16 0;
#X connect 24 0 23 0;
