#N canvas 449 121 599 526 10;
#X declare -path chair;
#X declare -path abstractions;
#X declare -path ../;
#X obj 334 44 declare -path chair;
#X obj 334 66 declare -path abstractions;
#X obj 337 309 hsl 128 15 0 0.9 0 0 empty empty empty -2 -8 0 10 -262144
-1 -1 0 1;
#X obj 338 258 hsl 128 15 0.02 0.5 0 0 empty empty empty -2 -8 0 10
-262144 -1 -1 0 1;
#X obj 27 439 dac~;
#X obj 27 404 hip~ 4;
#X obj 191 78 tgl 15 0 empty \$0-active empty 17 7 0 10 -262144 -1
-1 1 1;
#X text 333 203 Rotaries:;
#X obj 335 328 s \$0-pick_angle;
#X obj 335 276 s \$0-pick_position;
#X obj 28 350 chair.stereogain~;
#X obj 70 405 hip~ 4;
#X text 332 219 Dynamic-level \, Decay \, Brightness;
#X obj 27 68 *~ 2.5;
#X obj 336 361 hsl 128 15 0 1 0 0 empty empty empty -2 -8 0 10 -262144
-1 -1 0 1;
#X obj 333 380 s \$0-center-panned_spatial_width;
#X obj 335 415 hsl 128 15 0 1 0 0 empty empty empty -2 -8 0 10 -262144
-1 -1 0 1;
#X obj 332 434 s \$0-pan_angle;
#X obj 27 314 clone eks-faustgen 14 \$0;
#X obj 28 98 chair.feedback-cancellation~;
#N canvas 4 181 450 300 init 0;
#X obj 37 37 loadbang;
#X msg 37 60 1;
#X obj 37 83 s \$0-active;
#X connect 0 0 1 0;
#X connect 1 0 2 0;
#X restore 334 89 pd init;
#X obj 28 33 adc~ 1;
#X obj 168 137 notein 1;
#X obj 231 282 s \$0-current;
#X obj 168 225 % 14;
#X obj 168 169 stripnote;
#X obj 168 250 t f f, f 11;
#X obj 168 280 pack f f;
#X obj 168 200 t f f, f 8;
#X obj 333 22 declare -path ../;
#N canvas 4 61 450 300 mapping 0;
#X obj 17 21 inlet;
#X obj 17 44 route 0 1 2;
#X obj 137 122 * 10;
#X obj 249 167 s \$0-brightness;
#X obj 137 165 s \$0-decaytime;
#X obj 17 165 s \$0-dynamic_level;
#X obj 17 118 * 60;
#X obj 17 141 - 60;
#X connect 0 0 1 0;
#X connect 1 0 6 0;
#X connect 1 1 2 0;
#X connect 1 2 3 0;
#X connect 2 0 4 0;
#X connect 6 0 7 0;
#X connect 7 0 5 0;
#X restore 335 179 pd mapping;
#X obj 335 114 chair.encoders;
#X connect 2 0 8 0;
#X connect 3 0 9 0;
#X connect 5 0 4 0;
#X connect 6 0 19 2;
#X connect 10 0 5 0;
#X connect 10 1 11 0;
#X connect 11 0 4 1;
#X connect 13 0 19 0;
#X connect 14 0 15 0;
#X connect 16 0 17 0;
#X connect 18 0 10 0;
#X connect 18 1 10 1;
#X connect 19 0 18 0;
#X connect 21 0 13 0;
#X connect 22 0 25 0;
#X connect 22 1 25 1;
#X connect 24 0 26 0;
#X connect 25 0 28 0;
#X connect 26 0 27 0;
#X connect 26 1 23 0;
#X connect 27 0 18 1;
#X connect 28 0 24 0;
#X connect 28 1 27 1;
#X connect 31 0 30 0;
