#N canvas 683 213 916 901 10;
#X declare -path chair;
#X declare -path abstractions;
#X obj 39 29 tgl 15 0 empty empty empty 17 7 0 10 -262144 -1 -1 1 1
;
#N canvas 75 683 664 369 rotaries 0;
#X obj 103 25 inlet;
#X obj 283 195 * 9000;
#X obj 285 168 s \$0-led1;
#X obj 467 169 s \$0-led2;
#X obj 110 169 s \$0-led0;
#X obj 103 119 vsl 15 35 0.1 1 0 0 empty empty empty 0 -9 0 10 -262144
-1 -1 1669 1;
#X obj 103 49 route 0 1 2;
#X obj 130 119 vsl 15 35 0 1 0 0 empty empty empty 0 -9 0 10 -262144
-1 -1 2550 1;
#X obj 159 120 vsl 15 35 0.01 1 0 0 empty empty empty 0 -9 0 10 -262144
-1 -1 1397 1;
#X obj 354 7 loadbang;
#X obj 283 73 chair.rotary-limit-range 24;
#X obj 465 73 chair.rotary-limit-range 24;
#X msg 396 40 10;
#X obj 283 304 s \$0-lp;
#X obj 467 301 s \$0-timbre;
#X obj 103 304 s \$0-fb;
#X obj 467 220 * 2;
#X obj 103 73 chair.rotary-limit-range 48;
#X obj 103 276 expr tanh($f1);
#X obj 103 197 * 4;
#X msg 325 38 24;
#X msg 361 37 16;
#X connect 0 0 6 0;
#X connect 1 0 13 0;
#X connect 5 0 4 0;
#X connect 5 0 19 0;
#X connect 6 0 17 0;
#X connect 6 1 10 0;
#X connect 6 2 11 0;
#X connect 7 0 2 0;
#X connect 7 0 1 0;
#X connect 8 0 3 0;
#X connect 8 0 16 0;
#X connect 9 0 21 0;
#X connect 9 0 20 0;
#X connect 9 0 12 0;
#X connect 10 0 7 0;
#X connect 11 0 8 0;
#X connect 12 0 11 1;
#X connect 16 0 14 0;
#X connect 17 0 5 0;
#X connect 18 0 15 0;
#X connect 19 0 18 0;
#X connect 20 0 17 1;
#X connect 21 0 10 1;
#X coords 0 -1 1 1 85 60 1 100 100;
#X restore 128 195 pd rotaries;
#X obj 438 336 s \$0-midinote;
#X floatatom 455 237 5 0 0 0 - - -;
#X floatatom 454 307 5 0 0 0 - - -;
#X msg 55 55 info;
#X obj 39 680 hip~ 4;
#X obj 156 325 s \$0-xy;
#X obj 75 325 s \$0-touch;
#X obj 356 130 r \$0-xy;
#X obj 181 173 s \$0-updown;
#X obj 486 22 declare -path chair;
#N canvas 941 662 464 257 LED 0;
#X obj 69 185 outlet;
#X obj 35 33 r \$0-led0;
#X obj 144 33 r \$0-led1;
#X obj 243 36 r \$0-led2;
#X msg 35 68 led 0 \$1 0 \$1;
#X msg 144 71 led 1 0 \$1 \$1;
#X msg 243 74 led 2 \$1 \$1 0;
#X connect 1 0 4 0;
#X connect 2 0 5 0;
#X connect 3 0 6 0;
#X connect 4 0 0 0;
#X connect 5 0 0 0;
#X connect 6 0 0 0;
#X restore 67 87 pd LED;
#X obj 38 717 dac~;
#X obj 438 211 chair.hex-tuning;
#X obj 356 152 chair.hex-mapping;
#X obj 132 386 r \$0-touch;
#X obj 38 360 chair.gain~;
#X obj 356 260 s \$0-current;
#X obj 40 624 chair.gain~;
#X obj 567 236 r \$0-updown;
#X obj 438 256 chair.transpose-oct -2;
#X msg 551 173 g_major;
#X msg 607 173 b_minor;
#X obj 486 43 declare -path abstractions;
#X text 124 259 Rotaries:;
#X obj 75 297 chair.capsense;
#N canvas 354 244 463 284 instance-iteration 0;
#X obj 42 165 outlet;
#X obj 134 55 r \$0-midinote;
#X obj 42 56 r \$0-current;
#X obj 42 108 pack f f;
#X connect 1 0 3 1;
#X connect 2 0 3 0;
#X connect 3 0 0 0;
#X restore 211 564 pd instance-iteration;
#X obj 39 412 chair.touchgate~;
#X obj 40 523 chair.dc-offset~;
#X obj 235 467 tgl 15 0 empty \$0-active empty 17 7 0 10 -262144 -1
-1 1 1;
#X obj 356 184 t f f;
#N canvas 864 596 450 300 init 0;
#X obj 95 66 loadbang;
#X msg 96 93 1;
#X obj 96 116 s \$0-active;
#X connect 0 0 1 0;
#X connect 1 0 2 0;
#X restore 487 66 pd init;
#X obj 40 489 chair.feedback-cancellation~ 50 1;
#X text 123 275 Feedback \, Cut-off \, Delay 2 Size;
#N canvas 0 50 450 300 (subpatch) 0;
#X array \$0-scope 1024 float 0;
#X coords 0 -1 1023 1 200 140 1 0 0;
#X restore 356 432 graph;
#X obj 355 685 tabwrite~ \$0-scope;
#X obj 355 633 metro 150;
#X obj 355 611 tgl 15 0 empty \$0-active empty 17 7 0 10 -262144 -1
-1 1 1;
#X msg 483 173 chromatic;
#X obj 483 146 loadbang;
#X obj 137 463 mtof;
#X obj 420 612 r \$0-touch;
#X obj 420 635 sel 1;
#X floatatom 459 637 5 0 0 0 - - -;
#X text 200 35 ----- under construction -----;
#X obj 75 145 route position rotary button latency;
#X floatatom 258 174 5 0 0 0 - - -;
#X obj 40 589 clone karplus-dispersion 4 \$0;
#X obj 39 119 tickle~;
#X msg 135 94 latency \$1;
#X floatatom 135 70 5 96 2304 0 - - -;
#X obj 137 439 r \$0-midinote;
#X obj 420 661 del 0;
#X obj 356 219 % 4;
#X connect 0 0 49 0;
#X connect 5 0 49 0;
#X connect 6 0 13 0;
#X connect 6 0 13 1;
#X connect 9 0 15 0;
#X connect 12 0 49 0;
#X connect 14 0 3 0;
#X connect 14 0 21 0;
#X connect 15 0 31 0;
#X connect 16 0 28 1;
#X connect 17 0 28 0;
#X connect 19 0 36 0;
#X connect 19 0 6 0;
#X connect 20 0 21 1;
#X connect 21 0 4 0;
#X connect 21 0 2 0;
#X connect 22 0 14 1;
#X connect 23 0 14 1;
#X connect 26 0 8 0;
#X connect 26 1 7 0;
#X connect 27 0 48 1;
#X connect 28 0 33 0;
#X connect 29 0 48 0;
#X connect 30 0 33 2;
#X connect 31 0 54 0;
#X connect 31 1 14 0;
#X connect 33 0 29 0;
#X connect 37 0 36 0;
#X connect 38 0 37 0;
#X connect 39 0 14 1;
#X connect 40 0 39 0;
#X connect 41 0 33 1;
#X connect 42 0 43 0;
#X connect 43 0 53 0;
#X connect 44 0 53 1;
#X connect 46 0 26 0;
#X connect 46 1 1 0;
#X connect 46 2 10 0;
#X connect 46 3 47 0;
#X connect 48 0 19 0;
#X connect 49 0 17 0;
#X connect 49 1 46 0;
#X connect 50 0 49 0;
#X connect 51 0 50 0;
#X connect 52 0 41 0;
#X connect 53 0 36 0;
#X connect 54 0 18 0;
