#N canvas 709 344 1036 712 10;
#X declare -path chair;
#X declare -path abstractions;
#X declare -lib pmpd;
#X obj 468 29 declare -path chair;
#X obj 468 51 declare -path abstractions;
#X floatatom 475 501 5 2 11 0 - - -;
#X obj 475 445 loadbang;
#N canvas 613 615 652 389 rotaries 0;
#X obj 285 168 s \$0-led1;
#X obj 467 169 s \$0-led2;
#X obj 110 169 s \$0-led0;
#X obj 103 119 vsl 15 35 0 1 0 0 empty empty empty 0 -9 0 10 -262144
-1 -1 1044 1;
#X obj 130 119 vsl 15 35 0 1 0 0 empty empty empty 0 -9 0 10 -262144
-1 -1 1205 1;
#X obj 159 120 vsl 15 35 0 1 0 0 empty empty empty 0 -9 0 10 -262144
-1 -1 2704 1;
#X obj 103 298 s \$0-invol;
#X obj 103 232 * 60;
#X obj 103 264 - 30;
#X obj 284 298 s \$0-damping;
#X obj 284 239 * -0.2;
#X obj 284 267 + 0.2001;
#X msg 280 39 18;
#X msg 329 37 5;
#X obj 295 17 loadbang;
#X msg 375 36 6;
#X obj 94 17 ctlin 14;
#X obj 94 42 / 127;
#X obj 157 41 / 127;
#X obj 218 41 / 127;
#X obj 157 16 ctlin 15;
#X obj 218 16 ctlin 16;
#X connect 3 0 2 0;
#X connect 3 0 7 0;
#X connect 4 0 0 0;
#X connect 4 0 10 0;
#X connect 7 0 8 0;
#X connect 8 0 6 0;
#X connect 10 0 11 0;
#X connect 11 0 9 0;
#X connect 12 0 17 0;
#X connect 13 0 18 0;
#X connect 14 0 12 0;
#X connect 14 0 13 0;
#X connect 14 0 15 0;
#X connect 15 0 19 0;
#X connect 16 0 17 0;
#X connect 17 0 3 0;
#X connect 18 0 4 0;
#X connect 19 0 5 0;
#X connect 20 0 18 0;
#X connect 21 0 19 0;
#X coords 0 -1 1 1 85 60 1 100 100;
#X restore 70 190 pd rotaries;
#X obj 31 662 dac~;
#X obj 196 378 tgl 15 0 empty \$0-active empty 17 7 0 10 -262144 -1
-1 1 1;
#X obj 31 402 chair.feedback-cancellation~;
#X obj 298 319 until;
#X msg 298 296 14;
#X obj 298 349 f;
#X obj 329 349 + 1;
#X obj 298 265 t b b;
#X msg 347 319 0;
#X obj 298 491 pack f f;
#X obj 298 379 t f f;
#X obj 309 222 loadbang;
#X obj 96 312 r \$0-invol;
#X msg 298 119 bang;
#X obj 468 74 declare -lib pmpd;
#X text 606 159 In this example we are using the Physical Modelling
for Pure Data (pmpd) library \, and in particular the pmpd~-object
to create pysical simulations of resonators.;
#X text 606 212 It is also possible to create simulations which are
impossible in reality \, such as a circular string.;
#X text 296 100 rebuild networks;
#X obj 475 525 s \$0-gridsize;
#X msg 475 476 5;
#X text 604 437 You may change these parameters \, but they will only
have an effect if the networks in the pmpd~ objects are rebuild.,
f 38;
#X text 604 305 The right rotary has no function in this patch.;
#X text 605 343 The amount of masses will change the tuning \, as will
the tension of the springs between the masses. If the tension is either
too stiff or too loose you won't hear anything.;
#X obj 32 337 chair.gain~;
#X obj 31 572 chair.stereogain~;
#X text 608 258 First rotary is input volume \, second rotary is the
damping (decay) \, but is only updated when rebuilding the network.
;
#X obj 32 533 clone square-plate 14 \$0;
#X obj 79 625 hip~ 4;
#X obj 31 626 hip~ 4;
#X text 67 253 Rotaries:;
#X text 66 269 Volume \, Decay \, NONE;
#X obj 31 113 adc~ 1;
#N canvas 4 121 450 300 init 0;
#X obj 206 111 loadbang;
#X msg 206 134 1;
#X obj 206 157 s \$0-active;
#X connect 0 0 1 0;
#X connect 1 0 2 0;
#X restore 468 97 pd init;
#X obj 476 217 notein 1;
#X obj 476 353 s \$0-current;
#X obj 476 286 - 48;
#X obj 476 251 stripnote;
#X floatatom 537 296 5 0 0 0 - - -;
#X floatatom 522 334 5 0 0 0 - - -;
#X obj 476 313 mod 14;
#X obj 343 456 + 48;
#X connect 2 0 23 0;
#X connect 3 0 24 0;
#X connect 6 0 7 2;
#X connect 7 0 31 0;
#X connect 8 0 10 0;
#X connect 9 0 8 0;
#X connect 10 0 11 0;
#X connect 10 0 15 0;
#X connect 11 0 10 1;
#X connect 12 0 9 0;
#X connect 12 1 13 0;
#X connect 13 0 10 1;
#X connect 14 0 31 1;
#X connect 15 0 14 0;
#X connect 15 1 45 0;
#X connect 16 0 12 0;
#X connect 17 0 28 1;
#X connect 18 0 12 0;
#X connect 24 0 2 0;
#X connect 28 0 7 0;
#X connect 29 0 33 0;
#X connect 29 1 32 0;
#X connect 31 0 29 0;
#X connect 31 1 29 1;
#X connect 32 0 5 1;
#X connect 33 0 5 0;
#X connect 36 0 28 0;
#X connect 38 0 41 0;
#X connect 38 1 41 1;
#X connect 40 0 44 0;
#X connect 41 0 40 0;
#X connect 41 0 42 0;
#X connect 44 0 39 0;
#X connect 44 0 43 0;
#X connect 45 0 14 1;
