#N canvas 688 480 897 742 10;
#X declare -path chair;
#X declare -path abstractions;
#X declare -lib pmpd;
#X declare -path ../;
#X declare -path pmpd;
#X obj 432 65 declare -path chair;
#X obj 432 87 declare -path abstractions;
#X obj 32 570 hip~ 4;
#X obj 31 604 dac~;
#X obj 197 330 tgl 15 0 empty \$0-active empty 17 7 0 10 -262144 -1
-1 1 1;
#X obj 32 354 chair.feedback-cancellation~;
#X obj 97 253 r \$0-invol;
#X obj 432 110 declare -lib pmpd;
#X text 433 226 In this example we are using the Physical Modelling
for Pure Data (pmpd) library \, and in particular the pmpd~-object
to create pysical simulations of resonators.;
#X text 431 342 The right rotary has no function in this patch.;
#X obj 33 275 chair.gain~;
#X text 430 299 First rotary is input volume \, second rotary is the
damping (decay) \, but is only updated when rebuilding the network.
;
#X text 33 139 Rotaries:;
#X text 32 155 Volume \, Damping \, NONE;
#X obj 32 515 chair.stereogain~;
#X obj 76 570 hip~ 4;
#X obj 33 476 clone disk-gong 14 \$0;
#N canvas 1234 749 450 300 init 0;
#X obj 68 16 loadbang;
#X msg 68 39 1;
#X obj 68 62 s \$0-active;
#X connect 0 0 1 0;
#X connect 1 0 2 0;
#X restore 431 132 pd init;
#X obj 258 42 notein 1;
#X obj 258 137 s \$0-current;
#X obj 257 307 until;
#X msg 257 284 14;
#X obj 257 337 f;
#X obj 288 337 + 1;
#X obj 257 253 t b b;
#X msg 313 294 0;
#X obj 257 427 pack f f;
#X obj 257 367 t f f;
#X obj 257 210 loadbang;
#X msg 281 232 bang;
#X obj 33 241 adc~ 1;
#X obj 258 92 - 36;
#X obj 284 394 + 36;
#X obj 258 115 mod 14;
#X obj 258 69 stripnote;
#N canvas 4 61 450 300 mapping 0;
#X obj 16 14 inlet;
#X obj 16 37 route 0 1 2;
#X obj 16 138 s \$0-invol;
#X obj 16 72 * 60;
#X obj 16 104 - 30;
#X obj 94 138 s \$0-damping;
#X obj 94 107 + 0.011;
#X obj 94 79 * -0.01;
#X connect 0 0 1 0;
#X connect 1 0 3 0;
#X connect 1 1 7 0;
#X connect 3 0 4 0;
#X connect 4 0 2 0;
#X connect 6 0 5 0;
#X connect 7 0 6 0;
#X restore 34 110 pd mapping;
#X obj 432 43 declare -path ../;
#X obj 34 45 chair.encoders;
#X obj 544 112 declare -path pmpd;
#X connect 2 0 3 0;
#X connect 4 0 5 2;
#X connect 5 0 16 0;
#X connect 6 0 10 1;
#X connect 10 0 5 0;
#X connect 14 0 2 0;
#X connect 14 1 15 0;
#X connect 15 0 3 1;
#X connect 16 0 14 0;
#X connect 16 1 14 1;
#X connect 18 0 34 0;
#X connect 18 1 34 1;
#X connect 20 0 22 0;
#X connect 21 0 20 0;
#X connect 22 0 23 0;
#X connect 22 0 27 0;
#X connect 23 0 22 1;
#X connect 24 0 21 0;
#X connect 24 1 25 0;
#X connect 25 0 22 1;
#X connect 26 0 16 1;
#X connect 27 0 26 0;
#X connect 27 1 32 0;
#X connect 28 0 24 0;
#X connect 29 0 24 0;
#X connect 30 0 10 0;
#X connect 31 0 33 0;
#X connect 32 0 26 1;
#X connect 33 0 19 0;
#X connect 34 0 31 0;
#X connect 37 0 35 0;
