#N canvas 174 60 886 900 10;
#X floatatom 116 141 3 0 0 0 - - -;
#X obj 45 108 notein, f 17;
#X floatatom 45 169 3 0 0 0 - - -;
#X floatatom 228 264 3 0 0 0 - - -;
#X obj 45 197 bng 20 250 50 0 empty empty empty 17 7 0 10 -262144 -1
-1;
#X obj 128 373 dac~;
#X obj 228 239 ctlin 1;
#X floatatom 230 152 3 0 0 0 - - -;
#X floatatom 226 373 3 0 0 0 - - -;
#X floatatom 291 373 3 0 0 0 - - -;
#X floatatom 363 373 3 0 0 0 - - -;
#X floatatom 37 488 3 0 0 0 - - -;
#X obj 37 352 vsl 15 128 0 127 0 0 empty empty empty 0 -9 0 10 -262144
-1 -1 0 1;
#X floatatom 451 150 3 0 0 0 - - -;
#X text 225 314 Encoder 0;
#X text 293 314 Encoder 1;
#X text 361 314 Encoder 2;
#X text 443 86 absolute Y;
#X floatatom 437 261 5 0 0 0 - - -;
#X text 432 183 Pitch Bend;
#X text 224 195 Mod Wheel;
#X text 432 210 relative X;
#X obj 437 236 bendin;
#X obj 132 336 adc~ 1;
#X floatatom 311 457 3 0 127 0 - - -;
#X floatatom 226 457 3 0 127 0 - - -;
#X floatatom 389 457 3 0 127 0 - - -;
#X text 225 433 LED 0 Red;
#X text 307 434 LED 0 Green;
#X text 385 434 LED 0 Blue;
#X floatatom 311 548 3 0 127 0 - - -;
#X floatatom 229 547 3 0 127 0 - - -;
#X floatatom 389 548 3 0 127 0 - - -;
#X floatatom 307 647 3 0 127 0 - - -;
#X floatatom 225 646 3 0 127 0 - - -;
#X floatatom 385 647 3 0 127 0 - - -;
#X text 221 623 LED 0 Red;
#X text 303 624 LED 0 Green;
#X text 381 624 LED 0 Blue;
#X text 225 524 LED 1 Red;
#X text 307 525 LED 1 Green;
#X text 385 525 LED 1 Blue;
#X obj 226 348 ctlin 11;
#X obj 291 348 ctlin 12;
#X obj 363 348 ctlin 13;
#X floatatom 459 373 3 0 0 0 - - -;
#X floatatom 524 373 3 0 0 0 - - -;
#X floatatom 596 373 3 0 0 0 - - -;
#X text 458 314 Encoder 0;
#X text 526 314 Encoder 1;
#X text 594 314 Encoder 2;
#X obj 459 348 ctlin 43;
#X obj 527 347 ctlin 44;
#X obj 596 348 ctlin 45;
#X floatatom 306 262 3 0 0 0 - - -;
#X text 302 194 Mod Wheel;
#X text 303 212 Fine;
#X obj 307 237 ctlin 33;
#X obj 230 127 ctlin 2;
#X floatatom 319 151 3 0 0 0 - - -;
#X obj 319 126 ctlin 34;
#X obj 451 125 ctlin 4;
#X floatatom 536 151 3 0 0 0 - - -;
#X text 528 87 absolute Y;
#X obj 537 125 ctlin 36;
#X obj 226 489 ctlout 46;
#X obj 308 490 ctlout 47;
#X obj 386 490 ctlout 48;
#X obj 226 580 ctlout 49;
#X obj 308 581 ctlout 50;
#X obj 386 581 ctlout 51;
#X obj 222 679 ctlout 52;
#X obj 304 680 ctlout 53;
#X obj 383 680 ctlout 54;
#X floatatom 551 235 3 0 0 0 - - -;
#X text 549 183 Octave Up/Down;
#X obj 37 319 ctlin 7;
#X text 31 285 Envelope Follower;
#X obj 551 215 ctlin 16;
#X text 222 103 Coarse;
#X text 443 103 Coarse;
#X text 311 102 Fine;
#X text 533 99 Fine;
#X floatatom 530 545 3 0 127 0 - - -;
#X obj 530 579 ctlout 55;
#X text 525 515 Brightness level;
#X text 224 212 Coarse;
#X text 221 179 Relative Y;
#X text 300 181 Relative Y;
#X text 309 87 Absolute X;
#X text 220 88 Absolute X;
#X text 459 328 Fine;
#X text 224 330 Coarse;
#X text 43 16 make sure to activate DSP \, such that the tickle sends
audio and calculates the envelope and velocity data. With audio off
\, the tickle will only send static Midi data from the touchpad.;
#X floatatom 222 774 3 0 127 0 - - -;
#X floatatom 223 718 3 0 127 0 - - -;
#X floatatom 223 832 3 0 127 0 - - -;
#X obj 223 742 ctlout 100;
#X obj 222 805 ctlout 101;
#X obj 223 858 ctlout 102;
#X text 95 717 DC-offset filtering;
#X text 97 775 audio gate on touch;
#X text 125 834 audio expander;
#X obj 45 140 stripnote;
#X text 318 788 0-63 = off 64-127 = on;
#X connect 1 0 103 0;
#X connect 1 1 0 0;
#X connect 1 1 103 1;
#X connect 2 0 4 0;
#X connect 6 0 3 0;
#X connect 12 0 11 0;
#X connect 22 0 18 0;
#X connect 23 0 5 0;
#X connect 23 0 5 1;
#X connect 24 0 66 0;
#X connect 25 0 65 0;
#X connect 26 0 67 0;
#X connect 30 0 69 0;
#X connect 31 0 68 0;
#X connect 32 0 70 0;
#X connect 33 0 72 0;
#X connect 34 0 71 0;
#X connect 35 0 73 0;
#X connect 42 0 8 0;
#X connect 43 0 9 0;
#X connect 44 0 10 0;
#X connect 51 0 45 0;
#X connect 52 0 46 0;
#X connect 53 0 47 0;
#X connect 57 0 54 0;
#X connect 58 0 7 0;
#X connect 60 0 59 0;
#X connect 61 0 13 0;
#X connect 64 0 62 0;
#X connect 76 0 12 0;
#X connect 78 0 74 0;
#X connect 83 0 84 0;
#X connect 94 0 98 0;
#X connect 95 0 97 0;
#X connect 96 0 99 0;
#X connect 103 0 2 0;
