#N canvas 763 216 1075 795 10;
#X declare -path chair;
#X obj 233 20 declare -path chair;
#X obj 232 325 tgl 15 0 empty empty empty 17 7 0 10 -262144 -1 -1 0
1;
#X obj 37 346 chair.feedback-cancellation~ 0 50;
#X obj 164 376 vsl 15 95 0.99 0.9999 0 0 empty empty empty 0 -9 0 10
-262144 -1 -1 0 1;
#X floatatom 163 484 7 0 0 0 - - -;
#X obj 275 438 unpack f f;
#X obj 36 287 chair.gain~;
#X obj 275 462 sig~;
#X obj 332 464 sig~;
#X obj 35 643 dac~ 1 2 3 4 5 6;
#X obj 276 489 /~ 12;
#X obj 331 490 /~ 12;
#X text 31 678 excitation \, envelope \, gate \, x \, y \, dc-offset
;
#X obj 388 378 ctlout 1;
#X obj 427 357 ctlout 2;
#X obj 466 336 ctlout 3;
#N canvas 841 185 664 838 rotaries 0;
#X obj 103 25 inlet;
#X obj 285 168 s \$0-led1;
#X obj 467 169 s \$0-led2;
#X obj 110 169 s \$0-led0;
#X obj 103 119 vsl 15 35 0 1 0 0 empty empty empty 0 -9 0 10 -262144
-1 -1 0 1;
#X obj 103 49 route 0 1 2;
#X obj 130 119 vsl 15 35 0 1 0 0 empty empty empty 0 -9 0 10 -262144
-1 -1 0 1;
#X obj 159 120 vsl 15 35 0 1 0 0 empty empty empty 0 -9 0 10 -262144
-1 -1 0 1;
#X obj 103 232 * 127;
#X obj 103 298 outlet;
#X obj 295 238 * 127;
#X obj 295 304 outlet;
#X obj 473 236 * 127;
#X obj 473 302 outlet;
#X obj 103 73 chair.rotary-limit-range 127;
#X obj 283 73 chair.rotary-limit-range 127;
#X obj 465 73 chair.rotary-limit-range 127;
#X connect 0 0 5 0;
#X connect 4 0 3 0;
#X connect 4 0 8 0;
#X connect 5 0 14 0;
#X connect 5 1 15 0;
#X connect 5 2 16 0;
#X connect 6 0 1 0;
#X connect 6 0 10 0;
#X connect 7 0 2 0;
#X connect 7 0 12 0;
#X connect 8 0 9 0;
#X connect 10 0 11 0;
#X connect 12 0 13 0;
#X connect 14 0 4 0;
#X connect 15 0 6 0;
#X connect 16 0 7 0;
#X coords 0 -1 1 1 85 60 1 100 100;
#X restore 388 271 pd rotaries;
#X text 358 52 This patch provides the output of the Tickle instrument
to VCV Rack.;
#X text 358 92 Use Jack (Linux) \, Soundflower (mac) or LoopBe \, Rewire
(Win) to route the 6 audio channels into VCV Rack., f 45;
#X obj 389 197 route up down;
#X obj 389 244 ctlout 4;
#X obj 426 222 ctlout 5;
#X obj 384 423 chair.hex-mapping;
#X obj 384 485 chair.hex-tuning;
#X floatatom 399 456 5 0 0 0 - - -;
#X floatatom 408 512 5 0 0 0 - - -;
#X obj 384 644 noteout 1;
#X obj 310 543 env~;
#X floatatom 441 584 3 0 0 1 Channel - -;
#X obj 53 595 *~ 10;
#N canvas 0 50 450 250 (subpatch) 0;
#X array \$0-env 250 float 5;
#A 0 0 0 0 0 0 0 0 0 0 0 0 0 0 0 0 0 0 0 0 0 0 0 0 0 0 0 0 0 0 0 0
0 0 0 0 0 0 0 0 0 0 0 0 0 0 0 0 0 0 0 0 0 0 0 0 0 0 0 0 0 0 0 0 0 0
0 0 0 0 0 0 0 0 0 0 0 0 0 0 0 0 0 0 0 0 0 0 0 0 0 0 0 0 0 0 0 0 0 0
0 0 0 0 0 0 0 0 0 0 0 0 0 0 0 0 0 0 0 0 0 0 0 0 0 0 0 0 0 0 0 0 0 0
0 0 0 0 0 0 0 0 0 0 0 0 0 0 0 0 0 0 0 0 0 0 0 0 0 0 0 0 0 0 0 0 0 0
0 0 0 0 0 0 0 0 0 0 0 0 0 0 0 0 0 0 0 0 0 0 0 0 0 0 0 0 0 0 0 0 0 0
0 0 0 0 0 0 0 0 0 0 0 0 0 0 0 0 0 0 0 0 0 0 0 0 0 0 0 0 0 0 0 0 0 0
0 0 0 0 0 0 0 0 0 0 0 0 0 0 0;
#X coords 0 100 249 0 200 140 1 0 0;
#X restore 585 538 graph;
#X obj 554 540 vsl 15 135 0 100 0 0 \$0-min empty empty 0 -9 0 10 -262144
-1 -1 0 1;
#X obj 569 540 vsl 15 135 0 100 0 0 \$0-max empty empty 0 -9 0 10 -262144
-1 -1 0 1;
#N canvas 1291 529 450 496 scale 0;
#X obj 108 102 r \$0-min;
#X obj 171 102 r \$0-max;
#X obj 44 41 inlet;
#X obj 44 374 outlet;
#N canvas 4 62 450 300 draw_env 0;
#X obj 47 75 list;
#X obj 47 121 list trim;
#X obj 47 97 list prepend 0;
#X obj 68 54 list split 250;
#X obj 47 145 s \$0-env;
#X obj 47 8 inlet;
#X connect 0 0 2 0;
#X connect 0 0 3 0;
#X connect 1 0 4 0;
#X connect 2 0 1 0;
#X connect 3 0 0 1;
#X connect 3 2 0 1;
#X connect 5 0 0 0;
#X restore 54 67 pd draw_env;
#X obj 44 146 -;
#X obj 133 142 -;
#X obj 44 243 /;
#X obj 44 299 * 127;
#X obj 44 174 max 0;
#X obj 44 213 min 100;
#X obj 133 185 t f f;
#X obj 44 323 + 0.5;
#X obj 44 346 int;
#X connect 0 0 5 1;
#X connect 0 0 6 1;
#X connect 1 0 6 0;
#X connect 2 0 4 0;
#X connect 2 0 5 0;
#X connect 5 0 9 0;
#X connect 6 0 11 0;
#X connect 7 0 8 0;
#X connect 8 0 12 0;
#X connect 9 0 10 0;
#X connect 10 0 7 0;
#X connect 11 0 10 1;
#X connect 11 1 7 1;
#X connect 12 0 13 0;
#X connect 13 0 3 0;
#X restore 412 563 pd scale;
#X text 550 684 min \, max;
#X text 548 709 Set first slider to minimum \, second slider to maximum
of the audio output to scale the range to MIDI standard 0-127.;
#X obj 509 544 vsl 15 128 0 127 0 0 empty empty empty 0 -9 0 10 -262144
-1 -1 0 1;
#X obj 234 390 s \$0-touch;
#X obj 63 521 r \$0-touch;
#X obj 92 595 line~;
#X msg 92 567 \$1 2;
#X obj 358 690 pack f f f;
#X obj 368 726 print;
#X obj 36 384 chair.dc-offset~;
#X obj 275 170 route position rotary button;
#X obj 275 340 chair.capsense;
#X obj 53 485 chair.peak-env~;
#X obj 35 108 adc~;
#X connect 1 0 2 2;
#X connect 2 0 43 0;
#X connect 3 0 4 0;
#X connect 3 0 46 1;
#X connect 5 0 7 0;
#X connect 5 1 8 0;
#X connect 6 0 2 0;
#X connect 7 0 10 0;
#X connect 8 0 11 0;
#X connect 10 0 9 3;
#X connect 11 0 9 4;
#X connect 16 0 13 0;
#X connect 16 1 14 0;
#X connect 16 2 15 0;
#X connect 19 0 20 0;
#X connect 19 1 21 0;
#X connect 22 0 23 0;
#X connect 22 0 24 0;
#X connect 23 0 25 0;
#X connect 23 0 26 0;
#X connect 23 0 41 0;
#X connect 27 0 33 0;
#X connect 28 0 26 2;
#X connect 28 0 41 2;
#X connect 29 0 9 1;
#X connect 33 0 36 0;
#X connect 33 0 26 1;
#X connect 33 0 41 1;
#X connect 38 0 40 0;
#X connect 39 0 9 2;
#X connect 40 0 39 0;
#X connect 41 0 42 0;
#X connect 43 0 9 0;
#X connect 43 0 27 0;
#X connect 43 0 46 0;
#X connect 43 1 9 5;
#X connect 44 0 45 0;
#X connect 44 1 16 0;
#X connect 44 2 19 0;
#X connect 45 0 37 0;
#X connect 45 1 22 0;
#X connect 45 1 5 0;
#X connect 46 0 29 0;
#X connect 47 0 6 0;
