#N canvas 207 211 1592 910 10;
#X declare -path chair;
#X declare -lib tkwidgets;
#X declare -lib moonlib;
#X declare -lib ggee;
#X declare -path abstractions;
#X obj 822 7 tgl 15 0 empty empty empty 17 7 0 10 -262144 -1 -1 0 1
;
#X floatatom 1013 336 5 0 0 0 - - -;
#X msg 841 33 info;
#X obj 942 193 s \$0-xy;
#X obj 861 194 s \$0-touch;
#X obj 1001 287 r \$0-xy;
#X obj 877 147 s \$0-updown;
#X obj 1150 11 declare -path chair;
#N canvas 2698 771 676 343 LED 0;
#X obj 69 185 outlet;
#X obj 35 14 r \$0-led0;
#X obj 144 14 r \$0-led1;
#X obj 243 9 r \$0-led2;
#X msg 35 68 led 0 \$1 0 0;
#X msg 144 71 led 1 0 \$1 0;
#X msg 243 71 led 2 0 0 \$1;
#X obj 35 40 change;
#X obj 144 40 change;
#X obj 243 39 change;
#X msg 237 130 led 0 0 0 0;
#X msg 348 133 led 1 0 0 0;
#X msg 445 133 led 2 0 0 0;
#X obj 357 80 loadbang;
#X connect 1 0 7 0;
#X connect 2 0 8 0;
#X connect 3 0 9 0;
#X connect 4 0 0 0;
#X connect 5 0 0 0;
#X connect 6 0 0 0;
#X connect 7 0 4 0;
#X connect 8 0 5 0;
#X connect 9 0 6 0;
#X connect 10 0 0 0;
#X connect 11 0 0 0;
#X connect 12 0 0 0;
#X connect 13 0 12 0;
#X connect 13 0 11 0;
#X connect 13 0 10 0;
#X restore 853 65 pd LED;
#X obj 822 707 dac~;
#X obj 1001 309 chair.hex-mapping;
#X obj 916 244 r \$0-touch;
#X obj 823 226 chair.gain~;
#X floatatom 1013 471 5 0 0 0 - - -;
#X obj 1001 448 chair.hex-tuning;
#X msg 1094 380 g_major;
#X obj 822 629 chair.gain~;
#X msg 1155 381 b_minor;
#X obj 1001 502 change;
#X obj 1150 55 declare -lib tkwidgets;
#X obj 401 323 moonlib/image tickle.gif 0;
#X obj 1150 77 declare -lib moonlib;
#X obj 1150 98 declare -lib ggee;
#X obj 1253 380 r \$0-updown;
#X obj 861 170 chair.capsense;
#X obj 861 123 route position button rotary;
#N canvas 2973 770 664 369 rotaries 0;
#X obj 103 25 inlet;
#X obj 285 168 s \$0-led1;
#X obj 467 169 s \$0-led2;
#X obj 139 262 s \$0-led0;
#X obj 107 118 vsl 15 35 0 1 0 0 empty empty empty 0 -9 0 10 -262144
-1 -1 0 1;
#X obj 103 49 route 0 1 2;
#X obj 130 119 vsl 15 35 0 1 0 0 empty empty empty 0 -9 0 10 -262144
-1 -1 1700 1;
#X obj 159 120 vsl 15 35 0 1 0 0 empty empty empty 0 -9 0 10 -262144
-1 -1 0 1;
#X obj 287 16 loadbang;
#X msg 288 45 0.5;
#X obj 465 73 chair.rotary-limit-range 24;
#X obj 103 298 s \$0-halftones;
#X obj 296 289 s \$0-finetuning;
#X obj 475 283 s \$0-p;
#X connect 0 0 5 0;
#X connect 4 0 3 0;
#X connect 5 0 11 0;
#X connect 5 1 12 0;
#X connect 5 2 10 0;
#X connect 6 0 1 0;
#X connect 7 0 2 0;
#X connect 8 0 9 0;
#X connect 9 0 6 0;
#X connect 10 0 7 0;
#X coords 0 -1 1 1 85 60 1 100 100;
#X restore 993 150 pd rotaries;
#X obj 1001 533 mtof;
#X obj 823 677 hip~ 4;
#X obj 823 268 chair.touchgate~;
#X obj 474 352 cnv 15 50 30 \$0-pad07 empty 455 5 12 0 14 -241469 -66577
0;
#X obj 822 96 tickle~;
#X obj 1001 562 osc~;
#X obj 823 291 chair.dc-offset~;
#X obj 822 599 *~;
#X obj 822 513 chair.peak-env~;
#X obj 909 404 vsl 15 95 0.99 0.9999 0 0 empty empty empty 0 -9 0 10
-262144 -1 -1 0 1;
#X floatatom 924 513 7 0 0 0 - - -;
#N canvas 659 363 266 405 touchviz 0;
#X msg 42 334 \; digit pos \$1 \$2;
#X obj 42 308 pack f f;
#X obj 42 179 r \$0-xy;
#X obj 42 216 unpack f f;
#X obj 42 247 * 785;
#X obj 99 246 * 450;
#X obj 99 269 + 140;
#X obj 41 55 sel 1 0;
#X msg 41 82 -1.0816e+07 -3.60449e+06 0;
#X msg 41 133 \; digit color \$1 \$2 \$3;
#X msg 61 106 -1.67772e+07 -3.60449e+06 0;
#X obj 41 29 r \$0-touch;
#X connect 1 0 0 0;
#X connect 2 0 3 0;
#X connect 3 0 4 0;
#X connect 3 1 5 0;
#X connect 4 0 1 0;
#X connect 5 0 6 0;
#X connect 6 0 1 1;
#X connect 7 0 8 0;
#X connect 7 1 10 0;
#X connect 8 0 9 0;
#X connect 10 0 9 0;
#X connect 11 0 7 0;
#X restore 1073 12 pd touchviz;
#X obj 483 381 cnv 35 35 35 empty digit empty 20 12 0 14 -262140 -262144
0;
#X obj 1051 725 r \$0-halftones;
#X obj 1095 569;
#X obj 1150 32 declare -path abstractions;
#X obj 1253 404 chair.modifier;
#X obj 1253 427 route modifier;
#X obj 1268 544 r \$0-halftones;
#X obj 1398 545 r \$0-finetuning;
#X floatatom 1268 632 5 0 0 0 - - -;
#X obj 1268 599 chair.increment 60;
#X obj 1376 663 +;
#X obj 1414 587 chair.increment 0;
#X obj 1398 618 chair.rotary-limit-range 50;
#X connect 0 0 31 0;
#X connect 2 0 31 0;
#X connect 5 0 10 0;
#X connect 8 0 31 0;
#X connect 10 0 1 0;
#X connect 10 0 14 0;
#X connect 11 0 29 1;
#X connect 12 0 29 0;
#X connect 14 0 13 0;
#X connect 14 0 18 0;
#X connect 15 0 14 1;
#X connect 16 0 28 0;
#X connect 17 0 14 1;
#X connect 23 0 43 0;
#X connect 24 0 4 0;
#X connect 24 1 3 0;
#X connect 25 0 24 0;
#X connect 25 1 6 0;
#X connect 25 2 26 0;
#X connect 27 0 32 0;
#X connect 28 0 9 0;
#X connect 28 0 9 1;
#X connect 29 0 33 0;
#X connect 31 0 12 0;
#X connect 31 1 25 0;
#X connect 32 0 34 1;
#X connect 33 0 35 0;
#X connect 34 0 16 0;
#X connect 35 0 34 0;
#X connect 36 0 37 0;
#X connect 36 0 35 1;
#X connect 43 0 44 0;
#X connect 45 0 48 0;
#X connect 46 0 51 0;
#X connect 47 0 27 0;
#X connect 48 0 47 0;
