#N canvas 322 181 853 859 10;
#X declare -lib Gem;
#X declare -path chair;
#X declare -path /usr/local/lib/pd/extra/;
#X floatatom 313 304 5 0 0 0 x - -;
#X floatatom 370 304 5 0 0 0 y - -;
#X obj 22 28 tgl 15 0 empty empty empty 17 7 0 10 -262144 -1 -1 0 1
;
#X obj 681 36 declare -lib Gem;
#X msg 403 39 0 \, destroy;
#X obj 227 417 alpha;
#X obj 227 390 translateXYZ;
#X obj 297 328 * 9.997;
#X obj 227 510 disk 1 30, f 11;
#X obj 227 451 colorRGB 0 1 1 0.5;
#X obj 248 484 / 60;
#X obj 354 352 + 2.2;
#X obj 297 353 - 4.998;
#X floatatom 429 287 5 0 0 0 - - -;
#X obj 297 270 unpack f f;
#X obj 23 830 dac~;
#X obj 194 451 env~;
#X floatatom 434 340 5 0 0 0 - - -;
#X floatatom 433 412 5 0 0 0 - - -;
#N canvas 2094 606 625 544 display 0;
#X obj 43 127 pix_texture;
#X obj 43 152 rectangle 4.999 4;
#X obj 43 83 alpha;
#X text 44 33 foreground;
#X obj 185 146 colorRGB 0 0 0;
#X obj 185 21 gemhead 90;
#X msg 200 210 text \$1;
#X obj 185 272 text3d 0;
#X obj 326 182 loadbang;
#X msg 310 245 4;
#X obj 185 88 translateXYZ -4.22 3.49 0;
#X msg 282 218 font .ttf;
#X obj 200 181 r \$0-octave-display;
#X obj 43 104 pix_image mask.png;
#X obj 44 281 pix_texture;
#X obj 44 306 rectangle 4.999 4;
#X obj 44 237 alpha;
#X obj 44 258 pix_image tickle.png;
#X text 40 190 background;
#X obj 44 216 gemhead 20;
#X obj 43 62 gemhead 55;
#X connect 0 0 1 0;
#X connect 2 0 13 0;
#X connect 4 0 7 0;
#X connect 5 0 10 0;
#X connect 6 0 7 0;
#X connect 8 0 9 0;
#X connect 9 0 7 1;
#X connect 10 0 4 0;
#X connect 11 0 7 0;
#X connect 12 0 6 0;
#X connect 13 0 0 0;
#X connect 14 0 15 0;
#X connect 16 0 17 0;
#X connect 17 0 14 0;
#X connect 19 0 16 0;
#X connect 20 0 2 0;
#X restore 286 87 pd display;
#X obj 681 14 declare -path chair;
#X obj 417 317 chair.hex-tuning;
#X msg 40 49 info;
#X obj 22 795 hip~ 4;
#X obj 21 356 chair.gain~;
#X obj 227 246 r \$0-touch;
#X obj 131 203 s \$0-xy;
#X obj 297 247 r \$0-xy;
#X obj 61 203 s \$0-touch;
#X msg 392 13 dimen 791 650 \, title CHAIR \, FSAA 8 \, create \, 1
;
#X obj 417 230 r \$0-xy;
#X obj 417 493 s \$0-midinote;
#N canvas 3257 648 362 505 hexpad-viz 0;
#X obj 136 12 inlet;
#X obj 44 345 alpha;
#X obj 44 310 translateXYZ -4.97 1.56 0;
#X obj 92 271 +;
#X obj 44 204 t a b;
#X msg 92 237 -3.72;
#X obj 136 61 moses 5;
#X obj 175 91 moses 9;
#X msg 172 204 set -3.72;
#X obj 196 148 t b b f;
#X msg 216 272 -0.54;
#X msg 159 268 1.56;
#X obj 136 157 t b b f;
#X obj 230 176 - 5;
#X obj 265 152 t b b f;
#X obj 299 180 - 9;
#X msg 284 274 -2.63;
#X obj 44 393 disk 1.42 6;
#X msg 103 198 set -4.96;
#X obj 153 234 * 2.465;
#X obj 44 369 colorRGB 1 0 0.5 0.35;
#X obj 44 17 r \$0-touch;
#X obj 67 69 loadbang;
#X msg 67 93 0;
#X obj 44 128 gemhead 30;
#X connect 0 0 6 0;
#X connect 1 0 20 0;
#X connect 2 0 1 0;
#X connect 3 0 2 1;
#X connect 4 0 2 0;
#X connect 4 1 5 0;
#X connect 5 0 3 0;
#X connect 6 0 12 0;
#X connect 6 1 7 0;
#X connect 7 0 9 0;
#X connect 7 1 14 0;
#X connect 8 0 5 0;
#X connect 9 0 8 0;
#X connect 9 1 10 0;
#X connect 9 2 13 0;
#X connect 10 0 2 2;
#X connect 11 0 2 2;
#X connect 12 0 18 0;
#X connect 12 1 11 0;
#X connect 12 2 19 0;
#X connect 13 0 19 0;
#X connect 14 0 18 0;
#X connect 14 1 16 0;
#X connect 14 2 15 0;
#X connect 15 0 19 0;
#X connect 16 0 2 2;
#X connect 18 0 5 0;
#X connect 19 0 3 1;
#X connect 20 0 17 0;
#X connect 21 0 24 0;
#X connect 22 0 23 0;
#X connect 23 0 24 0;
#X connect 24 0 4 0;
#X restore 468 287 pd hexpad-viz;
#X obj 354 329 * -5.6;
#X obj 116 142 s \$0-updown;
#X text 545 166 This patch uses GEM to visualize the Tickle input.
If you can't install Gem \, skip to the next example., f 40;
#X obj 417 256 chair.hex-mapping;
#X obj 528 340 r \$0-updown;
#X obj 528 411 s \$0-octave-display;
#X obj 38 594 phasor~;
#X obj 38 551 r \$0-midinote;
#X obj 38 573 mtof;
#X obj 417 362 chair.transpose-oct;
#X obj 23 696 *~;
#N canvas 1252 672 664 373 rotaries 0;
#X obj 103 7 inlet;
#X obj 286 177 s \$0-led1;
#X obj 474 176 s \$0-led2;
#X obj 112 173 s \$0-led0;
#X obj 103 119 vsl 15 35 0 1 0 0 empty empty empty 0 -9 0 10 -262144
-1 -1 1842 1;
#X obj 103 32 route 0 1 2;
#X obj 130 119 vsl 15 35 0 1 0 0 empty empty empty 0 -9 0 10 -262144
-1 -1 1842 1;
#X obj 159 119 vsl 15 35 0 1 0 0 empty empty empty 0 -9 0 10 -262144
-1 -1 1842 1;
#X obj 598 9 loadbang;
#X obj 283 73 chair.rotary-limit-range 24;
#X obj 53 302 outlet;
#X obj 286 300 s \$0-decay;
#X obj 286 256 * 0.001;
#X obj 286 277 + 0.9989;
#X obj 103 302 s \$0-gain;
#X obj 103 243 * 60;
#X obj 103 266 - 30;
#X obj 468 306 s \$0-waveform;
#X obj 468 281 + 0.01;
#X obj 468 257 * 0.49;
#X obj 103 73 chair.rotary-limit-range 24;
#X obj 465 73 chair.rotary-limit-range 24;
#X msg 598 38 12;
#X connect 0 0 5 0;
#X connect 4 0 3 0;
#X connect 4 0 15 0;
#X connect 5 0 20 0;
#X connect 5 1 9 0;
#X connect 5 2 21 0;
#X connect 6 0 1 0;
#X connect 6 0 12 0;
#X connect 7 0 2 0;
#X connect 7 0 19 0;
#X connect 8 0 22 0;
#X connect 9 0 6 0;
#X connect 12 0 13 0;
#X connect 13 0 11 0;
#X connect 15 0 16 0;
#X connect 16 0 14 0;
#X connect 18 0 17 0;
#X connect 19 0 18 0;
#X connect 20 0 4 0;
#X connect 21 0 7 0;
#X connect 22 0 20 1;
#X connect 22 0 9 1;
#X connect 22 0 21 1;
#X coords 0 -1 1 1 85 60 1 100 100;
#X restore 195 140 pd rotaries;
#N canvas 731 553 608 571 gem-rotaries 0;
#X obj 339 83 pix_texture;
#X obj 339 37 alpha;
#X obj 339 225 rotate 0 0 1;
#X obj 339 14 gemhead 50;
#X obj 13 82 pix_texture;
#X obj 13 36 alpha;
#X obj 13 226 rotate 0 0 1;
#X obj 13 13 gemhead 50;
#X obj 180 80 pix_texture;
#X obj 180 34 alpha;
#X obj 180 228 rotate 0 0 1;
#X obj 180 11 gemhead 50;
#X obj 180 103 translateXYZ -0.01 2.7 0;
#X obj 339 107 translateXYZ 2.84 2.7 0;
#X obj 13 105 translateXYZ -2.86 2.7 0;
#X obj 13 263 disk 0.38 20;
#X obj 180 263 disk 0.38 20;
#X obj 339 260 disk 0.38 20;
#X obj 176 392 colorRGB 0 0 0;
#X obj 176 341 gemhead 90;
#X msg 265 462 text \$1;
#X obj 214 205 * -360;
#X obj 373 201 * -360;
#X obj 47 199 * -360;
#X obj 538 441 loadbang;
#X obj 176 367 translateXYZ 0.59 3 0;
#X obj 377 392 colorRGB 0 0 0;
#X obj 377 341 gemhead 90;
#X msg 435 449 text \$1;
#X obj 377 367 translateXYZ 3.47 3 0;
#X obj 2 393 colorRGB 0 0 0;
#X obj 2 342 gemhead 90;
#X msg 96 466 text \$1;
#X obj 2 368 translateXYZ -2.2 3 0;
#X obj 2 519 text3d 0;
#X obj 176 518 text3d 0;
#X obj 377 518 text3d 0;
#X msg 525 499 4;
#X obj 265 298 int;
#X obj 265 321 / 100;
#X obj 265 275 * 100;
#X obj 436 297 int;
#X obj 436 320 / 100;
#X obj 436 274 * 100;
#X obj 96 302 int;
#X obj 96 325 / 100;
#X obj 96 279 * 100;
#X obj 13 58 pix_image knob.tiff;
#X obj 180 56 pix_image knob.tiff;
#X obj 339 59 pix_image knob.tiff;
#X msg 474 479 font .ttf;
#X obj 96 152 r \$0-led0;
#X obj 265 152 r \$0-led1;
#X obj 436 160 r \$0-led2;
#X connect 0 0 13 0;
#X connect 1 0 49 0;
#X connect 2 0 17 0;
#X connect 3 0 1 0;
#X connect 4 0 14 0;
#X connect 5 0 47 0;
#X connect 6 0 15 0;
#X connect 7 0 5 0;
#X connect 8 0 12 0;
#X connect 9 0 48 0;
#X connect 10 0 16 0;
#X connect 11 0 9 0;
#X connect 12 0 10 0;
#X connect 13 0 2 0;
#X connect 14 0 6 0;
#X connect 18 0 35 0;
#X connect 19 0 25 0;
#X connect 20 0 35 0;
#X connect 21 0 10 1;
#X connect 22 0 2 1;
#X connect 23 0 6 1;
#X connect 24 0 37 0;
#X connect 25 0 18 0;
#X connect 26 0 36 0;
#X connect 27 0 29 0;
#X connect 28 0 36 0;
#X connect 29 0 26 0;
#X connect 30 0 34 0;
#X connect 31 0 33 0;
#X connect 32 0 34 0;
#X connect 33 0 30 0;
#X connect 37 0 34 1;
#X connect 37 0 35 1;
#X connect 37 0 36 1;
#X connect 38 0 39 0;
#X connect 39 0 20 0;
#X connect 40 0 38 0;
#X connect 41 0 42 0;
#X connect 42 0 28 0;
#X connect 43 0 41 0;
#X connect 44 0 45 0;
#X connect 45 0 32 0;
#X connect 46 0 44 0;
#X connect 47 0 4 0;
#X connect 48 0 8 0;
#X connect 49 0 0 0;
#X connect 50 0 34 0;
#X connect 50 0 35 0;
#X connect 50 0 36 0;
#X connect 51 0 46 0;
#X connect 51 0 23 0;
#X connect 52 0 21 0;
#X connect 52 0 40 0;
#X connect 53 0 43 0;
#X connect 53 0 22 0;
#X restore 195 204 pd gem-rotaries;
#X obj 145 481 r \$0-decay;
#X floatatom 158 508 7 0 0 0 - - -;
#X obj 85 331 r \$0-gain;
#X obj 23 720 chair.gain~;
#X obj 119 575 r \$0-waveform;
#X obj 38 616 expr~ $v1 >$f2;
#X floatatom 133 598 7 0 0 0 - - -;
#X obj 167 625 r \$0-touch;
#X obj 38 672 -~ 1;
#X text 286 136 Rotaries:;
#X text 292 153 Volume \, Decay \, Waveform;
#X obj 139 251 r \$0-touch;
#X obj 76 795 hip~ 4;
#X obj 23 768 chair.vfreeverb~;
#X obj 22 466 chair.dc-offset~;
#X obj 392 72 gemwin 30;
#X obj 557 82 declare -path /usr/local/lib/pd/extra/;
#X obj 61 174 chair.capsense;
#X obj 22 93 tickle~;
#X obj 417 466 change;
#X obj 61 117 route position button rotary;
#X obj 22 278 chair.touchgate~ 3 5;
#X obj 38 649 chair.touchgate~ 5 800;
#N canvas 2842 680 551 406 LED 0;
#X obj 35 188 outlet;
#X obj 134 18 r \$0-led0;
#X obj 244 19 r \$0-led1;
#X obj 355 14 r \$0-led2;
#X msg 35 68 led 0 \$1 0 \$1;
#X msg 269 71 led 2 \$1 \$1 0;
#X msg 144 71 led 1 0 \$1 \$1;
#X obj 65 222 gemhead 80;
#X obj 224 223 gemhead 80;
#X obj 357 223 gemhead 80;
#X obj 66 338 circle 0.085 10;
#X obj 224 339 circle 0.085 10;
#X obj 357 339 circle 0.085 10;
#X obj 224 307 translateXYZ 0 3.43 0;
#X obj 357 309 translateXYZ 2.83 3.43 0;
#X obj 66 308 translateXYZ -2.84 3.43 0;
#X obj 357 250 colorRGB 0 0 0 1;
#X obj 224 246 colorRGB 0 0 0 1;
#X obj 66 250 colorRGB 0 0 0 1;
#X obj 66 278 alpha 1;
#X obj 224 274 alpha 1;
#X obj 357 276 alpha 1;
#X connect 1 0 4 0;
#X connect 1 0 18 1;
#X connect 1 0 18 3;
#X connect 2 0 6 0;
#X connect 2 0 17 2;
#X connect 2 0 17 3;
#X connect 3 0 5 0;
#X connect 3 0 16 1;
#X connect 3 0 16 2;
#X connect 4 0 0 0;
#X connect 5 0 0 0;
#X connect 6 0 0 0;
#X connect 7 0 18 0;
#X connect 8 0 17 0;
#X connect 9 0 16 0;
#X connect 13 0 11 0;
#X connect 14 0 12 0;
#X connect 15 0 10 0;
#X connect 16 0 21 0;
#X connect 17 0 20 0;
#X connect 18 0 19 0;
#X connect 19 0 15 0;
#X connect 20 0 13 0;
#X connect 21 0 14 0;
#X restore 57 72 pd LED;
#X obj 227 351 gemhead 70;
#X obj 22 527 chair.peak-env~ 0.999;
#X connect 2 0 64 0;
#X connect 4 0 61 0;
#X connect 5 0 9 0;
#X connect 6 0 5 0;
#X connect 7 0 12 0;
#X connect 9 0 8 0;
#X connect 10 0 8 1;
#X connect 11 0 6 2;
#X connect 12 0 6 1;
#X connect 14 0 7 0;
#X connect 14 0 0 0;
#X connect 14 1 1 0;
#X connect 14 1 33 0;
#X connect 16 0 10 0;
#X connect 21 0 17 0;
#X connect 21 0 42 0;
#X connect 22 0 64 0;
#X connect 23 0 15 0;
#X connect 24 0 16 0;
#X connect 24 0 60 0;
#X connect 25 0 70 0;
#X connect 27 0 14 0;
#X connect 29 0 61 0;
#X connect 30 0 36 0;
#X connect 33 0 11 0;
#X connect 36 0 21 0;
#X connect 36 0 13 0;
#X connect 36 0 32 0;
#X connect 37 0 42 1;
#X connect 39 0 51 0;
#X connect 40 0 41 0;
#X connect 41 0 39 0;
#X connect 42 0 18 0;
#X connect 42 0 65 0;
#X connect 42 1 38 0;
#X connect 43 0 49 0;
#X connect 46 0 47 0;
#X connect 46 0 71 1;
#X connect 48 0 24 1;
#X connect 49 0 59 0;
#X connect 49 0 59 1;
#X connect 50 0 51 1;
#X connect 50 0 52 0;
#X connect 51 0 68 0;
#X connect 53 0 68 1;
#X connect 54 0 43 1;
#X connect 57 0 67 1;
#X connect 58 0 15 1;
#X connect 59 0 23 0;
#X connect 59 1 58 0;
#X connect 60 0 71 0;
#X connect 63 0 28 0;
#X connect 63 1 26 0;
#X connect 64 0 67 0;
#X connect 64 1 66 0;
#X connect 65 0 31 0;
#X connect 66 0 63 0;
#X connect 66 1 34 0;
#X connect 66 2 44 0;
#X connect 67 0 24 0;
#X connect 68 0 54 0;
#X connect 69 0 64 0;
#X connect 70 0 6 0;
#X connect 71 0 43 0;
