#N canvas 868 230 969 671 10;
#X declare -lib ofelia;
#X declare -path abstractions;
#X declare -path chair;
#X declare -path ofelia/libs/of;
#X declare -path ofelia/libs/pd;
#X declare -path ofelia/libs/ez;
#X obj 581 26 declare -lib ofelia;
#N canvas 848 289 1008 377 rotaries 0;
#X obj 264 228 * 360;
#X obj 488 231 * 360;
#X obj 707 235 * 360;
#X obj 309 228 s \$0-led0;
#X obj 528 232 s \$0-led1;
#X obj 745 235 s \$0-led2;
#X obj 707 212 t f f;
#X obj 488 209 t f f;
#X obj 264 203 t f f;
#X obj 242 26 ofDraw 60;
#X obj 473 34 ofDraw 60;
#X obj 690 30 ofDraw 60;
#X obj 242 279 ofRotateZDeg;
#X obj 473 279 ofRotateZDeg;
#X obj 689 281 ofRotateZDeg;
#X obj 242 81 ofTranslate 170 106;
#X obj 242 306 ofDrawImage \$0-knob 0 0 0 59 59;
#X obj 242 117 ofSetRectMode 1;
#X obj 473 112 ofSetRectMode 1;
#X obj 690 110 ofSetRectMode 1;
#X obj 473 305 ofDrawImage \$0-knob 0 0 0 59 59;
#X obj 473 83 ofTranslate 397 106;
#X obj 689 305 ofDrawImage \$0-knob 0 0 0 59 59;
#X obj 690 81 ofTranslate 621 106;
#X obj 265 148 ctlin 14;
#X obj 265 173 / 127;
#X obj 488 174 / 127;
#X obj 707 178 / 127;
#X obj 488 149 ctlin 15;
#X obj 707 153 ctlin 16;
#X obj 242 49 ofEnableAlphaBlending;
#X obj 473 55 ofEnableAlphaBlending;
#X obj 690 52 ofEnableAlphaBlending;
#X connect 0 0 12 1;
#X connect 1 0 13 1;
#X connect 2 0 14 1;
#X connect 6 0 2 0;
#X connect 6 1 5 0;
#X connect 7 0 1 0;
#X connect 7 1 4 0;
#X connect 8 0 0 0;
#X connect 8 1 3 0;
#X connect 9 0 30 0;
#X connect 10 0 31 0;
#X connect 11 0 32 0;
#X connect 12 0 16 0;
#X connect 13 0 20 0;
#X connect 14 0 22 0;
#X connect 15 0 17 0;
#X connect 17 0 12 0;
#X connect 18 0 13 0;
#X connect 19 0 14 0;
#X connect 21 0 18 0;
#X connect 23 0 19 0;
#X connect 24 0 25 0;
#X connect 25 0 8 0;
#X connect 26 0 7 0;
#X connect 27 0 6 0;
#X connect 28 0 26 0;
#X connect 29 0 27 0;
#X connect 30 0 15 0;
#X connect 31 0 21 0;
#X connect 32 0 23 0;
#X restore 64 269 pd rotaries;
#N canvas 1135 195 664 675 position 0;
#X obj 41 137 outlet;
#X obj 202 223 unpack f f;
#X floatatom 467 576 5 0 0 0 - - -;
#X floatatom 429 576 5 0 0 0 - - -;
#X floatatom 390 574 5 0 0 0 - - -;
#X obj 193 512 r \$0-env;
#X obj 229 166 chair.hex-mapping;
#X obj 202 142 t l l;
#X obj 392 411 +;
#X obj 435 221 moses 5;
#X obj 495 253 moses 9;
#X obj 495 277 t b b f;
#X obj 435 276 t b b f;
#X obj 553 279 t b b f;
#X msg 514 431 371;
#X msg 572 431 541;
#X msg 454 432 204;
#X obj 474 367 * 195;
#X obj 534 313 - 5;
#X obj 592 307 - 9;
#X obj 202 265 * 791;
#X obj 259 265 + 140;
#X obj 259 244 * 468;
#X text 353 89 Hexagon;
#X text 40 210 Touch;
#X obj 121 146 s \$0-touch;
#X obj 87 266 r \$0-touch;
#X obj 398 146 r \$0-touch;
#X obj 353 470 ofTranslate 296 371;
#X obj 353 602 ofSetColor 244 101 207 110;
#X obj 42 337 ofTranslate 296 371;
#X obj 42 482 ofSetColor 0 130 150 60;
#X obj 42 419 ofRotateZDeg 30;
#X obj 353 522 ofRotateZDeg 30;
#X obj 42 541 ofDrawCircle 0 0 0 112;
#X obj 42 445 ofSetCircleResolution 100;
#X obj 353 548 ofSetCircleResolution 6;
#X obj 42 297 spigot 0;
#X obj 353 172 spigot 0;
#X obj 353 496 ofSetRectMode 1;
#X obj 353 635 ofDrawCircle 0 0 0 112;
#X obj 42 241 ofDraw 60;
#X obj 353 112 ofDraw 40;
#X obj 42 371 ofSetRectMode 1;
#X msg 392 326 4;
#X msg 433 327 100;
#N canvas 0 23 450 300 position 0;
#X obj 47 121 s \$0-xy;
#X obj 36 17 ctlin 12;
#X obj 107 17 ctlin 13;
#X obj 46 96 pack 0 0;
#X obj 103 74 t b f;
#X obj 36 49 / 127;
#X obj 107 48 / 127;
#X obj 41 155 outlet;
#X connect 1 0 5 0;
#X connect 2 0 6 0;
#X connect 3 0 0 0;
#X connect 3 0 7 0;
#X connect 4 0 3 0;
#X connect 4 1 3 1;
#X connect 5 0 3 0;
#X connect 6 0 4 0;
#X restore 43 69 pd position;
#X obj 142 65 notein 1;
#X obj 142 99 > 0;
#X connect 1 0 20 0;
#X connect 1 1 22 0;
#X connect 2 0 29 3;
#X connect 3 0 29 2;
#X connect 4 0 29 1;
#X connect 5 0 34 4;
#X connect 6 0 9 0;
#X connect 7 0 1 0;
#X connect 7 1 6 0;
#X connect 8 0 28 1;
#X connect 9 0 12 0;
#X connect 9 1 10 0;
#X connect 10 0 11 0;
#X connect 10 1 13 0;
#X connect 11 0 45 0;
#X connect 11 1 14 0;
#X connect 11 2 18 0;
#X connect 12 0 44 0;
#X connect 12 1 16 0;
#X connect 12 2 17 0;
#X connect 13 0 44 0;
#X connect 13 1 15 0;
#X connect 13 2 19 0;
#X connect 14 0 28 2;
#X connect 15 0 28 2;
#X connect 16 0 28 2;
#X connect 17 0 8 1;
#X connect 18 0 17 0;
#X connect 19 0 17 0;
#X connect 20 0 30 1;
#X connect 21 0 30 2;
#X connect 22 0 21 0;
#X connect 26 0 37 1;
#X connect 27 0 38 1;
#X connect 28 0 39 0;
#X connect 29 0 40 0;
#X connect 30 0 43 0;
#X connect 31 0 34 0;
#X connect 32 0 35 0;
#X connect 33 0 36 0;
#X connect 35 0 31 0;
#X connect 36 0 29 0;
#X connect 37 0 30 0;
#X connect 38 0 28 0;
#X connect 39 0 33 0;
#X connect 41 0 37 0;
#X connect 42 0 38 0;
#X connect 43 0 32 0;
#X connect 44 0 8 0;
#X connect 45 0 8 0;
#X connect 46 0 0 0;
#X connect 46 0 7 0;
#X connect 47 1 48 0;
#X connect 48 0 25 0;
#X restore 64 293 pd position;
#X obj 25 342 chair.gain~;
#X obj 53 394 env~;
#X obj 173 462 s \$0-env;
#X obj 581 48 declare -path abstractions;
#X obj 581 71 declare -path chair;
#X obj 582 5 declare -path ofelia/libs/of;
#X obj 308 104 ofSetCircleResolution 60;
#X obj 18 6 loadbang;
#X obj 758 6 declare -path ofelia/libs/pd;
#X msg 26 60 destroy;
#X obj 759 26 declare -path ofelia/libs/ez;
#X floatatom 266 299 5 0 0 0 - - -;
#X text 306 300 0: fail \, 1: success.;
#X obj 266 185 ofSetup;
#X obj 266 206 ofDisableArbTex;
#X floatatom 446 299 5 0 0 0 - - -;
#X text 486 300 0: fail \, 1: success.;
#X text 371 328 Drawing callback.;
#X text 325 186 Setup callback.;
#X text 374 206 Disable rectangular textures.;
#X msg 266 232 load tickle.png;
#X msg 446 232 load mask.png;
#X floatatom 624 301 5 0 0 0 - - -;
#X text 664 302 0: fail \, 1: success.;
#X msg 624 234 load knob.tiff;
#X msg 18 27 setPosition 30 100 \, setSize 791 650 \, title CHAIR \,
setBackground 0 \, create;
#X obj 24 468 chair.peak-env~ 0.99;
#X obj 25 242 adc~ 1;
#X obj 115 412 + 5;
#X obj 265 412 ofDraw 50;
#X obj 265 440 ofEnableAlphaBlending;
#X obj 265 466 ofDrawImage \$0-mask 0 0 0;
#X obj 266 374 ofDrawImage \$0-tickle 0 0 -0.001;
#X obj 266 348 ofDraw 30;
#X obj 18 81 ofWindow;
#X obj 266 253 ofImage \$0-tickle;
#X obj 446 253 ofImage \$0-mask;
#X obj 624 255 ofImage \$0-knob;
#X obj 266 274 route load;
#X obj 446 275 route load;
#X obj 624 276 route load;
#X connect 3 0 4 0;
#X connect 3 0 29 0;
#X connect 4 0 31 0;
#X connect 10 0 28 0;
#X connect 12 0 37 0;
#X connect 16 0 17 0;
#X connect 17 0 23 0;
#X connect 17 0 24 0;
#X connect 17 0 27 0;
#X connect 23 0 38 0;
#X connect 24 0 39 0;
#X connect 27 0 40 0;
#X connect 28 0 37 0;
#X connect 30 0 3 0;
#X connect 31 0 5 0;
#X connect 32 0 33 0;
#X connect 33 0 34 0;
#X connect 36 0 35 0;
#X connect 38 0 41 0;
#X connect 39 0 42 0;
#X connect 40 0 43 0;
#X connect 41 0 14 0;
#X connect 42 0 18 0;
#X connect 43 0 25 0;
