#N canvas 771 260 934 730 10;
#X declare -path ./chair;
#X msg 321 319 \$1 100;
#X obj 321 340 line~;
#X obj 226 376 *~;
#X obj 226 57 mtof;
#X obj 322 255 sqrt;
#X obj 227 474 lop~;
#X msg 510 323 \$1 100;
#X obj 510 344 line~;
#X obj 415 383 *~;
#X obj 510 262 sqrt;
#X text 233 255 del-1 feedback;
#X text 421 263 del-2 feedback;
#X obj 59 50 inlet~;
#X obj 226 25 inlet;
#X obj 95 236 == \$1;
#X obj 95 209 r \$2-current;
#X obj 58 269 chair.touchgate~;
#X obj 601 18 declare -path ./chair;
#X obj 607 63 block~ 1;
#X obj 226 613 outlet~;
#X obj 57 612 delwrite~ \$0-d1 100;
#X obj 249 430 +;
#X obj 249 401 r \$2-lp;
#X obj 510 234 r \$2-fb;
#X obj 322 228 r \$2-fb;
#X text 264 475 del rolloff;
#X obj 428 30 r \$2-timbre;
#X obj 428 56 + 1;
#X obj 415 123 * 1;
#X obj 381 97 t b f;
#X obj 226 537 chair.dc-offset~;
#X obj 414 414 *~ -1;
#X obj 453 452 sig~;
#X floatatom 454 429 5 0 0 0 - - -;
#X obj 414 517 allp~;
#X obj 581 475 osc~;
#X obj 581 498 *~;
#X floatatom 581 447 5 0 0 0 - - -;
#X obj 86 583 expr~ tanh($v1);
#X obj 413 487 allp~ 3;
#X obj 321 277 * 0.5;
#X obj 225 228 delread4~ \$0-d1;
#X obj 414 234 delread4~ \$0-d1;
#X obj 510 282 * 0.5;
#X obj 321 299 clip 0 0.4999;
#X obj 510 303 clip 0 0.4999;
#X obj 226 155 /;
#X msg 226 132 1000 \$1;
#X msg 415 145 1000 \$1;
#X obj 415 166 /;
#X obj 226 85 t f f f;
#X obj 415 212 line~;
#X obj 226 203 line~;
#X msg 415 189 \$1 10;
#X msg 226 180 \$1 10;
#X connect 0 0 1 0;
#X connect 1 0 2 1;
#X connect 2 0 5 0;
#X connect 3 0 50 0;
#X connect 4 0 40 0;
#X connect 5 0 30 0;
#X connect 6 0 7 0;
#X connect 7 0 8 1;
#X connect 8 0 31 0;
#X connect 9 0 43 0;
#X connect 12 0 16 0;
#X connect 13 0 3 0;
#X connect 14 0 16 1;
#X connect 15 0 14 0;
#X connect 16 0 20 0;
#X connect 21 0 5 1;
#X connect 22 0 21 0;
#X connect 23 0 9 0;
#X connect 24 0 4 0;
#X connect 26 0 27 0;
#X connect 27 0 28 0;
#X connect 28 0 48 0;
#X connect 29 0 28 0;
#X connect 29 1 28 1;
#X connect 30 0 19 0;
#X connect 30 0 38 0;
#X connect 31 0 39 0;
#X connect 32 0 39 2;
#X connect 33 0 32 0;
#X connect 34 0 5 0;
#X connect 35 0 36 0;
#X connect 36 0 34 2;
#X connect 37 0 35 0;
#X connect 38 0 20 0;
#X connect 39 0 34 0;
#X connect 40 0 44 0;
#X connect 41 0 2 0;
#X connect 42 0 8 0;
#X connect 43 0 45 0;
#X connect 44 0 0 0;
#X connect 45 0 6 0;
#X connect 46 0 54 0;
#X connect 47 0 46 0;
#X connect 48 0 49 0;
#X connect 49 0 53 0;
#X connect 50 0 47 0;
#X connect 50 1 21 1;
#X connect 50 2 29 0;
#X connect 51 0 42 0;
#X connect 52 0 41 0;
#X connect 53 0 51 0;
#X connect 54 0 52 0;
