#N canvas 538 67 669 409 10;
#X obj 117 26 inlet~;
#X obj 116 308 outlet~;
#X obj 283 306 delwrite~ \$0-del 100;
#X obj 404 88 inlet~;
#X obj 116 223 *~;
#X obj 174 223 *~;
#X obj 115 268 -~;
#X obj 285 233 *~;
#X obj 352 235 *~;
#X obj 284 274 +~;
#X obj 366 144 cos~;
#X obj 403 131 -~ 0.25;
#X obj 403 154 cos~;
#X obj 175 53 delread4~ \$0-del \$1;
#X obj 175 27 inlet~;
#X obj 118 57 *~ 1;
#X connect 0 0 15 0;
#X connect 3 0 10 0;
#X connect 3 0 11 0;
#X connect 4 0 6 0;
#X connect 5 0 6 1;
#X connect 6 0 1 0;
#X connect 7 0 9 0;
#X connect 8 0 9 1;
#X connect 9 0 2 0;
#X connect 10 0 4 1;
#X connect 10 0 8 1;
#X connect 11 0 12 0;
#X connect 12 0 7 1;
#X connect 12 0 5 1;
#X connect 13 0 5 0;
#X connect 13 0 8 0;
#X connect 14 0 13 0;
#X connect 15 0 4 0;
#X connect 15 0 7 0;
