#N canvas 220 405 669 300 10;
#X obj 78 47 inlet~;
#X obj 77 267 outlet~;
#X obj 244 265 delwrite~ \$0-del 100;
#X obj 134 20 inlet;
#X obj 365 47 inlet~;
#X obj 134 45 delread~ \$0-del \$1;
#X obj 77 182 *~;
#X obj 135 182 *~;
#X obj 76 227 -~;
#X obj 246 192 *~;
#X obj 313 194 *~;
#X obj 245 233 +~;
#X obj 327 103 cos~;
#X obj 364 90 -~ 0.25;
#X obj 364 113 cos~;
#X connect 0 0 6 0;
#X connect 0 0 9 0;
#X connect 3 0 5 0;
#X connect 4 0 12 0;
#X connect 4 0 13 0;
#X connect 5 0 10 0;
#X connect 5 0 7 0;
#X connect 6 0 8 0;
#X connect 7 0 8 1;
#X connect 8 0 1 0;
#X connect 9 0 11 0;
#X connect 10 0 11 1;
#X connect 11 0 2 0;
#X connect 12 0 6 1;
#X connect 12 0 10 1;
#X connect 13 0 14 0;
#X connect 14 0 9 1;
#X connect 14 0 7 1;
