#N canvas 2407 177 674 871 10;
#X obj 33 658 pmpd~ 1 1;
#X msg 407 620 reset;
#X obj 222 467 + 1;
#X text 501 90 number of masss on the string;
#X obj 255 260 until;
#X obj 203 289 t f b;
#X msg 247 322 0;
#X obj 203 322 until;
#X obj 203 348 f;
#X obj 234 349 + 1;
#X msg 255 286 mass 20 0;
#X obj 203 376 t f f b;
#X obj 290 419 mtof;
#X obj 290 440 / 200;
#X obj 290 460 pow 2;
#X obj 267 205 + 1;
#X obj 267 229 t f f;
#X obj 255 141 f 25;
#X obj 203 267 f 26;
#X obj 223 488 % 26;
#X msg 152 600 outPos 0 1 1 \, inForce 0 5 1;
#X obj 34 727 outlet~;
#X obj 152 59 inlet;
#X obj 290 396 f;
#X obj 34 58 inlet~;
#X obj 34 454 *~;
#X obj 50 324 == \$1;
#X obj 50 421 line~;
#X obj 50 354 sel 0 1;
#X msg 50 381 0 20;
#X obj 50 292 r \$2-current;
#X obj 34 679 *~ 0.5;
#X obj 255 173 t f f;
#X obj 427 90 r \$2-masses;
#X obj 203 518 pack f f f f;
#X msg 203 541 link \$1 \$2 \$3 \$4;
#X obj 356 494 f 0.02;
#X obj 152 89 t b b b f b b, f 43;
#X obj 419 462 r \$2-damping;
#X text 250 31 We need \$0 from the parent patch passed into the abstraction
via the \$2 argument.;
#X msg 98 383 1 1;
#X connect 0 0 31 0;
#X connect 1 0 0 0;
#X connect 2 0 19 0;
#X connect 4 0 10 0;
#X connect 5 0 7 0;
#X connect 5 1 6 0;
#X connect 6 0 8 1;
#X connect 7 0 8 0;
#X connect 8 0 9 0;
#X connect 8 0 11 0;
#X connect 9 0 8 1;
#X connect 10 0 0 0;
#X connect 11 0 34 0;
#X connect 11 1 2 0;
#X connect 11 2 23 0;
#X connect 12 0 13 0;
#X connect 13 0 14 0;
#X connect 14 0 34 2;
#X connect 15 0 16 0;
#X connect 16 0 18 1;
#X connect 16 1 19 1;
#X connect 17 0 32 0;
#X connect 18 0 5 0;
#X connect 19 0 34 1;
#X connect 20 0 0 0;
#X connect 22 0 37 0;
#X connect 23 0 12 0;
#X connect 24 0 25 0;
#X connect 25 0 0 0;
#X connect 26 0 28 0;
#X connect 27 0 25 1;
#X connect 28 0 29 0;
#X connect 28 1 40 0;
#X connect 29 0 27 0;
#X connect 30 0 26 0;
#X connect 31 0 21 0;
#X connect 32 0 4 0;
#X connect 32 1 15 0;
#X connect 33 0 17 1;
#X connect 34 0 35 0;
#X connect 35 0 0 0;
#X connect 36 0 34 3;
#X connect 37 0 20 0;
#X connect 37 1 18 0;
#X connect 37 2 17 0;
#X connect 37 3 23 1;
#X connect 37 4 36 0;
#X connect 37 5 1 0;
#X connect 38 0 36 1;
#X connect 40 0 27 0;
