#N canvas 2112 209 674 871 10;
#X obj 33 658 pmpd~ 1 1;
#X msg 597 121 reset;
#X obj 228 401 + 1;
#X text 372 183 number of masss on the string;
#X obj 283 291 until;
#X obj 209 238 t f b;
#X msg 253 271 0;
#X obj 209 271 until;
#X obj 209 297 f;
#X obj 240 298 + 1;
#X msg 280 317 mass 20 0;
#X obj 206 498 pack f f f;
#X obj 209 334 t f f b;
#X obj 296 398 mtof;
#X obj 296 419 / 200;
#X obj 296 439 pow 2;
#X obj 34 704 hip~ 20;
#X obj 85 678 r pmpdhip;
#X obj 182 89 t b b b b b;
#X obj 300 232 + 1;
#X obj 296 459 t f b;
#X obj 306 256 t f f;
#X obj 305 184 r masses;
#X obj 282 205 f 25;
#X obj 209 216 f 26;
#X obj 229 422 % 26;
#X msg 182 147 outPos 0 1 1 \, inForce 0 5 1;
#X msg 206 521 link \$1 \$2 \$3 0.02;
#X obj 34 727 outlet~;
#X obj 182 24 inlet;
#X obj 296 375 f;
#X obj 33 213 inlet~;
#X obj 34 454 *~;
#X obj 50 324 == \$1;
#X obj 50 421 line~;
#X obj 50 354 sel 0 1;
#X msg 98 381 1 2;
#X msg 50 381 0 20;
#X obj 50 292 r \$2-current;
#X floatatom 238 49 5 0 0 0 - - -, f 5;
#X obj 182 50 t b f;
#X obj 34 679 *~ 0.5;
#X connect 0 0 41 0;
#X connect 1 0 0 0;
#X connect 2 0 25 0;
#X connect 4 0 10 0;
#X connect 5 0 7 0;
#X connect 5 1 6 0;
#X connect 6 0 8 1;
#X connect 7 0 8 0;
#X connect 8 0 9 0;
#X connect 8 0 12 0;
#X connect 9 0 8 1;
#X connect 10 0 0 0;
#X connect 11 0 27 0;
#X connect 12 0 11 0;
#X connect 12 1 2 0;
#X connect 12 2 30 0;
#X connect 13 0 14 0;
#X connect 14 0 15 0;
#X connect 15 0 20 0;
#X connect 16 0 28 0;
#X connect 17 0 16 1;
#X connect 18 0 26 0;
#X connect 18 1 24 0;
#X connect 18 2 23 0;
#X connect 18 4 1 0;
#X connect 19 0 21 0;
#X connect 20 0 11 2;
#X connect 21 0 24 1;
#X connect 21 1 25 1;
#X connect 22 0 23 1;
#X connect 23 0 4 0;
#X connect 23 0 19 0;
#X connect 24 0 5 0;
#X connect 25 0 11 1;
#X connect 26 0 0 0;
#X connect 27 0 0 0;
#X connect 29 0 39 0;
#X connect 29 0 40 0;
#X connect 30 0 13 0;
#X connect 31 0 32 0;
#X connect 32 0 0 0;
#X connect 33 0 35 0;
#X connect 34 0 32 1;
#X connect 35 0 37 0;
#X connect 35 1 36 0;
#X connect 36 0 34 0;
#X connect 37 0 34 0;
#X connect 38 0 33 0;
#X connect 40 0 18 0;
#X connect 40 1 30 1;
#X connect 41 0 16 0;
