#N canvas 84 55 1125 711 10;
#X obj 24 27 inlet~;
#X obj 178 546 sig~;
#X obj 23 827 +~;
#X obj 51 854 delwrite~ \$0-del 200;
#X obj 24 886 outlet~;
#X floatatom 190 774 5 0 99.99 0 - - -;
#X obj 190 796 / 100;
#X floatatom 169 717 5 0 0 0 - - -;
#X floatatom 184 739 5 0 0 0 - - -;
#X obj 198 476 sig~;
#X obj 884 353 /;
#X msg 884 332 1000 \$1;
#X obj 884 311 mtof;
#X obj 173 649 +~;
#X obj 201 607 noise~;
#X obj 146 305 noise~;
#X obj 178 428 r \$0-param-3;
#X obj 223 702 r \$0-lowdamp;
#X obj 222 735 r \$0-highdamp;
#X obj 229 772 r \$0-decay;
#X obj 215 227 noise~;
#X obj 215 249 lop~ 10;
#X obj 201 630 lop~ 30;
#X obj 186 337 lop~ 10;
#X obj 109 259 delread4~ \$0-del;
#X obj 884 198 chair.distance;
#X msg 965 177 0.5 0.5;
#X obj 884 241 pow 2;
#X obj 965 155 loadbang;
#X obj 884 219 * 2;
#X obj 884 266 * -12;
#X obj 884 287 + 92;
#X floatatom 884 376 5 0 0 0 - - -;
#X obj 884 175 r \$1-xy;
#X obj 713 121 r \$1-params-list;
#X obj 713 144 route \$2;
#X obj 713 167 unpack f f f;
#X obj 713 197 s \$0-param-1;
#X obj 746 222 s \$0-param-2;
#X obj 782 247 s \$0-param-3;
#X obj 24 134 *~;
#X obj 37 89 r \$1-fieldn;
#X obj 37 112 == \$2;
#X obj 174 584 sig~ 0.09;
#X obj 111 769 *~ -1;
#X obj 201 651 *~ 0.1;
#X obj 214 273 *~ 0.1;
#X obj 187 359 *~ 0.1;
#X obj 178 503 * 0.5;
#X obj 111 717 hip~ 50;
#X obj 146 328 abs~;
#X obj 112 740 lop~ 4000;
#X obj 214 297 +~ 141;
#X obj 264 269 pow 4;
#X obj 264 292 * 150;
#X obj 456 567 sig~;
#X floatatom 483 782 5 0 99.99 0 - - -;
#X obj 483 804 / 100;
#X floatatom 462 725 5 0 0 0 - - -;
#X floatatom 477 747 5 0 0 0 - - -;
#X obj 499 479 sig~;
#X obj 466 657 +~;
#X obj 494 615 noise~;
#X obj 414 313 noise~;
#X obj 500 431 r \$0-param-3;
#X obj 516 710 r \$0-lowdamp;
#X obj 515 743 r \$0-highdamp;
#X obj 522 780 r \$0-decay;
#X obj 539 264 noise~;
#X obj 539 286 lop~ 10;
#X obj 494 638 lop~ 30;
#X obj 453 339 lop~ 10;
#X obj 467 592 sig~ 0.09;
#X obj 404 777 *~ -1;
#X obj 494 659 *~ 0.1;
#X obj 538 310 *~ 0.1;
#X obj 454 361 *~ 0.1;
#X obj 456 522 * 0.5;
#X obj 404 725 hip~ 50;
#X obj 414 336 abs~;
#X obj 405 748 lop~ 4000;
#X obj 538 334 +~ 141;
#X obj 588 279 pow 4;
#X obj 588 329 * 150;
#X obj 363 829 +~;
#X obj 391 857 delwrite~ \$0-del-r 200;
#X obj 362 886 outlet~;
#X obj 402 267 delread4~ \$0-del-r;
#X obj 110 404 allp4-d~ 6.53;
#X obj 403 412 allp4-d~ 6.53;
#X floatatom 442 171 5 0 0 0 - - -;
#X obj 405 680 allp4~;
#X obj 112 672 allp4~;
#X obj 111 547 allp~ 0;
#X obj 405 559 allp~ 0;
#X obj 186 379 +~ 1.38;
#X obj 454 381 +~ 1.38;
#X obj 403 225 +~ 1.35;
#X obj 110 217 +~ 1.35;
#X obj 111 158 *~ 0.09;
#X obj 111 112 osc~ 6;
#X obj 405 807 *~ 0.98;
#X obj 112 799 *~ 0.98;
#X obj 404 484 allp-d~ 2.12;
#X obj 111 476 allp-d~ 2.12;
#X obj 264 246 r \$0-param-2;
#X obj 588 256 r \$0-param-2;
#X obj 641 335 expr 1-$f1;
#X obj 442 103 r \$0-param-1;
#X obj 442 126 * 3;
#X obj 442 149 + 0.01;
#X obj 500 458 * 0.7;
#X obj 199 455 * 0.7;
#X obj 641 357 clip 0.7 0.99;
#X obj 456 545 + 0.01;
#X obj 178 525 + 0.01;
#X obj 269 331 expr 1-$f1;
#X obj 269 353 clip 0.7 0.99;
#X obj 159 100 pow 4;
#X obj 159 77 r \$0-param-2;
#X obj 159 123 * 0.1;
#X obj 577 160 switch~ 1 1 1;
#X obj 577 18 r \$1-fieldn;
#X obj 577 41 == \$2;
#X obj 577 64 sel 1;
#X obj 606 92 del 6000;
#X msg 606 115 0;
#X msg 577 95 1;
#X connect 0 0 40 0;
#X connect 1 0 93 2;
#X connect 2 0 3 0;
#X connect 2 0 4 0;
#X connect 5 0 6 0;
#X connect 5 0 56 0;
#X connect 6 0 102 1;
#X connect 7 0 49 1;
#X connect 8 0 51 1;
#X connect 9 0 104 2;
#X connect 10 0 32 0;
#X connect 11 0 10 0;
#X connect 12 0 11 0;
#X connect 13 0 92 2;
#X connect 14 0 22 0;
#X connect 15 0 50 0;
#X connect 16 0 48 0;
#X connect 16 0 112 0;
#X connect 17 0 7 0;
#X connect 18 0 8 0;
#X connect 19 0 5 0;
#X connect 20 0 21 0;
#X connect 21 0 46 0;
#X connect 22 0 45 0;
#X connect 23 0 47 0;
#X connect 24 0 88 0;
#X connect 25 0 29 0;
#X connect 26 0 25 1;
#X connect 27 0 30 0;
#X connect 28 0 26 0;
#X connect 29 0 27 0;
#X connect 30 0 31 0;
#X connect 31 0 12 0;
#X connect 33 0 25 0;
#X connect 34 0 35 0;
#X connect 35 0 36 0;
#X connect 36 0 37 0;
#X connect 36 1 38 0;
#X connect 36 2 39 0;
#X connect 40 0 2 0;
#X connect 40 0 84 0;
#X connect 41 0 42 0;
#X connect 42 0 40 1;
#X connect 43 0 13 0;
#X connect 44 0 102 0;
#X connect 45 0 13 1;
#X connect 46 0 52 0;
#X connect 47 0 95 0;
#X connect 48 0 115 0;
#X connect 49 0 51 0;
#X connect 50 0 23 0;
#X connect 51 0 44 0;
#X connect 52 0 88 1;
#X connect 53 0 54 0;
#X connect 54 0 52 1;
#X connect 54 0 116 0;
#X connect 55 0 94 2;
#X connect 56 0 57 0;
#X connect 57 0 101 1;
#X connect 58 0 78 1;
#X connect 59 0 80 1;
#X connect 60 0 103 2;
#X connect 61 0 91 2;
#X connect 62 0 70 0;
#X connect 63 0 79 0;
#X connect 64 0 77 0;
#X connect 64 0 111 0;
#X connect 65 0 58 0;
#X connect 66 0 59 0;
#X connect 67 0 56 0;
#X connect 68 0 69 0;
#X connect 69 0 75 0;
#X connect 70 0 74 0;
#X connect 71 0 76 0;
#X connect 72 0 61 0;
#X connect 73 0 101 0;
#X connect 74 0 61 1;
#X connect 75 0 81 0;
#X connect 76 0 96 0;
#X connect 77 0 114 0;
#X connect 78 0 80 0;
#X connect 79 0 71 0;
#X connect 80 0 73 0;
#X connect 81 0 89 1;
#X connect 82 0 83 0;
#X connect 82 0 107 0;
#X connect 83 0 81 1;
#X connect 84 0 85 0;
#X connect 84 0 86 0;
#X connect 87 0 89 0;
#X connect 88 0 104 0;
#X connect 89 0 103 0;
#X connect 90 0 97 1;
#X connect 90 0 98 1;
#X connect 91 0 78 0;
#X connect 92 0 49 0;
#X connect 93 0 92 0;
#X connect 94 0 91 0;
#X connect 95 0 88 2;
#X connect 96 0 89 2;
#X connect 97 0 87 0;
#X connect 98 0 24 0;
#X connect 99 0 97 0;
#X connect 99 0 98 0;
#X connect 100 0 99 0;
#X connect 101 0 84 1;
#X connect 102 0 2 1;
#X connect 103 0 94 0;
#X connect 104 0 93 0;
#X connect 105 0 53 0;
#X connect 106 0 82 0;
#X connect 107 0 113 0;
#X connect 108 0 109 0;
#X connect 109 0 110 0;
#X connect 110 0 90 0;
#X connect 111 0 60 0;
#X connect 112 0 9 0;
#X connect 113 0 89 3;
#X connect 114 0 55 0;
#X connect 115 0 1 0;
#X connect 116 0 117 0;
#X connect 117 0 88 3;
#X connect 118 0 120 0;
#X connect 119 0 118 0;
#X connect 120 0 99 1;
#X connect 122 0 123 0;
#X connect 123 0 124 0;
#X connect 124 0 125 0;
#X connect 124 0 127 0;
#X connect 125 0 126 0;
#X connect 126 0 121 0;
#X connect 127 0 121 0;
