#N canvas 4 173 1003 960 10;
#X obj 116 34 loadbang;
#X msg 431 115 reset;
#X obj 23 396 *~;
#X obj 23 895 *~ 0.6;
#X obj 524 18 inlet;
#X obj 23 942 outlet~;
#X obj 116 78 t b b b b b b, f 53;
#X obj 524 47 t b b f;
#X obj 178 480 + 1;
#X obj 256 350 until;
#X obj 159 340 t f b;
#X msg 203 373 0;
#X obj 159 373 until;
#X obj 159 399 f;
#X obj 190 400 + 1;
#X msg 256 376 mass 20 0;
#X obj 159 436 t f f b;
#X obj 243 498 mtof;
#X obj 243 519 / 200;
#X obj 243 539 pow 2;
#X obj 243 559 t f b;
#X obj 225 40 bng 15 250 50 0 empty empty empty 17 7 0 10 -262144 -1
-1;
#X obj 243 475 f 60;
#X obj 159 258 f 14;
#X obj 159 286 t f f;
#X obj 178 500 % 15;
#X msg 423 428 0 9;
#X msg 485 452 1 10;
#X msg 457 432 1 9;
#X msg 509 477 2 10;
#X msg 518 510 3 10;
#X msg 511 541 3 11;
#X msg 497 570 4 11;
#X msg 477 595 4 12;
#X msg 439 620 5 12;
#X msg 392 618 6 12;
#X msg 358 588 6 13;
#X msg 340 545 7 13;
#X msg 341 505 8 13;
#X msg 384 442 8 0;
#X msg 359 469 8 9;
#X msg 420 495 9 14;
#X msg 457 510 10 14;
#X msg 450 541 11 14;
#X msg 420 567 12 14;
#X msg 402 524 13 9;
#X obj 453 374 t b;
#X msg 162 762 link \$1 \$2 \$3 \$4;
#X obj 162 718 pack f f f 0.002;
#X obj 24 36 inlet~;
#X obj 37 269 == \$1;
#X obj 37 366 line~;
#X obj 37 299 sel 0 1;
#X msg 37 326 0 20;
#X obj 37 237 r \$2-current;
#X obj 326 690 r \$2-damping;
#X obj 22 873 pmpd~ 1 2;
#X obj 74 896 *~ 0.6;
#X obj 78 941 outlet~;
#X msg 119 811 outPos 0 7 1 \, outPos 1 11 1 \, inForce 0 12 1;
#X msg 85 326 1 1;
#X connect 0 0 6 0;
#X connect 1 0 56 0;
#X connect 2 0 56 0;
#X connect 3 0 5 0;
#X connect 4 0 7 0;
#X connect 6 0 59 0;
#X connect 6 1 46 0;
#X connect 6 3 23 0;
#X connect 6 5 1 0;
#X connect 7 1 6 0;
#X connect 7 2 22 1;
#X connect 8 0 25 0;
#X connect 9 0 15 0;
#X connect 10 0 12 0;
#X connect 10 1 11 0;
#X connect 11 0 13 1;
#X connect 12 0 13 0;
#X connect 13 0 14 0;
#X connect 13 0 16 0;
#X connect 14 0 13 1;
#X connect 15 0 56 0;
#X connect 16 0 48 0;
#X connect 16 1 8 0;
#X connect 16 2 22 0;
#X connect 17 0 18 0;
#X connect 18 0 19 0;
#X connect 19 0 20 0;
#X connect 20 0 48 2;
#X connect 21 0 6 0;
#X connect 22 0 17 0;
#X connect 23 0 24 0;
#X connect 24 0 10 0;
#X connect 24 1 9 0;
#X connect 25 0 48 1;
#X connect 26 0 48 0;
#X connect 27 0 48 0;
#X connect 28 0 48 0;
#X connect 29 0 48 0;
#X connect 30 0 48 0;
#X connect 31 0 48 0;
#X connect 32 0 48 0;
#X connect 33 0 48 0;
#X connect 34 0 48 0;
#X connect 35 0 48 0;
#X connect 36 0 48 0;
#X connect 37 0 48 0;
#X connect 38 0 48 0;
#X connect 39 0 48 0;
#X connect 40 0 48 0;
#X connect 41 0 48 0;
#X connect 42 0 48 0;
#X connect 43 0 48 0;
#X connect 44 0 48 0;
#X connect 45 0 48 0;
#X connect 46 0 39 0;
#X connect 46 0 26 0;
#X connect 46 0 28 0;
#X connect 46 0 27 0;
#X connect 46 0 29 0;
#X connect 46 0 30 0;
#X connect 46 0 42 0;
#X connect 46 0 41 0;
#X connect 46 0 40 0;
#X connect 46 0 38 0;
#X connect 46 0 45 0;
#X connect 46 0 43 0;
#X connect 46 0 31 0;
#X connect 46 0 32 0;
#X connect 46 0 33 0;
#X connect 46 0 44 0;
#X connect 46 0 34 0;
#X connect 46 0 35 0;
#X connect 46 0 36 0;
#X connect 46 0 37 0;
#X connect 47 0 56 0;
#X connect 48 0 47 0;
#X connect 49 0 2 0;
#X connect 50 0 52 0;
#X connect 51 0 2 1;
#X connect 52 0 53 0;
#X connect 52 1 60 0;
#X connect 53 0 51 0;
#X connect 54 0 50 0;
#X connect 55 0 48 3;
#X connect 56 0 3 0;
#X connect 56 1 57 0;
#X connect 57 0 58 0;
#X connect 59 0 56 0;
#X connect 60 0 51 0;
