#N canvas 772 294 865 833 10;
#X obj 77 20 inlet~;
#X obj 79 541 outlet~;
#X obj 78 209 *~;
#X obj 94 79 == \$1;
#X obj 94 176 line~;
#X obj 94 109 sel 0 1;
#X obj 94 47 r \$2-current;
#X msg 94 136 0 10;
#X obj 264 13 inlet;
#X obj 298 91 r \$2-decaytime;
#X obj 295 153 r \$2-brightness;
#X obj 296 210 r \$2-pick_position;
#X obj 295 270 r \$2-pick_angle;
#X obj 296 322 r \$2-dynamic_level;
#X msg 262 58 freq \$1;
#X obj 263 36 mtof;
#X msg 296 343 dynamic_level \$1;
#X msg 295 292 pick_angle \$1;
#X msg 296 232 pick_position \$1;
#X msg 295 175 brightness \$1;
#X msg 298 115 decaytime \$1;
#X obj 154 541 outlet~;
#X msg 295 405 center-panned_spatial_width \$1;
#X msg 296 457 pan_angle \$1;
#X obj 78 503 faustgen~ eks;
#X obj 295 383 r \$2-center-panned_spatial_width;
#X obj 296 435 r \$2-pan_angle;
#X msg 142 136 1 1;
#X connect 0 0 2 0;
#X connect 2 0 24 0;
#X connect 3 0 5 0;
#X connect 4 0 2 1;
#X connect 5 0 7 0;
#X connect 5 1 27 0;
#X connect 6 0 3 0;
#X connect 7 0 4 0;
#X connect 8 0 15 0;
#X connect 9 0 20 0;
#X connect 10 0 19 0;
#X connect 11 0 18 0;
#X connect 12 0 17 0;
#X connect 13 0 16 0;
#X connect 14 0 24 0;
#X connect 15 0 14 0;
#X connect 16 0 24 0;
#X connect 17 0 24 0;
#X connect 18 0 24 0;
#X connect 19 0 24 0;
#X connect 20 0 24 0;
#X connect 22 0 24 0;
#X connect 23 0 24 0;
#X connect 24 0 1 0;
#X connect 24 1 21 0;
#X connect 25 0 22 0;
#X connect 26 0 23 0;
#X connect 27 0 4 0;
