#N canvas 472 172 865 833 10;
#X declare -path ../chair;
#X obj 77 20 inlet~;
#X obj 79 541 outlet~;
#X obj 201 82 == \$1;
#X obj 201 50 r \$2-current;
#X obj 329 17 inlet;
#X obj 364 95 r \$2-decaytime;
#X obj 361 157 r \$2-brightness;
#X obj 362 214 r \$2-pick_position;
#X obj 361 274 r \$2-pick_angle;
#X obj 362 326 r \$2-dynamic_level;
#X msg 328 62 freq \$1;
#X obj 329 40 mtof;
#X msg 362 347 dynamic_level \$1;
#X msg 361 296 pick_angle \$1;
#X msg 362 236 pick_position \$1;
#X msg 361 179 brightness \$1;
#X msg 364 119 decaytime \$1;
#X obj 154 541 outlet~;
#X msg 361 409 center-panned_spatial_width \$1;
#X msg 362 461 pan_angle \$1;
#X obj 361 387 r \$2-center-panned_spatial_width;
#X obj 362 439 r \$2-pan_angle;
#X obj 78 503 faustgen~ eks;
#X obj 558 47 declare -path ../chair;
#X obj 78 111 chair.touchgate~ 1 10;
#X connect 0 0 24 0;
#X connect 2 0 24 1;
#X connect 3 0 2 0;
#X connect 4 0 11 0;
#X connect 5 0 16 0;
#X connect 6 0 15 0;
#X connect 7 0 14 0;
#X connect 8 0 13 0;
#X connect 9 0 12 0;
#X connect 10 0 22 0;
#X connect 11 0 10 0;
#X connect 12 0 22 0;
#X connect 13 0 22 0;
#X connect 14 0 22 0;
#X connect 15 0 22 0;
#X connect 16 0 22 0;
#X connect 18 0 22 0;
#X connect 19 0 22 0;
#X connect 20 0 18 0;
#X connect 21 0 19 0;
#X connect 22 0 1 0;
#X connect 22 1 17 0;
#X connect 24 0 22 0;
