#N canvas 773 339 902 688 10;
#X declare -path ./chair;
#X obj 367 283 /;
#X msg 367 259 1000 \$1;
#X obj 399 101 mtof;
#X obj 208 437 lop~ 1500;
#X obj 209 331 +~;
#X obj 208 230 osc~;
#X obj 399 78 inlet;
#X obj 207 646 outlet~;
#X obj 208 254 -~ 1;
#X text 282 482 Karplus Strong;
#X text 240 229 FM;
#X obj 34 646 delwrite~ \$0-bo 128;
#X obj 208 363 vd~ \$0-bo 128;
#X text 445 585 (c) Liam Goodacre 2016 \, liam.goodacre@gmail.com;
#X obj 34 81 inlet~;
#X obj 282 224 r \$2-fm-amount;
#X floatatom 290 248 5 0 0 0 - - -;
#X obj 71 422 == \$1;
#X obj 71 395 r \$2-current;
#X text 457 567 Based on:;
#X obj 209 278 *~ 0;
#X obj 355 327 r \$2-timbre;
#X obj 208 80 r \$2-harmonic;
#X obj 208 191 * 1;
#X obj 476 103 block~ 1;
#X obj 476 78 declare -path ./chair;
#X obj 34 606 chair.dynamics~;
#X obj 246 510 loadbang;
#X obj 208 137 t b f;
#X obj 208 164 f;
#X floatatom 219 107 5 0 0 0 - - -;
#X obj 399 159 t f f;
#X obj 411 374 +;
#X obj 207 484 *~ 0.9995;
#X obj 34 455 chair.touchgate~;
#X msg 245 532 threshold-compress -24 \, compress 100 \, release 100
\, lookahead 24 \, dry/wet 50;
#X connect 0 0 4 1;
#X connect 1 0 0 0;
#X connect 2 0 29 1;
#X connect 2 0 31 0;
#X connect 3 0 33 0;
#X connect 4 0 12 0;
#X connect 5 0 8 0;
#X connect 6 0 2 0;
#X connect 8 0 20 0;
#X connect 12 0 3 0;
#X connect 14 0 34 0;
#X connect 15 0 16 0;
#X connect 15 0 20 1;
#X connect 17 0 34 1;
#X connect 18 0 17 0;
#X connect 20 0 4 0;
#X connect 21 0 32 0;
#X connect 22 0 28 0;
#X connect 22 0 30 0;
#X connect 23 0 5 0;
#X connect 26 0 11 0;
#X connect 27 0 35 0;
#X connect 28 0 29 0;
#X connect 28 1 23 1;
#X connect 29 0 23 0;
#X connect 31 0 1 0;
#X connect 31 1 32 1;
#X connect 32 0 3 1;
#X connect 33 0 7 0;
#X connect 33 0 26 0;
#X connect 34 0 26 0;
#X connect 35 0 26 1;
#X coords 0 688 1 687 85 60 0;
