#N canvas 630 409 902 688 10;
#X declare -path ./chair;
#X declare -path abstractions;
#X obj 313 200 /;
#X msg 313 176 1000 \$1;
#X obj 320 57 mtof;
#X obj 239 436 lop~ 1500;
#X obj 237 334 +~;
#X obj 121 248 osc~;
#X obj 320 30 inlet;
#X obj 238 645 outlet~;
#X text 307 484 Karplus Strong;
#X text 153 252 FM;
#X text 445 585 (c) Liam Goodacre 2016 \, liam.goodacre@gmail.com;
#X obj 35 20 inlet~;
#X obj 193 31 r \$2-fm-amount;
#X floatatom 208 59 5 0 0 0 - - -;
#X obj 151 428 == \$1;
#X obj 151 401 r \$2-current;
#X text 457 567 Based on:;
#X obj 121 162 * 1;
#X obj 602 108 block~ 1;
#X obj 602 83 declare -path ./chair;
#X obj 109 78 t b f;
#X obj 181 130 f;
#X floatatom 120 57 5 0 0 0 - - -;
#X obj 440 339 +;
#N canvas 0 50 450 300 (subpatch) 0;
#X array \$0-osc 1024 float 0;
#X coords 0 -1 1023 1 200 140 1 0 0;
#X restore 602 180 graph;
#N canvas 0 50 450 300 (subpatch) 0;
#X array \$0-mod 1024 float 4;
#X coords 0 7 1023 0 200 140 1 0 0;
#X restore 601 345 graph;
#X obj 496 388 tgl 15 0 empty empty empty 17 7 0 10 -262144 -1 -1 0
1;
#X obj 457 437 tabwrite~ \$0-osc;
#X obj 494 409 metro 200;
#X floatatom 534 386 5 0 0 0 - - -;
#X obj 494 490 tabwrite~ \$0-mod;
#X floatatom 356 229 5 0 0 0 - - -;
#X obj 121 225 sig~;
#X obj 178 252 line~;
#X obj 121 188 t f f;
#X obj 179 211 sel 0;
#X obj 120 282 *~;
#X msg 179 231 0 2;
#X msg 211 231 1 2;
#X obj 236 289 *~;
#X obj 251 258 *~;
#X obj 34 584 chair.dc-offset~;
#X obj 602 45 declare -path abstractions;
#X obj 396 228 r \$2-lp;
#X obj 193 82 t b f;
#X obj 251 135 f;
#X obj 109 30 r \$2-fm-freq;
#N canvas 1211 659 313 261 del_read 0;
#X obj 20 20 inlet~;
#X obj 20 120 outlet~;
#X obj 21 80 delread4~ \$0-bo;
#X connect 0 0 2 0;
#X connect 2 0 1 0;
#X restore 238 385 pd del_read;
#N canvas 1007 920 367 210 del_write 0;
#X obj 20 20 inlet~;
#X obj 21 54 delwrite~ \$0-bo 128;
#X connect 0 0 1 0;
#X restore 34 646 pd del_write;
#X obj 238 483 *~ 0.995;
#X obj 313 229 t f f;
#X floatatom 455 368 5 0 0 0 - - -;
#X obj 320 81 t b f f f, f 23;
#X obj 34 455 chair.touchgate~ 1 2;
#X connect 0 0 31 0;
#X connect 0 0 50 0;
#X connect 1 0 0 0;
#X connect 2 0 52 0;
#X connect 3 0 49 0;
#X connect 4 0 30 0;
#X connect 4 0 47 0;
#X connect 5 0 36 0;
#X connect 6 0 2 0;
#X connect 11 0 53 0;
#X connect 12 0 13 0;
#X connect 12 0 44 0;
#X connect 14 0 53 1;
#X connect 15 0 14 0;
#X connect 17 0 34 0;
#X connect 20 0 21 0;
#X connect 20 1 17 1;
#X connect 21 0 17 0;
#X connect 23 0 3 1;
#X connect 23 0 51 0;
#X connect 26 0 28 0;
#X connect 28 0 27 0;
#X connect 28 0 30 0;
#X connect 29 0 28 1;
#X connect 32 0 5 0;
#X connect 33 0 36 1;
#X connect 34 0 32 0;
#X connect 34 1 35 0;
#X connect 35 0 37 0;
#X connect 35 1 38 0;
#X connect 36 0 27 0;
#X connect 36 0 39 0;
#X connect 37 0 33 0;
#X connect 38 0 33 0;
#X connect 39 0 4 0;
#X connect 40 0 39 1;
#X connect 41 0 48 0;
#X connect 43 0 23 0;
#X connect 44 0 21 0;
#X connect 44 1 45 0;
#X connect 45 0 40 0;
#X connect 46 0 20 0;
#X connect 46 0 22 0;
#X connect 47 0 3 0;
#X connect 49 0 7 0;
#X connect 49 0 41 0;
#X connect 50 0 40 1;
#X connect 50 1 4 1;
#X connect 52 0 45 0;
#X connect 52 1 21 0;
#X connect 52 2 1 0;
#X connect 52 3 23 1;
#X connect 53 0 41 0;
#X coords 0 688 1 687 85 60 0;
