#N canvas 629 215 1222 945 10;
#X declare -path ./chair;
#X msg 222 508 \$1 100;
#X obj 222 529 line~;
#X obj 206 553 *~;
#X obj 205 43 mtof;
#X obj 222 444 sqrt;
#X obj 207 575 lop~;
#X text 253 445 del-1 feedback;
#X obj 34 67 inlet~;
#X obj 205 21 inlet;
#X obj 71 259 == \$1;
#X obj 71 232 r \$2-current;
#X obj 34 292 chair.touchgate~;
#X obj 579 23 declare -path ./chair;
#X obj 189 897 outlet~;
#X obj 335 510 +;
#X obj 335 475 r \$2-lp;
#X obj 222 422 r \$2-fb;
#X text 244 576 del rolloff;
#X obj 263 89 r \$2-timbre;
#X obj 189 821 chair.dc-offset~;
#X obj 222 488 clip 0 0.999;
#N canvas 459 375 636 526 thiran-2nd-order-coefficients 0;
#X obj 221 25 inlet~;
#X obj 122 367 outlet~;
#X obj 326 365 outlet~;
#X obj 117 118 -~ 1;
#X obj 57 118 -~ 2;
#X obj 417 113 +~ 2;
#X obj 239 131 +~ 1;
#X obj 122 333 *~ -2;
#X obj 81 199 /~;
#X obj 155 198 /~;
#X obj 212 207 /~;
#X obj 123 246 *~;
#X obj 122 288 *~;
#X obj 321 208 /~;
#X obj 302 253 *~;
#X obj 274 210 /~;
#X obj 395 252 /~;
#X obj 324 290 *~;
#X connect 0 0 3 0;
#X connect 0 0 4 0;
#X connect 0 0 9 1;
#X connect 0 0 10 0;
#X connect 0 0 6 0;
#X connect 0 0 13 1;
#X connect 0 0 5 0;
#X connect 0 0 16 0;
#X connect 3 0 8 1;
#X connect 3 0 9 0;
#X connect 3 0 15 0;
#X connect 4 0 8 0;
#X connect 4 0 13 0;
#X connect 5 0 16 1;
#X connect 6 0 10 1;
#X connect 6 0 15 1;
#X connect 7 0 1 0;
#X connect 8 0 11 0;
#X connect 9 0 11 1;
#X connect 10 0 12 1;
#X connect 11 0 12 0;
#X connect 12 0 7 0;
#X connect 13 0 14 1;
#X connect 14 0 17 0;
#X connect 15 0 14 0;
#X connect 16 0 17 1;
#X connect 17 0 2 0;
#X restore 464 493 pd thiran-2nd-order-coefficients;
#X obj 580 54 block~ 2;
#X obj 206 610 fexpr~ $x2*$x1[0] + $x3*$x1[-1] + $x1[-2] - $x3*$y1[-1]
- $x2*$y1[-2] \;;
#X obj 206 658 fexpr~ $x2*$x1[0] + $x3*$x1[-1] + $x1[-2] - $x3*$y1[-1]
- $x2*$y1[-2] \;;
#X obj 207 710 fexpr~ $x2*$x1[0] + $x3*$x1[-1] + $x1[-2] - $x3*$y1[-1]
- $x2*$y1[-2] \;;
#X obj 208 755 fexpr~ $x2*$x1[0] + $x3*$x1[-1] + $x1[-2] - $x3*$y1[-1]
- $x2*$y1[-2] \;;
#X obj 580 609 fexpr~ $x2*$x1[0] + $x3*$x1[-1] + $x1[-2] - $x3*$y1[-1]
- $x2*$y1[-2] \;;
#X obj 580 657 fexpr~ $x2*$x1[0] + $x3*$x1[-1] + $x1[-2] - $x3*$y1[-1]
- $x2*$y1[-2] \;;
#X obj 581 709 fexpr~ $x2*$x1[0] + $x3*$x1[-1] + $x1[-2] - $x3*$y1[-1]
- $x2*$y1[-2] \;;
#X obj 579 758 fexpr~ $x2*$x1[0] + $x3*$x1[-1] + $x1[-2] - $x3*$y1[-1]
- $x2*$y1[-2] \;;
#X obj 205 378 delread4~ \$0-d1;
#X obj 262 220 *~ 2.5;
#X obj 262 241 +~ 1;
#X obj 262 286 /~ 48;
#X obj 262 308 *~ 8;
#X obj 204 346 -~, f 13;
#X obj 205 140 sig~;
#X obj 262 199 *~;
#X obj 222 466 * 0.999;
#X obj 205 115 /;
#X msg 205 89 1000 \$1;
#X obj 33 894 delwrite~ \$0-d1 30;
#N canvas 0 89 791 562 smooth 0;
#X obj 114 13 inlet;
#X obj 363 13 inlet;
#X obj 189 311 outlet;
#X obj 189 116 float;
#X text 325 251 St = a*Yt1+(1-a)*St1;
#X obj 114 40 trigger float bang;
#X text 157 117 Yt1;
#X obj 259 118 float;
#X text 296 117 St1;
#X obj 189 170 expr $f3*$f1+(1-$f3)*$f2;
#X obj 242 282 pddp/pddplink http://www.itl.nist.gov/div898/handbook/pmc/section4/pmc431.htm
;
#X obj 363 120 clip 0 1;
#N canvas 294 674 578 389 defaults 0;
#X obj 30 240 outlet;
#X obj 30 60 loadbang;
#X obj 30 106 makefilename .%c1;
#X obj 30 129 select .\$1;
#X msg 30 82 36;
#X obj 110 180 f \$1;
#X obj 110 154 t b;
#X msg 30 180 0.15;
#X connect 1 0 4 0;
#X connect 2 0 3 0;
#X connect 3 0 7 0;
#X connect 3 1 6 0;
#X connect 4 0 2 0;
#X connect 5 0 0 0;
#X connect 6 0 5 0;
#X connect 7 0 0 0;
#X restore 387 51 pd defaults;
#X obj 493 52 loadbang;
#X msg 493 75 0.15;
#X connect 0 0 5 0;
#X connect 1 0 11 0;
#X connect 3 0 9 0;
#X connect 5 0 3 1;
#X connect 5 1 3 0;
#X connect 5 1 7 0;
#X connect 7 0 9 1;
#X connect 9 0 2 0;
#X connect 9 0 7 1;
#X connect 11 0 9 2;
#X connect 13 0 14 0;
#X connect 14 0 11 0;
#X restore 263 117 pd smooth;
#X obj 263 163 line~;
#X msg 263 138 \$1 30;
#X obj 335 553 line;
#X msg 335 531 \$1 50;
#X obj 205 64 t f f, f 31;
#X obj 388 477 t b f;
#X connect 0 0 1 0;
#X connect 1 0 2 1;
#X connect 2 0 5 0;
#X connect 3 0 48 0;
#X connect 4 0 39 0;
#X connect 5 0 23 0;
#X connect 7 0 11 0;
#X connect 8 0 3 0;
#X connect 9 0 11 1;
#X connect 10 0 9 0;
#X connect 11 0 42 0;
#X connect 14 0 47 0;
#X connect 15 0 14 0;
#X connect 16 0 4 0;
#X connect 18 0 43 0;
#X connect 19 0 13 0;
#X connect 19 0 42 0;
#X connect 20 0 0 0;
#X connect 21 0 23 2;
#X connect 21 0 24 2;
#X connect 21 0 25 2;
#X connect 21 0 26 2;
#X connect 21 0 27 2;
#X connect 21 0 30 2;
#X connect 21 0 29 2;
#X connect 21 0 28 2;
#X connect 21 1 23 1;
#X connect 21 1 24 1;
#X connect 21 1 25 1;
#X connect 21 1 26 1;
#X connect 21 1 27 1;
#X connect 21 1 30 1;
#X connect 21 1 29 1;
#X connect 21 1 28 1;
#X connect 23 0 24 0;
#X connect 24 0 25 0;
#X connect 25 0 26 0;
#X connect 26 0 27 0;
#X connect 27 0 28 0;
#X connect 28 0 29 0;
#X connect 29 0 30 0;
#X connect 30 0 19 0;
#X connect 31 0 2 0;
#X connect 32 0 33 0;
#X connect 33 0 21 0;
#X connect 33 0 34 0;
#X connect 34 0 35 0;
#X connect 35 0 36 1;
#X connect 36 0 31 0;
#X connect 37 0 38 1;
#X connect 37 0 36 0;
#X connect 38 0 32 0;
#X connect 39 0 20 0;
#X connect 40 0 37 0;
#X connect 41 0 40 0;
#X connect 43 0 45 0;
#X connect 44 0 38 0;
#X connect 45 0 44 0;
#X connect 46 0 5 1;
#X connect 47 0 46 0;
#X connect 48 0 41 0;
#X connect 48 1 49 0;
#X connect 49 0 14 0;
#X connect 49 1 14 1;
