#N canvas 2709 366 1069 756 10;
#X obj 924 61 block~ 1;
#X obj 18 115 inlet~;
#X obj 532 261 lop~ 2000;
#X obj 157 711 outlet~;
#X obj 532 281 hip~ 1;
#X obj 531 333 *~;
#X obj 570 336 *~;
#X obj 530 391 -~;
#X obj 530 466 +~;
#X obj 738 281 lop~ 2000;
#X obj 700 344 *~;
#X obj 739 347 *~;
#X obj 699 402 +~;
#X obj 159 20 inlet;
#X obj 531 240 delread~ \$0-a;
#X obj 529 505 delwrite~ \$0-a 200;
#X obj 698 496 delwrite~ \$0-b 200;
#X obj 739 260 delread~ \$0-b 200;
#X obj 218 498 delwrite~ \$0-c 200;
#X obj 280 457 delwrite~ \$0-d 200;
#X obj 160 266 lop~ 2000;
#X obj 160 286 hip~ 1;
#X obj 159 348 *~;
#X obj 198 346 *~;
#X obj 158 412 -~;
#X obj 319 290 lop~ 2000;
#X obj 280 345 *~;
#X obj 319 348 *~;
#X obj 279 414 +~;
#X obj 159 244 delread~ \$0-c;
#X obj 320 269 delread~ \$0-d 200;
#X obj 158 444 +~;
#X obj 173 566 cos~;
#X obj 246 588 cos~;
#X obj 157 595 *~;
#X obj 245 626 *~;
#X obj 320 247 * 1;
#X obj 739 240 * 1;
#X obj 246 567 +~ 0.75;
#X obj 156 653 +~;
#X text 715 665 2018 \, Phillip Schmalfuß;
#X obj 159 41 t l l;
#X obj 531 154 t f f;
#X obj 567 154 t f f;
#X obj 603 154 t f f;
#X obj 639 154 t f f;
#X obj 159 166 t f f;
#X obj 195 166 t f f;
#X obj 231 166 t f f;
#X obj 267 166 t f f;
#X obj 758 37 r \$2-detune;
#X obj 791 72 r \$2-current;
#X obj 758 118 spigot;
#X obj 758 142 t f f;
#X obj 791 96 == \$1;
#X obj 746 203 t b f;
#X obj 332 209 t b f;
#X obj 531 82 unpack f f f f f f;
#X obj 159 95 unpack f f f f f f;
#X text 225 40 pitch \, lop \, feedreal \, feedimag \, feedreal2 \,
feedimag2;
#X connect 1 0 31 1;
#X connect 1 0 8 1;
#X connect 2 0 4 0;
#X connect 4 0 5 0;
#X connect 4 0 10 0;
#X connect 5 0 7 0;
#X connect 6 0 7 1;
#X connect 7 0 8 0;
#X connect 8 0 15 0;
#X connect 8 0 32 0;
#X connect 8 0 35 1;
#X connect 9 0 6 0;
#X connect 9 0 11 0;
#X connect 10 0 12 0;
#X connect 11 0 12 1;
#X connect 12 0 16 0;
#X connect 13 0 41 0;
#X connect 14 0 2 0;
#X connect 17 0 9 0;
#X connect 20 0 21 0;
#X connect 21 0 22 0;
#X connect 21 0 26 0;
#X connect 22 0 24 0;
#X connect 23 0 24 1;
#X connect 24 0 31 0;
#X connect 25 0 23 0;
#X connect 25 0 27 0;
#X connect 26 0 28 0;
#X connect 27 0 28 1;
#X connect 28 0 19 0;
#X connect 29 0 20 0;
#X connect 30 0 25 0;
#X connect 31 0 18 0;
#X connect 31 0 38 0;
#X connect 31 0 34 0;
#X connect 32 0 34 1;
#X connect 33 0 35 0;
#X connect 34 0 39 0;
#X connect 35 0 39 1;
#X connect 36 0 30 0;
#X connect 37 0 17 0;
#X connect 38 0 33 0;
#X connect 39 0 3 0;
#X connect 41 0 58 0;
#X connect 41 1 57 0;
#X connect 42 0 14 0;
#X connect 42 1 37 0;
#X connect 43 0 2 1;
#X connect 43 1 9 1;
#X connect 44 0 5 1;
#X connect 44 1 11 1;
#X connect 45 0 6 1;
#X connect 45 1 10 1;
#X connect 46 0 29 0;
#X connect 46 1 36 0;
#X connect 47 0 20 1;
#X connect 47 1 25 1;
#X connect 48 0 22 1;
#X connect 48 1 27 1;
#X connect 49 0 23 1;
#X connect 49 1 26 1;
#X connect 50 0 52 0;
#X connect 51 0 54 0;
#X connect 52 0 53 0;
#X connect 53 0 56 0;
#X connect 53 1 55 0;
#X connect 54 0 52 1;
#X connect 55 0 37 0;
#X connect 55 1 37 1;
#X connect 56 0 36 0;
#X connect 56 1 36 1;
#X connect 57 0 42 0;
#X connect 57 1 43 0;
#X connect 57 2 44 0;
#X connect 57 3 45 0;
#X connect 58 0 46 0;
#X connect 58 1 47 0;
#X connect 58 4 48 0;
#X connect 58 5 49 0;
