#N canvas 2019 168 890 951 10;
#X obj 776 14 block~ 1;
#X obj 45 495 inlet~;
#X obj 431 308 lop~ 2000;
#X obj 29 804 outlet~;
#X obj 431 332 hip~ 1;
#X obj 431 445 *~;
#X obj 470 445 *~;
#X obj 430 471 -~, f 7;
#X obj 430 628 +~;
#X obj 611 304 lop~ 2000;
#X obj 572 450 *~;
#X obj 611 450 *~;
#X obj 571 480 +~, f 7;
#X obj 33 305 lop~ 2000;
#X obj 32 328 hip~ 1;
#X obj 31 445 *~;
#X obj 70 443 *~;
#X obj 30 469 -~, f 7;
#X obj 226 307 lop~ 2000;
#X obj 194 444 *~;
#X obj 227 444 *~;
#X obj 194 469 +~, f 6;
#X obj 29 609 +~;
#X obj 44 713 cos~;
#X obj 293 719 cos~;
#X obj 28 742 *~;
#X obj 292 757 *~;
#X obj 225 185 * 1;
#X obj 611 168 * 1;
#X obj 293 698 +~ 0.75;
#X obj 29 781 +~;
#X text 618 735 2018 \, Phillip Schmalfuß;
#X obj 625 402 t f f;
#X obj 723 402 t f f;
#X obj 233 391 t f f;
#X obj 329 390 t f f;
#X obj 247 53 r \$2-detune;
#X obj 32 81 r \$2-pitch;
#X obj 611 209 line~;
#X msg 611 189 \$1 50;
#X obj 430 182 line~;
#X msg 430 162 \$1 50;
#X obj 226 230 line~;
#X msg 226 210 \$1 50;
#X obj 32 174 line~;
#X msg 32 154 \$1 50;
#X obj 79 236 r \$2-lop;
#X obj 32 129 t f f f f, f 97;
#X obj 79 282 t f f f f, f 98;
#N canvas 2490 152 450 300 thisinstance 0;
#X obj 74 83 r \$2-current;
#X obj 41 129 spigot;
#X obj 74 107 == \$1;
#X obj 31 47 inlet;
#X obj 34 201 outlet;
#X connect 0 0 2 0;
#X connect 1 0 4 0;
#X connect 2 0 1 1;
#X connect 3 0 1 0;
#X restore 247 78 pd thisinstance;
#N canvas 2490 152 450 300 thisinstance 0;
#X obj 74 83 r \$2-current;
#X obj 41 129 spigot;
#X obj 74 107 == \$1;
#X obj 31 47 inlet;
#X obj 34 201 outlet;
#X connect 0 0 2 0;
#X connect 1 0 4 0;
#X connect 2 0 1 1;
#X connect 3 0 1 0;
#X restore 32 105 pd thisinstance;
#N canvas 2490 152 450 300 thisinstance 0;
#X obj 74 83 r \$2-current;
#X obj 41 129 spigot;
#X obj 74 107 == \$1;
#X obj 31 47 inlet;
#X obj 34 201 outlet;
#X connect 0 0 2 0;
#X connect 1 0 4 0;
#X connect 2 0 1 1;
#X connect 3 0 1 0;
#X restore 722 379 pd thisinstance;
#N canvas 2490 152 450 300 thisinstance 0;
#X obj 74 83 r \$2-current;
#X obj 41 129 spigot;
#X obj 74 107 == \$1;
#X obj 31 47 inlet;
#X obj 34 201 outlet;
#X connect 0 0 2 0;
#X connect 1 0 4 0;
#X connect 2 0 1 1;
#X connect 3 0 1 0;
#X restore 625 378 pd thisinstance;
#N canvas 2490 152 450 300 thisinstance 0;
#X obj 74 83 r \$2-current;
#X obj 41 129 spigot;
#X obj 74 107 == \$1;
#X obj 31 47 inlet;
#X obj 34 201 outlet;
#X connect 0 0 2 0;
#X connect 1 0 4 0;
#X connect 2 0 1 1;
#X connect 3 0 1 0;
#X restore 233 369 pd thisinstance;
#N canvas 2490 152 450 300 thisinstance 0;
#X obj 74 83 r \$2-current;
#X obj 41 129 spigot;
#X obj 74 107 == \$1;
#X obj 31 47 inlet;
#X obj 34 201 outlet;
#X connect 0 0 2 0;
#X connect 1 0 4 0;
#X connect 2 0 1 1;
#X connect 3 0 1 0;
#X restore 329 369 pd thisinstance;
#N canvas 2490 152 450 300 thisinstance 0;
#X obj 74 83 r \$2-current;
#X obj 41 129 spigot;
#X obj 74 107 == \$1;
#X obj 31 47 inlet;
#X obj 34 201 outlet;
#X connect 0 0 2 0;
#X connect 1 0 4 0;
#X connect 2 0 1 1;
#X connect 3 0 1 0;
#X restore 79 257 pd thisinstance;
#X obj 247 102 t b f b f, f 63;
#X obj 42 665 delwrite~ \$0-a 200;
#X obj 193 643 delwrite~ \$0-b 200;
#X obj 429 667 delwrite~ \$0-c 200;
#X obj 569 666 delwrite~ \$0-d 200;
#X obj 32 197 delread4~ \$0-a;
#X obj 225 255 delread4~ \$0-b 200;
#X obj 431 209 delread4~ \$0-c;
#X obj 611 231 delread4~ \$0-d 200;
#X obj 625 354 r \$2-feedreal2;
#X obj 722 355 r \$2-feedimag2;
#X obj 233 347 r \$2-feedreal;
#X obj 329 347 r \$2-feedimag;
#X floatatom 363 77 5 0 0 0 - - -;
#X obj 45 586 *~;
#X obj 89 495 r \$2-current;
#X obj 89 519 == \$1;
#X obj 87 560 line~;
#X msg 89 539 \$1 5;
#X connect 1 0 70 0;
#X connect 2 0 4 0;
#X connect 4 0 5 0;
#X connect 4 0 10 0;
#X connect 5 0 7 0;
#X connect 6 0 7 1;
#X connect 7 0 8 0;
#X connect 8 0 23 0;
#X connect 8 0 26 1;
#X connect 8 0 59 0;
#X connect 9 0 6 0;
#X connect 9 0 11 0;
#X connect 10 0 12 0;
#X connect 11 0 12 1;
#X connect 12 0 60 0;
#X connect 13 0 14 0;
#X connect 14 0 15 0;
#X connect 14 0 19 0;
#X connect 15 0 17 0;
#X connect 16 0 17 1;
#X connect 17 0 22 0;
#X connect 18 0 16 0;
#X connect 18 0 20 0;
#X connect 19 0 21 0;
#X connect 20 0 21 1;
#X connect 21 0 58 0;
#X connect 22 0 29 0;
#X connect 22 0 25 0;
#X connect 22 0 57 0;
#X connect 23 0 25 1;
#X connect 24 0 26 0;
#X connect 25 0 30 0;
#X connect 26 0 30 1;
#X connect 27 0 43 0;
#X connect 28 0 39 0;
#X connect 29 0 24 0;
#X connect 30 0 3 0;
#X connect 32 0 5 1;
#X connect 32 1 11 1;
#X connect 33 0 6 1;
#X connect 33 1 10 1;
#X connect 34 0 15 1;
#X connect 34 1 20 1;
#X connect 35 0 16 1;
#X connect 35 1 19 1;
#X connect 36 0 49 0;
#X connect 37 0 50 0;
#X connect 38 0 64 0;
#X connect 39 0 38 0;
#X connect 40 0 63 0;
#X connect 41 0 40 0;
#X connect 42 0 62 0;
#X connect 43 0 42 0;
#X connect 44 0 61 0;
#X connect 45 0 44 0;
#X connect 46 0 55 0;
#X connect 47 0 45 0;
#X connect 47 1 27 0;
#X connect 47 2 41 0;
#X connect 47 3 28 0;
#X connect 48 0 13 1;
#X connect 48 1 18 1;
#X connect 48 2 2 1;
#X connect 48 3 9 1;
#X connect 49 0 56 0;
#X connect 49 0 69 0;
#X connect 50 0 47 0;
#X connect 51 0 33 0;
#X connect 52 0 32 0;
#X connect 53 0 34 0;
#X connect 54 0 35 0;
#X connect 55 0 48 0;
#X connect 56 0 27 0;
#X connect 56 1 27 1;
#X connect 56 2 28 0;
#X connect 56 3 28 1;
#X connect 61 0 13 0;
#X connect 62 0 18 0;
#X connect 63 0 2 0;
#X connect 64 0 9 0;
#X connect 65 0 52 0;
#X connect 66 0 51 0;
#X connect 67 0 53 0;
#X connect 68 0 54 0;
#X connect 70 0 22 1;
#X connect 70 0 8 1;
#X connect 71 0 72 0;
#X connect 72 0 74 0;
#X connect 73 0 70 1;
#X connect 74 0 73 0;
