#N canvas 2214 331 1069 756 10;
#X obj 924 61 block~ 1;
#X obj 11 77 inlet~;
#X obj 532 261 lop~ 2000;
#X obj 516 700 outlet~;
#X obj 532 281 hip~ 1;
#X obj 531 333 *~;
#X obj 570 336 *~;
#X obj 530 391 -~;
#X obj 530 466 +~;
#X obj 738 268 lop~ 2000;
#X obj 700 344 *~;
#X obj 739 347 *~;
#X obj 699 402 +~;
#X obj 587 21 inlet;
#X obj 587 42 t a b;
#X obj 531 239 delread~ \$0-a;
#X obj 575 495 delwrite~ \$0-a 200;
#X obj 698 496 delwrite~ \$0-b 200;
#X obj 739 247 delread~ \$0-b 200;
#X obj 157 481 delwrite~ \$0-c 200;
#X obj 280 457 delwrite~ \$0-d 200;
#X obj 160 266 lop~ 2000;
#X obj 160 286 hip~ 1;
#X obj 159 348 *~;
#X obj 198 346 *~;
#X obj 158 412 -~;
#X obj 319 265 lop~ 2000;
#X obj 280 345 *~;
#X obj 319 348 *~;
#X obj 279 414 +~;
#X obj 159 244 delread~ \$0-c;
#X obj 320 244 delread~ \$0-d 200;
#X obj 158 444 +~;
#X obj 320 84 unpack f f f f f f f;
#X obj 587 84 unpack f f f f f f f;
#X obj 530 551 cos~;
#X obj 632 562 cos~;
#X obj 516 584 *~;
#X obj 616 591 *~;
#X obj 320 210 * 1;
#X obj 739 191 * 1;
#X obj 632 541 +~ 0.75;
#X obj 515 642 +~;
#X text 715 665 2018 \, Phillip Schmalfuß;
#X connect 1 0 32 1;
#X connect 1 0 8 1;
#X connect 2 0 4 0;
#X connect 4 0 5 0;
#X connect 4 0 10 0;
#X connect 5 0 7 0;
#X connect 6 0 7 1;
#X connect 7 0 8 0;
#X connect 8 0 16 0;
#X connect 8 0 35 0;
#X connect 8 0 38 0;
#X connect 9 0 6 0;
#X connect 9 0 11 0;
#X connect 10 0 12 0;
#X connect 11 0 12 1;
#X connect 12 0 17 0;
#X connect 13 0 14 0;
#X connect 14 0 33 0;
#X connect 14 0 34 0;
#X connect 15 0 2 0;
#X connect 18 0 9 0;
#X connect 21 0 22 0;
#X connect 22 0 23 0;
#X connect 22 0 27 0;
#X connect 23 0 25 0;
#X connect 24 0 25 1;
#X connect 25 0 32 0;
#X connect 26 0 24 0;
#X connect 26 0 28 0;
#X connect 27 0 29 0;
#X connect 28 0 29 1;
#X connect 29 0 20 0;
#X connect 30 0 21 0;
#X connect 31 0 26 0;
#X connect 32 0 19 0;
#X connect 32 0 37 0;
#X connect 32 0 41 0;
#X connect 33 0 30 0;
#X connect 33 0 39 0;
#X connect 33 1 26 1;
#X connect 33 1 21 1;
#X connect 33 4 28 1;
#X connect 33 4 23 1;
#X connect 33 5 24 1;
#X connect 33 5 27 1;
#X connect 33 6 39 1;
#X connect 34 0 15 0;
#X connect 34 0 40 0;
#X connect 34 1 9 1;
#X connect 34 1 2 1;
#X connect 34 2 11 1;
#X connect 34 2 5 1;
#X connect 34 3 6 1;
#X connect 34 3 10 1;
#X connect 34 6 40 1;
#X connect 35 0 37 1;
#X connect 36 0 38 1;
#X connect 37 0 42 0;
#X connect 38 0 42 1;
#X connect 39 0 31 0;
#X connect 40 0 18 0;
#X connect 41 0 36 0;
#X connect 42 0 3 0;
