#N canvas 387 223 1206 770 10;
#X obj 227 319 line~;
#X obj 401 321 line~;
#X obj 228 479 +~;
#X obj 228 502 *~ 0.5;
#X obj 108 534 *~;
#X obj 123 98 line~;
#X msg 123 72 \$1 50;
#X msg 227 298 \$1 20;
#X msg 401 300 \$1 20;
#X floatatom 227 189 5 0 0 0 delay_time - -;
#X obj 401 252 +;
#X obj 227 257 -;
#X floatatom 401 164 8 0 0 0 - - -;
#X text 456 164 del time offset multiplier;
#X obj 420 220 *;
#X obj 401 190 t b b f;
#X floatatom 444 248 5 0 0 0 - - -;
#X text 456 281 sum and difference of "central" delay time and delay
time offset, f 43;
#X text 486 252 del time offset in ms;
#X text 286 475 two delay taps are summed and basically act as a comb
filter which gets fed back into the delay line;
#X obj 15 30 inlet~;
#X obj 229 593 outlet~;
#X text 505 53 small vector size so we can have shorter fb-delay lines
and thus higher pitches, f 24;
#X obj 507 30 block~ 1;
#X obj 14 564 delwrite~ \$0-delayline 1000;
#X obj 227 341 delread4~ \$0-delayline 10;
#X obj 400 342 delread4~ \$0-delayline 10;
#X obj 15 343 chair.touchgate~;
#X obj 34 288 r \$2-current;
#X obj 123 30 r \$2-feedback;
#X obj 401 28 r \$2-offset;
#X obj 34 311 == \$1;
#X obj 228 448 lop~ 2400;
#X obj 401 447 lop~ 2400;
#X text 378 563 By Richard Dudas \, 2018;
#X obj 454 382 r \$2-lp;
#X msg 454 404 \$1 20;
#X obj 454 425 line;
#X obj 401 73 route \$1;
#X text 465 448 simple lowpass;
#X obj 227 133 mtof;
#X obj 227 154 expr 1000./$f1;
#X obj 227 90 f \$1;
#X obj 227 31 loadbang;
#X obj 293 32 r \$2-tuning;
#X obj 227 111 chair.hex-tuning;
#X obj 694 28 inlet;
#X obj 293 54 t b a;
#X text 692 52 Dummy message inlet to have the [viz( method available
in [clone]., f 45;
#X connect 0 0 25 0;
#X connect 1 0 26 0;
#X connect 2 0 3 0;
#X connect 3 0 4 0;
#X connect 3 0 21 0;
#X connect 4 0 24 0;
#X connect 5 0 4 1;
#X connect 6 0 5 0;
#X connect 7 0 0 0;
#X connect 8 0 1 0;
#X connect 9 0 14 0;
#X connect 9 0 11 0;
#X connect 9 0 10 0;
#X connect 10 0 8 0;
#X connect 11 0 7 0;
#X connect 12 0 15 0;
#X connect 14 0 10 1;
#X connect 14 0 11 1;
#X connect 14 0 16 0;
#X connect 15 0 10 0;
#X connect 15 0 11 0;
#X connect 15 1 14 0;
#X connect 15 2 14 1;
#X connect 20 0 27 0;
#X connect 25 0 32 0;
#X connect 26 0 33 0;
#X connect 27 0 24 0;
#X connect 28 0 31 0;
#X connect 29 0 6 0;
#X connect 30 0 38 0;
#X connect 31 0 27 1;
#X connect 32 0 2 0;
#X connect 33 0 2 1;
#X connect 35 0 36 0;
#X connect 36 0 37 0;
#X connect 37 0 33 1;
#X connect 37 0 32 1;
#X connect 38 0 12 0;
#X connect 40 0 41 0;
#X connect 41 0 9 0;
#X connect 42 0 45 0;
#X connect 43 0 42 0;
#X connect 44 0 47 0;
#X connect 45 0 40 0;
#X connect 47 0 42 0;
#X connect 47 1 45 1;
