#N canvas 440 142 1222 945 10;
#X declare -path ./chair;
#X msg 418 355 \$1 100;
#X obj 418 376 line~;
#X obj 392 375 *~;
#X floatatom 418 315 5 0 0 0 - - -;
#X obj 389 173 expr 1000/$f1;
#X obj 392 41 mtof;
#X floatatom 391 206 5 0 0 0 - - -;
#X obj 421 249 hsl 128 15 0 1 0 1 empty empty empty -2 -8 0 10 -262144
-1 -1 11400 1;
#X obj 417 270 sqrt;
#X obj 393 473 lop~;
#X text 463 274 del-1 feedback;
#X obj 222 61 inlet~;
#X obj 392 9 inlet;
#X obj 158 242 == \$1;
#X obj 158 215 r \$2-current;
#X obj 121 275 chair.touchgate~;
#X obj 767 17 declare -path ./chair;
#X obj 359 847 outlet~;
#X obj 391 227 delread~ \$0-d1;
#X obj 223 611 delwrite~ \$0-d1 100;
#X obj 415 429 +;
#X obj 415 400 r \$2-lp;
#X obj 483 226 r \$2-fb;
#X text 430 474 del rolloff;
#X obj 630 36 r \$2-timbre;
#X obj 630 62 + 1;
#X obj 580 164 * 1;
#X msg 630 89 \$1 100;
#X obj 630 112 line;
#X obj 578 116 t b f;
#X obj 359 771 chair.dc-offset~;
#X obj 418 335 clip 0 0.999;
#X obj 416 292 * 0.99;
#N canvas 459 375 1076 526 thiran-2nd-order-coefficients 0;
#X obj 318 41 inlet~;
#X obj 134 351 outlet~;
#X obj 305 359 outlet~;
#X obj 442 358 outlet~;
#X obj 233 116 -~ 1;
#X obj 173 116 -~ 2;
#X obj 479 103 +~ 2;
#X obj 363 118 +~ 1;
#X msg 134 309 1;
#X obj 135 275 loadbang;
#X obj 323 309 *~ -2;
#X obj 199 160 /~;
#X obj 273 159 /~;
#X obj 338 160 /~;
#X obj 256 214 *~;
#X obj 301 247 *~;
#X obj 439 169 /~;
#X obj 417 210 *~;
#X obj 392 171 /~;
#X obj 471 212 /~;
#X obj 444 264 *~;
#X connect 0 0 4 0;
#X connect 0 0 5 0;
#X connect 0 0 12 1;
#X connect 0 0 13 0;
#X connect 0 0 7 0;
#X connect 0 0 16 1;
#X connect 0 0 6 0;
#X connect 0 0 19 0;
#X connect 4 0 11 1;
#X connect 4 0 12 0;
#X connect 4 0 18 0;
#X connect 5 0 11 0;
#X connect 5 0 16 0;
#X connect 6 0 19 1;
#X connect 7 0 13 1;
#X connect 7 0 18 1;
#X connect 8 0 1 0;
#X connect 9 0 8 0;
#X connect 10 0 2 0;
#X connect 11 0 14 0;
#X connect 12 0 14 1;
#X connect 13 0 15 1;
#X connect 14 0 15 0;
#X connect 15 0 10 0;
#X connect 16 0 17 1;
#X connect 17 0 20 0;
#X connect 18 0 17 0;
#X connect 19 0 20 1;
#X connect 20 0 3 0;
#X restore 687 305 pd thiran-2nd-order-coefficients;
#X obj 659 345 snapshot~;
#X floatatom 659 368 0 0 0 0 - - -;
#X obj 731 340 snapshot~;
#X floatatom 731 363 0 0 0 0 - - -;
#X obj 891 345 snapshot~;
#X floatatom 891 368 0 0 0 0 - - -;
#X obj 686 208 metro 100;
#X obj 687 180 tgl 15 0 empty empty empty 17 7 0 10 -262144 -1 -1 1
1;
#X obj 690 277 sig~;
#X floatatom 690 241 0 0 0 0 - - -;
#X obj 768 48 block~ 2;
#X obj 480 499 fexpr~ $x2*$x1[0] + $x3*$x1[-1] + $x1[-2] - $x3*$y1[-1]
- $x2*$y1[-2] \;;
#X obj 480 547 fexpr~ $x2*$x1[0] + $x3*$x1[-1] + $x1[-2] - $x3*$y1[-1]
- $x2*$y1[-2] \;;
#X obj 481 599 fexpr~ $x2*$x1[0] + $x3*$x1[-1] + $x1[-2] - $x3*$y1[-1]
- $x2*$y1[-2] \;;
#X obj 482 644 fexpr~ $x2*$x1[0] + $x3*$x1[-1] + $x1[-2] - $x3*$y1[-1]
- $x2*$y1[-2] \;;
#X obj 855 498 fexpr~ $x2*$x1[0] + $x3*$x1[-1] + $x1[-2] - $x3*$y1[-1]
- $x2*$y1[-2] \;;
#X obj 855 546 fexpr~ $x2*$x1[0] + $x3*$x1[-1] + $x1[-2] - $x3*$y1[-1]
- $x2*$y1[-2] \;;
#X obj 856 598 fexpr~ $x2*$x1[0] + $x3*$x1[-1] + $x1[-2] - $x3*$y1[-1]
- $x2*$y1[-2] \;;
#X obj 854 647 fexpr~ $x2*$x1[0] + $x3*$x1[-1] + $x1[-2] - $x3*$y1[-1]
- $x2*$y1[-2] \;;
#X connect 0 0 1 0;
#X connect 1 0 2 1;
#X connect 2 0 9 0;
#X connect 3 0 31 0;
#X connect 4 0 6 0;
#X connect 5 0 4 0;
#X connect 5 0 20 1;
#X connect 5 0 29 0;
#X connect 6 0 18 0;
#X connect 7 0 8 0;
#X connect 8 0 32 0;
#X connect 9 0 45 0;
#X connect 11 0 15 0;
#X connect 11 0 19 0;
#X connect 12 0 5 0;
#X connect 13 0 15 1;
#X connect 14 0 13 0;
#X connect 18 0 2 0;
#X connect 20 0 9 1;
#X connect 21 0 20 0;
#X connect 22 0 7 0;
#X connect 24 0 25 0;
#X connect 25 0 27 0;
#X connect 27 0 28 0;
#X connect 28 0 26 0;
#X connect 29 0 26 0;
#X connect 29 1 26 1;
#X connect 30 0 19 0;
#X connect 30 0 17 0;
#X connect 31 0 0 0;
#X connect 32 0 3 0;
#X connect 33 0 34 0;
#X connect 33 1 36 0;
#X connect 33 1 45 2;
#X connect 33 1 46 2;
#X connect 33 1 47 2;
#X connect 33 1 48 2;
#X connect 33 1 49 2;
#X connect 33 1 52 2;
#X connect 33 1 51 2;
#X connect 33 1 50 2;
#X connect 33 2 38 0;
#X connect 33 2 45 1;
#X connect 33 2 46 1;
#X connect 33 2 47 1;
#X connect 33 2 48 1;
#X connect 33 2 49 1;
#X connect 33 2 52 1;
#X connect 33 2 51 1;
#X connect 33 2 50 1;
#X connect 34 0 35 0;
#X connect 34 0 35 0;
#X connect 36 0 37 0;
#X connect 36 0 37 0;
#X connect 38 0 39 0;
#X connect 38 0 39 0;
#X connect 40 0 34 0;
#X connect 40 0 36 0;
#X connect 40 0 38 0;
#X connect 41 0 40 0;
#X connect 42 0 33 0;
#X connect 43 0 42 0;
#X connect 45 0 46 0;
#X connect 46 0 47 0;
#X connect 47 0 48 0;
#X connect 48 0 49 0;
#X connect 49 0 50 0;
#X connect 50 0 51 0;
#X connect 51 0 52 0;
#X connect 52 0 30 0;
