#N canvas 201 52 751 688 10;
#X obj 51 415 line~;
#X obj 263 443 line~;
#X msg 51 375 0 \, \$1 \$2;
#X obj 51 277 pack;
#X obj 51 165 / 1000;
#X obj 51 187 * 44100;
#X obj 294 301 / 1000;
#X obj 294 323 * 44100;
#X obj 51 252 * 1;
#X obj 49 491 *~;
#X obj 276 346 f;
#X obj 55 97 f 50;
#N canvas 779 288 280 225 cents 0;
#X obj 52 57 inlet;
#X obj 52 168 outlet;
#X obj 52 115 / 100;
#X obj 52 88 i;
#X obj 52 142 expr pow(2 \, $f1/12);
#X connect 0 0 3 0;
#X connect 2 0 4 0;
#X connect 3 0 2 0;
#X connect 4 0 1 0;
#X restore 111 235 pd cents;
#X obj 111 214 f;
#X obj 51 648 outlet~;
#X obj 91 77 r \$2-grainsize;
#X obj 101 164 r \$2-samplerate;
#X obj 294 278 r \$2-grainposition;
#X obj 351 322 r \$2-samplerate;
#X obj 263 474 tabread~ \$2-window;
#X obj 50 454 tabread4~ \$2-sf;
#X obj 129 194 r \$2-grainpitch;
#X obj 188 17 inlet trigger;
#X obj 361 135 switch~ 0;
#X msg 361 113 1;
#X obj 450 64 r \$2-grainsize;
#X msg 400 111 0;
#X obj 612 481 loadbang;
#X obj 469 517 cos~;
#X obj 553 525 cos~;
#X obj 554 503 +~ 0.75;
#X msg 612 502 2;
#X obj 612 524 sqrt;
#X obj 612 546 / 2;
#X obj 470 579 *~;
#X obj 535 580 *~;
#X obj 470 557 -~;
#X obj 535 558 +~;
#X obj 50 625 *~;
#X obj 189 652 outlet~;
#X obj 188 629 *~;
#X obj 519 467 *~ 0.125;
#X obj 520 444 sig~;
#X obj 552 422 r \$2-grainpan;
#X obj 520 421 f;
#X obj 400 87 del 50;
#X obj 145 300 < 0;
#X obj 51 320 list prepend 0;
#X obj 51 342 route 0 1;
#X msg 120 375 \$1 \, 0 \$2;
#X obj 450 86 abs;
#X obj 145 279 r \$2-grainsize;
#X obj 55 119 t f f f;
#X obj 276 368 mod;
#X obj 91 97 abs;
#X obj 306 368 r \$2-samplelength;
#X obj 229 497 r \$2-grainamp;
#N canvas 3 52 450 300 filter 0;
#X obj 131 45 inlet~;
#X obj 131 230 outlet~;
#X obj 251 31 inlet;
#X obj 151 124 f;
#X obj 278 135 f;
#X obj 166 88 r \$2-freq;
#X obj 296 114 r \$2-q;
#X obj 132 198 vcf~, f 7;
#X obj 251 54 t b b;
#X obj 151 163 sig~;
#X connect 0 0 7 0;
#X connect 2 0 8 0;
#X connect 3 0 9 0;
#X connect 4 0 7 2;
#X connect 5 0 3 1;
#X connect 6 0 4 1;
#X connect 7 0 1 0;
#X connect 8 0 3 0;
#X connect 8 1 4 0;
#X connect 9 0 7 1;
#X restore 49 513 pd filter;
#X obj 188 39 t b b b b b b b;
#X msg 263 420 0 \, 1000 \$1;
#X obj 211 518 f 1;
#X obj 50 535 *~;
#X connect 0 0 20 0;
#X connect 1 0 19 0;
#X connect 2 0 0 0;
#X connect 3 0 47 0;
#X connect 4 0 5 0;
#X connect 5 0 8 0;
#X connect 6 0 7 0;
#X connect 7 0 10 1;
#X connect 8 0 3 0;
#X connect 9 0 57 0;
#X connect 10 0 53 0;
#X connect 11 0 52 0;
#X connect 12 0 8 1;
#X connect 13 0 12 0;
#X connect 15 0 54 0;
#X connect 16 0 5 1;
#X connect 17 0 6 0;
#X connect 18 0 7 1;
#X connect 19 0 9 1;
#X connect 20 0 9 0;
#X connect 21 0 13 1;
#X connect 22 0 58 0;
#X connect 24 0 23 0;
#X connect 25 0 50 0;
#X connect 26 0 23 0;
#X connect 27 0 31 0;
#X connect 28 0 36 0;
#X connect 28 0 37 0;
#X connect 29 0 36 1;
#X connect 29 0 37 1;
#X connect 30 0 29 0;
#X connect 31 0 32 0;
#X connect 32 0 33 0;
#X connect 33 0 34 1;
#X connect 33 0 35 1;
#X connect 34 0 38 1;
#X connect 35 0 40 1;
#X connect 36 0 34 0;
#X connect 37 0 35 0;
#X connect 38 0 14 0;
#X connect 40 0 39 0;
#X connect 41 0 28 0;
#X connect 41 0 30 0;
#X connect 42 0 41 0;
#X connect 43 0 44 1;
#X connect 44 0 42 0;
#X connect 45 0 26 0;
#X connect 46 0 47 1;
#X connect 47 0 48 0;
#X connect 48 0 2 0;
#X connect 48 1 49 0;
#X connect 49 0 0 0;
#X connect 50 0 45 1;
#X connect 51 0 46 0;
#X connect 52 0 4 0;
#X connect 52 1 3 1;
#X connect 52 2 59 0;
#X connect 53 0 20 1;
#X connect 54 0 11 1;
#X connect 55 0 53 1;
#X connect 56 0 60 1;
#X connect 57 0 61 0;
#X connect 58 0 11 0;
#X connect 58 1 13 0;
#X connect 58 2 57 1;
#X connect 58 3 60 0;
#X connect 58 4 10 0;
#X connect 58 5 44 0;
#X connect 58 6 24 0;
#X connect 58 6 45 0;
#X connect 59 0 1 0;
#X connect 60 0 61 1;
#X connect 61 0 38 0;
#X connect 61 0 40 0;
