#N canvas 199 254 934 730 10;
#X declare -path ./chair;
#X msg 291 328 \$1 100;
#X obj 291 349 line~;
#X obj 201 386 *~;
#X obj 200 52 mtof;
#X obj 292 265 sqrt;
#X obj 202 484 lop~;
#X msg 485 333 \$1 100;
#X obj 485 354 line~;
#X obj 390 393 *~;
#X obj 485 268 sqrt;
#X text 204 265 del-1 feedback;
#X text 396 268 del-2 feedback;
#X obj 34 60 inlet~;
#X obj 200 20 inlet;
#X obj 70 246 == \$1;
#X obj 70 219 r \$2-current;
#X obj 33 279 chair.touchgate~;
#X obj 576 28 declare -path ./chair;
#X obj 577 59 block~ 1;
#X obj 201 623 outlet~;
#X obj 200 238 delread~ \$0-d1;
#X obj 32 622 delwrite~ \$0-d1 100;
#X obj 389 244 delread~ \$0-d1;
#X obj 223 440 +;
#X obj 223 411 r \$2-lp;
#X obj 485 245 r \$2-fb;
#X obj 292 237 r \$2-fb;
#X text 239 485 del rolloff;
#X obj 439 47 r \$2-timbre;
#X obj 439 73 + 1;
#X obj 389 166 * 1;
#X msg 439 100 \$1 100;
#X obj 439 123 line;
#X obj 387 127 t b f;
#X obj 201 547 chair.dc-offset~;
#X obj 291 308 clip 0 0.999;
#X obj 389 468 *~ -1;
#X obj 485 313 clip 0 0.99;
#X obj 485 292 * 0.66;
#X obj 291 287 * 0.3;
#X obj 389 437 fexpr~ if($x1>0.01 \, $x1 * $x1 \, $x1);
#X obj 200 85 t f f f, f 31;
#X obj 200 212 /;
#X msg 200 187 1000 \$1;
#X obj 389 215 /;
#X msg 389 195 1000 \$1;
#X connect 0 0 1 0;
#X connect 1 0 2 1;
#X connect 2 0 5 0;
#X connect 3 0 41 0;
#X connect 4 0 39 0;
#X connect 5 0 34 0;
#X connect 6 0 7 0;
#X connect 7 0 8 1;
#X connect 8 0 40 0;
#X connect 9 0 38 0;
#X connect 12 0 16 0;
#X connect 13 0 3 0;
#X connect 14 0 16 1;
#X connect 15 0 14 0;
#X connect 16 0 21 0;
#X connect 20 0 2 0;
#X connect 22 0 8 0;
#X connect 23 0 5 1;
#X connect 24 0 23 0;
#X connect 25 0 9 0;
#X connect 26 0 4 0;
#X connect 28 0 29 0;
#X connect 29 0 31 0;
#X connect 30 0 45 0;
#X connect 31 0 32 0;
#X connect 32 0 30 0;
#X connect 33 0 30 0;
#X connect 33 1 30 1;
#X connect 34 0 21 0;
#X connect 34 0 19 0;
#X connect 35 0 0 0;
#X connect 36 0 5 0;
#X connect 37 0 6 0;
#X connect 38 0 37 0;
#X connect 39 0 35 0;
#X connect 40 0 36 0;
#X connect 41 0 43 0;
#X connect 41 1 23 1;
#X connect 41 2 33 0;
#X connect 42 0 20 0;
#X connect 43 0 42 0;
#X connect 44 0 22 0;
#X connect 45 0 44 0;
