#N canvas 820 249 934 730 10;
#X declare -path ./chair;
#X msg 418 355 \$1 100;
#X obj 418 376 line~;
#X obj 392 375 *~;
#X floatatom 418 315 5 0 0 0 - - -;
#X obj 389 173 expr 1000/$f1;
#X obj 392 41 mtof;
#X floatatom 391 206 5 0 0 0 - - -;
#X obj 421 249 hsl 128 15 0 1 0 1 empty empty empty -2 -8 0 10 -262144
-1 -1 12700 1;
#X obj 417 270 sqrt;
#X obj 393 473 lop~;
#X msg 607 361 \$1 100;
#X obj 607 382 line~;
#X obj 581 382 *~;
#X floatatom 606 323 5 0 0 0 - - -;
#X obj 580 189 expr 1000/$f1;
#X floatatom 580 212 5 0 0 0 - - -;
#X obj 610 263 hsl 128 15 0 1 0 1 empty empty empty -2 -8 0 10 -262144
-1 -1 12700 1;
#X obj 607 280 sqrt;
#X text 463 274 del-1 feedback;
#X text 642 288 del-2 feedback;
#X obj 225 49 inlet~;
#X obj 392 9 inlet;
#X obj 261 235 == \$1;
#X obj 261 208 r \$2-current;
#X obj 224 268 chair.touchgate~;
#X obj 767 17 declare -path ./chair;
#X obj 768 48 block~ 1;
#X obj 392 612 outlet~;
#X obj 391 227 delread~ \$0-d1;
#X obj 223 611 delwrite~ \$0-d1 100;
#X obj 580 233 delread~ \$0-d1;
#X obj 415 429 +;
#X obj 415 400 r \$2-lp;
#X obj 676 234 r \$2-fb;
#X obj 483 226 r \$2-fb;
#X text 430 474 del rolloff;
#X obj 630 36 r \$2-timbre;
#X obj 630 62 + 1;
#X obj 580 164 * 1;
#X msg 630 89 \$1 100;
#X obj 630 112 line;
#X obj 578 116 t b f;
#X obj 392 536 chair.dc-offset~;
#X obj 418 335 clip 0 0.999;
#X obj 580 457 *~ -1;
#X obj 607 341 clip 0 0.99;
#X obj 606 304 * 0.66;
#X obj 416 292 * 0.3;
#X obj 580 426 fexpr~ if($x1>0.01 \, $x1 * $x1 \, $x1);
#X connect 0 0 1 0;
#X connect 1 0 2 1;
#X connect 2 0 9 0;
#X connect 3 0 43 0;
#X connect 4 0 6 0;
#X connect 5 0 4 0;
#X connect 5 0 31 1;
#X connect 5 0 41 0;
#X connect 6 0 28 0;
#X connect 7 0 8 0;
#X connect 8 0 47 0;
#X connect 9 0 42 0;
#X connect 10 0 11 0;
#X connect 11 0 12 1;
#X connect 12 0 48 0;
#X connect 13 0 45 0;
#X connect 14 0 15 0;
#X connect 15 0 30 0;
#X connect 16 0 17 0;
#X connect 17 0 46 0;
#X connect 20 0 24 0;
#X connect 21 0 5 0;
#X connect 22 0 24 1;
#X connect 23 0 22 0;
#X connect 24 0 29 0;
#X connect 28 0 2 0;
#X connect 30 0 12 0;
#X connect 31 0 9 1;
#X connect 32 0 31 0;
#X connect 33 0 16 0;
#X connect 34 0 7 0;
#X connect 36 0 37 0;
#X connect 37 0 39 0;
#X connect 38 0 14 0;
#X connect 39 0 40 0;
#X connect 40 0 38 0;
#X connect 41 0 38 0;
#X connect 41 1 38 1;
#X connect 42 0 29 0;
#X connect 42 0 27 0;
#X connect 43 0 0 0;
#X connect 44 0 9 0;
#X connect 45 0 10 0;
#X connect 46 0 13 0;
#X connect 47 0 3 0;
#X connect 48 0 44 0;
