#N canvas 2060 141 773 1012 10;
#X msg 468 104 reset;
#X obj 378 648 mtof;
#X obj 378 669 / 200;
#X obj 378 689 pow 2;
#X obj 21 397 *~;
#X obj 23 919 hip~ 20;
#X obj 378 709 t f b;
#X obj 205 315 f;
#X obj 232 315 + 1;
#X obj 233 567 + 1;
#X obj 205 384 %;
#X obj 205 235 pow 2;
#X obj 205 286 until;
#X msg 242 285 0;
#X obj 205 471 +;
#X obj 232 407 div;
#X obj 232 443 *;
#X obj 246 140 - 1;
#X obj 205 210 + 1;
#X obj 205 263 -;
#X obj 340 423 until;
#X obj 340 452 f;
#X obj 368 452 + 1;
#X msg 379 424 0, f 2;
#X obj 520 670 f;
#X obj 557 670 - 1;
#X obj 475 739 spigot 1;
#X obj 520 700 >= 1;
#X obj 339 495 t f b;
#X obj 456 609 +;
#X obj 520 636 f;
#X obj 456 631 t f f b;
#X obj 264 407 + 1;
#X obj 205 505 t f f b;
#X obj 339 563 t f f b;
#X obj 340 360 f;
#X obj 205 188 f;
#X obj 604 382 until;
#X msg 604 427 mass 20 0;
#X obj 604 296 f 25;
#X obj 625 268 pow 2;
#X obj 475 773 send \$0-recursion;
#X obj 570 514 receive \$0-recursion;
#X text 316 792 0.3;
#X obj 153 34 inlet;
#X obj 23 942 outlet~;
#X obj 378 627 f;
#X obj 21 26 inlet~;
#X obj 36 269 == \$1;
#X obj 36 366 line~;
#X obj 36 299 sel 0 1;
#X msg 84 326 1 2;
#X msg 36 326 0 20;
#X obj 36 237 r \$2-current;
#X text 227 936 We need \$0 from the parent patch passed into the abstraction
via the \$2 argument.;
#X obj 378 30 r \$2-gridsize;
#X obj 132 873 r \$2-pmpdhip;
#X obj 153 74 t b b b b b f b, f 53;
#X obj 23 894 *~ 0.5;
#X obj 205 354 t f f;
#X obj 246 165 t f f b f f f b f;
#X obj 363 95 f 5;
#X obj 363 118 t f f f f f;
#X obj 205 763 pack f f f f;
#X obj 432 698 r \$2-damping;
#X obj 405 732 f 0.1;
#X msg 205 792 link \$1 \$2 \$3 \$4;
#X obj 22 873 pmpd~ 1 2;
#X obj 95 921 hip~ 20;
#X obj 95 944 outlet~;
#X obj 95 896 *~ 0.5;
#X msg 154 830 outPos 0 1 1 \, outPos 1 8 1 \, inForce 0 15 1;
#X connect 0 0 67 0;
#X connect 1 0 2 0;
#X connect 2 0 3 0;
#X connect 3 0 6 0;
#X connect 4 0 67 0;
#X connect 5 0 45 0;
#X connect 6 0 63 2;
#X connect 6 1 65 0;
#X connect 7 0 8 0;
#X connect 7 0 59 0;
#X connect 8 0 7 1;
#X connect 9 0 63 1;
#X connect 10 0 14 0;
#X connect 11 0 19 0;
#X connect 12 0 7 0;
#X connect 13 0 7 1;
#X connect 14 0 33 0;
#X connect 15 0 16 0;
#X connect 16 0 14 1;
#X connect 17 0 60 0;
#X connect 18 0 11 0;
#X connect 19 0 12 0;
#X connect 20 0 21 0;
#X connect 21 0 22 0;
#X connect 21 0 28 0;
#X connect 22 0 21 1;
#X connect 23 0 21 1;
#X connect 24 0 25 0;
#X connect 24 0 27 0;
#X connect 25 0 24 1;
#X connect 26 0 41 0;
#X connect 27 0 26 1;
#X connect 28 0 34 0;
#X connect 28 1 30 0;
#X connect 29 0 31 0;
#X connect 30 0 24 0;
#X connect 31 0 63 1;
#X connect 31 1 26 0;
#X connect 31 2 24 0;
#X connect 32 0 16 1;
#X connect 33 0 63 0;
#X connect 33 1 9 0;
#X connect 33 2 46 0;
#X connect 34 0 63 0;
#X connect 34 1 29 0;
#X connect 34 2 46 0;
#X connect 35 0 20 0;
#X connect 36 0 18 0;
#X connect 37 0 38 0;
#X connect 38 0 67 0;
#X connect 39 0 37 0;
#X connect 40 0 39 1;
#X connect 42 0 34 0;
#X connect 44 0 57 0;
#X connect 46 0 1 0;
#X connect 47 0 4 0;
#X connect 48 0 50 0;
#X connect 49 0 4 1;
#X connect 50 0 52 0;
#X connect 50 1 51 0;
#X connect 51 0 49 0;
#X connect 52 0 49 0;
#X connect 53 0 48 0;
#X connect 55 0 61 1;
#X connect 56 0 5 1;
#X connect 56 0 70 1;
#X connect 57 0 71 0;
#X connect 57 1 36 0;
#X connect 57 2 35 0;
#X connect 57 3 39 0;
#X connect 57 4 61 0;
#X connect 57 5 46 1;
#X connect 57 6 0 0;
#X connect 58 0 5 0;
#X connect 59 0 10 0;
#X connect 59 1 15 0;
#X connect 60 0 36 1;
#X connect 60 2 13 0;
#X connect 60 3 10 1;
#X connect 60 4 15 1;
#X connect 60 5 32 0;
#X connect 60 6 23 0;
#X connect 60 7 30 1;
#X connect 61 0 62 0;
#X connect 62 0 17 0;
#X connect 62 1 19 1;
#X connect 62 2 35 1;
#X connect 62 3 29 1;
#X connect 62 4 40 0;
#X connect 63 0 66 0;
#X connect 64 0 65 1;
#X connect 65 0 63 3;
#X connect 66 0 67 0;
#X connect 67 0 58 0;
#X connect 67 1 70 0;
#X connect 68 0 69 0;
#X connect 70 0 68 0;
#X connect 71 0 67 0;
