#N canvas 146 368 392 343 10;
#X obj 44 81 route 0;
#X obj 44 103 route -1;
#X obj 89 131 t l b;
#X obj 44 131 sel -1;
#X msg 44 181 0;
#X msg 76 182 1;
#X obj 44 243 outlet touch;
#X obj 142 245 outlet xy;
#X obj 44 58 inlet position;
#X obj 44 214 change;
#X connect 0 0 1 0;
#X connect 1 0 3 0;
#X connect 1 1 2 0;
#X connect 2 0 7 0;
#X connect 2 1 5 0;
#X connect 3 0 4 0;
#X connect 4 0 9 0;
#X connect 5 0 9 0;
#X connect 8 0 0 0;
#X connect 9 0 6 0;
