#N canvas 2808 467 902 688 10;
#X obj 206 426 *~ 0.5;
#X obj 264 442 *~ 0.5;
#X obj 339 210 /;
#X msg 339 186 1000 \$1;
#X obj 339 161 mtof;
#X obj 207 390 lop~ 1500;
#X obj 35 480 bp~ 1200 1;
#X obj 207 339 +~;
#X obj 205 266 osc~;
#X obj 205 241 * 1;
#X obj 488 443 hsl 101 15 0 10000 0 1 empty empty lop 4100 5 8 0 10
-262144 -1 -1 4100 1;
#X obj 488 460 hsl 101 15 0 10000 0 1 empty empty bp 5000 5 8 0 10
-262144 -1 -1 5000 1;
#X obj 488 477 hsl 101 15 1 100 1 1 empty empty Q 14.4544 5 8 0 10
-262144 -1 -1 5800 1;
#X obj 421 -19 inlet;
#X obj 488 426 hsl 101 15 0 2 0 1 empty empty FM amount 0.04 5 8
0 10 -262144 -1 -1 200 1;
#X obj 488 409 hsl 101 15 0 10 0 1 empty empty FM harmonic 3 5 8
0 10 -262144 -1 -1 3700 1;
#X obj 205 130 int;
#X obj 205 154 change;
#X obj 364 502 sqrt;
#X obj 205 555 outlet~;
#N canvas 462 164 450 300 zd 0;
#X obj 135 79 inlet~;
#X obj 137 175 outlet~;
#X obj 286 88 block~ 1;
#X obj 136 107 tabsend~ \$0-fo;
#X obj 136 142 tabreceive~ \$0-fo;
#X obj 275 161 table \$0-fo 1;
#X connect 0 0 3 0;
#X connect 4 0 1 0;
#X restore 264 417 pd zd;
#X obj 205 290 -~ 1;
#X msg 635 396 label FM harmonic \$1;
#X obj 205 179 t b f f;
#X msg 635 436 label lop \$1;
#X msg 635 456 label bp \$1;
#X msg 635 476 label Q \$1;
#X text 248 505 Karplus Strong;
#X text 251 270 FM;
#X msg 635 416 label FM amount \$1;
#X obj 206 480 *~;
#X obj 138 583 delwrite~ \$0-bo 128;
#X obj 206 363 vd~ \$0-bo 128;
#X text 445 585 (c) Liam Goodacre 2016 \, liam.goodacre@gmail.com;
#X obj 36 230 inlet~;
#X floatatom 642 332 5 0 0 0 - - -, f 5;
#X obj 364 443 r \$2-feedback;
#X obj 322 303 r \$2-fm-amount;
#X floatatom 330 340 5 0 0 0 - - -, f 5;
#X obj 35 454 *~;
#X obj 51 324 == \$1;
#X obj 51 421 line~;
#X obj 51 354 sel 0 1;
#X msg 99 381 1 2;
#X msg 51 381 0 20;
#X obj 51 292 r \$2-current;
#X text 457 567 Based on:;
#X obj 206 314 *~ 0;
#X obj 641 302 r \$2-timbre;
#N canvas 2033 702 790 453 octave-switch 1;
#X obj 102 121 bng 15 250 50 0 empty empty empty 17 7 0 10 -262144
-1 -1;
#X obj 167 121 bng 15 250 50 0 empty empty empty 17 7 0 10 -262144
-1 -1;
#X floatatom 127 121 5 0 0 0 - - -, f 5;
#X obj 166 215 f;
#X obj 102 216 f;
#X obj 51 209 * 12;
#X obj 11 40 inlet;
#X obj 11 243 +;
#X obj 11 266 outlet;
#X obj 113 151 t f f f;
#X obj 303 66 loadbang;
#X obj 102 76 sel 1;
#X obj 167 76 sel 1;
#X obj 102 36 route down up;
#X obj 102 6 r \$0-updown;
#X obj 135 255 s \$0-octave;
#X obj 229 38 r \$0-octave;
#X obj 198 216 + 1;
#X obj 132 216 - 1;
#X obj 229 69 clip -4 4;
#X msg 303 87 -2;
#X obj 24 184 t b f;
#X connect 0 0 4 0;
#X connect 1 0 3 0;
#X connect 2 0 9 0;
#X connect 3 0 15 0;
#X connect 3 0 17 0;
#X connect 4 0 15 0;
#X connect 4 0 18 0;
#X connect 5 0 7 1;
#X connect 6 0 7 0;
#X connect 7 0 8 0;
#X connect 9 0 21 0;
#X connect 9 1 4 1;
#X connect 9 2 3 1;
#X connect 10 0 20 0;
#X connect 11 0 0 0;
#X connect 12 0 1 0;
#X connect 13 0 11 0;
#X connect 13 1 12 0;
#X connect 14 0 13 0;
#X connect 16 0 19 0;
#X connect 17 0 3 1;
#X connect 18 0 4 1;
#X connect 19 0 2 0;
#X connect 20 0 2 0;
#X connect 21 0 7 0;
#X connect 21 1 5 0;
#X coords 0 -1 1 1 85 40 1 100 100;
#X restore 339 112 pd octave-switch;
#X floatatom 356 90 5 0 0 0 - - -, f 5;
#X obj 339 64 chair.hex-tuning;
#X obj 339 1 loadbang;
#X obj 339 31 \$1;
#X obj 421 5 route f s;
#X obj 446 31 t b a;
#X connect 0 0 30 0;
#X connect 1 0 30 0;
#X connect 2 0 7 1;
#X connect 3 0 2 0;
#X connect 4 0 9 0;
#X connect 4 0 3 0;
#X connect 5 0 0 0;
#X connect 5 0 20 0;
#X connect 6 0 31 0;
#X connect 7 0 32 0;
#X connect 8 0 21 0;
#X connect 9 0 8 0;
#X connect 10 0 5 1;
#X connect 10 0 24 0;
#X connect 11 0 6 1;
#X connect 11 0 25 0;
#X connect 12 0 6 2;
#X connect 12 0 26 0;
#X connect 13 0 54 0;
#X connect 14 0 29 0;
#X connect 15 0 16 0;
#X connect 16 0 17 0;
#X connect 17 0 23 0;
#X connect 18 0 30 1;
#X connect 20 0 1 0;
#X connect 21 0 47 0;
#X connect 22 0 15 0;
#X connect 23 0 9 0;
#X connect 23 1 9 1;
#X connect 23 2 22 0;
#X connect 24 0 10 0;
#X connect 25 0 11 0;
#X connect 26 0 12 0;
#X connect 29 0 14 0;
#X connect 30 0 31 0;
#X connect 30 0 19 0;
#X connect 32 0 5 0;
#X connect 34 0 39 0;
#X connect 36 0 18 0;
#X connect 37 0 38 0;
#X connect 37 0 47 1;
#X connect 39 0 6 0;
#X connect 40 0 42 0;
#X connect 41 0 39 1;
#X connect 42 0 44 0;
#X connect 42 1 43 0;
#X connect 43 0 41 0;
#X connect 44 0 41 0;
#X connect 45 0 40 0;
#X connect 47 0 7 0;
#X connect 48 0 35 0;
#X connect 48 0 11 0;
#X connect 49 0 4 0;
#X connect 51 0 49 0;
#X connect 51 0 50 0;
#X connect 52 0 53 0;
#X connect 53 0 51 0;
#X connect 54 1 55 0;
#X connect 55 0 53 0;
#X connect 55 1 51 1;
#X coords 0 688 1 687 85 60 0;
