#N canvas 1104 120 406 373 10;
#X obj 25 243 outlet;
#X obj 25 28 inlet;
#X obj 118 30 inlet;
#X obj 118 168 symbol;
#X obj 25 219 text get g_major;
#X msg 249 128 ratios;
#X msg 239 106 isomorphic;
#X msg 231 83 chromatic;
#X msg 220 58 b_minor;
#X msg 206 32 g_major;
#N canvas 4 576 524 300 argument 0;
#X obj 33 24 loadbang;
#X msg 33 46 36;
#X obj 33 240 outlet;
#X obj 136 143 t b;
#X obj 33 87 makefilename .%c1;
#X obj 33 110 select .\$1;
#X obj 136 169 symbol \$1;
#X msg 33 167 symbol g_major;
#X connect 0 0 1 0;
#X connect 1 0 4 0;
#X connect 3 0 6 0;
#X connect 4 0 5 0;
#X connect 5 0 7 0;
#X connect 5 1 3 0;
#X connect 6 0 2 0;
#X connect 7 0 2 0;
#X restore 209 185 pd argument;
#X floatatom 25 305 5 0 0 0 - - -;
#X obj 25 281 chair.singleton chair.hex-tuning-definitions;
#X connect 1 0 4 0;
#X connect 2 0 3 0;
#X connect 3 0 4 3;
#X connect 4 0 0 0;
#X connect 5 0 3 0;
#X connect 6 0 3 0;
#X connect 7 0 3 0;
#X connect 8 0 3 0;
#X connect 9 0 3 0;
#X connect 10 0 4 3;
#X connect 12 0 11 0;
