#N canvas 546 249 618 884 10;
#X obj 92 29 inlet;
#X obj 77 818 outlet;
#X obj 92 468 chair.distance;
#X obj 92 151 until;
#X msg 92 125 14;
#X msg 135 151 0, f 2;
#X obj 92 183 f;
#X obj 123 184 + 1;
#X obj 92 208 t f f;
#N canvas 0 50 450 250 (subpatch) 0;
#X array \$0-distances 14 float 3;
#A 0 0.430931 0.430647 0.556967 0.748309 0.957774 0.0372582 0.252276
0.500897 0.750435 0.360305 0.359964 0.504311 0.709989 0.928143;
#X coords 0 1.4 14 0 200 140 1 0 0;
#X restore 247 589 graph;
#X obj 107 510 tabwrite \$0-distances;
#X obj 92 264 sel 0 1 2 3 4 5 6 7 8 9 10 11 12 13;
#X obj 92 54 t b b l;
#X msg 92 309 0 0.125;
#X msg 147 309 0.25 0.125;
#X msg 219 310 0.5 0.125;
#X msg 293 309 0.75 0.125;
#X msg 365 310 0.99 0.125;
#X obj 131 81 s \$0-pos;
#X obj 173 445 r \$0-pos;
#X obj 119 235 s \$0-index;
#X obj 230 485 r \$0-index;
#X msg 92 402 0 0.875;
#X msg 147 402 0.25 0.875;
#X msg 223 403 0.5 0.875;
#X msg 293 402 0.75 0.875;
#X msg 365 403 0.99 0.875;
#X msg 114 360 0.125 0.5;
#X msg 186 361 0.375 0.5;
#X msg 260 360 0.625 0.5;
#X msg 332 361 0.875 0.5;
#X obj 92 626 t f;
#X obj 92 649 change;
#X obj 92 599 min;
#X obj 92 677 t b;
#X obj 92 730 f;
#X obj 111 103 s \$0-reset;
#X obj 135 127 r \$0-reset;
#X obj 107 550 r \$0-reset;
#X obj 107 703 r \$0-index;
#X msg 107 574 1.5;
#X text 444 355 Center points of hexpads;
#X text 256 35 Nearest-neighbor search;
#X text 232 446 Pythagoras to get the distance;
#X text 248 511 Connect for vizualization;
#X obj 77 765 f;
#X obj 20 730 r \$0-reset;
#X connect 0 0 12 0;
#X connect 2 0 33 0;
#X connect 3 0 6 0;
#X connect 4 0 3 0;
#X connect 5 0 6 1;
#X connect 6 0 7 0;
#X connect 6 0 8 0;
#X connect 7 0 6 1;
#X connect 8 0 11 0;
#X connect 8 1 20 0;
#X connect 11 0 13 0;
#X connect 11 1 14 0;
#X connect 11 2 15 0;
#X connect 11 3 16 0;
#X connect 11 4 17 0;
#X connect 11 5 27 0;
#X connect 11 6 28 0;
#X connect 11 7 29 0;
#X connect 11 8 30 0;
#X connect 11 9 22 0;
#X connect 11 10 23 0;
#X connect 11 11 24 0;
#X connect 11 12 25 0;
#X connect 11 13 26 0;
#X connect 12 0 4 0;
#X connect 12 1 36 0;
#X connect 12 2 18 0;
#X connect 13 0 2 0;
#X connect 14 0 2 0;
#X connect 15 0 2 0;
#X connect 16 0 2 0;
#X connect 17 0 2 0;
#X connect 19 0 2 1;
#X connect 21 0 10 1;
#X connect 22 0 2 0;
#X connect 23 0 2 0;
#X connect 24 0 2 0;
#X connect 25 0 2 0;
#X connect 26 0 2 0;
#X connect 27 0 2 0;
#X connect 28 0 2 0;
#X connect 29 0 2 0;
#X connect 30 0 2 0;
#X connect 31 0 32 0;
#X connect 31 0 33 1;
#X connect 32 0 34 0;
#X connect 33 0 31 0;
#X connect 34 0 35 0;
#X connect 35 0 45 1;
#X connect 37 0 5 0;
#X connect 38 0 40 0;
#X connect 39 0 35 1;
#X connect 40 0 33 1;
#X connect 45 0 1 0;
#X connect 46 0 45 0;
