#N canvas 2939 604 450 300 10;
#X obj 102 121 bng 15 250 50 0 empty empty empty 17 7 0 10 -262144
-1 -1;
#X obj 167 121 bng 15 250 50 0 empty empty empty 17 7 0 10 -262144
-1 -1;
#X floatatom 127 121 5 0 0 0 - - -, f 5;
#X obj 166 215 f;
#X obj 102 216 f;
#X obj 36 209 * 12;
#X obj 11 40 inlet;
#X obj 11 243 +;
#X obj 11 266 outlet;
#X obj 303 66 loadbang;
#X obj 102 76 sel 1;
#X obj 167 76 sel 1;
#X obj 102 36 route down up;
#X obj 102 6 r \$0-updown;
#X obj 132 255 s \$0-octave;
#X obj 229 38 r \$0-octave;
#X obj 198 216 + 1;
#X obj 132 216 - 1;
#X obj 229 69 clip -4 4;
#X msg 303 87 -2;
#X obj 302 265 outlet;
#X obj 113 151 t b f f f;
#X connect 0 0 4 0;
#X connect 1 0 3 0;
#X connect 2 0 21 0;
#X connect 3 0 16 0;
#X connect 4 0 17 0;
#X connect 5 0 7 1;
#X connect 6 0 7 0;
#X connect 7 0 8 0;
#X connect 9 0 19 0;
#X connect 10 0 0 0;
#X connect 11 0 1 0;
#X connect 12 0 10 0;
#X connect 12 1 11 0;
#X connect 13 0 12 0;
#X connect 15 0 18 0;
#X connect 16 0 3 1;
#X connect 16 0 14 0;
#X connect 17 0 4 1;
#X connect 17 0 14 0;
#X connect 18 0 2 0;
#X connect 19 0 2 0;
#X connect 21 0 20 0;
#X connect 21 1 5 0;
#X connect 21 2 4 1;
#X connect 21 3 3 1;
#X coords 0 -1 1 1 85 60 1 100 100;
