#N canvas 129 256 1611 835 10;
#X declare -path chair;
#X obj 823 7 tgl 15 0 empty empty empty 17 7 0 10 -262144 -1 -1 1 1
;
#X floatatom 932 434 5 0 0 0 - - -;
#X msg 841 33 info;
#X obj 822 273 lop~ 10000;
#X obj 822 250 hip~ 4;
#X obj 943 179 s \$0-xy;
#X obj 862 180 s \$0-touch;
#X obj 920 387 r \$0-xy;
#X obj 1150 11 declare -path chair;
#N canvas 2698 771 676 343 LED 0;
#X obj 69 185 outlet;
#X obj 35 14 r \$0-led0;
#X obj 144 14 r \$0-led1;
#X obj 243 9 r \$0-led2;
#X msg 35 68 led 0 \$1 0 0;
#X msg 144 71 led 1 0 \$1 0;
#X msg 243 71 led 2 0 0 \$1;
#X obj 35 40 change;
#X obj 144 40 change;
#X obj 243 39 change;
#X msg 237 130 led 0 0 0 0;
#X msg 348 133 led 1 0 0 0;
#X msg 445 133 led 2 0 0 0;
#X obj 357 80 loadbang;
#X connect 1 0 7 0;
#X connect 2 0 8 0;
#X connect 3 0 9 0;
#X connect 4 0 0 0;
#X connect 5 0 0 0;
#X connect 6 0 0 0;
#X connect 7 0 4 0;
#X connect 8 0 5 0;
#X connect 9 0 6 0;
#X connect 10 0 0 0;
#X connect 11 0 0 0;
#X connect 12 0 0 0;
#X connect 13 0 12 0;
#X connect 13 0 11 0;
#X connect 13 0 10 0;
#X restore 853 65 pd LED;
#X obj 824 793 dac~;
#X obj 920 409 chair.hex-mapping;
#X obj 916 317 r \$0-touch;
#X obj 823 210 chair.gain~;
#X obj 987 272 tgl 15 0 empty empty empty 17 7 0 10 -262144 -1 -1 0
1;
#X obj 822 296 chair.feedback-cancellation~;
#X floatatom 932 486 5 0 0 0 - - -;
#X obj 920 463 chair.hex-tuning;
#X msg 1013 433 g_major;
#X obj 825 741 chair.gain~;
#X msg 1074 434 b_minor;
#X obj 920 590 mtof;
#X obj 920 537 change;
#X obj 107 155 bng 25 250 50 0 empty to_digit empty 17 7 0 10 -262140
-53251 -262144;
#X obj 1165 674 pack f f;
#X obj 1165 545 r \$0-xy;
#X obj 1165 582 unpack f f;
#X obj 1165 613 * 785;
#X obj 1222 612 * 450;
#X obj 1222 635 + 140;
#X obj 1164 421 sel 1 0;
#X msg 1164 448 -1.0816e+07 -3.60449e+06 0;
#X msg 1184 472 -1.67772e+07 -3.60449e+06 0;
#X obj 874 644 osc~;
#X obj 823 680 *~;
#X obj 856 690 osc~;
#X obj 824 713 *~;
#X obj 957 613 mtof;
#X obj 957 590 + 2;
#X obj 1164 395 r \$0-touch;
#X obj 920 558 t f f;
#X obj 857 614 osc~;
#X obj 823 649 *~;
#X obj 920 511 - 24;
#X msg 1164 700 \; to_digit pos \$1 \$2;
#X text 1144 86 Touch-gestures to give additional control;
#X msg 1164 499 \; to_digit color \$1 \$2 \$3;
#X text 1155 109 outlet: X-offset \, Y-offset \, distance \, angle
;
#X obj 823 96 tickle~;
#N canvas 0 50 450 300 (subpatch) 0;
#X array \$0-speed 100 float 4;
#X coords 0 1 99 0 200 140 1 0 0;
#X restore 1351 278 graph;
#X obj 862 123 route position button;
#X obj 862 152 chair.capsense;
#X obj 823 339 chair.touchgate~;
#X obj 1145 173 cnv 15 95 25 empty empty empty 20 12 0 14 -262130 -66577
0;
#X obj 1226 144 r \$0-touch;
#X floatatom 1205 308 5 0 0 1 distance - -;
#X floatatom 1178 335 5 0 0 1 y-offset - -;
#X floatatom 1151 362 5 0 0 1 x-offset - -;
#X obj 1151 133 r \$0-xy;
#X obj 1151 252 unpack f f f f;
#X floatatom 1232 281 5 0 0 1 angle - -;
#X obj 1151 176 chair.gesture;
#X obj 1249 175 sel 0;
#X msg 1249 196 0 0 0 0;
#N canvas 752 881 358 241 plot-speed 0;
#X obj 57 107 list;
#X obj 57 156 list trim;
#X obj 57 129 list prepend 0;
#X obj 80 76 list split 100;
#X obj 57 30 inlet;
#X obj 57 182 s \$0-speed;
#X connect 0 0 2 0;
#X connect 0 0 3 0;
#X connect 1 0 5 0;
#X connect 2 0 1 0;
#X connect 3 0 0 1;
#X connect 3 2 0 1;
#X connect 4 0 0 0;
#X restore 1253 243 pd plot-speed;
#X floatatom 1253 222 5 0 0 1 speed - -;
#X connect 0 0 48 0;
#X connect 2 0 48 0;
#X connect 3 0 15 0;
#X connect 4 0 3 0;
#X connect 7 0 11 0;
#X connect 9 0 48 0;
#X connect 11 0 1 0;
#X connect 11 0 17 0;
#X connect 12 0 52 1;
#X connect 13 0 4 0;
#X connect 14 0 15 2;
#X connect 15 0 52 0;
#X connect 17 0 16 0;
#X connect 17 0 43 0;
#X connect 18 0 17 1;
#X connect 19 0 10 0;
#X connect 19 0 10 1;
#X connect 20 0 17 1;
#X connect 21 0 33 0;
#X connect 21 0 41 0;
#X connect 22 0 40 0;
#X connect 24 0 44 0;
#X connect 25 0 26 0;
#X connect 26 0 27 0;
#X connect 26 1 28 0;
#X connect 27 0 24 0;
#X connect 28 0 29 0;
#X connect 29 0 24 1;
#X connect 30 0 31 0;
#X connect 30 1 32 0;
#X connect 31 0 46 0;
#X connect 32 0 46 0;
#X connect 33 0 34 1;
#X connect 34 0 36 0;
#X connect 35 0 36 1;
#X connect 36 0 19 0;
#X connect 37 0 35 0;
#X connect 38 0 37 0;
#X connect 39 0 30 0;
#X connect 40 0 21 0;
#X connect 40 1 38 0;
#X connect 41 0 42 1;
#X connect 42 0 34 0;
#X connect 43 0 22 0;
#X connect 48 0 13 0;
#X connect 48 1 50 0;
#X connect 50 0 51 0;
#X connect 51 0 6 0;
#X connect 51 1 5 0;
#X connect 52 0 42 0;
#X connect 54 0 61 1;
#X connect 54 0 62 0;
#X connect 58 0 61 0;
#X connect 59 0 57 0;
#X connect 59 1 56 0;
#X connect 59 2 55 0;
#X connect 59 3 60 0;
#X connect 61 0 59 0;
#X connect 61 1 65 0;
#X connect 62 0 63 0;
#X connect 63 0 59 0;
#X connect 65 0 64 0;
