#N canvas 2069 472 584 402 10;
#X floatatom 103 255 5 0 0 0 - - -, f 5;
#X obj 266 69 loadbang;
#X obj 266 91 t b b;
#X obj 88 300 outlet;
#X obj 88 120 inlet;
#X msg 298 116 resize 14;
#X obj 88 213 array get \$0-tuning 0 1;
#X obj 266 254 array define \$0-tuning;
#X obj 410 78 inlet;
#X msg 410 170 read \$1;
#X obj 410 147 makefilename %s.txt;
#X obj 410 125 symbol;
#X obj 410 101 list trim;
#X msg 266 146 read g_major.txt;
#X msg 296 171 read b_minor.txt;
#X connect 1 0 2 0;
#X connect 2 0 13 0;
#X connect 2 1 5 0;
#X connect 4 0 6 0;
#X connect 5 0 7 0;
#X connect 6 0 0 0;
#X connect 6 0 3 0;
#X connect 8 0 12 0;
#X connect 9 0 7 0;
#X connect 10 0 9 0;
#X connect 11 0 10 0;
#X connect 12 0 11 0;
#X connect 13 0 7 0;
#X connect 14 0 7 0;
