#N canvas 759 239 762 364 10;
#X obj 85 72 hilbert~;
#X text 346 184 hilbert~ and complex-mod~ are abstractions which come
with Vanilla Pd. You can find them in the "extra" folder of Pd.;
#X text 345 88 If there is acoustc feedback \, activate this subpatch.
;
#X text 346 131 It performs a uniform frequency shift (not a pitch
shift) which is efficiently removing feedback.;
#X text 344 47 The audio output through speakers may be picked up by
the Tickle and sometimes issues with feedback occur.;
#X obj 230 129 line~;
#X obj 86 235 *~;
#X obj 230 80 sel 0 1;
#X msg 266 103 1 5;
#X msg 230 103 0 5;
#X obj 27 230 *~;
#X obj 40 207 +~ 1;
#X obj 40 185 *~ -1;
#N canvas 233 385 450 300 arguments 0;
#X obj 33 24 loadbang;
#X obj 162 237 outlet;
#X msg 33 46 36;
#X obj 242 135 t b;
#X obj 33 240 outlet;
#X obj 113 141 t b;
#X msg 33 167 50;
#X obj 33 87 makefilename .%c1;
#X obj 162 87 makefilename .%c2;
#X obj 33 110 select .\$1;
#X obj 162 110 select .\$2;
#X obj 113 167 f \$1;
#X obj 242 161 f \$2;
#X msg 162 161 1;
#X connect 0 0 2 0;
#X connect 2 0 7 0;
#X connect 2 0 8 0;
#X connect 3 0 12 0;
#X connect 5 0 11 0;
#X connect 6 0 4 0;
#X connect 7 0 9 0;
#X connect 8 0 10 0;
#X connect 9 0 6 0;
#X connect 9 1 5 0;
#X connect 10 0 13 0;
#X connect 10 1 3 0;
#X connect 11 0 4 0;
#X connect 12 0 1 0;
#X connect 13 0 1 0;
#X restore 169 48 pd arguments;
#X obj 85 46 hip~ 4;
#X obj 27 11 inlet~ audio;
#X obj 28 267 outlet~ audio;
#X obj 231 17 inlet activate;
#X obj 154 17 inlet~ freq;
#X obj 85 100 complex-mod~;
#X obj 167 75 sig~;
#X connect 0 0 19 0;
#X connect 0 1 19 1;
#X connect 5 0 12 0;
#X connect 5 0 6 1;
#X connect 6 0 16 0;
#X connect 7 0 9 0;
#X connect 7 1 8 0;
#X connect 8 0 5 0;
#X connect 9 0 5 0;
#X connect 10 0 16 0;
#X connect 11 0 10 1;
#X connect 12 0 11 0;
#X connect 13 0 20 0;
#X connect 13 1 7 0;
#X connect 14 0 0 0;
#X connect 15 0 10 0;
#X connect 15 0 14 0;
#X connect 17 0 7 0;
#X connect 18 0 19 2;
#X connect 19 0 6 0;
#X connect 20 0 19 2;
