#N canvas 219 727 640 343 10;
#X obj 92 228 chair.hex-mapping;
#X obj 95 121 hsl 99 20 0 1 0 0 empty empty empty -2 -8 0 10 -262144
-1 -1 0 1;
#X obj 197 40 vsl 20 99 1 0 0 0 empty empty empty 0 -9 0 10 -262144
-1 -1 0 1;
#X obj 92 195 pack f f;
#X floatatom 92 267 5 0 0 0 - - -;
#X obj 110 169 t b f;
#X text 274 103 Converts x and y positions on the Tickle hexagon pattern
to IDs of the fields.;
#X text 278 140 The 14 fields have IDs which start at 0;
#X floatatom 200 148 5 0 0 0 - - -;
#X floatatom 98 146 5 0 0 0 - - -;
#X msg 30 157 0.5 0.9;
#X msg 32 126 0.1 0.5;
#X connect 0 0 4 0;
#X connect 1 0 3 0;
#X connect 1 0 9 0;
#X connect 2 0 5 0;
#X connect 2 0 8 0;
#X connect 3 0 0 0;
#X connect 5 0 3 0;
#X connect 5 1 3 1;
#X connect 10 0 0 0;
#X connect 11 0 0 0;
