#N canvas 2523 226 672 624 10;
#X obj 103 116 hsl 66 17 -30 30 0 0 \$0-gain \$0-gain-r -5_dB 5 8 1
10 -166441 -262144 -262144 2700 0;
#X obj 70 179 inlet~;
#X obj 71 526 outlet~;
#X obj 122 393 line~;
#X msg 122 370 \$1 10;
#X obj 69 426 *~;
#X obj 122 180 inlet;
#X obj 122 213 / 20;
#X obj 122 235 t b f;
#X obj 122 281 pow;
#X msg 122 258 10;
#X obj 70 451 clip~ -1 1;
#X obj 122 302 moses 0.04;
#X obj 122 322 t b;
#X msg 122 343 0;
#X obj 232 480 -~;
#X obj 231 527 outlet clipping;
#X obj 179 371 outlet amplitude;
#X obj 317 416 s \$0-gain-r;
#X obj 317 149 r \$0-gain;
#X obj 100 35 loadbang;
#X msg 100 57 -20;
#X msg 317 332 label \$1_dB;
#X obj 317 232 int;
#X msg 396 380 color 1 0 0;
#X msg 396 357 color 13 0 0;
#X obj 317 209 * 10;
#X obj 317 256 / 10;
#X obj 231 503 threshold~ 0 100 0 100;
#X text 352 232 Reduce to one number after the decimal divider;
#X text 230 555 Clipping warner;
#X connect 1 0 5 0;
#X connect 3 0 5 1;
#X connect 4 0 3 0;
#X connect 5 0 11 0;
#X connect 5 0 15 1;
#X connect 6 0 7 0;
#X connect 7 0 8 0;
#X connect 8 0 10 0;
#X connect 8 1 9 1;
#X connect 9 0 12 0;
#X connect 10 0 9 0;
#X connect 11 0 2 0;
#X connect 11 0 15 0;
#X connect 12 0 13 0;
#X connect 12 1 4 0;
#X connect 12 1 17 0;
#X connect 13 0 14 0;
#X connect 14 0 4 0;
#X connect 14 0 17 0;
#X connect 15 0 28 0;
#X connect 19 0 7 0;
#X connect 19 0 26 0;
#X connect 20 0 21 0;
#X connect 21 0 0 0;
#X connect 22 0 18 0;
#X connect 23 0 27 0;
#X connect 24 0 18 0;
#X connect 25 0 18 0;
#X connect 26 0 23 0;
#X connect 27 0 22 0;
#X connect 28 0 16 0;
#X connect 28 0 24 0;
#X connect 28 1 25 0;
#X coords 0 -1 1 1 71 33 1 100 100;
