#N canvas 734 501 587 315 10;
#X obj 203 28 loadbang;
#X obj 203 50 t b b;
#X obj 25 243 outlet;
#X obj 25 28 inlet;
#X msg 230 75 resize 14;
#X obj 25 121 array get \$0-tuning 0 1;
#X obj 203 232 array define \$0-tuning;
#X obj 426 87 inlet;
#X msg 426 179 read \$1;
#X obj 426 156 makefilename %s.txt;
#X obj 426 134 symbol;
#X obj 426 110 list trim;
#X msg 203 105 read g_major.txt;
#X msg 233 130 read b_minor.txt;
#X msg 244 155 read chromatic.txt;
#X msg 252 178 read isomorphic.txt;
#X msg 262 200 read ratios.txt;
#X connect 0 0 1 0;
#X connect 1 0 12 0;
#X connect 1 1 4 0;
#X connect 3 0 5 0;
#X connect 4 0 6 0;
#X connect 5 0 2 0;
#X connect 7 0 11 0;
#X connect 8 0 6 0;
#X connect 9 0 8 0;
#X connect 10 0 9 0;
#X connect 11 0 10 0;
#X connect 12 0 6 0;
#X connect 13 0 6 0;
#X connect 14 0 6 0;
#X connect 15 0 6 0;
#X connect 16 0 6 0;
