#N canvas 330 472 408 466 10;
#X obj 88 295 abs;
#X obj 30 109 tgl 15 0 empty empty empty 17 7 0 10 -262144 -1 -1 1
1;
#X obj 94 152 unpack f f;
#X obj 87 189 f;
#X obj 30 189 f;
#X obj 30 150 t b b;
#X obj 106 242 f;
#X obj 55 242 f;
#X obj 88 213 t f f b;
#X obj 30 212 t f f b;
#X obj 88 269 -;
#X obj 30 272 -;
#X obj 30 297 abs;
#X obj 30 321 +;
#X obj 30 346 * 2;
#X obj 30 128 metro 25;
#X obj 30 60 loadbang;
#X msg 30 83 1;
#X obj 94 20 inlet xy;
#X obj 30 393 outlet speed;
#X connect 0 0 13 1;
#X connect 1 0 15 0;
#X connect 2 0 4 1;
#X connect 2 1 3 1;
#X connect 3 0 8 0;
#X connect 4 0 9 0;
#X connect 5 0 4 0;
#X connect 5 1 3 0;
#X connect 6 0 10 1;
#X connect 7 0 11 1;
#X connect 8 0 10 0;
#X connect 8 1 6 1;
#X connect 8 2 6 0;
#X connect 9 0 11 0;
#X connect 9 1 7 1;
#X connect 9 2 7 0;
#X connect 10 0 0 0;
#X connect 11 0 12 0;
#X connect 12 0 13 0;
#X connect 13 0 14 0;
#X connect 14 0 19 0;
#X connect 15 0 5 0;
#X connect 16 0 17 0;
#X connect 17 0 1 0;
#X connect 18 0 2 0;
