#N canvas 585 135 763 432 10;
#N canvas 0 50 450 300 (subpatch) 0;
#X array \$0-x-axis 100 float 2;
#X coords 0 1 100 0 200 140 1 0 0;
#X restore 472 97 graph;
#N canvas 0 50 450 300 (subpatch) 0;
#X array \$0-y-axis 100 float 2;
#X coords 0 0 100 1 200 140 1 0 0;
#X restore 471 262 graph;
#N canvas 856 726 740 369 plot-pos 0;
#X obj 323 119 list;
#X obj 323 168 list trim;
#X obj 323 141 list prepend 0;
#X obj 346 88 list split 100;
#X obj 464 119 list;
#X obj 464 168 list trim;
#X obj 464 141 list prepend 0;
#X obj 487 88 list split 100;
#X obj 323 194 s \$0-x-axis;
#X obj 464 194 s \$0-y-axis;
#X obj 321 42 r \$0-xy;
#X obj 323 66 unpack f f, f 24;
#X obj 32 32 r \$0-xy-dirty;
#X obj 32 117 list;
#X obj 32 166 list trim;
#X obj 32 139 list prepend 0;
#X obj 55 86 list split 100;
#X obj 175 117 list;
#X obj 175 166 list trim;
#X obj 175 139 list prepend 0;
#X obj 198 86 list split 100;
#X obj 32 64 unpack f f, f 24;
#X obj 32 192 s \$0-x-axis-dirty;
#X obj 175 192 s \$0-y-axis-dirty;
#X connect 0 0 2 0;
#X connect 0 0 3 0;
#X connect 1 0 8 0;
#X connect 2 0 1 0;
#X connect 3 0 0 1;
#X connect 3 2 0 1;
#X connect 4 0 6 0;
#X connect 4 0 7 0;
#X connect 5 0 9 0;
#X connect 6 0 5 0;
#X connect 7 0 4 1;
#X connect 7 2 4 1;
#X connect 10 0 11 0;
#X connect 11 0 0 0;
#X connect 11 1 4 0;
#X connect 12 0 21 0;
#X connect 13 0 15 0;
#X connect 13 0 16 0;
#X connect 14 0 22 0;
#X connect 15 0 14 0;
#X connect 16 0 13 1;
#X connect 16 2 13 1;
#X connect 17 0 19 0;
#X connect 17 0 20 0;
#X connect 18 0 23 0;
#X connect 19 0 18 0;
#X connect 20 0 17 1;
#X connect 20 2 17 1;
#X connect 21 0 13 0;
#X connect 21 1 17 0;
#X restore 600 65 pd plot-pos;
#X text 679 227 left;
#X text 680 90 right;
#X text 679 256 top;
#X text 678 393 bottom;
#N canvas 0 50 450 300 (subpatch) 0;
#X array \$0-x-axis-dirty 100 float 2;
#X coords 0 1 100 0 200 140 1 0 0;
#X restore 266 97 graph;
#N canvas 0 50 450 300 (subpatch) 0;
#X array \$0-y-axis-dirty 100 float 2;
#X coords 0 0 100 1 200 140 1 0 0;
#X restore 265 262 graph;
#X text 474 43 CLEAN;
#X text 264 44 "DIRTY";
#X text 267 6 Removes single stray datapoints in the xy position stream
without adding additional latency., f 66;
#X obj 61 320 cnv 15 130 25 empty empty empty 20 12 0 14 -262130 -66577
0;
#X obj 33 29 tgl 15 0 empty empty empty 17 7 0 10 -262144 -1 -1 0 1
;
#X obj 33 118 tickle~;
#X msg 52 55 info;
#X obj 72 358 s \$0-xy;
#X obj 177 358 s \$0-touch;
#N canvas 2698 771 676 343 LED 0;
#X obj 69 185 outlet;
#X obj 35 14 r \$0-led0;
#X obj 144 14 r \$0-led1;
#X obj 243 9 r \$0-led2;
#X msg 35 68 led 0 \$1 0 0;
#X msg 144 71 led 1 0 \$1 0;
#X msg 243 71 led 2 0 0 \$1;
#X obj 35 40 change;
#X obj 144 40 change;
#X obj 243 39 change;
#X connect 1 0 7 0;
#X connect 2 0 8 0;
#X connect 3 0 9 0;
#X connect 4 0 0 0;
#X connect 5 0 0 0;
#X connect 6 0 0 0;
#X connect 7 0 4 0;
#X connect 8 0 5 0;
#X connect 9 0 6 0;
#X restore 64 87 pd LED;
#X obj 72 323 chair.cleanposdata;
#X obj 72 247 t l l;
#X obj 80 291 s \$0-xy-dirty;
#X obj 72 145 route position;
#X obj 72 170 chair.capsense;
#X connect 13 0 14 0;
#X connect 14 1 22 0;
#X connect 15 0 14 0;
#X connect 18 0 14 0;
#X connect 19 0 16 0;
#X connect 19 1 17 0;
#X connect 20 0 19 0;
#X connect 20 1 21 0;
#X connect 22 0 23 0;
#X connect 23 0 19 1;
#X connect 23 1 20 0;
