#N canvas 1220 302 621 701 10;
#X obj 102 363 expr acos($f1);
#X obj 102 416 / 3.14159;
#X obj 102 395 * 180;
#X text 167 406 radians to degree;
#X text 207 363 arcus cosinus;
#X obj 57 64 unpack f f;
#X obj 224 65 unpack f f;
#X obj 76 169 *;
#X obj 114 169 *;
#X obj 76 230 +;
#X obj 76 296 /;
#X obj 224 94 t f f;
#X obj 281 95 t f f;
#X obj 114 93 t f f;
#X obj 57 33 inlet vector1;
#X obj 224 34 inlet vector2;
#X obj 57 610 outlet angle;
#X obj 382 170 expr sqrt(pow($f1 \, 2)+pow($f2 \, 2));
#X obj 168 170 expr sqrt(pow($f1 \, 2)+pow($f2 \, 2));
#X obj 247 234 *;
#X obj 57 93 t f f f;
#X obj 57 492 route 0 1;
#X obj 82 526 - 180;
#X obj 82 551 abs;
#X obj 82 576 + 180;
#X obj 57 465 pack f f;
#X floatatom 152 470 5 0 0 0 - - -;
#X obj 57 436 < 0;
#X connect 0 0 2 0;
#X connect 1 0 25 1;
#X connect 1 0 26 0;
#X connect 2 0 1 0;
#X connect 5 0 20 0;
#X connect 5 1 13 0;
#X connect 6 0 11 0;
#X connect 6 1 12 0;
#X connect 7 0 9 0;
#X connect 8 0 9 1;
#X connect 9 0 10 0;
#X connect 10 0 0 0;
#X connect 11 0 7 1;
#X connect 11 1 17 0;
#X connect 12 0 8 1;
#X connect 12 1 17 1;
#X connect 13 0 8 0;
#X connect 13 1 18 1;
#X connect 14 0 5 0;
#X connect 15 0 6 0;
#X connect 17 0 19 1;
#X connect 18 0 19 0;
#X connect 19 0 10 1;
#X connect 20 0 27 0;
#X connect 20 1 7 0;
#X connect 20 2 18 0;
#X connect 21 0 16 0;
#X connect 21 1 22 0;
#X connect 22 0 23 0;
#X connect 23 0 24 0;
#X connect 24 0 16 0;
#X connect 25 0 21 0;
#X connect 27 0 25 0;
