#N canvas 1074 669 450 300 10;
#X obj 91 67 inlet;
#X obj 136 67 inlet;
#X obj 91 197 outlet;
#X obj 91 136 spigot 1;
#X obj 136 111 == 0;
#X connect 0 0 3 0;
#X connect 1 0 4 0;
#X connect 3 0 2 0;
#X connect 4 0 3 1;
