#N canvas 737 670 762 364 10;
#X obj 27 11 inlet~;
#X obj 28 234 outlet~;
#X obj 86 72 hilbert~;
#X obj 85 100 complex-mod~;
#X obj 189 50 inlet;
#X text 280 179 hilbert~ and complex-mod~ are abstractions which come
with Vanilla Pd. You can find them in the "extra" folder of Pd.;
#X text 279 83 If there is acoustc feedback \, activate this subpatch.
;
#X text 280 126 It performs a uniform frequency shift (not a pitch
shift) which is efficiently removing feedback.;
#X text 278 42 The audio output through speakers may be picked up by
the Tickle and sometimes issues with feedback occur.;
#X obj 189 122 line~;
#X obj 86 202 *~;
#X obj 189 77 sel 0 1;
#X msg 225 100 1 5;
#X msg 189 100 0 5;
#X obj 28 203 *~;
#X obj 44 175 +~ 1;
#X obj 44 153 *~ -1;
#N canvas 3047 278 450 300 arguments 0;
#X obj 33 24 loadbang;
#X obj 33 220 outlet;
#X obj 33 70 makefilename .%c1;
#X obj 33 93 select .\$1;
#X msg 33 46 36;
#X obj 113 144 f \$1;
#X obj 113 118 t b;
#X msg 33 144 0;
#X obj 187 70 makefilename .%c2;
#X obj 187 93 select .\$2;
#X obj 187 223 outlet;
#X obj 267 124 t b;
#X obj 267 150 f \$2;
#X msg 187 150 50;
#X connect 0 0 4 0;
#X connect 2 0 3 0;
#X connect 3 0 7 0;
#X connect 3 1 6 0;
#X connect 4 0 2 0;
#X connect 4 0 8 0;
#X connect 5 0 1 0;
#X connect 6 0 5 0;
#X connect 7 0 1 0;
#X connect 8 0 9 0;
#X connect 9 0 13 0;
#X connect 9 1 11 0;
#X connect 11 0 12 0;
#X connect 12 0 10 0;
#X connect 13 0 10 0;
#X restore 120 11 pd arguments;
#X connect 0 0 2 0;
#X connect 0 0 14 0;
#X connect 2 0 3 0;
#X connect 2 1 3 1;
#X connect 3 0 10 0;
#X connect 4 0 11 0;
#X connect 9 0 10 1;
#X connect 9 0 16 0;
#X connect 10 0 1 0;
#X connect 11 0 13 0;
#X connect 11 1 12 0;
#X connect 12 0 9 0;
#X connect 13 0 9 0;
#X connect 14 0 1 0;
#X connect 15 0 14 1;
#X connect 16 0 15 0;
#X connect 17 0 11 0;
#X connect 17 1 3 2;
