#N canvas 912 383 538 579 10;
#X obj 230 19 inlet touch;
#X obj 37 180 unpack f f;
#X obj 138 180 unpack f f;
#X obj 230 76 sel 1;
#X obj 37 272 -;
#X obj 94 274 -;
#X obj 37 480 outlet;
#X obj 147 276 chair.distance;
#X obj 138 130 spigot 0;
#X msg 230 99 1;
#X obj 138 156 t l l, f 15;
#X msg 172 103 0;
#X obj 37 296 t f f;
#X obj 92 297 t f f;
#X obj 202 387 chair.angle;
#X obj 265 330 loadbang;
#X obj 202 360 pack f f;
#X msg 265 357 0 -1;
#X obj 37 21 inlet xy;
#X text 34 503 x-offset \, y-offset \, distance \, angle;
#X obj 37 418 pack f f f f, f 28;
#X obj 37 61 t l l b l l, f 23;
#N canvas 246 621 569 489 speed 0;
#X obj 141 282 abs;
#X obj 83 96 tgl 15 0 empty empty empty 17 7 0 10 -262144 -1 -1 1 1
;
#X obj 147 139 unpack f f;
#X obj 140 176 f;
#X obj 83 176 f;
#X obj 83 137 t b b;
#X obj 159 229 f;
#X obj 108 229 f;
#X obj 141 200 t f f b;
#X obj 83 199 t f f b;
#X obj 141 256 -;
#X obj 83 259 -;
#X obj 83 284 abs;
#X obj 83 308 +;
#X obj 83 333 * 2;
#X obj 83 115 metro 25;
#X obj 83 47 loadbang;
#X msg 83 70 1;
#X obj 147 21 inlet xy;
#X obj 83 359 outlet;
#X connect 0 0 13 1;
#X connect 1 0 15 0;
#X connect 2 0 4 1;
#X connect 2 1 3 1;
#X connect 3 0 8 0;
#X connect 4 0 9 0;
#X connect 5 0 4 0;
#X connect 5 1 3 0;
#X connect 6 0 10 1;
#X connect 7 0 11 1;
#X connect 8 0 10 0;
#X connect 8 1 6 1;
#X connect 8 2 6 0;
#X connect 9 0 11 0;
#X connect 9 1 7 1;
#X connect 9 2 7 0;
#X connect 10 0 0 0;
#X connect 11 0 12 0;
#X connect 12 0 13 0;
#X connect 13 0 14 0;
#X connect 14 0 19 0;
#X connect 15 0 5 0;
#X connect 16 0 17 0;
#X connect 17 0 1 0;
#X connect 18 0 2 0;
#X restore 364 235 pd speed;
#N canvas 424 473 571 569 smoothing 0;
#X obj 35 164 outlet;
#X obj 35 126 expr 0.9*$f1+(1-0.9)*$f2;
#X obj 35 99 f;
#X obj 84 96 f;
#X obj 34 65 t f b b;
#X obj 34 35 inlet;
#X connect 1 0 3 1;
#X connect 1 0 0 0;
#X connect 2 0 1 0;
#X connect 3 0 1 1;
#X connect 4 0 2 1;
#X connect 4 1 2 0;
#X connect 4 2 3 0;
#X connect 5 0 4 0;
#X restore 364 271 pd smoothing;
#X obj 364 484 outlet speed;
#X text 366 506 speed;
#X connect 0 0 3 0;
#X connect 1 0 4 0;
#X connect 1 1 5 0;
#X connect 2 0 4 1;
#X connect 2 1 5 1;
#X connect 3 0 9 0;
#X connect 4 0 12 0;
#X connect 5 0 13 0;
#X connect 7 0 20 2;
#X connect 8 0 10 0;
#X connect 9 0 8 1;
#X connect 10 0 2 0;
#X connect 10 1 7 1;
#X connect 11 0 8 1;
#X connect 12 0 20 0;
#X connect 12 1 16 0;
#X connect 13 0 20 1;
#X connect 13 1 16 1;
#X connect 14 0 20 3;
#X connect 15 0 17 0;
#X connect 16 0 14 0;
#X connect 17 0 14 1;
#X connect 18 0 21 0;
#X connect 20 0 6 0;
#X connect 21 0 1 0;
#X connect 21 1 7 0;
#X connect 21 2 11 0;
#X connect 21 3 8 0;
#X connect 21 4 22 0;
#X connect 22 0 23 0;
#X connect 23 0 24 0;
