#N canvas 944 603 853 500 10;
#X obj 97 43 inlet;
#X obj 410 49 inlet;
#X obj 95 393 outlet;
#X obj 437 358 outlet;
#X obj 410 78 t f f;
#X obj 97 80 unpack f f;
#X obj 95 348 pack f f;
#X obj 169 182 f;
#X obj 149 313 spigot 1;
#X obj 168 211 -;
#X obj 169 245 abs;
#X obj 169 273 < 0.2;
#X obj 68 185 f;
#X obj 42 309 spigot 1;
#X obj 67 214 -;
#X obj 68 248 abs;
#X obj 68 276 < 0.2;
#X obj 154 133 t f f b f b;
#X msg 220 238 1;
#X obj 53 129 t f f b f b;
#X msg 111 244 1;
#X obj 104 190 del 5;
#X obj 214 182 del 5;
#X obj 363 123 sel 0;
#X obj 362 150 t b b;
#X connect 0 0 5 0;
#X connect 1 0 4 0;
#X connect 4 0 23 0;
#X connect 4 1 3 0;
#X connect 5 0 19 0;
#X connect 5 1 17 0;
#X connect 6 0 2 0;
#X connect 7 0 9 0;
#X connect 8 0 6 1;
#X connect 9 0 10 0;
#X connect 10 0 11 0;
#X connect 11 0 8 1;
#X connect 12 0 14 0;
#X connect 13 0 6 0;
#X connect 14 0 15 0;
#X connect 15 0 16 0;
#X connect 16 0 13 1;
#X connect 17 0 8 0;
#X connect 17 1 7 1;
#X connect 17 2 7 0;
#X connect 17 3 9 1;
#X connect 17 4 22 0;
#X connect 18 0 8 1;
#X connect 19 0 13 0;
#X connect 19 1 12 1;
#X connect 19 2 12 0;
#X connect 19 3 14 1;
#X connect 19 4 21 0;
#X connect 20 0 13 1;
#X connect 21 0 20 0;
#X connect 22 0 18 0;
#X connect 23 0 24 0;
#X connect 24 0 20 0;
#X connect 24 1 18 0;
