#N canvas 2422 672 450 427 10;
#X obj 70 245 + 1;
#X obj 70 217 f;
#X obj 70 48 t b f;
#X obj 120 93 t f f;
#X obj 147 121 sel -1 1;
#X obj 218 175 > 0;
#X obj 120 165 * 1;
#X obj 120 214 * 1;
#X obj 218 148 t f f;
#X msg 147 178 1;
#X msg 167 142 1;
#X obj 70 19 inlet;
#X obj 246 175 < \$1;
#X obj 70 274 / \$1;
#X obj 70 302 outlet;
#X obj 120 20 inlet;
#X connect 0 0 1 1;
#X connect 0 0 8 0;
#X connect 0 0 13 0;
#X connect 1 0 0 0;
#X connect 2 0 1 0;
#X connect 2 1 3 0;
#X connect 3 0 6 0;
#X connect 3 1 4 0;
#X connect 4 0 9 0;
#X connect 4 1 10 0;
#X connect 5 0 6 1;
#X connect 6 0 7 0;
#X connect 7 0 0 1;
#X connect 8 0 5 0;
#X connect 8 1 12 0;
#X connect 9 0 7 1;
#X connect 10 0 6 1;
#X connect 11 0 2 0;
#X connect 12 0 7 1;
#X connect 13 0 14 0;
#X connect 15 0 1 1;
