#N canvas 1428 408 450 499 10;
#X obj 81 18 inlet xy;
#X obj 272 16 inlet touch;
#X obj 81 112 unpack f f;
#X obj 169 176 unpack f f;
#X obj 272 67 sel 1;
#X obj 81 219 -;
#X obj 138 223 -;
#X obj 81 327 outlet;
#X obj 173 225 chair.distance;
#X obj 81 277 pack f f f;
#X obj 227 119 spigot 0;
#X msg 272 90 1;
#X obj 227 145 t l l;
#X obj 81 74 t l l b l;
#X msg 241 90 0;
#X connect 0 0 13 0;
#X connect 1 0 4 0;
#X connect 2 0 5 0;
#X connect 2 1 6 0;
#X connect 3 0 5 1;
#X connect 3 1 6 1;
#X connect 4 0 11 0;
#X connect 5 0 9 0;
#X connect 6 0 9 1;
#X connect 8 0 9 2;
#X connect 9 0 7 0;
#X connect 10 0 12 0;
#X connect 11 0 10 1;
#X connect 12 0 3 0;
#X connect 12 1 8 1;
#X connect 13 0 2 0;
#X connect 13 1 8 0;
#X connect 13 2 14 0;
#X connect 13 3 10 0;
#X connect 14 0 10 1;
