#N canvas 784 518 507 435 10;
#X obj 285 76 t f f, f 10;
#X obj 53 80 unpack f f, f 17;
#X obj 53 346 pack f f, f 17;
#X obj 166 182 f;
#X obj 152 313 spigot 1;
#X obj 166 218 -;
#X obj 166 245 abs;
#X obj 166 273 < 0.2;
#X obj 67 183 f;
#X obj 53 313 spigot 1;
#X obj 67 214 -;
#X obj 67 248 abs;
#X obj 67 276 < 0.2;
#X obj 152 133 t f f b f b;
#X msg 215 272 1;
#X obj 53 129 t f f b f b;
#X msg 116 275 1;
#X obj 116 184 del 5;
#X obj 215 182 del 5;
#X obj 285 121 sel 0;
#X obj 285 148 t b b;
#X obj 53 43 inlet position;
#X obj 285 47 inlet touch;
#X obj 53 382 outlet position;
#X obj 342 378 outlet touch;
#X connect 0 0 19 0;
#X connect 0 1 24 0;
#X connect 1 0 15 0;
#X connect 1 1 13 0;
#X connect 2 0 23 0;
#X connect 3 0 5 0;
#X connect 4 0 2 1;
#X connect 5 0 6 0;
#X connect 6 0 7 0;
#X connect 7 0 4 1;
#X connect 8 0 10 0;
#X connect 9 0 2 0;
#X connect 10 0 11 0;
#X connect 11 0 12 0;
#X connect 12 0 9 1;
#X connect 13 0 4 0;
#X connect 13 1 3 1;
#X connect 13 2 3 0;
#X connect 13 3 5 1;
#X connect 13 4 18 0;
#X connect 14 0 4 1;
#X connect 15 0 9 0;
#X connect 15 1 8 1;
#X connect 15 2 8 0;
#X connect 15 3 10 1;
#X connect 15 4 17 0;
#X connect 16 0 9 1;
#X connect 17 0 16 0;
#X connect 18 0 14 0;
#X connect 19 0 20 0;
#X connect 20 0 16 0;
#X connect 20 1 14 0;
#X connect 21 0 1 0;
#X connect 22 0 0 0;
