#N canvas 1218 432 574 525 10;
#X obj 102 118 bng 15 250 50 0 empty empty empty 17 7 0 10 -262144
-1 -1;
#X obj 167 118 bng 15 250 50 0 empty empty empty 17 7 0 10 -262144
-1 -1;
#X floatatom 127 116 5 0 0 0 - - -;
#X obj 166 215 f;
#X obj 102 216 f;
#X obj 26 216 * 12;
#X obj 11 8 inlet;
#X obj 11 243 +;
#X obj 11 361 outlet;
#X obj 102 76 sel 1;
#X obj 167 76 sel 1;
#X obj 132 255 s \$0-octave;
#X obj 229 38 r \$0-octave;
#X obj 198 216 + 1;
#X obj 132 216 - 1;
#X obj 320 263 outlet;
#X obj 65 7 inlet;
#X obj 229 69 clip -3 3;
#N canvas 3013 239 450 300 argument 0;
#X obj 33 24 loadbang;
#X obj 33 70 makefilename .%c1;
#X obj 33 93 select .\$1;
#X msg 33 46 36;
#X obj 113 144 f \$1;
#X obj 113 118 t b;
#X msg 33 144 0;
#X obj 33 177 outlet;
#X connect 0 0 3 0;
#X connect 1 0 2 0;
#X connect 2 0 6 0;
#X connect 2 1 5 0;
#X connect 3 0 1 0;
#X connect 4 0 7 0;
#X connect 5 0 4 0;
#X connect 6 0 7 0;
#X restore 305 69 pd argument;
#X obj 127 151 t f f f f;
#X obj 11 334 +;
#X obj 65 289 clip -100 100;
#X obj 65 312 / 100;
#X obj 65 37 route cents down up;
#X connect 0 0 4 0;
#X connect 1 0 3 0;
#X connect 2 0 19 0;
#X connect 3 0 13 0;
#X connect 4 0 14 0;
#X connect 5 0 7 1;
#X connect 6 0 7 0;
#X connect 7 0 20 0;
#X connect 9 0 0 0;
#X connect 10 0 1 0;
#X connect 12 0 17 0;
#X connect 13 0 3 1;
#X connect 13 0 11 0;
#X connect 14 0 4 1;
#X connect 14 0 11 0;
#X connect 16 0 23 0;
#X connect 17 0 2 0;
#X connect 18 0 2 0;
#X connect 19 0 15 0;
#X connect 19 1 5 0;
#X connect 19 2 4 1;
#X connect 19 3 3 1;
#X connect 20 0 8 0;
#X connect 21 0 22 0;
#X connect 22 0 20 1;
#X connect 23 0 21 0;
#X connect 23 1 9 0;
#X connect 23 2 10 0;
#X coords 0 -1 1 1 85 35 1 100 100;
