#N canvas 1105 687 450 499 10;
#X obj 81 18 inlet xy;
#X obj 272 16 inlet touch;
#X obj 81 177 unpack f f;
#X obj 180 182 unpack f f;
#X obj 272 73 sel 1;
#X obj 81 268 -;
#X obj 138 272 -;
#X obj 80 414 outlet;
#X obj 177 275 chair.distance;
#X obj 180 127 spigot 0;
#X msg 272 96 1;
#X obj 180 153 t l l, f 14;
#X obj 81 58 t l l b l, f 17;
#X msg 214 100 0;
#X obj 80 388 pack f f f f;
#X obj 80 293 t f f;
#X obj 136 295 t f f;
#X text 136 420 x offset \, y \, offset \, distance \, angle;
#X obj 184 351 chair.angle;
#X obj 288 291 loadbang;
#X obj 184 324 pack f f;
#X msg 288 318 0 -1;
#X connect 0 0 12 0;
#X connect 1 0 4 0;
#X connect 2 0 5 0;
#X connect 2 1 6 0;
#X connect 3 0 5 1;
#X connect 3 1 6 1;
#X connect 4 0 10 0;
#X connect 5 0 15 0;
#X connect 6 0 16 0;
#X connect 8 0 14 2;
#X connect 9 0 11 0;
#X connect 10 0 9 1;
#X connect 11 0 3 0;
#X connect 11 1 8 1;
#X connect 12 0 2 0;
#X connect 12 1 8 0;
#X connect 12 2 13 0;
#X connect 12 3 9 0;
#X connect 13 0 9 1;
#X connect 14 0 7 0;
#X connect 15 0 14 0;
#X connect 15 1 20 0;
#X connect 16 0 14 1;
#X connect 16 1 20 1;
#X connect 18 0 14 3;
#X connect 19 0 21 0;
#X connect 20 0 18 0;
#X connect 21 0 18 1;
