#N canvas 519 506 707 515 10;
#X obj 17 54 loadbang;
#X obj 17 318 f \$0;
#X obj 284 99 f \$0;
#X msg 284 141 \; \$1 clear;
#X obj 206 440 outlet;
#X obj 150 99 s \$1-singleton-knock;
#X obj 34 287 s \$1-singleton-response;
#X obj 34 219 r \$1-singleton-knock;
#X obj 32 124 r \$1-singleton-response;
#X msg 206 221 1;
#X obj 17 169 sel 0;
#X obj 17 77 t b b b, f 45;
#X obj 17 193 t b b, f 32;
#X obj 17 146 f;
#X obj 34 265 f;
#X obj 62 382 symbol \$1;
#N canvas 1121 740 450 300 \$0-only-once 0;
#X obj 20 20 chair.hex-tuning-definitions;
#X restore 215 55 pd \$0-only-once;
#X obj 284 119 makefilename pd-%d-only-once;
#X obj 17 341 makefilename pd-%d-only-once;
#X obj 17 363 t s b;
#X obj 17 404 pack s s;
#X msg 17 427 \; \$1 obj 20 20 \$2;
#X text 14 7 This abstraction makes sure that there is only one instance
of the patch called as an argument.;
#X text 264 439 outlet to identify the instance which has created the
abstraction.;
#X connect 0 0 11 0;
#X connect 1 0 18 0;
#X connect 2 0 17 0;
#X connect 7 0 14 0;
#X connect 8 0 13 1;
#X connect 9 0 4 0;
#X connect 9 0 14 1;
#X connect 10 0 12 0;
#X connect 11 0 13 0;
#X connect 11 1 5 0;
#X connect 11 2 2 0;
#X connect 12 0 1 0;
#X connect 12 1 9 0;
#X connect 13 0 10 0;
#X connect 14 0 6 0;
#X connect 15 0 20 1;
#X connect 17 0 3 0;
#X connect 18 0 19 0;
#X connect 19 0 20 0;
#X connect 19 1 15 0;
#X connect 20 0 21 0;
