#N canvas 788 603 605 300 10;
#X floatatom 41 65 5 0 0 0 - - -;
#X msg 131 63 up 1;
#X msg 170 63 down 1;
#X floatatom 41 215 5 0 0 0 - - -;
#X text 38 18 Transpose MIDI notes octaves up and down;
#X obj 41 121 chair.transpose-oct -1;
#X text 234 134 \$1 default transposition in octaves.;
#X text 204 119 Arguments:;
#X floatatom 279 63 5 -100 100 0 cents - -;
#X msg 279 85 cents \$1;
#X text 342 86 global tuning;
#X connect 0 0 5 0;
#X connect 1 0 5 1;
#X connect 2 0 5 1;
#X connect 5 0 3 0;
#X connect 8 0 9 0;
#X connect 9 0 5 1;
