#N canvas 565 738 347 275 10;
#X obj 27 49 route 0;
#X obj 27 71 route -1;
#X obj 27 99 sel -1;
#X msg 27 149 0;
#X msg 59 150 1;
#X obj 27 211 outlet touch;
#X obj 125 213 outlet xy;
#X obj 27 26 inlet position;
#X obj 27 182 change;
#X obj 72 99 t b l;
#X obj 166 120 del 0;
#X connect 0 0 1 0;
#X connect 1 0 2 0;
#X connect 1 1 9 0;
#X connect 2 0 3 0;
#X connect 3 0 8 0;
#X connect 4 0 8 0;
#X connect 7 0 0 0;
#X connect 8 0 5 0;
#X connect 9 0 10 0;
#X connect 9 1 6 0;
#X connect 10 0 4 0;
