#N canvas 2808 467 902 688 10;
#X obj 206 426 *~ 0.5;
#X obj 264 442 *~ 0.5;
#X obj 401 165 /;
#X msg 401 141 1000 \$1;
#X obj 401 116 mtof;
#X obj 207 390 lop~ 1500;
#X obj 35 480 bp~ 1200 1;
#X obj 207 339 +~;
#X obj 205 266 osc~;
#X obj 205 241 * 1;
#X obj 488 443 hsl 101 15 0 10000 0 1 empty empty lop 4100 5 8 0 10
-262144 -1 -1 4100 1;
#X obj 488 460 hsl 101 15 0 10000 0 1 empty empty bp 8300 5 8 0 10
-262144 -1 -1 8375 1;
#X obj 488 477 hsl 101 15 1 100 1 1 empty empty Q 14.4544 5 8 0 10
-262144 -1 -1 5800 1;
#X obj 372 24 inlet;
#X obj 488 426 hsl 101 15 0 2 0 1 empty empty FM amount 0.04 5 8
0 10 -262144 -1 -1 200 1;
#X obj 488 409 hsl 101 15 0 10 0 1 empty empty FM harmonic 3 5 8
0 10 -262144 -1 -1 3700 1;
#X obj 205 130 int;
#X obj 205 154 change;
#X obj 364 502 sqrt;
#X obj 205 555 outlet~;
#X obj 400 91 nbx 3 14 0 1e+37 0 1 empty empty MIDI-note 44 9 0 10
-262144 -1 -1 61 256;
#N canvas 462 164 450 300 zd 0;
#X obj 135 79 inlet~;
#X obj 137 175 outlet~;
#X obj 286 88 block~ 1;
#X obj 136 107 tabsend~ \$0-fo;
#X obj 136 142 tabreceive~ \$0-fo;
#X obj 275 161 table \$0-fo 1;
#X connect 0 0 3 0;
#X connect 4 0 1 0;
#X restore 264 417 pd zd;
#X obj 205 290 -~ 1;
#X msg 635 396 label FM harmonic \$1;
#X obj 205 179 t b f f;
#X msg 635 436 label lop \$1;
#X msg 635 456 label bp \$1;
#X msg 635 476 label Q \$1;
#X obj 372 61 t b f;
#X text 248 505 Karplus Strong;
#X text 251 270 FM;
#X msg 635 416 label FM amount \$1;
#X obj 206 480 *~;
#X obj 138 583 delwrite~ \$0-bo 128;
#X obj 206 363 vd~ \$0-bo 128;
#X text 445 585 (c) Liam Goodacre 2016 \, liam.goodacre@gmail.com;
#X obj 36 230 inlet~;
#X floatatom 642 332 5 0 0 0 - - -, f 5;
#X obj 363 444 r \$2-feedback;
#X obj 322 303 r \$2-fm-amount;
#X floatatom 330 340 5 0 0 0 - - -, f 5;
#X obj 35 454 *~;
#X obj 69 325 == \$1;
#X obj 51 421 line~;
#X obj 67 355 sel 0 1;
#X msg 115 382 1 2;
#X msg 67 382 0 20;
#X obj 70 293 r \$2-current;
#X text 457 567 Based on:;
#X msg 331 130 0;
#X obj 206 314 *~ 0;
#X obj 641 302 r \$2-timbre;
#X connect 0 0 32 0;
#X connect 1 0 32 0;
#X connect 2 0 7 1;
#X connect 3 0 2 0;
#X connect 4 0 9 0;
#X connect 4 0 3 0;
#X connect 5 0 0 0;
#X connect 5 0 21 0;
#X connect 6 0 33 0;
#X connect 7 0 34 0;
#X connect 8 0 22 0;
#X connect 9 0 8 0;
#X connect 10 0 5 1;
#X connect 10 0 25 0;
#X connect 11 0 6 1;
#X connect 11 0 26 0;
#X connect 12 0 6 2;
#X connect 12 0 27 0;
#X connect 13 0 28 0;
#X connect 14 0 31 0;
#X connect 15 0 16 0;
#X connect 16 0 17 0;
#X connect 17 0 24 0;
#X connect 18 0 32 1;
#X connect 20 0 4 0;
#X connect 21 0 1 0;
#X connect 22 0 50 0;
#X connect 23 0 15 0;
#X connect 24 0 9 0;
#X connect 24 1 9 1;
#X connect 24 2 23 0;
#X connect 25 0 10 0;
#X connect 26 0 11 0;
#X connect 27 0 12 0;
#X connect 28 0 49 0;
#X connect 28 1 20 0;
#X connect 31 0 14 0;
#X connect 32 0 33 0;
#X connect 32 0 19 0;
#X connect 34 0 5 0;
#X connect 36 0 41 0;
#X connect 38 0 18 0;
#X connect 39 0 40 0;
#X connect 39 0 50 1;
#X connect 41 0 6 0;
#X connect 42 0 44 0;
#X connect 43 0 41 1;
#X connect 44 0 46 0;
#X connect 44 1 45 0;
#X connect 45 0 43 0;
#X connect 46 0 43 0;
#X connect 47 0 42 0;
#X connect 49 0 8 1;
#X connect 50 0 7 0;
#X connect 51 0 37 0;
#X connect 51 0 11 0;
#X coords 0 688 1 687 85 60 0;
