#N canvas 144 133 1058 524 10;
#N canvas 0 50 617 300 tobiquad~~~~~~~~~~~~~~~~ 0;
#X obj 63 51 inlet~ a1;
#X obj 128 51 inlet~ a2;
#X obj 193 51 inlet~ b0;
#X obj 257 51 inlet~ b1;
#X obj 393 51 inlet~ a0;
#X obj 62 86 *~ -1;
#X obj 128 84 *~ -1;
#X obj 62 132 /~;
#X obj 129 131 /~;
#X obj 193 131 /~;
#X obj 256 129 /~;
#X obj 321 51 inlet~ b2;
#X obj 320 127 /~;
#X obj 60 207 outlet~ a1;
#X obj 129 206 outlet~ a2;
#X obj 197 207 outlet~ b0;
#X obj 267 206 outlet~ b1;
#X obj 338 207 outlet~ b2;
#X connect 0 0 5 0;
#X connect 1 0 6 0;
#X connect 2 0 9 0;
#X connect 3 0 10 0;
#X connect 4 0 12 1;
#X connect 4 0 10 1;
#X connect 4 0 9 1;
#X connect 4 0 8 1;
#X connect 4 0 7 1;
#X connect 5 0 7 0;
#X connect 6 0 8 0;
#X connect 7 0 13 0;
#X connect 8 0 14 0;
#X connect 9 0 15 0;
#X connect 10 0 16 0;
#X connect 11 0 12 0;
#X connect 12 0 17 0;
#X restore 381 377 pd tobiquad~~~~~~~~~~~~~~~~;
#N canvas 509 216 624 450 reson~~~~~~~~~~~~~~~~~~~ 0;
#X obj 115 258 cos~;
#X obj 115 278 *~ -2;
#X text 156 277 a1;
#X obj 191 250 sig~ 1;
#X obj 191 279 -~;
#X text 223 279 a2;
#X obj 268 279 cos~;
#X obj 268 300 *~ 0.5;
#X text 307 280 b0;
#X obj 348 256 sig~ 0;
#X text 395 255 b1;
#X obj 426 273 cos~;
#X obj 426 294 *~ 0.5;
#X obj 425 341 *~ -1;
#X text 465 274 b2;
#X obj 520 264 +~ 1;
#X text 553 267 a0;
#X obj 147 144 inlet~ w(0);
#X obj 520 128 inlet~ alpha;
#X obj 114 377 outlet~;
#X obj 190 377 outlet~;
#X obj 268 376 outlet~;
#X obj 348 378 outlet~;
#X obj 425 378 outlet~;
#X obj 519 378 outlet~;
#X obj 268 258 -~ 0.25;
#X obj 426 252 -~ 0.25;
#X connect 0 0 1 0;
#X connect 1 0 19 0;
#X connect 3 0 4 0;
#X connect 4 0 20 0;
#X connect 6 0 7 0;
#X connect 7 0 21 0;
#X connect 9 0 22 0;
#X connect 11 0 12 0;
#X connect 12 0 13 0;
#X connect 13 0 23 0;
#X connect 15 0 24 0;
#X connect 17 0 0 0;
#X connect 17 0 25 0;
#X connect 17 0 26 0;
#X connect 18 0 4 1;
#X connect 18 0 15 0;
#X connect 25 0 6 0;
#X connect 26 0 11 0;
#X restore 381 357 pd reson~~~~~~~~~~~~~~~~~~~;
#X obj 832 200 line~;
#N canvas 0 50 450 300 w(0) 0;
#N canvas 0 50 450 300 samplerate 0;
#X obj 230 123 outlet;
#X obj 230 26 r pd;
#X obj 230 46 route dsp audio-dialog;
#X obj 230 70 t b;
#X obj 268 72 loadbang;
#X obj 230 96 samplerate~;
#X obj 338 83 bng 15 250 50 0 empty empty empty 17 7 0 10 -262144 -1
-1;
#X connect 1 0 2 0;
#X connect 2 0 3 0;
#X connect 2 1 3 0;
#X connect 3 0 5 0;
#X connect 4 0 5 0;
#X connect 5 0 0 0;
#X connect 6 0 5 0;
#X restore 173 124 pd samplerate;
#X obj 173 146 expr 1/$f1;
#X obj 158 15 inlet~;
#X text 253 171 divide by SR;
#X obj 156 203 outlet~;
#X obj 157 166 *~;
#X connect 0 0 1 0;
#X connect 1 0 5 1;
#X connect 2 0 5 0;
#X connect 5 0 4 0;
#X restore 381 294 pd w(0);
#N canvas 750 400 450 281 alpha 0;
#X obj 192 24 inlet~ q;
#X obj 49 26 inlet~ w(0);
#X obj 192 45 *~ 2;
#X obj 177 117 /~;
#X obj 177 138 outlet~;
#X obj 113 86 cos~;
#X obj 112 65 -~ 0.25;
#X connect 0 0 2 0;
#X connect 1 0 6 0;
#X connect 2 0 3 1;
#X connect 3 0 4 0;
#X connect 5 0 3 0;
#X connect 6 0 5 0;
#X restore 539 329 pd alpha;
#X obj 382 258 clip~ 1e-24 20050;
#N canvas 0 50 450 300 samplerate 0;
#X obj 230 123 outlet;
#X obj 230 26 r pd;
#X obj 230 46 route dsp audio-dialog;
#X obj 230 70 t b;
#X obj 268 72 loadbang;
#X obj 230 96 samplerate~;
#X connect 1 0 2 0;
#X connect 2 0 3 0;
#X connect 2 1 3 0;
#X connect 3 0 5 0;
#X connect 4 0 5 0;
#X connect 5 0 0 0;
#X restore 432 214 pd samplerate;
#X obj 432 235 / 2;
#X obj 780 243 clip~ -99 100;
#X obj 780 288 dbtorms~;
#X obj 780 265 +~ 100;
#X obj 207 40 inlet~;
#X obj 204 460 outlet~;
#X obj 383 123 *~;
#X obj 662 10 r \$2-end-freq;
#X obj 383 177 +~;
#X obj 603 123 r \$2-start-freq;
#X obj 205 434 /~ \$1;
#X obj 383 83 lop~ 1;
#X obj 833 159 r \$2-q-start;
#X obj 834 135 line~;
#X obj 835 94 r \$2-q-end;
#X obj 834 116 pack f 100;
#X obj 832 181 pack f 100;
#X obj 781 124 *~;
#X obj 780 178 +~;
#X obj 536 24 inlet~ end-freq;
#X obj 477 125 inlet~ start-freq;
#X obj 520 100 +~;
#X obj 476 167 +~;
#N canvas 192 160 623 328 biquad~~~~~~~~~~~~~~~~~~~~~~~~~~~~~~~~~~~~~~~~~~~~~~~
0;
#X obj 73 30 inlet~;
#X obj 164 324 outlet~;
#X obj 72 70 *~;
#X obj 142 262 czero~;
#X obj 163 292 czero~;
#X obj 98 202 cpole~;
#X obj 120 230 cpole~;
#N canvas -29 115 768 650 poles+zeros 0;
#X obj 108 64 inlet~;
#X obj 195 61 inlet~;
#X obj 361 62 inlet~;
#X obj 464 64 inlet~;
#X obj 538 65 inlet~;
#X obj 181 136 +~;
#X obj 196 114 *~ 4;
#X obj 346 247 *~ -1;
#X obj 346 286 /~;
#X obj 465 169 /~;
#X obj 538 174 /~;
#X obj 539 142 *~ 4;
#X obj 509 220 -~;
#X obj 123 245 max~ 0;
#X obj 124 268 sqrt~;
#X obj 242 265 abs~;
#X obj 242 286 sqrt~;
#X obj 109 334 +~;
#X text 170 251 real;
#X text 278 259 imag;
#X obj 109 355 *~ 0.5;
#X obj 109 538 outlet~;
#X obj 155 512 outlet~;
#X obj 155 354 *~ 0.5;
#X text 128 559 pole 1;
#X obj 250 381 *~ 0.5;
#X obj 250 360 -~;
#X obj 299 358 sig~ 0;
#X obj 299 379 -~;
#X obj 299 399 *~ 0.5;
#X obj 252 549 outlet~;
#X obj 297 523 outlet~;
#X text 271 570 pole 2;
#X obj 417 549 outlet~;
#X obj 463 527 outlet~;
#X obj 417 380 +~;
#X obj 417 401 *~ 0.5;
#X obj 519 401 *~ 0.5;
#X obj 519 380 -~;
#X obj 520 552 outlet~;
#X obj 577 527 outlet~;
#X text 439 570 zero 1;
#X text 544 569 zero 2;
#X obj 154 120 *~;
#X obj 464 190 *~;
#X obj 242 241 min~ 0;
#X obj 508 276 max~ 0;
#X obj 509 296 sqrt~;
#X obj 593 301 abs~;
#X obj 593 322 sqrt~;
#X text 555 282 real;
#X text 646 288 imag;
#X obj 593 277 min~ 0;
#X obj 578 380 sig~ 0;
#X obj 578 401 -~;
#X obj 578 421 *~ 0.5;
#X obj 464 413 *~ 0.5;
#X connect 0 0 17 0;
#X connect 0 0 26 0;
#X connect 0 0 43 0;
#X connect 0 0 43 1;
#X connect 1 0 6 0;
#X connect 2 0 8 1;
#X connect 2 0 9 1;
#X connect 2 0 10 1;
#X connect 3 0 7 0;
#X connect 3 0 9 0;
#X connect 4 0 11 0;
#X connect 5 0 13 0;
#X connect 5 0 45 0;
#X connect 6 0 5 1;
#X connect 7 0 8 0;
#X connect 8 0 35 0;
#X connect 8 0 38 0;
#X connect 9 0 44 0;
#X connect 9 0 44 1;
#X connect 10 0 12 1;
#X connect 11 0 10 0;
#X connect 12 0 46 0;
#X connect 12 0 52 0;
#X connect 13 0 14 0;
#X connect 14 0 17 1;
#X connect 14 0 26 1;
#X connect 15 0 16 0;
#X connect 16 0 28 1;
#X connect 16 0 23 0;
#X connect 17 0 20 0;
#X connect 20 0 21 0;
#X connect 23 0 22 0;
#X connect 25 0 30 0;
#X connect 26 0 25 0;
#X connect 27 0 28 0;
#X connect 28 0 29 0;
#X connect 29 0 31 0;
#X connect 35 0 36 0;
#X connect 36 0 33 0;
#X connect 37 0 39 0;
#X connect 38 0 37 0;
#X connect 43 0 5 0;
#X connect 44 0 12 0;
#X connect 45 0 15 0;
#X connect 46 0 47 0;
#X connect 47 0 35 1;
#X connect 47 0 38 1;
#X connect 48 0 49 0;
#X connect 49 0 54 1;
#X connect 49 0 56 0;
#X connect 52 0 48 0;
#X connect 53 0 54 0;
#X connect 54 0 55 0;
#X connect 55 0 40 0;
#X connect 56 0 34 0;
#X restore 120 83 pd poles+zeros;
#X obj 120 29 inlet~;
#X obj 168 29 inlet~;
#X obj 215 29 inlet~;
#X obj 263 29 inlet~;
#X obj 311 30 inlet~;
#X connect 0 0 2 0;
#X connect 2 0 5 0;
#X connect 3 0 4 0;
#X connect 3 1 4 1;
#X connect 4 0 1 0;
#X connect 5 0 6 0;
#X connect 5 1 6 1;
#X connect 6 0 3 0;
#X connect 6 1 3 1;
#X connect 7 0 5 2;
#X connect 7 1 5 3;
#X connect 7 2 6 2;
#X connect 7 3 6 3;
#X connect 7 4 3 2;
#X connect 7 5 3 3;
#X connect 7 6 4 2;
#X connect 7 7 4 3;
#X connect 8 0 7 0;
#X connect 9 0 7 1;
#X connect 10 0 7 2;
#X connect 10 0 2 1;
#X connect 11 0 7 3;
#X connect 12 0 7 4;
#X restore 206 412 pd biquad~~~~~~~~~~~~~~~~~~~~~~~~~~~~~~~~~~~~~~~~~~~~~~~
;
#X obj 603 166 lop~ 1;
#X obj 428 82 r \$2-bend;
#X obj 603 144 sig~;
#X obj 648 165 r \$2-bend;
#X obj 662 55 lop~ 1;
#X obj 662 33 sig~;
#X obj 707 54 r \$2-bend;
#N canvas 3 50 450 474 readtables 0;
#X obj 68 298 *~;
#X obj 111 299 *~;
#X obj 157 298 *~;
#X obj 199 300 *~;
#X obj 241 298 *~;
#X obj 52 77 sig~ \$1;
#X obj 69 379 outlet~;
#X obj 384 202 line~;
#X msg 384 180 \$1 100;
#X obj 384 160 r \$2-param-3;
#N canvas 446 220 450 300 fade 0;
#X obj -69 58 +~ 1;
#X obj -70 11 inlet~;
#X obj -6 265 outlet~;
#X obj -5 150 min~ 2;
#X obj -6 126 max~ 1;
#X obj 19 180 *~ -1;
#X obj 19 201 +~ 2;
#X obj -6 221 min~;
#X obj -70 169 min~ 1;
#X obj 65 100 max~ 1;
#X obj 65 120 -~ 1;
#X obj 65 140 min~ 2;
#X obj 90 160 *~ -1;
#X obj 90 180 +~ 2;
#X obj 65 200 min~;
#X obj 65 220 outlet~;
#X obj 130 100 max~ 2;
#X obj 130 120 -~ 2;
#X obj 130 140 min~ 2;
#X obj 155 160 *~ -1;
#X obj 155 180 +~ 2;
#X obj 130 200 min~;
#X obj 130 220 outlet~;
#X obj 195 100 max~ 3;
#X obj 195 120 -~ 3;
#X obj 195 140 min~ 2;
#X obj 220 160 *~ -1;
#X obj 220 180 +~ 2;
#X obj 195 200 min~;
#X obj 195 220 outlet~;
#X obj 260 100 max~ 4;
#X obj 260 120 -~ 4;
#X obj 260 140 min~ 2;
#X obj 285 160 *~ -1;
#X obj 285 180 +~ 2;
#X obj 260 200 min~;
#X obj 260 220 outlet~;
#X obj -69 146 -~ 5;
#X obj -70 123 max~ 5;
#X obj -69 34 *~ 5, f 12;
#X connect 0 0 4 0;
#X connect 0 0 9 0;
#X connect 0 0 16 0;
#X connect 0 0 23 0;
#X connect 0 0 30 0;
#X connect 0 0 38 0;
#X connect 1 0 39 0;
#X connect 3 0 5 0;
#X connect 3 0 7 0;
#X connect 4 0 3 0;
#X connect 5 0 6 0;
#X connect 6 0 7 1;
#X connect 7 0 2 0;
#X connect 8 0 2 0;
#X connect 9 0 10 0;
#X connect 10 0 11 0;
#X connect 11 0 12 0;
#X connect 11 0 14 0;
#X connect 12 0 13 0;
#X connect 13 0 14 1;
#X connect 14 0 15 0;
#X connect 16 0 17 0;
#X connect 17 0 18 0;
#X connect 18 0 19 0;
#X connect 18 0 21 0;
#X connect 19 0 20 0;
#X connect 20 0 21 1;
#X connect 21 0 22 0;
#X connect 23 0 24 0;
#X connect 24 0 25 0;
#X connect 25 0 26 0;
#X connect 25 0 28 0;
#X connect 26 0 27 0;
#X connect 27 0 28 1;
#X connect 28 0 29 0;
#X connect 30 0 31 0;
#X connect 31 0 32 0;
#X connect 32 0 33 0;
#X connect 32 0 35 0;
#X connect 33 0 34 0;
#X connect 34 0 35 1;
#X connect 35 0 36 0;
#X connect 37 0 8 0;
#X connect 38 0 37 0;
#X connect 39 0 0 0;
#X restore 385 226 pd fade;
#X obj 52 143 tabread~ \$2-freqtab-1;
#X obj 96 162 tabread~ \$2-freqtab-2;
#X obj 184 201 tabread~ \$2-freqtab-4;
#X obj 227 223 tabread~ \$2-freqtab-5;
#X obj 140 182 tabread~ \$2-freqtab-3;
#X connect 0 0 6 0;
#X connect 1 0 6 0;
#X connect 2 0 6 0;
#X connect 3 0 6 0;
#X connect 4 0 6 0;
#X connect 5 0 11 0;
#X connect 5 0 12 0;
#X connect 5 0 15 0;
#X connect 5 0 13 0;
#X connect 5 0 14 0;
#X connect 7 0 10 0;
#X connect 8 0 7 0;
#X connect 9 0 8 0;
#X connect 10 0 0 1;
#X connect 10 1 1 1;
#X connect 10 2 2 1;
#X connect 10 3 3 1;
#X connect 10 4 4 1;
#X connect 11 0 0 0;
#X connect 12 0 1 0;
#X connect 13 0 3 0;
#X connect 14 0 4 0;
#X connect 15 0 2 0;
#X restore 384 41 pd readtables;
#X obj 781 82 lop~ 1;
#N canvas 1266 409 590 474 readtables 1;
#X obj 68 298 *~;
#X obj 111 299 *~;
#X obj 157 298 *~;
#X obj 199 300 *~;
#X obj 241 298 *~;
#X obj 52 77 sig~ \$1;
#X obj 69 379 outlet~;
#X obj 384 202 line~;
#X msg 384 180 \$1 100;
#N canvas 446 220 450 300 fade 0;
#X obj -69 58 +~ 1;
#X obj -70 11 inlet~;
#X obj -6 265 outlet~;
#X obj -5 150 min~ 2;
#X obj -6 126 max~ 1;
#X obj 19 180 *~ -1;
#X obj 19 201 +~ 2;
#X obj -6 221 min~;
#X obj -70 169 min~ 1;
#X obj 65 100 max~ 1;
#X obj 65 120 -~ 1;
#X obj 65 140 min~ 2;
#X obj 90 160 *~ -1;
#X obj 90 180 +~ 2;
#X obj 65 200 min~;
#X obj 65 220 outlet~;
#X obj 130 100 max~ 2;
#X obj 130 120 -~ 2;
#X obj 130 140 min~ 2;
#X obj 155 160 *~ -1;
#X obj 155 180 +~ 2;
#X obj 130 200 min~;
#X obj 130 220 outlet~;
#X obj 195 100 max~ 3;
#X obj 195 120 -~ 3;
#X obj 195 140 min~ 2;
#X obj 220 160 *~ -1;
#X obj 220 180 +~ 2;
#X obj 195 200 min~;
#X obj 195 220 outlet~;
#X obj 260 100 max~ 4;
#X obj 260 120 -~ 4;
#X obj 260 140 min~ 2;
#X obj 285 160 *~ -1;
#X obj 285 180 +~ 2;
#X obj 260 200 min~;
#X obj 260 220 outlet~;
#X obj -69 146 -~ 5;
#X obj -70 123 max~ 5;
#X obj -69 34 *~ 5, f 12;
#X connect 0 0 4 0;
#X connect 0 0 9 0;
#X connect 0 0 16 0;
#X connect 0 0 23 0;
#X connect 0 0 30 0;
#X connect 0 0 38 0;
#X connect 1 0 39 0;
#X connect 3 0 5 0;
#X connect 3 0 7 0;
#X connect 4 0 3 0;
#X connect 5 0 6 0;
#X connect 6 0 7 1;
#X connect 7 0 2 0;
#X connect 8 0 2 0;
#X connect 9 0 10 0;
#X connect 10 0 11 0;
#X connect 11 0 12 0;
#X connect 11 0 14 0;
#X connect 12 0 13 0;
#X connect 13 0 14 1;
#X connect 14 0 15 0;
#X connect 16 0 17 0;
#X connect 17 0 18 0;
#X connect 18 0 19 0;
#X connect 18 0 21 0;
#X connect 19 0 20 0;
#X connect 20 0 21 1;
#X connect 21 0 22 0;
#X connect 23 0 24 0;
#X connect 24 0 25 0;
#X connect 25 0 26 0;
#X connect 25 0 28 0;
#X connect 26 0 27 0;
#X connect 27 0 28 1;
#X connect 28 0 29 0;
#X connect 30 0 31 0;
#X connect 31 0 32 0;
#X connect 32 0 33 0;
#X connect 32 0 35 0;
#X connect 33 0 34 0;
#X connect 34 0 35 1;
#X connect 35 0 36 0;
#X connect 37 0 8 0;
#X connect 38 0 37 0;
#X connect 39 0 0 0;
#X restore 385 226 pd fade;
#X obj 52 143 tabread~ \$2-qtab-1;
#X obj 96 162 tabread~ \$2-qtab-2;
#X obj 140 182 tabread~ \$2-qtab-3;
#X obj 184 201 tabread~ \$2-qtab-4;
#X obj 227 223 tabread~ \$2-qtab-5;
#X obj 384 160 r \$2-fade;
#X connect 0 0 6 0;
#X connect 1 0 6 0;
#X connect 2 0 6 0;
#X connect 3 0 6 0;
#X connect 4 0 6 0;
#X connect 5 0 10 0;
#X connect 5 0 11 0;
#X connect 5 0 12 0;
#X connect 5 0 13 0;
#X connect 5 0 14 0;
#X connect 7 0 9 0;
#X connect 8 0 7 0;
#X connect 9 0 0 1;
#X connect 9 1 1 1;
#X connect 9 2 2 1;
#X connect 9 3 3 1;
#X connect 9 4 4 1;
#X connect 10 0 0 0;
#X connect 11 0 1 0;
#X connect 12 0 2 0;
#X connect 13 0 3 0;
#X connect 14 0 4 0;
#X connect 15 0 8 0;
#X restore 780 37 pd readtables;
#X connect 0 0 30 1;
#X connect 0 1 30 2;
#X connect 0 2 30 3;
#X connect 0 3 30 4;
#X connect 0 4 30 5;
#X connect 1 0 0 0;
#X connect 1 1 0 1;
#X connect 1 2 0 2;
#X connect 1 3 0 3;
#X connect 1 4 0 4;
#X connect 1 5 0 5;
#X connect 2 0 25 1;
#X connect 3 0 4 0;
#X connect 3 0 1 0;
#X connect 4 0 1 1;
#X connect 5 0 3 0;
#X connect 6 0 7 0;
#X connect 7 0 5 2;
#X connect 8 0 10 0;
#X connect 9 0 4 1;
#X connect 10 0 9 0;
#X connect 11 0 30 0;
#X connect 13 0 15 0;
#X connect 14 0 36 0;
#X connect 15 0 5 0;
#X connect 16 0 33 0;
#X connect 17 0 12 0;
#X connect 18 0 13 0;
#X connect 19 0 23 0;
#X connect 20 0 24 1;
#X connect 21 0 22 0;
#X connect 22 0 20 0;
#X connect 23 0 2 0;
#X connect 24 0 25 0;
#X connect 25 0 8 0;
#X connect 26 0 28 1;
#X connect 27 0 29 0;
#X connect 28 0 13 1;
#X connect 29 0 15 1;
#X connect 30 0 17 0;
#X connect 31 0 29 1;
#X connect 32 0 18 1;
#X connect 33 0 31 0;
#X connect 34 0 31 1;
#X connect 35 0 28 0;
#X connect 36 0 35 0;
#X connect 37 0 35 1;
#X connect 38 0 18 0;
#X connect 39 0 24 0;
#X connect 40 0 39 0;
