#N canvas 320 179 463 467 10;
#X obj 36 36 inlet~;
#X obj 40 334 outlet~;
#X obj 324 332 outlet~;
#X obj 325 240 -~;
#X obj 37 86 hip~ 4;
#X obj 38 114 hip~ 4;
#X obj 39 141 hip~ 4;
#X obj 39 170 hip~ 4;
#X obj 325 264 lop~ 100;
#X obj 324 297 *~ 25;
#X text 20 359 "Clean" signal with DC-offset removed, f 22;
#X text 289 356 DC-offset amplified to be used as an evelope, f 23
;
#X connect 0 0 4 0;
#X connect 0 0 3 1;
#X connect 3 0 8 0;
#X connect 4 0 5 0;
#X connect 5 0 6 0;
#X connect 6 0 7 0;
#X connect 7 0 1 0;
#X connect 7 0 3 0;
#X connect 8 0 9 0;
#X connect 9 0 2 0;
