#N canvas 419 327 440 300 10;
#X floatatom 30 108 5 0 0 0 - - -;
#X floatatom 28 163 5 0 0 0 - - -;
#X floatatom 28 218 5 0 0 0 - - -;
#X obj 30 83 chair.singleton text;
#X obj 28 138 chair.singleton text;
#X obj 28 193 chair.singleton text;
#X text 30 23 This abstraction makes sure that only one instance of
a subpatch is created. This is useful if an array is defined inside
clone \, but should exist only once.;
#X text 173 79 Argument is the name of the abstraction to be instantiated
or object name., f 32;
#X connect 3 0 0 0;
#X connect 4 0 1 0;
#X connect 5 0 2 0;
