#N canvas 1331 580 396 427 10;
#X obj 38 244 + 1;
#X obj 38 220 f;
#X obj 114 107 sel -1 1;
#X obj 177 145 > 0;
#X obj 87 173 * 1;
#X obj 87 224 * 1;
#X obj 177 118 t f f;
#X msg 114 186 1;
#X msg 134 128 1;
#X obj 38 18 inlet;
#X obj 38 381 outlet;
#X obj 106 18 inlet;
#N canvas 294 584 273 329 defaults 0;
#X obj 30 240 outlet;
#X obj 30 60 loadbang;
#X obj 30 106 makefilename .%c1;
#X obj 30 129 select .\$1;
#X msg 30 82 36;
#X obj 110 180 f \$1;
#X obj 110 154 t b;
#X msg 30 180 24;
#X connect 1 0 4 0;
#X connect 2 0 3 0;
#X connect 3 0 7 0;
#X connect 3 1 6 0;
#X connect 4 0 2 0;
#X connect 5 0 0 0;
#X connect 6 0 5 0;
#X connect 7 0 0 0;
#X restore 294 105 pd defaults;
#X obj 205 145 < 24;
#X obj 38 353 / 24;
#X obj 38 47 t b f f;
#X obj 49 268 s \$0-clamp;
#X obj 177 89 r \$0-clamp;
#X obj 50 174 t b f;
#X connect 0 0 1 1;
#X connect 0 0 14 0;
#X connect 0 0 16 0;
#X connect 1 0 0 0;
#X connect 2 0 7 0;
#X connect 2 1 8 0;
#X connect 3 0 4 1;
#X connect 4 0 5 0;
#X connect 5 0 0 1;
#X connect 6 0 3 0;
#X connect 6 1 13 0;
#X connect 7 0 5 1;
#X connect 8 0 4 1;
#X connect 9 0 15 0;
#X connect 11 0 18 0;
#X connect 12 0 13 1;
#X connect 12 0 14 1;
#X connect 13 0 5 1;
#X connect 14 0 10 0;
#X connect 15 0 1 0;
#X connect 15 1 4 0;
#X connect 15 2 2 0;
#X connect 17 0 6 0;
#X connect 18 0 1 0;
#X connect 18 1 1 1;
