#N canvas 827 662 450 300 10;
#X obj 22 26 inlet;
#X obj 22 261 outlet;
#X obj 22 103 -;
#X obj 79 103 -;
#X obj 22 157 pow 2;
#X obj 79 158 pow 2;
#X obj 22 200 +;
#X obj 22 229 sqrt;
#X obj 79 130 abs;
#X obj 22 130 abs;
#X text 172 129 pythagoras;
#X text 181 55 x1 \, y1 \, x2 \, y2;
#X obj 22 56 unpack f f;
#X obj 101 56 unpack f f;
#X obj 101 26 inlet;
#X text 174 146 a^2 + b^2 = c^2;
#X connect 0 0 12 0;
#X connect 2 0 9 0;
#X connect 3 0 8 0;
#X connect 4 0 6 0;
#X connect 5 0 6 1;
#X connect 6 0 7 0;
#X connect 7 0 1 0;
#X connect 8 0 5 0;
#X connect 9 0 4 0;
#X connect 12 0 2 0;
#X connect 12 1 3 0;
#X connect 13 0 2 1;
#X connect 13 1 3 1;
#X connect 14 0 13 0;
