#N canvas 2605 481 694 688 10;
#X obj 103 422 *~ 0.5;
#X obj 161 438 *~ 0.5;
#X obj 271 54 /;
#X msg 271 30 1000 \$1;
#X obj 271 5 mtof;
#X obj 104 386 lop~ 1500;
#X obj 35 480 bp~ 1200 1;
#X obj 104 335 +~;
#X obj 103 310 *~ 1;
#X obj 102 262 osc~;
#X obj 102 237 * 1;
#X obj 385 439 hsl 101 15 0 10000 0 1 empty empty lop 4100 5 8 0 10
-262144 -1 -1 4100 1;
#X obj 385 456 hsl 101 15 0 10000 0 1 empty empty bp 4400 5 8 0 10
-262144 -1 -1 4400 1;
#X obj 385 473 hsl 101 15 1 100 1 1 empty empty Q 14.4544 5 8 0 10
-262144 -1 -1 5800 1;
#X obj 401 2 inlet;
#X obj 385 422 hsl 101 15 0 2 0 1 empty empty FM amount 0.04 5 8
0 10 -262144 -1 -1 200 1;
#X obj 385 405 hsl 101 15 0 10 0 1 empty empty FM harmonic 3 5 8
0 10 -262144 -1 -1 3700 1;
#X obj 102 126 int;
#X obj 102 150 change;
#X obj 261 498 sqrt;
#X obj 102 551 outlet~;
#X obj 475 78 nbx 3 14 0 1e+37 0 1 empty empty MIDI-note 44 9 0 10
-262144 -1 -1 21 256;
#N canvas 462 164 450 300 zd 0;
#X obj 135 79 inlet~;
#X obj 137 175 outlet~;
#X obj 286 88 block~ 1;
#X obj 136 107 tabsend~ \$0-fo;
#X obj 136 142 tabreceive~ \$0-fo;
#X obj 275 161 table \$0-fo 1;
#X connect 0 0 3 0;
#X connect 4 0 1 0;
#X restore 161 413 pd zd;
#X obj 102 286 -~ 1;
#X msg 532 392 label FM harmonic \$1;
#X obj 102 175 t b f f;
#X msg 532 432 label lop \$1;
#X msg 532 452 label bp \$1;
#X msg 532 472 label Q \$1;
#X obj 451 127 del;
#X obj 451 150 t f;
#X msg 420 150 1;
#X obj 427 175 sig~;
#X text 489 205 envelope;
#X obj 401 77 t f b b;
#X obj 401 24 route bang float;
#X obj 447 48 t b f;
#X text 145 501 Karplus Strong;
#X text 148 266 FM;
#X msg 532 412 label FM amount \$1;
#X obj 103 476 *~;
#X obj 271 78 t f f;
#X obj 35 579 delwrite~ \$0-bo 128;
#X obj 103 359 vd~ \$0-bo 128;
#X text 342 581 (c) Liam Goodacre 2016 \, liam.goodacre@gmail.com;
#X obj 35 422 inlet~;
#X floatatom 539 328 5 0 0 0 - - -, f 5;
#X obj 538 298 r \$2-damping;
#X obj 306 524 r \$2-feedback;
#X obj 219 299 r \$2-fm-amount;
#X floatatom 227 336 5 0 0 0 - - -, f 5;
#X connect 0 0 40 0;
#X connect 1 0 40 0;
#X connect 2 0 41 0;
#X connect 3 0 2 0;
#X connect 4 0 10 0;
#X connect 4 0 3 0;
#X connect 5 0 0 0;
#X connect 5 0 22 0;
#X connect 6 0 42 0;
#X connect 7 0 43 0;
#X connect 8 0 7 0;
#X connect 9 0 23 0;
#X connect 10 0 9 0;
#X connect 11 0 5 1;
#X connect 11 0 26 0;
#X connect 12 0 6 1;
#X connect 12 0 27 0;
#X connect 13 0 6 2;
#X connect 13 0 28 0;
#X connect 14 0 35 0;
#X connect 15 0 39 0;
#X connect 16 0 17 0;
#X connect 17 0 18 0;
#X connect 18 0 25 0;
#X connect 19 0 40 1;
#X connect 21 0 4 0;
#X connect 22 0 1 0;
#X connect 23 0 8 0;
#X connect 24 0 16 0;
#X connect 25 0 10 0;
#X connect 25 1 10 1;
#X connect 25 2 24 0;
#X connect 26 0 11 0;
#X connect 27 0 12 0;
#X connect 28 0 13 0;
#X connect 29 0 30 0;
#X connect 30 0 32 0;
#X connect 31 0 32 0;
#X connect 34 0 9 1;
#X connect 34 1 31 0;
#X connect 34 2 29 0;
#X connect 35 0 34 0;
#X connect 35 1 36 0;
#X connect 36 0 34 0;
#X connect 36 1 21 0;
#X connect 39 0 15 0;
#X connect 40 0 42 0;
#X connect 40 0 20 0;
#X connect 41 0 29 1;
#X connect 41 1 7 1;
#X connect 43 0 5 0;
#X connect 45 0 6 0;
#X connect 47 0 46 0;
#X connect 47 0 12 0;
#X connect 48 0 19 0;
#X connect 49 0 8 1;
#X connect 49 0 50 0;
#X coords 0 688 1 687 85 60 0;
