#N canvas 827 662 492 267 10;
#X text 174 99 Simple calculator for the distance between 2 points
in a cartesian space. (Pythagoras), f 36;
#X obj 15 105 cnv 15 105 25 empty empty empty 20 12 0 14 -262130 -66577
0;
#X obj 23 109 chair.distance;
#X floatatom 23 146 5 0 0 0 - - -;
#X msg 23 77 0 0;
#X msg 104 78 4 3;
#X connect 2 0 3 0;
#X connect 4 0 2 0;
#X connect 5 0 2 1;
