#N canvas 3020 179 450 467 10;
#X obj 36 36 inlet~;
#X obj 39 294 outlet~;
#X obj 249 289 outlet~;
#X obj 250 197 -~;
#X obj 37 86 hip~ 4;
#X obj 38 114 hip~ 4;
#X obj 39 141 hip~ 4;
#X obj 39 170 hip~ 4;
#X obj 250 221 lop~ 100;
#X obj 249 254 *~ 25;
#X connect 0 0 4 0;
#X connect 0 0 3 1;
#X connect 3 0 8 0;
#X connect 4 0 5 0;
#X connect 5 0 6 0;
#X connect 6 0 7 0;
#X connect 7 0 1 0;
#X connect 7 0 3 0;
#X connect 8 0 9 0;
#X connect 9 0 2 0;
