#N canvas 81 287 1057 758 10;
#X obj 27 167 delwrite~ \$0-main 500;
#X obj 479 273 delread~ \$0-main 60;
#X obj 633 273 delread~ \$0-main 77;
#X obj 515 312 delread~ \$0-main 137;
#X obj 669 313 delread~ \$0-main 112;
#X obj 551 352 delread~ \$0-main 175;
#X obj 705 352 delread~ \$0-main 160;
#X obj 587 391 delread~ \$0-main 190;
#X obj 741 392 delread~ \$0-main 212;
#X obj 27 276 vd~ \$0-main;
#X floatatom 27 235 5 0 0 0 - - -, f 5;
#X obj 27 255 +~;
#X obj 65 236 *~ 4;
#X msg 27 215 47;
#X obj 64 212 osc~ 0.666;
#X obj 26 190 loadbang;
#X obj 26 298 throw~ \$0-fbsum;
#X obj 170 71 catch~ \$0-fbsum;
#X obj 135 276 vd~ \$0-main;
#X floatatom 135 235 5 0 0 0 - - -, f 5;
#X obj 135 255 +~;
#X obj 173 236 *~ 4;
#X obj 172 212 osc~ 0.666;
#X obj 134 190 loadbang;
#X obj 134 298 throw~ \$0-fbsum;
#X obj 241 277 vd~ \$0-main;
#X floatatom 241 236 5 0 0 0 - - -, f 5;
#X obj 241 256 +~;
#X obj 279 237 *~ 4;
#X obj 240 191 loadbang;
#X obj 240 299 throw~ \$0-fbsum;
#X obj 347 277 vd~ \$0-main;
#X floatatom 347 236 5 0 0 0 - - -, f 5;
#X obj 347 256 +~;
#X obj 385 237 *~ 4;
#X obj 346 191 loadbang;
#X obj 346 299 throw~ \$0-fbsum;
#X obj 32 405 vd~ \$0-main;
#X floatatom 32 364 5 0 0 0 - - -, f 5;
#X obj 32 384 +~;
#X obj 70 365 *~ 4;
#X obj 31 319 loadbang;
#X obj 31 427 throw~ \$0-fbsum;
#X obj 140 405 vd~ \$0-main;
#X floatatom 140 364 5 0 0 0 - - -, f 5;
#X obj 140 384 +~;
#X obj 178 365 *~ 4;
#X obj 139 319 loadbang;
#X obj 139 427 throw~ \$0-fbsum;
#X obj 246 406 vd~ \$0-main;
#X floatatom 246 365 5 0 0 0 - - -, f 5;
#X obj 246 385 +~;
#X obj 284 366 *~ 4;
#X obj 245 320 loadbang;
#X obj 245 428 throw~ \$0-fbsum;
#X obj 352 406 vd~ \$0-main;
#X floatatom 352 365 5 0 0 0 - - -, f 5;
#X obj 352 385 +~;
#X obj 390 366 *~ 4;
#X obj 351 320 loadbang;
#X obj 351 428 throw~ \$0-fbsum;
#X obj 35 535 vd~ \$0-main;
#X floatatom 35 494 5 0 0 0 - - -, f 5;
#X obj 35 514 +~;
#X obj 73 495 *~ 4;
#X obj 34 449 loadbang;
#X obj 34 557 throw~ \$0-fbsum;
#X obj 143 535 vd~ \$0-main;
#X floatatom 143 494 5 0 0 0 - - -, f 5;
#X obj 143 514 +~;
#X obj 181 495 *~ 4;
#X obj 142 449 loadbang;
#X obj 142 557 throw~ \$0-fbsum;
#X obj 249 536 vd~ \$0-main;
#X floatatom 249 495 5 0 0 0 - - -, f 5;
#X obj 249 515 +~;
#X obj 287 496 *~ 4;
#X obj 248 450 loadbang;
#X obj 248 558 throw~ \$0-fbsum;
#X obj 355 536 vd~ \$0-main;
#X floatatom 355 495 5 0 0 0 - - -, f 5;
#X obj 355 515 +~;
#X obj 393 496 *~ 4;
#X obj 354 450 loadbang;
#X obj 354 558 throw~ \$0-fbsum;
#X obj 38 664 vd~ \$0-main;
#X floatatom 38 623 5 0 0 0 - - -, f 5;
#X obj 38 643 +~;
#X obj 76 624 *~ 4;
#X obj 37 578 loadbang;
#X obj 37 686 throw~ \$0-fbsum;
#X obj 146 664 vd~ \$0-main;
#X floatatom 146 623 5 0 0 0 - - -, f 5;
#X obj 146 643 +~;
#X obj 184 624 *~ 4;
#X obj 145 578 loadbang;
#X obj 145 686 throw~ \$0-fbsum;
#X obj 252 665 vd~ \$0-main;
#X floatatom 252 624 5 0 0 0 - - -, f 5;
#X obj 252 644 +~;
#X obj 290 625 *~ 4;
#X obj 251 579 loadbang;
#X obj 251 687 throw~ \$0-fbsum;
#X obj 358 665 vd~ \$0-main;
#X floatatom 358 624 5 0 0 0 - - -, f 5;
#X obj 358 644 +~;
#X obj 396 625 *~ 4;
#X obj 357 579 loadbang;
#X obj 357 687 throw~ \$0-fbsum;
#X msg 135 215 120;
#X msg 241 216 134;
#X msg 347 216 146;
#X msg 32 344 158;
#X msg 140 344 169;
#X msg 246 345 180;
#X msg 352 345 190;
#X msg 35 474 200;
#X msg 143 474 209;
#X msg 249 475 217;
#X msg 355 475 225;
#X msg 38 603 233;
#X msg 146 603 240;
#X msg 252 605 244;
#X msg 358 604 247;
#X obj 278 213 osc~ 0.625;
#X obj 384 213 osc~ 0.625;
#X obj 69 341 osc~ 0.555;
#X obj 177 341 osc~ 0.555;
#X obj 283 342 osc~ 0.476;
#X obj 389 342 osc~ 0.476;
#X obj 72 471 osc~ 0.435;
#X obj 180 471 osc~ 0.435;
#X obj 286 472 osc~ 0.303;
#X obj 392 472 osc~ 0.303;
#X obj 75 600 osc~ 0.181;
#X obj 183 600 osc~ 0.181;
#X obj 289 601 osc~ 0.122;
#X obj 395 601 osc~ 0.122;
#X obj 171 96 *~ 0.0625;
#X obj 171 120 lop~ 2000;
#X obj 171 141 hip~ 20;
#X floatatom 195 45 5 0 0 0 fblp - -, f 5;
#X floatatom 260 46 5 0 0 0 fbhp - -, f 5;
#X floatatom 340 46 5 0 0 0 fbgain - -, f 5;
#X obj 25 94 hip~ 20;
#X obj 27 13 inlet~;
#X obj 26 65 lop~ 20000;
#X obj 82 14 inlet;
#X obj 25 140 +~;
#X floatatom 83 40 5 0 0 0 lp - -, f 5;
#X obj 131 15 inlet;
#X floatatom 131 41 5 0 0 0 hp - -, f 5;
#X obj 194 17 inlet;
#X obj 260 19 inlet;
#X obj 339 18 inlet;
#X obj 172 165 *~ 0.1;
#X obj 479 338 +~;
#X obj 537 390 +~;
#X obj 572 428 +~;
#X obj 571 468 *~ 0.25;
#X obj 640 331 +~;
#X obj 677 372 +~;
#X obj 714 427 +~;
#X obj 717 469 *~ 0.25;
#X obj 638 622 *~;
#X obj 791 625 *~;
#X obj 601 623 *~;
#X obj 752 625 *~;
#X floatatom 850 449 5 0 1 0 drywet - -, f 5;
#X obj 770 649 +~;
#X obj 615 651 +~;
#X obj 616 692 outlet~;
#X obj 768 690 outlet~;
#X obj 868 11 inlet;
#X text 511 47 Tom Erbe \, 2016;
#N canvas 1048 168 828 342 arguments 0;
#X obj 30 240 outlet;
#X obj 279 8 loadbang;
#X obj 30 127 makefilename .%c1;
#X obj 30 153 select .\$1;
#X msg 279 30 36;
#X obj 110 204 f \$1;
#X obj 110 178 t b;
#X obj 248 177 t b;
#X obj 380 176 t b;
#X obj 168 152 select .\$2;
#X obj 248 203 f \$2;
#X obj 300 151 select .\$3;
#X obj 380 202 f \$3;
#X obj 166 243 outlet;
#X obj 299 243 outlet;
#X obj 167 126 makefilename .%c2;
#X obj 300 121 makefilename .%c3;
#X obj 432 234 outlet;
#X obj 512 172 t b;
#X obj 650 171 t b;
#X obj 782 170 t b;
#X obj 568 237 outlet;
#X obj 701 237 outlet;
#X obj 432 121 makefilename .%c4;
#X obj 512 198 f \$4;
#X obj 432 147 select .\$4;
#X obj 569 120 makefilename .%c5;
#X obj 570 146 select .\$5;
#X obj 650 197 f \$5;
#X obj 782 196 f \$6;
#X obj 702 145 select .\$6;
#X obj 702 115 makefilename .%c6;
#X obj 278 54 t f f f f f f;
#X msg 702 196 0.5;
#X msg 570 197 2.4;
#X msg 30 180 13000;
#X msg 300 202 13000;
#X msg 168 203 8;
#X msg 432 198 8;
#X connect 1 0 4 0;
#X connect 2 0 3 0;
#X connect 3 0 35 0;
#X connect 3 1 6 0;
#X connect 4 0 32 0;
#X connect 5 0 0 0;
#X connect 6 0 5 0;
#X connect 7 0 10 0;
#X connect 8 0 12 0;
#X connect 9 0 37 0;
#X connect 9 1 7 0;
#X connect 10 0 13 0;
#X connect 11 0 36 0;
#X connect 11 1 8 0;
#X connect 12 0 14 0;
#X connect 15 0 9 0;
#X connect 16 0 11 0;
#X connect 18 0 24 0;
#X connect 19 0 28 0;
#X connect 20 0 29 0;
#X connect 23 0 25 0;
#X connect 24 0 17 0;
#X connect 25 0 38 0;
#X connect 25 1 18 0;
#X connect 26 0 27 0;
#X connect 27 0 34 0;
#X connect 27 1 19 0;
#X connect 28 0 21 0;
#X connect 29 0 22 0;
#X connect 30 0 33 0;
#X connect 30 1 20 0;
#X connect 31 0 30 0;
#X connect 32 0 2 0;
#X connect 32 1 15 0;
#X connect 32 2 16 0;
#X connect 32 3 23 0;
#X connect 32 4 26 0;
#X connect 32 5 31 0;
#X connect 33 0 22 0;
#X connect 34 0 21 0;
#X connect 35 0 0 0;
#X connect 36 0 14 0;
#X connect 37 0 13 0;
#X connect 38 0 17 0;
#X restore 263 -9 pd arguments;
#X obj 849 531 line~;
#X msg 850 471 \$1 25;
#X obj 873 562 -~ 1;
#X obj 868 583 *~ -1;
#X connect 1 0 156 0;
#X connect 2 0 160 0;
#X connect 3 0 156 1;
#X connect 4 0 160 1;
#X connect 5 0 157 1;
#X connect 6 0 161 1;
#X connect 7 0 158 1;
#X connect 8 0 162 1;
#X connect 9 0 16 0;
#X connect 10 0 11 0;
#X connect 11 0 9 0;
#X connect 12 0 11 1;
#X connect 13 0 10 0;
#X connect 14 0 12 0;
#X connect 15 0 13 0;
#X connect 17 0 138 0;
#X connect 18 0 24 0;
#X connect 19 0 20 0;
#X connect 20 0 18 0;
#X connect 21 0 20 1;
#X connect 22 0 21 0;
#X connect 23 0 109 0;
#X connect 25 0 30 0;
#X connect 26 0 27 0;
#X connect 27 0 25 0;
#X connect 28 0 27 1;
#X connect 29 0 110 0;
#X connect 31 0 36 0;
#X connect 32 0 33 0;
#X connect 33 0 31 0;
#X connect 34 0 33 1;
#X connect 35 0 111 0;
#X connect 37 0 42 0;
#X connect 38 0 39 0;
#X connect 39 0 37 0;
#X connect 40 0 39 1;
#X connect 41 0 112 0;
#X connect 43 0 48 0;
#X connect 44 0 45 0;
#X connect 45 0 43 0;
#X connect 46 0 45 1;
#X connect 47 0 113 0;
#X connect 49 0 54 0;
#X connect 50 0 51 0;
#X connect 51 0 49 0;
#X connect 52 0 51 1;
#X connect 53 0 114 0;
#X connect 55 0 60 0;
#X connect 56 0 57 0;
#X connect 57 0 55 0;
#X connect 58 0 57 1;
#X connect 59 0 115 0;
#X connect 61 0 66 0;
#X connect 62 0 63 0;
#X connect 63 0 61 0;
#X connect 64 0 63 1;
#X connect 65 0 116 0;
#X connect 67 0 72 0;
#X connect 68 0 69 0;
#X connect 69 0 67 0;
#X connect 70 0 69 1;
#X connect 71 0 117 0;
#X connect 73 0 78 0;
#X connect 74 0 75 0;
#X connect 75 0 73 0;
#X connect 76 0 75 1;
#X connect 77 0 118 0;
#X connect 79 0 84 0;
#X connect 80 0 81 0;
#X connect 81 0 79 0;
#X connect 82 0 81 1;
#X connect 83 0 119 0;
#X connect 85 0 90 0;
#X connect 86 0 87 0;
#X connect 87 0 85 0;
#X connect 88 0 87 1;
#X connect 89 0 120 0;
#X connect 91 0 96 0;
#X connect 92 0 93 0;
#X connect 93 0 91 0;
#X connect 94 0 93 1;
#X connect 95 0 121 0;
#X connect 97 0 102 0;
#X connect 98 0 99 0;
#X connect 99 0 97 0;
#X connect 100 0 99 1;
#X connect 101 0 122 0;
#X connect 103 0 108 0;
#X connect 104 0 105 0;
#X connect 105 0 103 0;
#X connect 106 0 105 1;
#X connect 107 0 123 0;
#X connect 109 0 19 0;
#X connect 110 0 26 0;
#X connect 111 0 32 0;
#X connect 112 0 38 0;
#X connect 113 0 44 0;
#X connect 114 0 50 0;
#X connect 115 0 56 0;
#X connect 116 0 62 0;
#X connect 117 0 68 0;
#X connect 118 0 74 0;
#X connect 119 0 80 0;
#X connect 120 0 86 0;
#X connect 121 0 92 0;
#X connect 122 0 98 0;
#X connect 123 0 104 0;
#X connect 124 0 28 0;
#X connect 125 0 34 0;
#X connect 126 0 40 0;
#X connect 127 0 46 0;
#X connect 128 0 52 0;
#X connect 129 0 58 0;
#X connect 130 0 64 0;
#X connect 131 0 70 0;
#X connect 132 0 76 0;
#X connect 133 0 82 0;
#X connect 134 0 88 0;
#X connect 135 0 94 0;
#X connect 136 0 100 0;
#X connect 137 0 106 0;
#X connect 138 0 139 0;
#X connect 139 0 140 0;
#X connect 140 0 155 0;
#X connect 141 0 139 1;
#X connect 142 0 140 1;
#X connect 143 0 155 1;
#X connect 144 0 148 0;
#X connect 145 0 146 0;
#X connect 145 0 166 0;
#X connect 145 0 167 0;
#X connect 146 0 144 0;
#X connect 147 0 149 0;
#X connect 148 0 0 0;
#X connect 149 0 146 1;
#X connect 150 0 151 0;
#X connect 151 0 144 1;
#X connect 152 0 141 0;
#X connect 153 0 142 0;
#X connect 154 0 143 0;
#X connect 155 0 148 1;
#X connect 156 0 157 0;
#X connect 157 0 158 0;
#X connect 158 0 159 0;
#X connect 159 0 164 0;
#X connect 160 0 161 0;
#X connect 161 0 162 0;
#X connect 162 0 163 0;
#X connect 163 0 165 0;
#X connect 164 0 170 1;
#X connect 165 0 169 1;
#X connect 166 0 170 0;
#X connect 167 0 169 0;
#X connect 168 0 177 0;
#X connect 169 0 172 0;
#X connect 170 0 171 0;
#X connect 173 0 168 0;
#X connect 175 0 149 0;
#X connect 175 1 151 0;
#X connect 175 2 141 0;
#X connect 175 3 142 0;
#X connect 175 4 143 0;
#X connect 175 5 168 0;
#X connect 176 0 165 1;
#X connect 176 0 164 1;
#X connect 176 0 178 0;
#X connect 177 0 176 0;
#X connect 178 0 179 0;
#X connect 179 0 167 1;
#X connect 179 0 166 1;
