#N canvas 575 181 476 752 10;
#X declare -path chair;
#X obj 272 53 declare -path chair;
#X obj 47 693 outlet~;
#X obj 99 693 outlet;
#X obj 99 635 pack f f;
#X msg 48 233 open tickle_recording_with_data.wav \, 1;
#X obj 48 52 inlet;
#X obj 48 138 sel 1 0;
#X msg 295 233 stop;
#X obj 103 139 print faketickle~;
#X msg 103 112 fake tickle for testing;
#X obj 48 76 route float info;
#X obj 161 479 metro 1;
#X obj 161 415 loadbang;
#X msg 161 437 1;
#X obj 161 460 tgl 15 0 empty empty empty 17 7 0 10 -262144 -1 -1 1
1;
#X obj 99 572 snapshot~;
#X obj 161 573 snapshot~;
#X obj 99 605 change;
#X obj 161 603 change;
#X obj 48 480 readsf~ 3;
#X msg 99 662 position 0 \$1 \$2;
#X connect 3 0 20 0;
#X connect 4 0 19 0;
#X connect 5 0 10 0;
#X connect 6 0 4 0;
#X connect 6 1 7 0;
#X connect 7 0 19 0;
#X connect 9 0 8 0;
#X connect 10 0 6 0;
#X connect 10 1 9 0;
#X connect 11 0 15 0;
#X connect 11 0 16 0;
#X connect 12 0 13 0;
#X connect 13 0 14 0;
#X connect 14 0 11 0;
#X connect 15 0 17 0;
#X connect 16 0 18 0;
#X connect 17 0 3 0;
#X connect 18 0 3 1;
#X connect 19 0 1 0;
#X connect 19 1 15 0;
#X connect 19 2 16 0;
#X connect 20 0 2 0;
