#N canvas 2602 393 770 752 10;
#X declare -path chair;
#X obj 272 53 declare -path chair;
#X obj 48 480 readsf~ 4;
#X obj 47 693 outlet~;
#X obj 238 699 outlet;
#X msg 167 667 touch \$1;
#X msg 238 668 pos 0 \$1 \$2;
#X obj 238 641 pack f f;
#X obj 285 592 + 1;
#X obj 285 615 / 2;
#X obj 238 591 + 1;
#X obj 238 614 / 2;
#X obj 167 592 + 0.5;
#X msg 48 198 open tickle_recording_with_data.wav \, 1;
#X obj 48 52 inlet;
#X obj 48 138 sel 1 0;
#X msg 293 199 stop;
#X obj 117 131 print faketickle~;
#X msg 117 104 fake tickle for testing;
#X obj 48 76 route float info;
#X obj 600 29 block~ 64 1 0.5;
#X obj 100 526 snapshot~;
#X obj 224 478 metro 1;
#X obj 224 416 loadbang;
#X msg 224 436 1;
#X obj 224 459 tgl 15 0 empty empty empty 17 7 0 10 -262144 -1 -1 1
1;
#X obj 162 526 snapshot~;
#X obj 224 527 snapshot~;
#X obj 100 558 change;
#X obj 182 560 change;
#X obj 257 561 change;
#X connect 1 0 2 0;
#X connect 1 1 20 0;
#X connect 1 2 25 0;
#X connect 1 3 26 0;
#X connect 4 0 3 0;
#X connect 5 0 3 0;
#X connect 6 0 5 0;
#X connect 7 0 8 0;
#X connect 8 0 6 1;
#X connect 9 0 10 0;
#X connect 10 0 6 0;
#X connect 11 0 4 0;
#X connect 12 0 1 0;
#X connect 13 0 18 0;
#X connect 14 0 12 0;
#X connect 14 1 15 0;
#X connect 15 0 1 0;
#X connect 17 0 16 0;
#X connect 18 0 14 0;
#X connect 18 1 17 0;
#X connect 20 0 27 0;
#X connect 21 0 20 0;
#X connect 21 0 25 0;
#X connect 21 0 26 0;
#X connect 22 0 23 0;
#X connect 23 0 24 0;
#X connect 24 0 21 0;
#X connect 25 0 28 0;
#X connect 26 0 29 0;
#X connect 27 0 11 0;
#X connect 28 0 9 0;
#X connect 29 0 7 0;
