#N canvas 870 290 535 419 10;
#X declare -path chair;
#X obj 25 23 tgl 15 0 empty empty empty 17 7 0 10 -262144 -1 -1 0 1
;
#X floatatom 164 189 5 0 0 0 - - -, f 5;
#X floatatom 219 191 5 0 0 0 - - -, f 5;
#X obj 154 140 route 0;
#X msg 45 49 info;
#X obj 25 87 tickle~;
#X obj 154 167 unpack f f;
#X obj 372 21 declare -path chair;
#X obj 25 260 chair.gain~;
#X obj 154 276 sig~;
#X obj 211 277 sig~;
#X obj 111 273 sig~;
#X floatatom 120 140 2 0 0 0 - - -, f 2;
#X obj 26 352 dac~;
#X obj 111 249 - 0.5;
#X obj 154 225 * 2;
#X obj 211 226 * 2;
#X obj 111 113 route touch pos;
#X obj 154 249 - 1;
#X obj 211 249 - 1;
#X text 282 313 The recorded 4 channel files can be played back with
faketickle~.pd to mimic / test the hardware even when there is none
connected., f 35;
#N canvas 2048 591 765 456 48kHz 0;
#X obj 12 28 inlet~;
#X msg 244 231 start;
#X msg 618 233 stop;
#X obj 201 124 tgl 15 0 empty empty empty 17 7 0 10 -258113 -262144
-1 0 1;
#X obj 225 164 sel 1 0;
#X obj 591 200 t b b;
#X obj 591 282 symbol;
#X obj 591 309 list trim;
#X obj 591 343 print audio saved to;
#X obj 225 375 delay 120000;
#X obj 225 187 t b b b;
#X msg 174 216 0;
#X text 309 375 maximum length of recording: 2 minutes;
#X text 218 122 record;
#X obj 12 346 writesf~ 4;
#X obj 57 28 inlet~;
#X obj 101 28 inlet~;
#X obj 146 28 inlet~;
#X msg 288 226 symbol /tmp/tickle_recording_with_data.wav;
#X msg 288 258 open -rate 48000 -bytes 2 \$1;
#X connect 0 0 14 0;
#X connect 1 0 14 0;
#X connect 2 0 9 0;
#X connect 2 0 14 0;
#X connect 3 0 4 0;
#X connect 4 0 10 0;
#X connect 4 1 5 0;
#X connect 5 0 6 0;
#X connect 5 1 2 0;
#X connect 6 0 7 0;
#X connect 7 0 8 0;
#X connect 9 0 11 0;
#X connect 10 0 9 0;
#X connect 10 1 1 0;
#X connect 10 2 18 0;
#X connect 11 0 3 0;
#X connect 15 0 14 1;
#X connect 16 0 14 2;
#X connect 17 0 14 3;
#X connect 18 0 19 0;
#X connect 18 0 6 1;
#X connect 19 0 14 0;
#X coords 0 -1 1 1 58 40 1 200 100;
#X restore 94 330 pd 48kHz;
#X text 282 92 This patch lets you record audio \, touch and position
into a four channel 48kHz audio file for visual inspection and debugging.
, f 35;
#N canvas 2048 591 765 456 24kHz 0;
#X obj 12 28 inlet~;
#X msg 244 231 start;
#X msg 618 233 stop;
#X obj 201 124 tgl 15 0 empty empty empty 17 7 0 10 -258113 -262144
-1 0 1;
#X obj 225 164 sel 1 0;
#X obj 591 200 t b b;
#X obj 591 282 symbol;
#X obj 591 309 list trim;
#X obj 591 343 print audio saved to;
#X obj 225 375 delay 120000;
#X obj 225 187 t b b b;
#X msg 174 216 0;
#X text 309 375 maximum length of recording: 2 minutes;
#X text 218 122 record;
#X obj 12 346 writesf~ 4;
#X obj 57 28 inlet~;
#X obj 101 28 inlet~;
#X obj 146 28 inlet~;
#X msg 288 226 symbol /tmp/tickle_recording_with_data.wav;
#X msg 288 258 open -rate 24000 -bytes 2 \$1;
#X obj 586 23 block~ 64 1 0.5;
#X connect 0 0 14 0;
#X connect 1 0 14 0;
#X connect 2 0 9 0;
#X connect 2 0 14 0;
#X connect 3 0 4 0;
#X connect 4 0 10 0;
#X connect 4 1 5 0;
#X connect 5 0 6 0;
#X connect 5 1 2 0;
#X connect 6 0 7 0;
#X connect 7 0 8 0;
#X connect 9 0 11 0;
#X connect 10 0 9 0;
#X connect 10 1 1 0;
#X connect 10 2 18 0;
#X connect 11 0 3 0;
#X connect 15 0 14 1;
#X connect 16 0 14 2;
#X connect 17 0 14 3;
#X connect 18 0 19 0;
#X connect 18 0 6 1;
#X connect 19 0 14 0;
#X coords 0 -1 1 1 58 40 1 200 100;
#X restore 24 458 pd 24kHz;
#X text 96 471 legacy: 24kHz version;
#X connect 0 0 5 0;
#X connect 3 0 6 0;
#X connect 4 0 5 0;
#X connect 5 0 8 0;
#X connect 5 1 17 0;
#X connect 6 0 1 0;
#X connect 6 0 15 0;
#X connect 6 1 2 0;
#X connect 6 1 16 0;
#X connect 8 0 21 0;
#X connect 8 0 13 0;
#X connect 8 0 13 1;
#X connect 9 0 21 2;
#X connect 10 0 21 3;
#X connect 11 0 21 1;
#X connect 14 0 11 0;
#X connect 15 0 18 0;
#X connect 16 0 19 0;
#X connect 17 0 14 0;
#X connect 17 0 12 0;
#X connect 17 1 3 0;
#X connect 18 0 9 0;
#X connect 19 0 10 0;
