#N canvas 2583 308 665 677 10;
#X declare -path chair;
#X obj 31 35 tgl 15 0 empty empty empty 17 7 0 10 -262144 -1 -1 1 1
;
#X obj 31 124 tickle~;
#X floatatom 356 125 5 0 0 0 - - -, f 5;
#N canvas 1256 202 664 838 rotaries 0;
#X obj 102 25 inlet;
#X floatatom 138 275 5 0 0 0 - - -, f 5;
#X obj 286 192 sqrt;
#X obj 286 213 sqrt;
#X obj 286 234 sqrt;
#X obj 286 255 clip 0.5 0.99;
#X floatatom 324 278 5 0 0 0 - - -, f 5;
#X obj 468 241 * 9000;
#X obj 468 262 + 500;
#X floatatom 479 283 5 0 0 0 - - -, f 5;
#X msg 468 198 1 \$1;
#X obj 468 219 -;
#X obj 285 168 s \$0-led1;
#X obj 467 169 s \$0-led2;
#X obj 110 169 s \$0-led0;
#X obj 286 300 s \$0-feedback;
#X obj 105 298 s \$0-fm-amount;
#X obj 105 232 * 2;
#X obj 103 119 vsl 15 35 0 1 0 0 empty empty empty 0 -9 0 10 -262144
-1 -1 708 1;
#X obj 102 49 route 0 1 2;
#X obj 130 119 vsl 15 35 0 1 0 0 empty empty empty 0 -9 0 10 -262144
-1 -1 1133 1;
#X obj 159 120 vsl 15 35 0 1 0 0 empty empty empty 0 -9 0 10 -262144
-1 -1 850 1;
#X obj 468 306 s \$0-timbre;
#X obj 287 16 loadbang;
#X msg 288 45 0.5;
#X obj 102 73 chair.rotary-limit-range 24;
#X obj 283 73 chair.rotary-limit-range 24;
#X obj 465 73 chair.rotary-limit-range 24;
#X connect 0 0 19 0;
#X connect 2 0 3 0;
#X connect 3 0 4 0;
#X connect 4 0 5 0;
#X connect 5 0 6 0;
#X connect 5 0 15 0;
#X connect 7 0 8 0;
#X connect 8 0 9 0;
#X connect 8 0 22 0;
#X connect 10 0 11 0;
#X connect 11 0 7 0;
#X connect 17 0 16 0;
#X connect 17 0 1 0;
#X connect 18 0 17 0;
#X connect 18 0 14 0;
#X connect 19 0 25 0;
#X connect 19 1 26 0;
#X connect 19 2 27 0;
#X connect 20 0 2 0;
#X connect 20 0 12 0;
#X connect 21 0 10 0;
#X connect 21 0 13 0;
#X connect 23 0 24 0;
#X connect 24 0 20 0;
#X connect 25 0 18 0;
#X connect 26 0 20 0;
#X connect 27 0 21 0;
#X coords 0 -1 1 1 85 60 1 100 100;
#X restore 122 201 pd rotaries;
#X obj 341 272 s \$0-midinote;
#N canvas 2781 294 790 453 octave-switch 0;
#X obj 102 121 bng 15 250 50 0 empty empty empty 17 7 0 10 -262144
-1 -1;
#X obj 167 121 bng 15 250 50 0 empty empty empty 17 7 0 10 -262144
-1 -1;
#X floatatom 127 121 5 0 0 0 - - -, f 5;
#X obj 166 215 f;
#X obj 102 216 f;
#X obj 26 211 * 12;
#X obj 11 40 inlet;
#X obj 11 243 +;
#X obj 11 266 outlet;
#X obj 113 151 t f f f;
#X obj 303 66 loadbang;
#X obj 102 76 sel 1;
#X obj 167 76 sel 1;
#X obj 101 36 route down up;
#X obj 101 6 r \$0-updown;
#X obj 132 260 s \$0-octave;
#X obj 200 38 r \$0-octave;
#X obj 198 216 + 1;
#X obj 132 216 - 1;
#X obj 229 69 clip -4 4;
#X msg 303 87 -2;
#X connect 0 0 4 0;
#X connect 1 0 3 0;
#X connect 2 0 9 0;
#X connect 3 0 17 0;
#X connect 4 0 18 0;
#X connect 5 0 7 1;
#X connect 6 0 7 0;
#X connect 7 0 8 0;
#X connect 9 0 5 0;
#X connect 9 1 4 1;
#X connect 9 2 3 1;
#X connect 10 0 20 0;
#X connect 11 0 0 0;
#X connect 12 0 1 0;
#X connect 13 0 11 0;
#X connect 13 1 12 0;
#X connect 14 0 13 0;
#X connect 16 0 19 0;
#X connect 17 0 3 1;
#X connect 17 0 15 0;
#X connect 18 0 4 1;
#X connect 18 0 15 0;
#X connect 19 0 2 0;
#X connect 20 0 2 0;
#X coords 0 -1 1 1 85 40 1 100 100;
#X restore 341 198 pd octave-switch;
#X floatatom 358 176 5 0 0 0 - - -, f 5;
#X floatatom 357 248 5 0 0 0 - - -, f 5;
#X obj 70 222 route 0;
#X obj 70 151 route pos rotary button touch;
#X msg 50 61 info;
#X obj 31 354 lop~ 10000;
#X obj 31 333 hip~ 4;
#X obj 70 243 s \$0-xy;
#X obj 260 490 r \$0-midinote;
#X obj 215 423 f;
#X obj 242 424 + 1;
#X obj 215 512 pack f f;
#X obj 215 377 sel 1;
#X obj 228 179 s \$0-touch;
#X obj 341 61 r \$0-xy;
#X obj 155 179 s \$0-updown;
#X floatatom 225 455 5 0 0 0 - - -, f 5;
#X obj 215 355 r \$0-touch;
#X obj 468 29 declare -path chair;
#N canvas 2698 771 676 343 LED 0;
#X obj 69 185 outlet;
#X obj 35 33 r \$0-led0;
#X obj 144 33 r \$0-led1;
#X obj 243 28 r \$0-led2;
#X msg 35 68 led 0 \$1 0 0;
#X msg 144 71 led 1 0 \$1 0;
#X msg 243 71 led 2 0 0 \$1;
#X connect 1 0 4 0;
#X connect 2 0 5 0;
#X connect 3 0 6 0;
#X connect 4 0 0 0;
#X connect 5 0 0 0;
#X connect 6 0 0 0;
#X restore 62 93 pd LED;
#X obj 31 630 dac~;
#X obj 269 424 % 8;
#X obj 31 512 delread~ \$0-ex 10;
#X obj 31 482 delwrite~ \$0-ex 100;
#X obj 341 150 chair.hex-tuning;
#X obj 341 83 chair.hex-mapping;
#X obj 31 456 *~;
#X obj 47 387 r \$0-touch;
#X obj 47 433 line~;
#X obj 32 276 chair.gain~;
#X obj 260 454 s \$0-current;
#X obj 32 538 clone chair.karplus-strong 8 \$0;
#X obj 32 578 chair.gain~;
#X text 378 378 In this example \, every touch down event iterates
to the next voice even when the hit is on the same pad., f 38;
#X msg 47 408 \$1 5;
#X text 377 428 This allows you to build up seperate parallel voices
onf the same note., f 38;
#X connect 0 0 1 0;
#X connect 1 0 35 0;
#X connect 1 1 9 0;
#X connect 5 0 4 0;
#X connect 5 0 7 0;
#X connect 8 0 13 0;
#X connect 9 0 8 0;
#X connect 9 1 3 0;
#X connect 9 2 21 0;
#X connect 9 3 19 0;
#X connect 10 0 1 0;
#X connect 11 0 32 0;
#X connect 12 0 11 0;
#X connect 14 0 17 1;
#X connect 15 0 16 0;
#X connect 15 0 17 0;
#X connect 15 0 22 0;
#X connect 15 0 36 0;
#X connect 16 0 27 0;
#X connect 17 0 37 1;
#X connect 18 0 15 0;
#X connect 20 0 31 0;
#X connect 23 0 18 0;
#X connect 25 0 1 0;
#X connect 27 0 15 1;
#X connect 28 0 37 0;
#X connect 30 0 5 0;
#X connect 30 0 6 0;
#X connect 31 0 2 0;
#X connect 31 0 30 0;
#X connect 32 0 29 0;
#X connect 33 0 40 0;
#X connect 34 0 32 1;
#X connect 35 0 12 0;
#X connect 37 0 38 0;
#X connect 38 0 26 0;
#X connect 38 0 26 1;
#X connect 40 0 34 0;
