#N canvas 2847 437 945 713 10;
#X declare -path chair;
#X obj 31 35 tgl 15 0 empty empty empty 17 7 0 10 -262144 -1 -1 1 1
;
#X obj 31 124 tickle~;
#X floatatom 382 336 5 0 0 0 - - -, f 5;
#N canvas 1252 202 664 838 rotaries 0;
#X obj 102 25 inlet;
#X floatatom 138 275 5 0 0 0 - - -, f 5;
#X obj 286 192 sqrt;
#X obj 286 213 sqrt;
#X obj 286 234 sqrt;
#X obj 286 255 clip 0.5 0.99;
#X floatatom 324 278 5 0 0 0 - - -, f 5;
#X obj 468 241 * 9000;
#X obj 468 262 + 500;
#X floatatom 479 283 5 0 0 0 - - -, f 5;
#X msg 468 198 1 \$1;
#X obj 468 219 -;
#X obj 285 168 s \$0-led1;
#X obj 467 169 s \$0-led2;
#X obj 110 169 s \$0-led0;
#X obj 286 300 s \$0-feedback;
#X obj 105 298 s \$0-fm-amount;
#X obj 105 232 * 2;
#X obj 103 119 vsl 15 35 0 1 0 0 empty empty empty 0 -9 0 10 -262144
-1 -1 0 1;
#X obj 102 49 route 0 1 2;
#X obj 130 119 vsl 15 35 0 1 0 0 empty empty empty 0 -9 0 10 -262144
-1 -1 1417 1;
#X obj 159 120 vsl 15 35 0 1 0 0 empty empty empty 0 -9 0 10 -262144
-1 -1 1842 1;
#X obj 468 306 s \$0-timbre;
#X obj 287 16 loadbang;
#X msg 288 45 0.5;
#X obj 102 73 chair.rotary-limit-range 24;
#X obj 283 73 chair.rotary-limit-range 24;
#X obj 465 73 chair.rotary-limit-range 24;
#X connect 0 0 19 0;
#X connect 2 0 3 0;
#X connect 3 0 4 0;
#X connect 4 0 5 0;
#X connect 5 0 6 0;
#X connect 5 0 15 0;
#X connect 7 0 8 0;
#X connect 8 0 9 0;
#X connect 8 0 22 0;
#X connect 10 0 11 0;
#X connect 11 0 7 0;
#X connect 17 0 16 0;
#X connect 17 0 1 0;
#X connect 18 0 17 0;
#X connect 18 0 14 0;
#X connect 19 0 25 0;
#X connect 19 1 26 0;
#X connect 19 2 27 0;
#X connect 20 0 2 0;
#X connect 20 0 12 0;
#X connect 21 0 10 0;
#X connect 21 0 13 0;
#X connect 23 0 24 0;
#X connect 24 0 20 0;
#X connect 25 0 18 0;
#X connect 26 0 20 0;
#X connect 27 0 21 0;
#X coords 0 -1 1 1 85 60 1 100 100;
#X restore 122 201 pd rotaries;
#X obj 70 222 route 0;
#X obj 70 151 route pos rotary button touch;
#X msg 50 61 info;
#X obj 31 337 lop~ 10000;
#X obj 31 316 hip~ 4;
#X obj 70 243 s \$0-xy;
#X obj 355 251 sel 1;
#X obj 228 179 s \$0-touch;
#X obj 370 284 r \$0-xy;
#X obj 155 179 s \$0-updown;
#X obj 355 229 r \$0-touch;
#X obj 468 29 declare -path chair;
#N canvas 2698 771 676 343 LED 0;
#X obj 69 185 outlet;
#X obj 35 33 r \$0-led0;
#X obj 144 33 r \$0-led1;
#X obj 243 28 r \$0-led2;
#X msg 35 68 led 0 \$1 0 0;
#X msg 144 71 led 1 0 \$1 0;
#X msg 243 71 led 2 0 0 \$1;
#X connect 1 0 4 0;
#X connect 2 0 5 0;
#X connect 3 0 6 0;
#X connect 4 0 0 0;
#X connect 5 0 0 0;
#X connect 6 0 0 0;
#X restore 62 93 pd LED;
#X obj 31 630 dac~;
#X obj 31 512 delread~ \$0-ex 10;
#X obj 31 482 delwrite~ \$0-ex 100;
#X obj 370 306 chair.hex-mapping;
#X obj 31 456 *~;
#X obj 47 387 r \$0-touch;
#X obj 47 410 \$1 5;
#X obj 47 433 line~;
#X obj 32 276 chair.gain~;
#X obj 355 381 s \$0-current;
#X obj 355 357 f;
#X text 511 145 In this variation we have one voice per pad (14 in
total) each voice keeps its tuning as long as the scale or octave isn't
changed., f 34;
#X obj 196 338 tgl 15 0 empty empty empty 17 7 0 10 -262144 -1 -1 1
1;
#X obj 31 362 chair.feedback-cancellation~;
#X obj 527 429 until;
#X msg 527 406 14;
#X obj 527 459 f;
#X obj 558 459 + 1;
#X obj 527 375 t b b;
#X msg 565 400 0;
#X obj 527 610 pack f f;
#X obj 32 538 clone chair.karplus-strong_pads 14 \$0;
#N canvas 3050 566 790 453 octave-switch 0;
#X obj 102 121 bng 15 250 50 0 empty empty empty 17 7 0 10 -262144
-1 -1;
#X obj 167 121 bng 15 250 50 0 empty empty empty 17 7 0 10 -262144
-1 -1;
#X floatatom 127 121 5 0 0 0 - - -, f 5;
#X obj 166 215 f;
#X obj 102 216 f;
#X obj 36 209 * 12;
#X obj 11 40 inlet;
#X obj 11 243 +;
#X obj 11 266 outlet;
#X obj 303 66 loadbang;
#X obj 102 76 sel 1;
#X obj 167 76 sel 1;
#X obj 102 36 route down up;
#X obj 102 6 r \$0-updown;
#X obj 135 255 s \$0-octave;
#X obj 229 38 r \$0-octave;
#X obj 198 216 + 1;
#X obj 132 216 - 1;
#X obj 229 69 clip -4 4;
#X msg 303 87 -2;
#X obj 302 265 outlet;
#X obj 113 151 t b f f f;
#X connect 0 0 4 0;
#X connect 1 0 3 0;
#X connect 2 0 21 0;
#X connect 3 0 14 0;
#X connect 3 0 16 0;
#X connect 4 0 14 0;
#X connect 4 0 17 0;
#X connect 5 0 7 1;
#X connect 6 0 7 0;
#X connect 7 0 8 0;
#X connect 9 0 19 0;
#X connect 10 0 0 0;
#X connect 11 0 1 0;
#X connect 12 0 10 0;
#X connect 12 1 11 0;
#X connect 13 0 12 0;
#X connect 15 0 18 0;
#X connect 16 0 3 1;
#X connect 17 0 4 1;
#X connect 18 0 2 0;
#X connect 19 0 2 0;
#X connect 21 0 20 0;
#X connect 21 1 5 0;
#X connect 21 2 4 1;
#X connect 21 3 3 1;
#X coords 0 -1 1 1 85 40 1 100 100;
#X restore 572 566 pd octave-switch;
#X floatatom 588 542 5 0 0 0 - - -, f 5;
#X obj 572 518 chair.hex-tuning;
#X obj 527 493 t f f;
#X obj 527 329 loadbang;
#X obj 723 463 t b a;
#X msg 693 405 g_major;
#X msg 758 406 b minor;
#X obj 32 578 chair.gain~;
#X connect 0 0 1 0;
#X connect 1 0 25 0;
#X connect 1 1 5 0;
#X connect 4 0 9 0;
#X connect 5 0 4 0;
#X connect 5 1 3 0;
#X connect 5 2 13 0;
#X connect 5 3 11 0;
#X connect 6 0 1 0;
#X connect 7 0 30 0;
#X connect 8 0 7 0;
#X connect 10 0 27 0;
#X connect 12 0 20 0;
#X connect 14 0 10 0;
#X connect 16 0 1 0;
#X connect 18 0 38 0;
#X connect 20 0 2 0;
#X connect 20 0 27 1;
#X connect 21 0 19 0;
#X connect 22 0 23 0;
#X connect 23 0 24 0;
#X connect 24 0 21 1;
#X connect 25 0 8 0;
#X connect 27 0 26 0;
#X connect 29 0 30 1;
#X connect 30 0 21 0;
#X connect 31 0 33 0;
#X connect 32 0 31 0;
#X connect 33 0 34 0;
#X connect 33 0 42 0;
#X connect 34 0 33 1;
#X connect 35 0 32 0;
#X connect 35 1 36 0;
#X connect 36 0 33 1;
#X connect 37 0 38 1;
#X connect 38 0 47 0;
#X connect 39 0 37 1;
#X connect 39 1 35 0;
#X connect 41 0 39 0;
#X connect 41 0 40 0;
#X connect 42 0 37 0;
#X connect 42 1 41 0;
#X connect 43 0 35 0;
#X connect 44 0 35 0;
#X connect 44 1 41 1;
#X connect 45 0 44 0;
#X connect 46 0 44 0;
#X connect 47 0 17 0;
#X connect 47 0 17 1;
