#N canvas 2059 162 1551 901 10;
#X declare -path chair;
#X declare -lib tkwidgets;
#X declare -lib moonlib;
#X declare -lib ggee;
#X obj 822 56 tgl 15 0 empty empty empty 17 7 0 10 -262144 -1 -1 0
1;
#X obj 822 145 tickle~;
#X floatatom 932 461 5 0 0 0 - - -, f 5;
#X obj 861 243 route 0;
#X msg 841 82 info;
#X obj 822 358 lop~ 10000;
#X obj 822 337 hip~ 4;
#X obj 861 264 s \$0-xy;
#X obj 947 194 s \$0-touch;
#X obj 920 409 r \$0-xy;
#X obj 904 215 s \$0-updown;
#X obj 978 15 declare -path chair;
#N canvas 2698 771 676 343 LED 0;
#X obj 69 185 outlet;
#X obj 35 14 r \$0-led0;
#X obj 144 14 r \$0-led1;
#X obj 243 9 r \$0-led2;
#X msg 35 68 led 0 \$1 0 0;
#X msg 144 71 led 1 0 \$1 0;
#X msg 243 71 led 2 0 0 \$1;
#X obj 35 40 change;
#X obj 144 40 change;
#X obj 243 39 change;
#X msg 237 130 led 0 0 0 0;
#X msg 348 133 led 1 0 0 0;
#X msg 445 133 led 2 0 0 0;
#X obj 357 80 loadbang;
#X connect 1 0 7 0;
#X connect 2 0 8 0;
#X connect 3 0 9 0;
#X connect 4 0 0 0;
#X connect 5 0 0 0;
#X connect 6 0 0 0;
#X connect 7 0 4 0;
#X connect 8 0 5 0;
#X connect 9 0 6 0;
#X connect 10 0 0 0;
#X connect 11 0 0 0;
#X connect 12 0 0 0;
#X connect 13 0 12 0;
#X connect 13 0 11 0;
#X connect 13 0 10 0;
#X restore 853 114 pd LED;
#X obj 824 842 dac~;
#X obj 920 431 chair.hex-mapping;
#X obj 822 477 *~;
#X obj 838 408 r \$0-touch;
#X obj 838 454 line~;
#X obj 823 297 chair.gain~;
#X obj 987 359 tgl 15 0 empty empty empty 17 7 0 10 -262144 -1 -1 0
1;
#X obj 822 383 chair.feedback-cancellation~;
#N canvas 3046 566 790 453 octave-switch 0;
#X obj 102 121 bng 15 250 50 0 empty empty empty 17 7 0 10 -262144
-1 -1;
#X obj 167 121 bng 15 250 50 0 empty empty empty 17 7 0 10 -262144
-1 -1;
#X floatatom 127 121 5 0 0 0 - - -, f 5;
#X obj 166 215 f;
#X obj 102 216 f;
#X obj 36 209 * 12;
#X obj 11 40 inlet;
#X obj 11 243 +;
#X obj 11 266 outlet;
#X obj 303 66 loadbang;
#X obj 102 76 sel 1;
#X obj 167 76 sel 1;
#X obj 102 36 route down up;
#X obj 102 6 r \$0-updown;
#X obj 132 255 s \$0-octave;
#X obj 229 38 r \$0-octave;
#X obj 198 216 + 1;
#X obj 132 216 - 1;
#X obj 229 69 clip -4 4;
#X msg 303 87 -2;
#X obj 302 265 outlet;
#X obj 113 151 t b f f f;
#X connect 0 0 4 0;
#X connect 1 0 3 0;
#X connect 2 0 21 0;
#X connect 3 0 16 0;
#X connect 4 0 17 0;
#X connect 5 0 7 1;
#X connect 6 0 7 0;
#X connect 7 0 8 0;
#X connect 9 0 19 0;
#X connect 10 0 0 0;
#X connect 11 0 1 0;
#X connect 12 0 10 0;
#X connect 12 1 11 0;
#X connect 13 0 12 0;
#X connect 15 0 18 0;
#X connect 16 0 3 1;
#X connect 16 0 14 0;
#X connect 17 0 4 1;
#X connect 17 0 14 0;
#X connect 18 0 2 0;
#X connect 19 0 2 0;
#X connect 21 0 20 0;
#X connect 21 1 5 0;
#X connect 21 2 4 1;
#X connect 21 3 3 1;
#X coords 0 -1 1 1 85 40 1 100 100;
#X restore 920 542 pd octave-switch;
#X floatatom 932 521 5 0 0 0 - - -, f 5;
#X obj 920 494 chair.hex-tuning;
#X msg 1013 455 g_major;
#X obj 825 790 chair.gain~;
#X msg 1074 456 b_minor;
#X obj 920 639 mtof;
#X obj 920 586 change;
#X obj 978 37 declare -lib tkwidgets;
#X obj 401 323 moonlib/image tickle.gif 0;
#X obj 979 59 declare -lib moonlib;
#X obj 979 82 declare -lib ggee;
#X obj 440 413 bng 25 250 50 0 empty digit empty 17 7 0 10 -262140
-53251 -262144;
#X msg 1165 700 \; digit pos \$1 \$2;
#X obj 1165 674 pack f f;
#X obj 1165 545 r \$0-xy;
#X obj 1165 582 unpack f f;
#X obj 1165 613 * 785;
#X obj 1222 612 * 450;
#X obj 1222 635 + 140;
#X obj 1164 421 sel 1 0;
#X msg 1164 448 -1.0816e+07 -3.60449e+06 0;
#X msg 1164 499 \; digit color \$1 \$2 \$3;
#X msg 1184 472 -1.67772e+07 -3.60449e+06 0;
#X obj 874 693 osc~;
#X obj 823 729 *~;
#X obj 856 739 osc~;
#X obj 824 762 *~;
#X obj 957 662 mtof;
#X obj 957 639 + 2;
#X obj 861 172 route pos button touch;
#X obj 1164 395 r \$0-touch;
#X text 1038 217 Library ggee has an image object to load gifs into
the patcher window. An updated version is in moonlib.;
#X text 1039 169 This visualization provides a visual feedback for
the x and y data of the touchpad.;
#X msg 838 431 \$1 5;
#X obj 920 607 t f f;
#X obj 857 663 osc~;
#X obj 823 698 *~;
#X connect 0 0 1 0;
#X connect 1 0 18 0;
#X connect 1 1 51 0;
#X connect 3 0 7 0;
#X connect 4 0 1 0;
#X connect 5 0 20 0;
#X connect 6 0 5 0;
#X connect 9 0 14 0;
#X connect 12 0 1 0;
#X connect 14 0 2 0;
#X connect 14 0 23 0;
#X connect 15 0 58 0;
#X connect 16 0 55 0;
#X connect 17 0 15 1;
#X connect 18 0 6 0;
#X connect 19 0 20 1;
#X connect 20 0 15 0;
#X connect 21 0 28 0;
#X connect 23 0 21 0;
#X connect 23 0 22 0;
#X connect 24 0 23 1;
#X connect 25 0 13 0;
#X connect 25 0 13 1;
#X connect 26 0 23 1;
#X connect 27 0 45 0;
#X connect 27 0 57 0;
#X connect 28 0 56 0;
#X connect 35 0 34 0;
#X connect 36 0 37 0;
#X connect 37 0 38 0;
#X connect 37 1 39 0;
#X connect 38 0 35 0;
#X connect 39 0 40 0;
#X connect 40 0 35 1;
#X connect 41 0 42 0;
#X connect 41 1 44 0;
#X connect 42 0 43 0;
#X connect 44 0 43 0;
#X connect 45 0 46 1;
#X connect 46 0 48 0;
#X connect 47 0 48 1;
#X connect 48 0 25 0;
#X connect 49 0 47 0;
#X connect 50 0 49 0;
#X connect 51 0 3 0;
#X connect 51 1 10 0;
#X connect 51 2 8 0;
#X connect 52 0 41 0;
#X connect 55 0 17 0;
#X connect 56 0 27 0;
#X connect 56 1 50 0;
#X connect 57 0 58 1;
#X connect 58 0 46 0;
