#N canvas 1994 340 882 825 10;
#X declare -lib Gem;
#X declare -path chair;
#X floatatom 313 258 5 0 0 0 x - -, f 5;
#X floatatom 370 258 5 0 0 0 y - -, f 5;
#X obj 22 28 tgl 15 0 empty empty empty 17 7 0 10 -262144 -1 -1 1 1
;
#X obj 681 36 declare -lib Gem;
#X msg 403 39 0 \, destroy;
#X obj 227 371 alpha;
#X obj 22 93 tickle~;
#X obj 227 305 gemhead;
#X obj 227 344 translateXYZ;
#X obj 297 282 * 9.997;
#X obj 227 464 disk 1 30, f 11;
#X obj 227 405 colorRGB 0 1 1 0.5;
#X obj 248 438 / 60;
#X obj 354 306 + 2.2;
#X obj 297 307 - 4.998;
#X floatatom 429 287 5 0 0 0 - - -, f 5;
#X obj 297 224 unpack f f;
#X obj 23 570 dac~;
#X obj 392 72 gemwin 30;
#N canvas 2257 270 611 838 rotaries 0;
#X obj 103 8 inlet;
#X obj 343 210 pix_texture;
#X obj 343 186 pix_image knob.tiff;
#X obj 343 164 alpha;
#X obj 343 455 rotate 0 0 1;
#X obj 343 141 gemhead 50;
#X obj 17 209 pix_texture;
#X obj 17 185 pix_image knob.tiff;
#X obj 17 163 alpha;
#X obj 17 456 rotate 0 0 1;
#X obj 17 140 gemhead 50;
#X obj 184 207 pix_texture;
#X obj 184 183 pix_image knob.tiff;
#X obj 184 161 alpha;
#X obj 184 458 rotate 0 0 1;
#X obj 184 138 gemhead 50;
#X obj 184 230 translateXYZ -0.01 2.7 0;
#X obj 343 234 translateXYZ 2.84 2.7 0;
#X obj 17 232 translateXYZ -2.86 2.7 0;
#X obj 17 493 disk 0.38 20;
#X obj 184 493 disk 0.38 20;
#X obj 343 490 disk 0.38 20;
#X obj 180 622 colorRGB 0 0 0;
#X obj 180 571 gemhead 90;
#X msg 269 692 text \$1;
#X obj 218 435 * -360;
#X obj 377 431 * -360;
#X obj 51 429 * -360;
#X obj 542 671 loadbang;
#X obj 180 597 translateXYZ 0.59 3 0;
#X obj 381 622 colorRGB 0 0 0;
#X obj 381 571 gemhead 90;
#X msg 439 679 text \$1;
#X obj 381 597 translateXYZ 3.47 3 0;
#X obj 6 623 colorRGB 0 0 0;
#X obj 6 572 gemhead 90;
#X msg 100 696 text \$1;
#X obj 6 598 translateXYZ -2.2 3 0;
#X obj 5 749 text3d 0;
#X obj 179 748 text3d 0;
#X obj 380 748 text3d 0;
#X msg 529 729 4;
#X msg 478 709 font Audimat.ttf;
#X obj 440 400 chair.rotary-limit-range 24;
#X obj 269 399 chair.rotary-limit-range 24;
#X obj 100 398 chair.rotary-limit-range 24;
#X obj 103 50 route 0 1 2;
#X obj 269 528 int;
#X obj 269 551 / 100;
#X obj 269 505 * 100;
#X obj 440 527 int;
#X obj 440 550 / 100;
#X obj 440 504 * 100;
#X obj 100 532 int;
#X obj 100 555 / 100;
#X obj 100 509 * 100;
#X connect 0 0 46 0;
#X connect 1 0 17 0;
#X connect 2 0 1 0;
#X connect 3 0 2 0;
#X connect 4 0 21 0;
#X connect 5 0 3 0;
#X connect 6 0 18 0;
#X connect 7 0 6 0;
#X connect 8 0 7 0;
#X connect 9 0 19 0;
#X connect 10 0 8 0;
#X connect 11 0 16 0;
#X connect 12 0 11 0;
#X connect 13 0 12 0;
#X connect 14 0 20 0;
#X connect 15 0 13 0;
#X connect 16 0 14 0;
#X connect 17 0 4 0;
#X connect 18 0 9 0;
#X connect 22 0 39 0;
#X connect 23 0 29 0;
#X connect 24 0 39 0;
#X connect 25 0 14 1;
#X connect 26 0 4 1;
#X connect 27 0 9 1;
#X connect 28 0 41 0;
#X connect 28 0 42 0;
#X connect 29 0 22 0;
#X connect 30 0 40 0;
#X connect 31 0 33 0;
#X connect 32 0 40 0;
#X connect 33 0 30 0;
#X connect 34 0 38 0;
#X connect 35 0 37 0;
#X connect 36 0 38 0;
#X connect 37 0 34 0;
#X connect 41 0 38 1;
#X connect 41 0 39 1;
#X connect 41 0 40 1;
#X connect 42 0 38 0;
#X connect 42 0 39 0;
#X connect 42 0 40 0;
#X connect 43 0 26 0;
#X connect 43 0 52 0;
#X connect 44 0 25 0;
#X connect 44 0 49 0;
#X connect 45 0 27 0;
#X connect 45 0 55 0;
#X connect 46 0 45 0;
#X connect 46 1 44 0;
#X connect 46 2 43 0;
#X connect 47 0 48 0;
#X connect 48 0 24 0;
#X connect 49 0 47 0;
#X connect 50 0 51 0;
#X connect 51 0 32 0;
#X connect 52 0 50 0;
#X connect 53 0 54 0;
#X connect 54 0 36 0;
#X connect 55 0 53 0;
#X restore 103 162 pd rotaries;
#X obj 142 379 env~;
#N canvas 2721 606 790 453 octave-switch 0;
#X obj 102 121 bng 15 250 50 0 empty empty empty 17 7 0 10 -262144
-1 -1;
#X obj 167 121 bng 15 250 50 0 empty empty empty 17 7 0 10 -262144
-1 -1;
#X floatatom 127 121 5 0 0 0 - - -, f 5;
#X obj 166 215 f;
#X obj 132 216 - 1;
#X obj 198 216 + 1;
#X obj 102 216 f;
#X obj 26 211 * 12;
#X obj 11 40 inlet;
#X obj 11 243 +;
#X obj 11 266 outlet;
#X obj 132 271 s \$0-updown;
#X obj 127 41 r \$0-updown;
#X obj 113 151 t f f f;
#X msg 303 87 3;
#X obj 303 66 loadbang;
#X obj 352 151 r updown;
#X obj 352 181 unpack f f;
#X obj 352 266 sel 1;
#X obj 352 216 change;
#X obj 409 214 change;
#X obj 409 266 sel 1;
#X obj 231 31 r octave;
#X obj 127 62 clip -5 5;
#X obj 61 300 s octave-display;
#X connect 0 0 6 0;
#X connect 1 0 3 0;
#X connect 2 0 13 0;
#X connect 3 0 5 0;
#X connect 4 0 6 1;
#X connect 4 0 11 0;
#X connect 5 0 3 1;
#X connect 5 0 11 0;
#X connect 6 0 4 0;
#X connect 7 0 9 1;
#X connect 8 0 9 0;
#X connect 9 0 10 0;
#X connect 12 0 23 0;
#X connect 13 0 7 0;
#X connect 13 0 24 0;
#X connect 13 1 6 1;
#X connect 13 2 3 1;
#X connect 14 0 2 0;
#X connect 15 0 14 0;
#X connect 16 0 17 0;
#X connect 17 0 19 0;
#X connect 17 1 20 0;
#X connect 18 0 0 0;
#X connect 19 0 18 0;
#X connect 20 0 21 0;
#X connect 21 0 1 0;
#X connect 22 0 2 0;
#X connect 23 0 2 0;
#X coords 0 -1 1 1 85 40 1 100 100;
#X restore 417 362 pd octave-switch;
#X obj 734 259 pack f f;
#X obj 735 279 s updown;
#X floatatom 434 340 5 0 0 0 - - -, f 5;
#X floatatom 433 412 5 0 0 0 - - -, f 5;
#N canvas 2891 155 888 890 display 0;
#X obj 46 242 pix_texture;
#X obj 46 267 rectangle 4.999 4;
#X obj 46 198 alpha;
#X obj 46 177 gemhead 40;
#X text 47 148 foreground;
#X obj 336 160 colorRGB 0 0 0;
#X obj 337 34 gemhead 90;
#X msg 351 224 text \$1;
#X obj 335 286 text3d 0;
#X obj 474 179 loadbang;
#X msg 451 267 4;
#X msg 410 217 font Audimat.ttf;
#X obj 336 102 translateXYZ -4.22 3.49 0;
#X obj 351 195 r octave-display;
#X obj 46 219 pix_image tickle.gif;
#X connect 0 0 1 0;
#X connect 2 0 14 0;
#X connect 3 0 2 0;
#X connect 5 0 8 0;
#X connect 6 0 12 0;
#X connect 7 0 8 0;
#X connect 9 0 10 0;
#X connect 9 0 11 0;
#X connect 10 0 8 1;
#X connect 11 0 8 0;
#X connect 12 0 5 0;
#X connect 13 0 7 0;
#X connect 14 0 0 0;
#X restore 286 87 pd display;
#X obj 21 308 lop~ 10000;
#X obj 681 14 declare -path chair;
#X obj 417 320 chair.hex-tuning;
#X msg 45 55 info;
#X obj 20 285 hip~ 4;
#X obj 21 246 chair.gain~;
#X obj 22 520 chair.gain~;
#X obj 227 200 r \$0-touch;
#X obj 61 117 route pos rotary touch button;
#X obj 61 184 route 0;
#X obj 61 206 s \$0-xy;
#X obj 297 201 r \$0-xy;
#X obj 146 141 s \$0-touch;
#X msg 392 13 dimen 791 650 \, title CHAIR \, FSAA 8 \, create \, 1
;
#X obj 22 461 chair.feedback-cancellation~;
#X obj 187 436 tgl 15 0 empty empty empty 17 7 0 10 -262144 -1 -1 0
1;
#X obj 417 203 r \$0-xy;
#X obj 417 436 s \$0-midinote;
#N canvas 2443 546 362 505 hexpad-viz 0;
#X obj 136 60 inlet;
#X obj 44 393 alpha;
#X obj 44 358 translateXYZ -4.97 1.56 0;
#X obj 92 319 +;
#X obj 44 252 t a b;
#X msg 92 285 -4.96;
#X obj 136 109 moses 5;
#X obj 175 139 moses 9;
#X msg 172 252 set -3.72;
#X obj 196 196 t b b f;
#X msg 216 320 -0.54;
#X msg 159 316 1.56;
#X obj 136 205 t b b f;
#X obj 230 224 - 5;
#X obj 265 200 t b b f;
#X obj 299 228 - 9;
#X msg 284 322 -2.63;
#X obj 44 441 disk 1.42 6;
#X msg 103 246 set -4.96;
#X obj 153 282 * 2.465;
#X obj 44 417 colorRGB 1 0 0.5 0.35;
#X obj 44 143 r \$0-touch;
#X obj 44 176 gemhead 130;
#X connect 0 0 6 0;
#X connect 1 0 20 0;
#X connect 2 0 1 0;
#X connect 3 0 2 1;
#X connect 4 0 2 0;
#X connect 4 1 5 0;
#X connect 5 0 3 0;
#X connect 6 0 12 0;
#X connect 6 1 7 0;
#X connect 7 0 9 0;
#X connect 7 1 14 0;
#X connect 8 0 5 0;
#X connect 9 0 8 0;
#X connect 9 1 10 0;
#X connect 9 2 13 0;
#X connect 10 0 2 2;
#X connect 11 0 2 2;
#X connect 12 0 18 0;
#X connect 12 1 11 0;
#X connect 12 2 19 0;
#X connect 13 0 19 0;
#X connect 14 0 18 0;
#X connect 14 1 16 0;
#X connect 14 2 15 0;
#X connect 15 0 19 0;
#X connect 16 0 2 2;
#X connect 18 0 5 0;
#X connect 19 0 3 1;
#X connect 20 0 17 0;
#X connect 21 0 22 0;
#X connect 22 0 4 0;
#X restore 468 287 pd hexpad-viz;
#X obj 354 283 * -5.6;
#X obj 417 256 chair.hex-mapping;
#X connect 2 0 6 0;
#X connect 4 0 18 0;
#X connect 5 0 11 0;
#X connect 6 0 32 0;
#X connect 6 1 35 0;
#X connect 7 0 8 0;
#X connect 8 0 5 0;
#X connect 9 0 14 0;
#X connect 11 0 10 0;
#X connect 12 0 10 1;
#X connect 13 0 8 2;
#X connect 14 0 8 1;
#X connect 16 0 9 0;
#X connect 16 0 0 0;
#X connect 16 1 1 0;
#X connect 16 1 46 0;
#X connect 20 0 12 0;
#X connect 21 0 25 0;
#X connect 21 0 44 0;
#X connect 22 0 23 0;
#X connect 27 0 20 0;
#X connect 27 0 41 0;
#X connect 29 0 21 0;
#X connect 29 0 24 0;
#X connect 30 0 6 0;
#X connect 31 0 27 0;
#X connect 32 0 31 0;
#X connect 33 0 17 0;
#X connect 33 0 17 1;
#X connect 34 0 7 0;
#X connect 35 0 36 0;
#X connect 35 1 19 0;
#X connect 35 2 39 0;
#X connect 36 0 37 0;
#X connect 38 0 16 0;
#X connect 40 0 18 0;
#X connect 41 0 33 0;
#X connect 42 0 41 1;
#X connect 43 0 47 0;
#X connect 46 0 13 0;
#X connect 47 0 29 0;
#X connect 47 0 15 0;
#X connect 47 0 45 0;
