#N canvas 771 260 934 730 10;
#X declare -path ./chair;
#X msg 418 355 \$1 100;
#X obj 418 376 line~;
#X obj 392 375 *~;
#X floatatom 418 315 5 0 0 0 - - -, f 5;
#X obj 362 165 expr 1000/$f1;
#X obj 392 41 mtof;
#X floatatom 364 198 5 0 0 0 - - -, f 5;
#X obj 421 249 hsl 128 15 0 1 0 1 empty empty empty -2 -8 0 10 -262144
-1 -1 7937 1;
#X obj 417 270 sqrt;
#X obj 393 473 lop~;
#X msg 607 361 \$1 100;
#X obj 607 382 line~;
#X obj 581 382 *~;
#X floatatom 606 323 5 0 0 0 - - -, f 5;
#X obj 580 175 expr 1000/$f1;
#X floatatom 580 198 5 0 0 0 - - -, f 5;
#X obj 610 263 hsl 128 15 0 1 0 1 empty empty empty -2 -8 0 10 -262144
-1 -1 7937 1;
#X obj 607 280 sqrt;
#X text 463 274 del-1 feedback;
#X text 642 288 del-2 feedback;
#X obj 225 49 inlet~;
#X obj 392 9 inlet;
#X obj 261 235 == \$1;
#X obj 261 208 r \$2-current;
#X obj 224 268 chair.touchgate~;
#X obj 767 17 declare -path ./chair;
#X obj 773 62 block~ 1;
#X obj 392 612 outlet~;
#X obj 223 611 delwrite~ \$0-d1 100;
#X obj 415 429 +;
#X obj 415 400 r \$2-lp;
#X obj 676 234 r \$2-fb;
#X obj 488 227 r \$2-fb;
#X text 430 474 del rolloff;
#X obj 606 25 r \$2-timbre;
#X obj 606 51 + 1;
#X obj 580 150 * 1;
#X msg 651 87 \$1 100;
#X obj 651 110 line;
#X obj 578 102 t b f;
#X obj 392 536 chair.dc-offset~;
#X obj 418 335 clip 0 0.999;
#X obj 580 413 *~ -1;
#X obj 607 341 clip 0 0.99;
#X obj 606 304 * 0.66;
#X obj 619 451 sig~;
#X floatatom 620 428 5 0 0 0 - - -, f 5;
#X obj 580 516 allp~;
#X obj 747 474 osc~;
#X obj 747 497 *~;
#X floatatom 747 446 5 0 0 0 - - -, f 5;
#X floatatom 794 498 5 0 0 0 - - -, f 5;
#X obj 252 582 expr~ tanh($v1);
#X obj 579 486 allp~ 3;
#X obj 416 292 * 0.5;
#X obj 678 393 osc~;
#X floatatom 678 365 5 0 0 0 - - -, f 5;
#X obj 677 439 +~ 0.7;
#X obj 677 416 *~ 0.3;
#X obj 391 227 delread4~ \$0-d1;
#X obj 580 233 delread4~ \$0-d1;
#X connect 0 0 1 0;
#X connect 1 0 2 1;
#X connect 2 0 9 0;
#X connect 3 0 41 0;
#X connect 4 0 6 0;
#X connect 5 0 4 0;
#X connect 5 0 29 1;
#X connect 5 0 39 0;
#X connect 6 0 59 0;
#X connect 7 0 8 0;
#X connect 8 0 54 0;
#X connect 9 0 40 0;
#X connect 10 0 11 0;
#X connect 11 0 12 1;
#X connect 12 0 42 0;
#X connect 13 0 43 0;
#X connect 14 0 15 0;
#X connect 15 0 60 0;
#X connect 16 0 17 0;
#X connect 17 0 44 0;
#X connect 20 0 24 0;
#X connect 21 0 5 0;
#X connect 22 0 24 1;
#X connect 23 0 22 0;
#X connect 24 0 28 0;
#X connect 29 0 9 1;
#X connect 30 0 29 0;
#X connect 31 0 16 0;
#X connect 32 0 7 0;
#X connect 34 0 35 0;
#X connect 35 0 37 0;
#X connect 35 0 36 0;
#X connect 36 0 14 0;
#X connect 37 0 38 0;
#X connect 39 0 36 0;
#X connect 39 1 36 1;
#X connect 40 0 27 0;
#X connect 40 0 52 0;
#X connect 41 0 0 0;
#X connect 42 0 53 0;
#X connect 43 0 10 0;
#X connect 44 0 13 0;
#X connect 45 0 53 2;
#X connect 46 0 45 0;
#X connect 47 0 9 0;
#X connect 48 0 49 0;
#X connect 49 0 47 2;
#X connect 50 0 48 0;
#X connect 51 0 49 1;
#X connect 52 0 28 0;
#X connect 53 0 47 0;
#X connect 54 0 3 0;
#X connect 55 0 58 0;
#X connect 56 0 55 0;
#X connect 58 0 57 0;
#X connect 59 0 2 0;
#X connect 60 0 12 0;
