#N canvas 769 250 699 726 10;
#X declare -path chair;
#X declare -path abstractions;
#N canvas 203 461 664 369 rotaries 0;
#X floatatom 136 275 5 0 0 0 - - -;
#X obj 286 192 sqrt;
#X obj 286 213 sqrt;
#X obj 286 234 sqrt;
#X obj 286 255 clip 0.5 0.99;
#X floatatom 324 278 5 0 0 0 - - -;
#X obj 468 241 * 9000;
#X obj 468 262 + 500;
#X floatatom 479 283 5 0 0 0 - - -;
#X msg 468 198 1 \$1;
#X obj 468 219 -;
#X obj 286 300 s \$0-feedback;
#X obj 103 298 s \$0-fm-amount;
#X obj 103 232 * 2;
#X obj 103 119 vsl 15 35 0 1 0 0 empty empty empty 0 -9 0 10 -262144
-1 -1 0 1;
#X obj 130 119 vsl 15 35 0 1 0 0 empty empty empty 0 -9 0 10 -262144
-1 -1 0 1;
#X obj 159 120 vsl 15 35 0 1 0 0 empty empty empty 0 -9 0 10 -262144
-1 -1 0 1;
#X obj 468 306 s \$0-timbre;
#X obj 86 29 ctlin 14 1;
#X obj 154 29 ctlin 15 1;
#X obj 226 29 ctlin 16 1;
#X obj 92 59 / 127;
#X obj 157 63 / 127;
#X obj 223 65 / 127;
#X connect 1 0 2 0;
#X connect 2 0 3 0;
#X connect 3 0 4 0;
#X connect 4 0 5 0;
#X connect 4 0 11 0;
#X connect 6 0 7 0;
#X connect 7 0 8 0;
#X connect 7 0 17 0;
#X connect 9 0 10 0;
#X connect 10 0 6 0;
#X connect 13 0 12 0;
#X connect 13 0 0 0;
#X connect 14 0 13 0;
#X connect 15 0 1 0;
#X connect 16 0 9 0;
#X connect 18 0 21 0;
#X connect 19 0 22 0;
#X connect 20 0 23 0;
#X connect 21 0 14 0;
#X connect 22 0 15 0;
#X connect 23 0 16 0;
#X coords 0 -1 1 1 85 60 1 100 100;
#X restore 29 27 pd rotaries;
#X obj 33 523 hip~ 4;
#X obj 379 28 declare -path chair;
#X obj 32 560 dac~;
#X obj 33 231 chair.gain~;
#X obj 33 482 chair.gain~;
#X text 374 337 In this example \, every touch down event iterates
to the next voice even when the hit is on the same pad., f 38;
#X obj 379 49 declare -path abstractions;
#X text 30 105 Rotaries:;
#X obj 33 459 clone karplus-strong 8 \$0;
#X text 373 387 This allows you to build up seperate parallel voices
of the same note., f 38;
#X text 29 121 Distortion \, Feedback \, Timbre;
#X obj 228 252 tgl 15 0 empty \$0-active empty 17 7 0 10 -262144 -1
-1 1 1;
#X obj 33 277 chair.feedback-cancellation~ 50 1;
#N canvas 864 596 450 300 init 0;
#X obj 95 66 loadbang;
#X msg 96 93 1;
#X obj 96 116 s \$0-active;
#X connect 0 0 1 0;
#X connect 1 0 2 0;
#X restore 379 70 pd init;
#X obj 180 337 stripnote;
#X obj 33 192 adc~ 1;
#X obj 180 437 pack f f;
#X obj 180 385 f;
#X obj 207 386 + 1;
#X obj 234 386 % 8;
#X obj 180 361 t b f, f 16;
#X obj 243 437 s \$0-current;
#X obj 180 409 t f f, f 11;
#X floatatom 273 410 5 0 0 0 - - -;
#X obj 180 314 notein 1;
#X connect 1 0 3 0;
#X connect 1 0 3 1;
#X connect 4 0 13 0;
#X connect 5 0 1 0;
#X connect 9 0 5 0;
#X connect 12 0 13 2;
#X connect 13 0 9 0;
#X connect 15 0 21 0;
#X connect 16 0 4 0;
#X connect 17 0 9 1;
#X connect 18 0 19 0;
#X connect 18 0 23 0;
#X connect 19 0 20 0;
#X connect 20 0 18 1;
#X connect 21 0 18 0;
#X connect 21 1 17 1;
#X connect 21 1 24 0;
#X connect 23 0 17 0;
#X connect 23 1 22 0;
#X connect 25 0 15 0;
#X connect 25 1 15 1;
