#N canvas 1104 202 673 726 10;
#X declare -path chair;
#X declare -path abstractions;
#X obj 31 35 tgl 15 0 empty empty empty 17 7 0 10 -262144 -1 -1 0 1
;
#X obj 31 124 tickle~;
#X floatatom 396 179 5 0 0 0 - - -;
#N canvas 201 646 664 369 rotaries 0;
#X obj 102 25 inlet;
#X floatatom 136 275 5 0 0 0 - - -;
#X obj 286 192 sqrt;
#X obj 286 213 sqrt;
#X obj 286 234 sqrt;
#X obj 286 255 clip 0.5 0.99;
#X floatatom 324 278 5 0 0 0 - - -;
#X obj 468 241 * 9000;
#X obj 468 262 + 500;
#X floatatom 479 283 5 0 0 0 - - -;
#X msg 468 198 1 \$1;
#X obj 468 219 -;
#X obj 285 168 s \$0-led1;
#X obj 467 169 s \$0-led2;
#X obj 110 169 s \$0-led0;
#X obj 286 300 s \$0-feedback;
#X obj 103 298 s \$0-fm-amount;
#X obj 103 232 * 2;
#X obj 103 119 vsl 15 35 0 1 0 0 empty empty empty 0 -9 0 10 -262144
-1 -1 283 1;
#X obj 102 49 route 0 1 2;
#X obj 130 119 vsl 15 35 0 1 0 0 empty empty empty 0 -9 0 10 -262144
-1 -1 2975 1;
#X obj 159 120 vsl 15 35 0 1 0 0 empty empty empty 0 -9 0 10 -262144
-1 -1 1558 1;
#X obj 468 306 s \$0-timbre;
#X obj 354 7 loadbang;
#X obj 102 73 chair.rotary-limit-range 24;
#X obj 283 73 chair.rotary-limit-range 24;
#X obj 465 73 chair.rotary-limit-range 24;
#X msg 325 38 1;
#X msg 361 37 20;
#X msg 396 40 10;
#X connect 0 0 19 0;
#X connect 2 0 3 0;
#X connect 3 0 4 0;
#X connect 4 0 5 0;
#X connect 5 0 6 0;
#X connect 5 0 15 0;
#X connect 7 0 8 0;
#X connect 8 0 9 0;
#X connect 8 0 22 0;
#X connect 10 0 11 0;
#X connect 11 0 7 0;
#X connect 17 0 16 0;
#X connect 17 0 1 0;
#X connect 18 0 17 0;
#X connect 18 0 14 0;
#X connect 19 0 24 0;
#X connect 19 1 25 0;
#X connect 19 2 26 0;
#X connect 20 0 2 0;
#X connect 20 0 12 0;
#X connect 21 0 10 0;
#X connect 21 0 13 0;
#X connect 23 0 28 0;
#X connect 23 0 27 0;
#X connect 23 0 29 0;
#X connect 24 0 18 0;
#X connect 25 0 20 0;
#X connect 26 0 21 0;
#X connect 27 0 24 1;
#X connect 28 0 25 1;
#X connect 29 0 26 1;
#X coords 0 -1 1 1 85 60 1 100 100;
#X restore 125 201 pd rotaries;
#X obj 381 357 s \$0-midinote;
#X floatatom 398 239 5 0 0 0 - - -;
#X floatatom 397 311 5 0 0 0 - - -;
#X msg 50 61 info;
#X obj 30 644 hip~ 4;
#X obj 151 327 s \$0-xy;
#X obj 151 499 f;
#X obj 178 500 + 1;
#X obj 151 477 sel 1;
#X obj 70 327 s \$0-touch;
#X obj 381 124 r \$0-xy;
#X obj 180 179 s \$0-updown;
#X obj 379 28 declare -path chair;
#N canvas 2559 780 676 343 LED 0;
#X obj 69 185 outlet;
#X obj 35 33 r \$0-led0;
#X obj 144 33 r \$0-led1;
#X obj 243 28 r \$0-led2;
#X msg 35 68 led 0 \$1 0 \$1;
#X msg 243 71 led 2 \$1 \$1 0;
#X msg 144 71 led 1 0 \$1 \$1;
#X connect 1 0 4 0;
#X connect 2 0 6 0;
#X connect 3 0 5 0;
#X connect 4 0 0 0;
#X connect 5 0 0 0;
#X connect 6 0 0 0;
#X restore 62 93 pd LED;
#X obj 29 681 dac~;
#X obj 205 500 % 8;
#X obj 381 213 chair.hex-tuning;
#X obj 381 146 chair.hex-mapping;
#X obj 124 428 r \$0-touch;
#X obj 32 356 chair.gain~;
#X obj 151 522 s \$0-current;
#X obj 30 603 chair.gain~;
#X text 378 401 In this example \, every touch down event iterates
to the next voice even when the hit is on the same pad., f 38;
#X obj 510 238 r \$0-updown;
#X obj 381 261 chair.transpose-oct -2;
#X msg 474 178 g_major;
#X msg 530 178 b_minor;
#X obj 379 49 declare -path abstractions;
#X text 119 265 Rotaries:;
#X obj 30 580 clone karplus-strong 8 \$0;
#X text 377 451 This allows you to build up seperate parallel voices
of the same note., f 38;
#X obj 70 151 route position rotary button;
#X obj 70 303 chair.capsense;
#N canvas 394 276 323 306 instance-iteration 1;
#X obj 42 230 outlet;
#X obj 134 55 r \$0-midinote;
#X obj 42 56 r \$0-current;
#X obj 42 173 pack f f;
#X connect 1 0 3 1;
#X connect 2 0 3 0;
#X connect 3 0 0 0;
#X restore 177 553 pd instance-iteration;
#X obj 31 476 chair.touchgate~;
#X obj 124 452 t f f;
#X text 118 281 Distortion \, Feedback \, Timbre;
#X obj 227 377 tgl 15 0 empty \$0-active empty 17 7 0 10 -262144 -1
-1 1 1;
#X obj 32 402 chair.feedback-cancellation~ 50 1;
#N canvas 864 596 450 300 init 0;
#X obj 95 66 loadbang;
#X msg 96 93 1;
#X obj 96 116 s \$0-active;
#X connect 0 0 1 0;
#X connect 1 0 2 0;
#X restore 379 70 pd init;
#X connect 0 0 1 0;
#X connect 1 0 23 0;
#X connect 1 1 35 0;
#X connect 7 0 1 0;
#X connect 8 0 18 0;
#X connect 8 0 18 1;
#X connect 10 0 11 0;
#X connect 10 0 24 0;
#X connect 11 0 19 0;
#X connect 12 0 10 0;
#X connect 14 0 21 0;
#X connect 17 0 1 0;
#X connect 19 0 10 1;
#X connect 20 0 5 0;
#X connect 20 0 28 0;
#X connect 21 0 2 0;
#X connect 21 0 20 0;
#X connect 22 0 39 0;
#X connect 23 0 42 0;
#X connect 25 0 8 0;
#X connect 27 0 28 1;
#X connect 28 0 6 0;
#X connect 28 0 4 0;
#X connect 29 0 20 1;
#X connect 30 0 20 1;
#X connect 33 0 25 0;
#X connect 35 0 36 0;
#X connect 35 1 3 0;
#X connect 35 2 15 0;
#X connect 36 0 13 0;
#X connect 36 1 9 0;
#X connect 37 0 33 1;
#X connect 38 0 33 0;
#X connect 39 0 38 1;
#X connect 39 1 12 0;
#X connect 41 0 42 2;
#X connect 42 0 38 0;
