#N canvas 900 395 673 726 10;
#X declare -path chair;
#X declare -path abstractions;
#X obj 31 35 tgl 15 0 empty empty empty 17 7 0 10 -262144 -1 -1 1 1
;
#X obj 31 124 tickle~;
#X floatatom 396 179 5 0 0 0 - - -;
#N canvas 1252 202 664 369 rotaries 0;
#X obj 102 25 inlet;
#X floatatom 136 275 5 0 0 0 - - -;
#X obj 286 192 sqrt;
#X obj 286 213 sqrt;
#X obj 286 234 sqrt;
#X obj 286 255 clip 0.5 0.99;
#X floatatom 324 278 5 0 0 0 - - -;
#X obj 468 241 * 9000;
#X obj 468 262 + 500;
#X floatatom 479 283 5 0 0 0 - - -;
#X msg 468 198 1 \$1;
#X obj 468 219 -;
#X obj 285 168 s \$0-led1;
#X obj 467 169 s \$0-led2;
#X obj 110 169 s \$0-led0;
#X obj 286 300 s \$0-feedback;
#X obj 103 298 s \$0-fm-amount;
#X obj 103 232 * 2;
#X obj 103 119 vsl 15 35 0 1 0 0 empty empty empty 0 -9 0 10 -262144
-1 -1 0 1;
#X obj 102 49 route 0 1 2;
#X obj 130 119 vsl 15 35 0 1 0 0 empty empty empty 0 -9 0 10 -262144
-1 -1 2267 1;
#X obj 159 120 vsl 15 35 0 1 0 0 empty empty empty 0 -9 0 10 -262144
-1 -1 2408 1;
#X obj 468 306 s \$0-timbre;
#X obj 287 16 loadbang;
#X msg 288 45 0.5;
#X obj 102 73 chair.rotary-limit-range 24;
#X obj 283 73 chair.rotary-limit-range 24;
#X obj 465 73 chair.rotary-limit-range 24;
#X connect 0 0 19 0;
#X connect 2 0 3 0;
#X connect 3 0 4 0;
#X connect 4 0 5 0;
#X connect 5 0 6 0;
#X connect 5 0 15 0;
#X connect 7 0 8 0;
#X connect 8 0 9 0;
#X connect 8 0 22 0;
#X connect 10 0 11 0;
#X connect 11 0 7 0;
#X connect 17 0 16 0;
#X connect 17 0 1 0;
#X connect 18 0 17 0;
#X connect 18 0 14 0;
#X connect 19 0 25 0;
#X connect 19 1 26 0;
#X connect 19 2 27 0;
#X connect 20 0 2 0;
#X connect 20 0 12 0;
#X connect 21 0 10 0;
#X connect 21 0 13 0;
#X connect 23 0 24 0;
#X connect 24 0 20 0;
#X connect 25 0 18 0;
#X connect 26 0 20 0;
#X connect 27 0 21 0;
#X coords 0 -1 1 1 85 60 1 100 100;
#X restore 125 201 pd rotaries;
#X obj 381 357 s \$0-midinote;
#X floatatom 398 239 5 0 0 0 - - -;
#X floatatom 397 311 5 0 0 0 - - -;
#X msg 50 61 info;
#X obj 30 644 hip~ 4;
#X obj 139 331 s \$0-xy;
#X obj 175 463 f;
#X obj 202 464 + 1;
#X obj 175 441 sel 1;
#X obj 70 331 s \$0-touch;
#X obj 381 124 r \$0-xy;
#X obj 180 179 s \$0-updown;
#X obj 175 419 r \$0-touch;
#X obj 379 28 declare -path chair;
#N canvas 2698 771 676 343 LED 0;
#X obj 69 185 outlet;
#X obj 35 33 r \$0-led0;
#X obj 144 33 r \$0-led1;
#X obj 243 28 r \$0-led2;
#X msg 35 68 led 0 \$1 0 0;
#X msg 144 71 led 1 0 \$1 0;
#X msg 243 71 led 2 0 0 \$1;
#X connect 1 0 4 0;
#X connect 2 0 5 0;
#X connect 3 0 6 0;
#X connect 4 0 0 0;
#X connect 5 0 0 0;
#X connect 6 0 0 0;
#X restore 62 93 pd LED;
#X obj 29 681 dac~;
#X obj 229 464 % 8;
#X obj 381 213 chair.hex-tuning;
#X obj 381 146 chair.hex-mapping;
#X obj 31 485 *~;
#X obj 47 416 r \$0-touch;
#X obj 47 462 line~;
#X obj 32 366 chair.gain~;
#X obj 175 486 s \$0-current;
#X obj 30 603 chair.gain~;
#X text 378 401 In this example \, every touch down event iterates
to the next voice even when the hit is on the same pad., f 38;
#X obj 510 238 r \$0-updown;
#X obj 381 261 chair.transpose-oct -2;
#X msg 474 178 g_major;
#X msg 530 178 b_minor;
#X obj 379 49 declare -path abstractions;
#X text 119 265 Rotaries:;
#X text 118 281 Distorsion \, Feedback \, Timbre;
#X obj 30 580 clone karplus-strong 8 \$0;
#X text 377 451 This allows you to build up seperate parallel voices
of the same note., f 38;
#X obj 202 592 print;
#X obj 70 151 route position rotary button;
#X obj 70 303 chair.capsense;
#X msg 47 437 \$1 3;
#N canvas 394 276 450 712 instance-iteration 1;
#X obj 102 316 outlet;
#X obj 147 54 r \$0-midinote;
#X obj 147 123 spigot 1;
#X obj 65 149 r \$0-current;
#X obj 192 87 r \$0-touch;
#X obj 102 259 pack f f;
#X obj 147 151 t f b;
#X obj 81 201 spigot 1;
#X obj 188 283 print a;
#X obj 245 285 print b;
#X connect 1 0 2 0;
#X connect 2 0 6 0;
#X connect 3 0 7 0;
#X connect 4 0 2 1;
#X connect 5 0 0 0;
#X connect 6 0 5 1;
#X connect 7 0 5 0;
#X restore 177 534 pd instance-iteration;
#X connect 0 0 1 0;
#X connect 1 0 26 0;
#X connect 1 1 40 0;
#X connect 7 0 1 0;
#X connect 8 0 19 0;
#X connect 8 0 19 1;
#X connect 10 0 11 0;
#X connect 10 0 27 0;
#X connect 11 0 20 0;
#X connect 12 0 10 0;
#X connect 14 0 22 0;
#X connect 16 0 12 0;
#X connect 18 0 1 0;
#X connect 20 0 10 1;
#X connect 21 0 5 0;
#X connect 21 0 31 0;
#X connect 22 0 2 0;
#X connect 22 0 21 0;
#X connect 23 0 37 0;
#X connect 24 0 42 0;
#X connect 25 0 23 1;
#X connect 26 0 23 0;
#X connect 28 0 8 0;
#X connect 30 0 31 1;
#X connect 31 0 6 0;
#X connect 31 0 4 0;
#X connect 32 0 21 1;
#X connect 33 0 21 1;
#X connect 37 0 28 0;
#X connect 40 0 41 0;
#X connect 40 1 3 0;
#X connect 40 2 15 0;
#X connect 41 0 13 0;
#X connect 41 1 9 0;
#X connect 42 0 25 0;
#X connect 43 0 37 1;
