#N canvas 257 241 673 726 10;
#X declare -path chair;
#X declare -path abstractions;
#N canvas 203 461 664 369 rotaries 0;
#X floatatom 136 275 5 0 0 0 - - -;
#X obj 286 192 sqrt;
#X obj 286 213 sqrt;
#X obj 286 234 sqrt;
#X obj 286 255 clip 0.5 0.99;
#X floatatom 324 278 5 0 0 0 - - -;
#X obj 468 241 * 9000;
#X obj 468 262 + 500;
#X floatatom 479 283 5 0 0 0 - - -;
#X msg 468 198 1 \$1;
#X obj 468 219 -;
#X obj 286 300 s \$0-feedback;
#X obj 103 298 s \$0-fm-amount;
#X obj 103 232 * 2;
#X obj 103 119 vsl 15 35 0 1 0 0 empty empty empty 0 -9 0 10 -262144
-1 -1 283 1;
#X obj 130 119 vsl 15 35 0 1 0 0 empty empty empty 0 -9 0 10 -262144
-1 -1 2975 1;
#X obj 159 120 vsl 15 35 0 1 0 0 empty empty empty 0 -9 0 10 -262144
-1 -1 1558 1;
#X obj 468 306 s \$0-timbre;
#X obj 86 29 ctlin 14 1;
#X obj 154 29 ctlin 15 1;
#X obj 226 29 ctlin 16 1;
#X obj 92 59 / 127;
#X obj 157 63 / 127;
#X obj 223 65 / 127;
#X connect 1 0 2 0;
#X connect 2 0 3 0;
#X connect 3 0 4 0;
#X connect 4 0 5 0;
#X connect 4 0 11 0;
#X connect 6 0 7 0;
#X connect 7 0 8 0;
#X connect 7 0 17 0;
#X connect 9 0 10 0;
#X connect 10 0 6 0;
#X connect 13 0 12 0;
#X connect 13 0 0 0;
#X connect 14 0 13 0;
#X connect 15 0 1 0;
#X connect 16 0 9 0;
#X connect 18 0 21 0;
#X connect 19 0 22 0;
#X connect 20 0 23 0;
#X connect 21 0 14 0;
#X connect 22 0 15 0;
#X connect 23 0 16 0;
#X coords 0 -1 1 1 85 60 1 100 100;
#X restore 119 123 pd rotaries;
#X obj 426 257 s \$0-midinote;
#X obj 30 644 hip~ 4;
#X obj 151 327 s \$0-xy;
#X obj 151 499 f;
#X obj 178 500 + 1;
#X obj 151 477 sel 1;
#X obj 520 257 s \$0-touch;
#X obj 379 28 declare -path chair;
#X obj 29 681 dac~;
#X obj 205 500 % 8;
#X obj 124 428 r \$0-touch;
#X obj 32 356 chair.gain~;
#X obj 151 522 s \$0-current;
#X obj 30 603 chair.gain~;
#X text 378 401 In this example \, every touch down event iterates
to the next voice even when the hit is on the same pad., f 38;
#X obj 379 49 declare -path abstractions;
#X text 120 201 Rotaries:;
#X obj 30 580 clone karplus-strong 8 \$0;
#X text 377 451 This allows you to build up seperate parallel voices
of the same note., f 38;
#N canvas 394 276 323 306 instance-iteration 0;
#X obj 42 230 outlet;
#X obj 134 55 r \$0-midinote;
#X obj 42 56 r \$0-current;
#X obj 42 173 pack f f;
#X connect 1 0 3 1;
#X connect 2 0 3 0;
#X connect 3 0 0 0;
#X restore 177 553 pd instance-iteration;
#X obj 31 476 chair.touchgate~;
#X obj 124 452 t f f;
#X text 119 217 Distortion \, Feedback \, Timbre;
#X obj 227 377 tgl 15 0 empty \$0-active empty 17 7 0 10 -262144 -1
-1 1 1;
#X obj 32 402 chair.feedback-cancellation~ 50 1;
#N canvas 864 596 450 300 init 0;
#X obj 95 66 loadbang;
#X msg 96 93 1;
#X obj 96 116 s \$0-active;
#X connect 0 0 1 0;
#X connect 1 0 2 0;
#X restore 379 70 pd init;
#X floatatom 219 472 5 0 0 0 - - -;
#X obj 31 124 adc~;
#X obj 117 71 tickleusb~;
#X obj 150 263 ctlin 12 1;
#X obj 225 263 ctlin 13 1;
#X obj 151 288 pack f f;
#X obj 426 151 notein 1;
#X obj 471 181 sel 0;
#X msg 471 208 0;
#X msg 506 209 1;
#X connect 2 0 9 0;
#X connect 2 0 9 1;
#X connect 4 0 5 0;
#X connect 4 0 13 0;
#X connect 5 0 10 0;
#X connect 6 0 4 0;
#X connect 10 0 4 1;
#X connect 11 0 22 0;
#X connect 11 0 27 0;
#X connect 12 0 25 0;
#X connect 14 0 2 0;
#X connect 18 0 14 0;
#X connect 20 0 18 1;
#X connect 21 0 18 0;
#X connect 22 0 21 1;
#X connect 22 1 6 0;
#X connect 24 0 25 2;
#X connect 25 0 21 0;
#X connect 28 0 12 0;
#X connect 30 0 32 0;
#X connect 31 0 32 1;
#X connect 32 0 3 0;
#X connect 33 0 1 0;
#X connect 33 1 34 0;
#X connect 34 0 35 0;
#X connect 34 1 36 0;
#X connect 35 0 7 0;
#X connect 36 0 7 0;
