#N canvas 362 181 700 835 10;
#X declare -path chair;
#X declare -path abstractions;
#X obj 36 23 tgl 15 0 empty empty empty 17 7 0 10 -262144 -1 -1 0 1
;
#X floatatom 366 202 5 0 0 0 - - -;
#N canvas 75 683 664 369 rotaries 0;
#X obj 102 25 inlet;
#X floatatom 136 275 5 0 0 0 - - -;
#X obj 283 195 * 9000;
#X floatatom 294 237 5 0 0 0 - - -;
#X obj 285 168 s \$0-led1;
#X obj 467 169 s \$0-led2;
#X obj 110 169 s \$0-led0;
#X obj 103 119 vsl 15 35 0 1 0 0 empty empty empty 0 -9 0 10 -262144
-1 -1 142 1;
#X obj 102 49 route 0 1 2;
#X obj 130 119 vsl 15 35 0 1 0 0 empty empty empty 0 -9 0 10 -262144
-1 -1 2975 1;
#X obj 159 120 vsl 15 35 0 1 0 0 empty empty empty 0 -9 0 10 -262144
-1 -1 1558 1;
#X obj 354 7 loadbang;
#X obj 283 73 chair.rotary-limit-range 24;
#X obj 465 73 chair.rotary-limit-range 24;
#X msg 325 38 1;
#X msg 361 37 20;
#X msg 396 40 10;
#X obj 103 298 s \$0-fm-amount;
#X obj 283 216 + 0;
#X obj 467 220 * 1;
#X obj 102 73 chair.rotary-limit-range 48;
#X obj 103 232 * 0.499;
#X obj 283 304 s \$0-lp;
#X obj 467 301 s \$0-fm-freq;
#X connect 0 0 8 0;
#X connect 2 0 18 0;
#X connect 7 0 6 0;
#X connect 7 0 21 0;
#X connect 8 0 20 0;
#X connect 8 1 12 0;
#X connect 8 2 13 0;
#X connect 9 0 4 0;
#X connect 9 0 2 0;
#X connect 10 0 5 0;
#X connect 10 0 19 0;
#X connect 11 0 15 0;
#X connect 11 0 14 0;
#X connect 11 0 16 0;
#X connect 12 0 9 0;
#X connect 13 0 10 0;
#X connect 14 0 20 1;
#X connect 15 0 12 1;
#X connect 16 0 13 1;
#X connect 18 0 3 0;
#X connect 18 0 22 0;
#X connect 19 0 23 0;
#X connect 20 0 7 0;
#X connect 21 0 1 0;
#X connect 21 0 17 0;
#X coords 0 -1 1 1 85 60 1 100 100;
#X restore 130 189 pd rotaries;
#X obj 438 325 s \$0-midinote;
#X floatatom 455 231 5 0 0 0 - - -;
#X floatatom 454 301 5 0 0 0 - - -;
#X msg 55 49 info;
#X obj 40 659 hip~ 4;
#X obj 156 319 s \$0-xy;
#X obj 75 319 s \$0-touch;
#X obj 356 124 r \$0-xy;
#X obj 185 167 s \$0-updown;
#X obj 384 16 declare -path chair;
#N canvas 941 662 464 257 LED 0;
#X obj 69 185 outlet;
#X obj 35 33 r \$0-led0;
#X obj 144 33 r \$0-led1;
#X obj 243 36 r \$0-led2;
#X msg 35 68 led 0 \$1 0 \$1;
#X msg 144 71 led 1 0 \$1 \$1;
#X msg 243 74 led 2 \$1 \$1 0;
#X connect 1 0 4 0;
#X connect 2 0 5 0;
#X connect 3 0 6 0;
#X connect 4 0 0 0;
#X connect 5 0 0 0;
#X connect 6 0 0 0;
#X restore 67 81 pd LED;
#X obj 39 696 dac~;
#X obj 438 205 chair.hex-tuning;
#X obj 356 146 chair.hex-mapping;
#X obj 131 380 r \$0-touch;
#X obj 37 354 chair.gain~;
#X obj 356 228 s \$0-current;
#X obj 41 546 chair.gain~;
#X obj 567 230 r \$0-updown;
#X obj 438 253 chair.transpose-oct -2;
#X msg 551 167 g_major;
#X msg 607 167 b_minor;
#X obj 384 37 declare -path abstractions;
#X text 124 253 Rotaries:;
#X obj 75 139 route position rotary button;
#X obj 75 291 chair.capsense;
#N canvas 354 244 406 282 instance-iteration 0;
#X obj 42 165 outlet;
#X obj 134 55 r \$0-midinote;
#X obj 42 56 r \$0-current;
#X obj 42 108 pack f f;
#X connect 1 0 3 1;
#X connect 2 0 3 0;
#X connect 3 0 0 0;
#X restore 169 486 pd instance-iteration;
#X obj 38 406 chair.touchgate~;
#X obj 36 112 tickle~;
#X obj 234 412 tgl 15 0 empty \$0-active empty 17 7 0 10 -262144 -1
-1 1 1;
#X obj 356 178 t f f;
#N canvas 864 596 450 300 init 0;
#X obj 95 66 loadbang;
#X msg 96 93 1;
#X obj 96 116 s \$0-active;
#X connect 0 0 1 0;
#X connect 1 0 2 0;
#X restore 385 60 pd init;
#X obj 94 662 hip~ 4;
#X obj 39 437 chair.feedback-cancellation~ 50 1;
#N canvas 0 50 450 300 (subpatch) 0;
#X array \$0-scope 1024 float 0;
#X coords 0 -1 1023 1 200 140 1 0 0;
#X restore 338 466 graph;
#X obj 130 601 tabwrite~ \$0-scope;
#X obj 130 577 metro 150;
#X obj 130 555 tgl 15 0 empty \$0-active empty 17 7 0 10 -262144 -1
-1 1 1;
#X obj 40 625 chair.chrismoore-reverb~ 2368 2368 2467 0.921 0.018;
#X obj 40 511 clone fm-karplus 14 \$0;
#X obj 471 141 loadbang;
#X msg 471 167 chromatic;
#X text 123 268 FM-amount \, Cut-off \, Fm-Freq;
#X connect 0 0 31 0;
#X connect 6 0 31 0;
#X connect 7 0 14 0;
#X connect 10 0 16 0;
#X connect 13 0 31 0;
#X connect 15 0 4 0;
#X connect 15 0 22 0;
#X connect 16 0 33 0;
#X connect 17 0 30 1;
#X connect 18 0 30 0;
#X connect 20 0 38 0;
#X connect 20 0 41 0;
#X connect 21 0 22 1;
#X connect 22 0 5 0;
#X connect 22 0 3 0;
#X connect 23 0 15 1;
#X connect 24 0 15 1;
#X connect 27 0 28 0;
#X connect 27 1 2 0;
#X connect 27 2 11 0;
#X connect 28 0 9 0;
#X connect 28 1 8 0;
#X connect 29 0 42 1;
#X connect 30 0 36 0;
#X connect 31 0 18 0;
#X connect 31 1 27 0;
#X connect 32 0 36 2;
#X connect 33 0 19 0;
#X connect 33 0 1 0;
#X connect 33 1 15 0;
#X connect 35 0 14 1;
#X connect 36 0 42 0;
#X connect 39 0 38 0;
#X connect 40 0 39 0;
#X connect 41 0 7 0;
#X connect 41 1 35 0;
#X connect 42 0 20 0;
#X connect 43 0 44 0;
#X connect 44 0 15 1;
#X coords 0 835 1 834 85 60 0;
