#N canvas 200 70 700 835 10;
#X declare -path chair;
#X declare -path abstractions;
#N canvas 75 509 664 369 rotaries 0;
#X floatatom 136 275 5 0 0 0 - - -;
#X obj 283 195 * 9000;
#X floatatom 294 237 5 0 0 0 - - -;
#X obj 285 168 s \$0-led1;
#X obj 467 169 s \$0-led2;
#X obj 110 169 s \$0-led0;
#X obj 103 119 vsl 15 35 0 1 0 0 empty empty empty 0 -9 0 10 -262144
-1 -1 1392 1;
#X obj 130 119 vsl 15 35 0 1 0 0 empty empty empty 0 -9 0 10 -262144
-1 -1 2035 1;
#X obj 159 120 vsl 15 35 0 1 0 0 empty empty empty 0 -9 0 10 -262144
-1 -1 1178 1;
#X obj 349 30 loadbang;
#X msg 320 61 1;
#X msg 356 60 20;
#X msg 391 63 10;
#X obj 103 298 s \$0-fm-amount;
#X obj 283 216 + 0;
#X obj 467 220 * 1;
#X obj 103 232 * 0.499;
#X obj 283 304 s \$0-lp;
#X obj 467 301 s \$0-fm-freq;
#X obj 86 29 ctlin 14 1;
#X obj 154 29 ctlin 15 1;
#X obj 226 29 ctlin 16 1;
#X obj 92 59 / 127;
#X obj 157 63 / 127;
#X obj 223 65 / 127;
#X connect 1 0 14 0;
#X connect 6 0 5 0;
#X connect 6 0 16 0;
#X connect 7 0 3 0;
#X connect 7 0 1 0;
#X connect 8 0 4 0;
#X connect 8 0 15 0;
#X connect 9 0 11 0;
#X connect 9 0 10 0;
#X connect 9 0 12 0;
#X connect 10 0 6 0;
#X connect 11 0 7 0;
#X connect 14 0 2 0;
#X connect 14 0 17 0;
#X connect 15 0 18 0;
#X connect 16 0 0 0;
#X connect 16 0 13 0;
#X connect 19 0 22 0;
#X connect 20 0 23 0;
#X connect 21 0 24 0;
#X connect 22 0 6 0;
#X connect 23 0 7 0;
#X connect 24 0 8 0;
#X coords 0 -1 1 1 85 60 1 100 100;
#X restore 37 26 pd rotaries;
#X obj 40 659 hip~ 4;
#X obj 384 16 declare -path chair;
#X obj 39 696 dac~;
#X obj 38 382 chair.gain~;
#X obj 41 546 chair.gain~;
#X obj 384 37 declare -path abstractions;
#X text 31 90 Rotaries:;
#N canvas 354 244 406 282 instance-iteration 0;
#X obj 42 165 outlet;
#X obj 134 55 r \$0-midinote;
#X obj 42 56 r \$0-current;
#X obj 42 108 pack f f;
#X connect 1 0 3 1;
#X connect 2 0 3 0;
#X connect 3 0 0 0;
#X restore 169 486 pd instance-iteration;
#X obj 234 412 tgl 15 0 empty \$0-active empty 17 7 0 10 -262144 -1
-1 1 1;
#N canvas 864 596 450 300 init 0;
#X obj 95 66 loadbang;
#X msg 96 93 1;
#X obj 96 116 s \$0-active;
#X connect 0 0 1 0;
#X connect 1 0 2 0;
#X restore 385 60 pd init;
#X obj 94 662 hip~ 4;
#X obj 39 437 chair.feedback-cancellation~ 50 1;
#N canvas 0 50 450 300 (subpatch) 0;
#X array \$0-scope 1024 float 0;
#X coords 0 -1 1023 1 200 140 1 0 0;
#X restore 338 466 graph;
#X obj 130 601 tabwrite~ \$0-scope;
#X obj 130 577 metro 150;
#X obj 130 555 tgl 15 0 empty \$0-active empty 17 7 0 10 -262144 -1
-1 1 1;
#X obj 40 625 chair.chrismoore-reverb~ 2368 2368 2467 0.921 0.018;
#X obj 40 511 clone fm-karplus 14 \$0;
#X text 30 105 FM-amount \, Cut-off \, Fm-Freq;
#X obj 38 351 adc~ 1;
#X obj 38 288 s \$0-midinote;
#X obj 65 263 s \$0-current;
#X obj 38 165 notein 1;
#X obj 38 188 stripnote;
#X obj 65 240 % 14;
#X obj 65 217 change;
#X connect 1 0 3 0;
#X connect 4 0 12 0;
#X connect 5 0 14 0;
#X connect 5 0 17 0;
#X connect 8 0 18 1;
#X connect 9 0 12 2;
#X connect 11 0 3 1;
#X connect 12 0 18 0;
#X connect 15 0 14 0;
#X connect 16 0 15 0;
#X connect 17 0 1 0;
#X connect 17 1 11 0;
#X connect 18 0 5 0;
#X connect 20 0 4 0;
#X connect 23 0 24 0;
#X connect 23 1 24 1;
#X connect 24 0 21 0;
#X connect 24 0 26 0;
#X connect 25 0 22 0;
#X connect 26 0 25 0;
#X coords 0 835 1 834 85 60 0;
