#N canvas 631 307 752 727 10;
#X declare -path chair;
#X declare -path abstractions;
#X obj 31 35 tgl 15 0 empty empty empty 17 7 0 10 -262144 -1 -1 1 1
;
#X floatatom 497 301 5 0 0 0 - - -;
#N canvas 1024 181 664 365 rotaries 1;
#X obj 103 25 inlet;
#X floatatom 136 275 5 0 0 0 - - -;
#X obj 286 192 sqrt;
#X obj 286 213 sqrt;
#X obj 286 234 sqrt;
#X obj 286 255 clip 0.5 0.99;
#X floatatom 324 278 5 0 0 0 - - -;
#X obj 468 241 * 9000;
#X obj 468 262 + 500;
#X floatatom 479 283 5 0 0 0 - - -;
#X msg 468 198 1 \$1;
#X obj 468 219 -;
#X obj 285 168 s \$0-led1;
#X obj 467 169 s \$0-led2;
#X obj 110 169 s \$0-led0;
#X obj 286 300 s \$0-feedback;
#X obj 103 298 s \$0-fm-amount;
#X obj 103 232 * 2;
#X obj 103 119 vsl 15 35 0 1 0 0 empty empty empty 0 -9 0 10 -262144
-1 -1 142 1;
#X obj 103 49 route 0 1 2;
#X obj 130 119 vsl 15 35 0 1 0 0 empty empty empty 0 -9 0 10 -262144
-1 -1 1842 1;
#X obj 159 120 vsl 15 35 0 1 0 0 empty empty empty 0 -9 0 10 -262144
-1 -1 142 1;
#X obj 468 306 s \$0-timbre;
#X obj 278 7 loadbang;
#X obj 283 73 chair.rotary-limit-range 24;
#X msg 322 38 12;
#X obj 103 73 chair.rotary-limit-range 24;
#X obj 465 73 chair.rotary-limit-range 24;
#X msg 278 37 1;
#X msg 379 38 10;
#X connect 0 0 19 0;
#X connect 2 0 3 0;
#X connect 3 0 4 0;
#X connect 4 0 5 0;
#X connect 5 0 6 0;
#X connect 5 0 15 0;
#X connect 7 0 8 0;
#X connect 8 0 9 0;
#X connect 8 0 22 0;
#X connect 10 0 11 0;
#X connect 11 0 7 0;
#X connect 17 0 16 0;
#X connect 17 0 1 0;
#X connect 18 0 17 0;
#X connect 18 0 14 0;
#X connect 19 0 26 0;
#X connect 19 1 24 0;
#X connect 19 2 27 0;
#X connect 20 0 2 0;
#X connect 20 0 12 0;
#X connect 21 0 10 0;
#X connect 21 0 13 0;
#X connect 23 0 25 0;
#X connect 23 0 28 0;
#X connect 23 0 29 0;
#X connect 24 0 20 0;
#X connect 25 0 24 1;
#X connect 26 0 18 0;
#X connect 27 0 21 0;
#X connect 28 0 26 1;
#X connect 29 0 27 1;
#X coords 0 -1 1 1 85 60 1 100 100;
#X restore 70 210 pd rotaries;
#X msg 50 61 info;
#X obj 32 618 hip~ 4;
#X obj 261 242 s \$0-xy;
#X obj 180 241 s \$0-touch;
#X obj 485 249 r \$0-xy;
#X obj 103 184 s \$0-updown;
#X obj 468 29 declare -path chair;
#N canvas 2698 771 676 343 LED 0;
#X obj 69 185 outlet;
#X obj 35 33 r \$0-led0;
#X obj 144 33 r \$0-led1;
#X obj 243 28 r \$0-led2;
#X msg 35 96 led 0 \$1 0 0;
#X msg 144 99 led 1 0 \$1 0;
#X msg 243 99 led 2 0 0 \$1;
#X obj 35 67 change;
#X obj 144 65 change;
#X obj 243 63 change;
#X connect 1 0 7 0;
#X connect 2 0 8 0;
#X connect 3 0 9 0;
#X connect 4 0 0 0;
#X connect 5 0 0 0;
#X connect 6 0 0 0;
#X connect 7 0 4 0;
#X connect 8 0 5 0;
#X connect 9 0 6 0;
#X restore 62 93 pd LED;
#X obj 33 680 dac~;
#X obj 485 271 chair.hex-mapping;
#X obj 31 505 *~;
#X obj 47 436 r \$0-touch;
#X obj 47 482 line~;
#X obj 32 327 chair.gain~;
#X obj 485 347 s \$0-current;
#X text 511 145 In this variation we have one voice per pad (14 in
total) each voice keeps its tuning as long as the scale or octave isn't
changed., f 34;
#X obj 226 365 tgl 15 0 empty empty empty 17 7 0 10 -262144 -1 -1 0
1;
#X obj 310 313 until;
#X msg 310 290 14;
#X obj 310 343 f;
#X obj 341 343 + 1;
#X obj 310 259 t b b;
#X msg 359 313 0;
#X obj 310 494 pack f f;
#X floatatom 371 422 5 0 0 0 - - -;
#X obj 355 398 chair.hex-tuning;
#X obj 310 373 t f f;
#X obj 310 213 loadbang;
#X obj 421 217 t b a;
#X msg 421 160 g_major;
#X obj 32 578 chair.gain~;
#X msg 440 184 b_minor;
#X obj 485 323 change;
#X obj 355 446 chair.transpose-oct -2;
#X obj 484 398 r \$0-updown;
#X obj 468 51 declare -path abstractions;
#X text 67 274 Rotaries:;
#X text 66 290 Distorsion \, Feedback \, Timbre;
#X obj 32 538 clone karplus-strong_pads 14 \$0;
#X obj 33 648 chair.vfreeverb~;
#X msg 47 459 \$1 5;
#X obj 31 124 tickle~;
#X obj 31 390 chair.feedback-cancellation~ 50 0;
#X obj 180 216 chair.capsense;
#X obj 70 155 route rotary button position;
#X connect 0 0 44 0;
#X connect 3 0 44 0;
#X connect 4 0 42 0;
#X connect 4 0 42 1;
#X connect 7 0 12 0;
#X connect 10 0 44 0;
#X connect 12 0 1 0;
#X connect 12 0 35 0;
#X connect 13 0 41 0;
#X connect 14 0 43 0;
#X connect 15 0 13 1;
#X connect 16 0 45 0;
#X connect 19 0 45 2;
#X connect 20 0 22 0;
#X connect 21 0 20 0;
#X connect 22 0 23 0;
#X connect 22 0 29 0;
#X connect 23 0 22 1;
#X connect 24 0 21 0;
#X connect 24 1 25 0;
#X connect 25 0 22 1;
#X connect 26 0 41 1;
#X connect 28 0 27 0;
#X connect 28 0 36 0;
#X connect 29 0 26 0;
#X connect 29 1 28 0;
#X connect 30 0 24 0;
#X connect 31 0 24 0;
#X connect 31 1 28 1;
#X connect 32 0 31 0;
#X connect 33 0 4 0;
#X connect 34 0 31 0;
#X connect 35 0 17 0;
#X connect 36 0 26 1;
#X connect 36 1 24 0;
#X connect 37 0 36 1;
#X connect 41 0 33 0;
#X connect 42 0 11 0;
#X connect 42 1 11 1;
#X connect 43 0 15 0;
#X connect 44 0 16 0;
#X connect 44 1 47 0;
#X connect 45 0 13 0;
#X connect 46 0 6 0;
#X connect 46 1 5 0;
#X connect 47 0 2 0;
#X connect 47 1 8 0;
#X connect 47 2 46 0;
