#N canvas 2018 154 717 801 10;
#X declare -path chair;
#X declare -path abstractions;
#X obj 31 15 tgl 15 0 empty empty empty 17 7 0 10 -262144 -1 -1 1 1
;
#X obj 31 104 tickle~;
#X obj 70 202 route 0;
#X obj 70 131 route pos rotary button touch;
#X msg 50 41 info;
#X obj 70 223 s \$0-xy;
#X obj 228 159 s \$0-touch;
#X obj 155 159 s \$0-updown;
#X obj 468 29 declare -path chair;
#N canvas 2698 771 676 343 LED 0;
#X obj 69 185 outlet;
#X obj 35 14 r \$0-led0;
#X obj 144 14 r \$0-led1;
#X obj 243 9 r \$0-led2;
#X msg 35 68 led 0 \$1 0 0;
#X msg 144 71 led 1 0 \$1 0;
#X msg 243 71 led 2 0 0 \$1;
#X obj 35 40 change;
#X obj 144 40 change;
#X obj 243 39 change;
#X connect 1 0 7 0;
#X connect 2 0 8 0;
#X connect 3 0 9 0;
#X connect 4 0 0 0;
#X connect 5 0 0 0;
#X connect 6 0 0 0;
#X connect 7 0 4 0;
#X connect 8 0 5 0;
#X connect 9 0 6 0;
#X restore 62 73 pd LED;
#X obj 31 436 *~;
#X obj 47 367 r \$0-touch;
#X obj 47 413 line~;
#X obj 32 256 chair.gain~;
#X obj 196 318 tgl 15 0 empty empty empty 17 7 0 10 -262144 -1 -1 0
1;
#X obj 31 342 chair.feedback-cancellation~;
#X msg 47 390 \$1 5;
#X obj 468 51 declare -path abstractions;
#X obj 233 342 f;
#X obj 260 342 + 1;
#X obj 250 391 r \$0-pitch;
#X obj 268 416 r \$0-lop;
#X obj 285 440 r \$0-feedreal;
#X obj 303 465 r \$0-feedimag;
#X obj 320 491 r \$0-feedreal2;
#X obj 338 514 r \$0-feedimag2;
#N canvas 2493 664 647 368 mapping 0;
#X obj 150 297 expr $f1*cos($f2);
#X obj 266 297 expr $f1*sin($f2);
#X msg 150 154 1 \$1;
#X obj 150 180 -;
#X obj 93 182 + 1000;
#X msg 23 92 1 \$1;
#X obj 23 115 -;
#X obj 23 323 s \$0-pitch;
#X obj 93 324 s \$0-lop;
#X obj 150 324 s \$0-feedreal;
#X obj 266 323 s \$0-feedimag;
#X obj 93 62 sqrt;
#X obj 493 346 s \$0-feedimag2;
#X obj 380 349 s \$0-feedreal2;
#X obj 150 133 * 0.001;
#X obj 23 182 + 0.05;
#X obj 23 66 sqrt;
#X obj 93 133 * 6000;
#X obj 493 99 * 3.14159;
#X obj 266 91 * 3.14159;
#X obj 380 269 expr $f1*cos($f2);
#X obj 493 271 expr $f1*sin($f2);
#X obj 493 75 * -1;
#X obj 93 84 sqrt;
#X obj 23 137 * 0.3;
#X obj 493 17 r \$0-fundamental;
#X obj 266 14 r \$0-subharmonics;
#X obj 23 35 unpack f f;
#X obj 23 13 r \$0-xy;
#X obj 93 106 t f f;
#X floatatom 41 222 5 0 0 0 - - -;
#X obj 493 211 t b f b f;
#X obj 266 209 t b f b f;
#X obj 150 208 t f f f f;
#X obj 400 297 t b;
#X floatatom 434 302 5 0 0 0 - - -;
#X floatatom 492 301 5 0 0 0 - - -;
#X obj 534 295 t b;
#X msg 400 320 -0.8;
#X msg 534 318 0.8;
#X connect 0 0 9 0;
#X connect 1 0 10 0;
#X connect 2 0 3 0;
#X connect 3 0 33 0;
#X connect 4 0 8 0;
#X connect 5 0 6 0;
#X connect 6 0 24 0;
#X connect 11 0 23 0;
#X connect 14 0 2 0;
#X connect 15 0 30 0;
#X connect 15 0 7 0;
#X connect 16 0 5 0;
#X connect 17 0 4 0;
#X connect 18 0 31 0;
#X connect 19 0 32 0;
#X connect 20 0 34 0;
#X connect 20 0 13 0;
#X connect 21 0 36 0;
#X connect 21 0 37 0;
#X connect 22 0 18 0;
#X connect 23 0 29 0;
#X connect 24 0 15 0;
#X connect 25 0 22 0;
#X connect 26 0 19 0;
#X connect 27 0 16 0;
#X connect 27 1 11 0;
#X connect 28 0 27 0;
#X connect 29 0 17 0;
#X connect 29 1 14 0;
#X connect 31 0 20 0;
#X connect 31 1 20 1;
#X connect 31 2 21 0;
#X connect 31 3 21 1;
#X connect 32 0 0 0;
#X connect 32 1 0 1;
#X connect 32 2 1 0;
#X connect 32 3 1 1;
#X connect 33 0 0 0;
#X connect 33 1 1 0;
#X connect 33 2 20 0;
#X connect 33 3 21 0;
#X connect 34 0 38 0;
#X connect 36 0 12 0;
#X connect 37 0 39 0;
#X restore 229 39 pd mapping;
#X obj 287 342 % 14;
#X obj 233 313 sel 1;
#X obj 233 291 r \$0-touch;
#X text 342 118 In this example we ignore the hexagon pads and greate
one continuous surface for sonic exploration.;
#X text 119 244 Rotaries:;
#X obj 32 700 hip~ 4;
#X obj 31 730 dac~;
#X obj 33 633 chair.vfreeverb~;
#X obj 85 702 hip~ 4;
#X obj 32 662 chair.stereogain~;
#N canvas 2766 425 646 397 rotaries 0;
#X obj 103 6 inlet;
#X obj 285 180 s \$0-led1;
#X obj 474 179 s \$0-led2;
#X obj 112 173 s \$0-led0;
#X obj 103 119 vsl 15 35 0 1 0 0 empty empty empty 0 -9 0 10 -262144
-1 -1 0 1;
#X obj 103 30 route 0 1 2;
#X obj 130 119 vsl 15 35 0 1 0 0 empty empty empty 0 -9 0 10 -262144
-1 -1 142 1;
#X obj 159 119 vsl 15 35 0 1 0 0 empty empty empty 0 -9 0 10 -262144
-1 -1 425 1;
#X obj 103 73 chair.rotary-limit-range 24;
#X obj 283 73 chair.rotary-limit-range 24;
#X obj 465 73 chair.rotary-limit-range 24;
#X obj 241 340 s \$0-roomsize;
#X obj 400 334 s \$0-subharmonics;
#X obj 103 340 s \$0-fundamental;
#X connect 0 0 5 0;
#X connect 4 0 3 0;
#X connect 4 0 13 0;
#X connect 5 0 8 0;
#X connect 5 1 9 0;
#X connect 5 2 10 0;
#X connect 6 0 1 0;
#X connect 6 0 11 0;
#X connect 7 0 2 0;
#X connect 7 0 12 0;
#X connect 8 0 4 0;
#X connect 9 0 6 0;
#X connect 10 0 7 0;
#X coords 0 -1 1 1 85 60 1 100 100;
#X restore 121 181 pd rotaries;
#X obj 92 597 r \$0-roomsize;
#X obj 32 597 *~ 0.3;
#X obj 32 569 clone karplus-double-complex 14 \$0;
#X obj 249 368 s \$0-current;
#X obj 485 739 s \$0-detune;
#X obj 427 577 r \$0-xy;
#X obj 427 622 chair.gesture;
#X obj 502 596 r \$0-touch;
#X obj 427 648 unpack f f f f;
#X obj 485 687 * 59;
#X floatatom 579 741 5 0 0 0 - - -;
#X floatatom 189 423 5 0 0 0 - - -;
#X obj 485 708 + 10;
#X text 118 260 Fundamental \, Roomsize \, Subharmonics;
#X obj 233 542 pack f f f f f f f;
#X connect 0 0 1 0;
#X connect 1 0 13 0;
#X connect 1 1 3 0;
#X connect 2 0 5 0;
#X connect 3 0 2 0;
#X connect 3 1 37 0;
#X connect 3 2 7 0;
#X connect 3 3 6 0;
#X connect 4 0 1 0;
#X connect 9 0 1 0;
#X connect 10 0 40 0;
#X connect 11 0 16 0;
#X connect 12 0 10 1;
#X connect 13 0 15 0;
#X connect 14 0 15 1;
#X connect 15 0 10 0;
#X connect 16 0 12 0;
#X connect 18 0 19 0;
#X connect 18 0 41 0;
#X connect 18 0 49 0;
#X connect 18 0 52 0;
#X connect 19 0 27 0;
#X connect 20 0 52 1;
#X connect 21 0 52 2;
#X connect 22 0 52 3;
#X connect 23 0 52 4;
#X connect 24 0 52 5;
#X connect 25 0 52 6;
#X connect 27 0 18 1;
#X connect 28 0 18 0;
#X connect 29 0 28 0;
#X connect 32 0 33 0;
#X connect 34 0 36 0;
#X connect 34 1 36 1;
#X connect 35 0 33 1;
#X connect 36 0 32 0;
#X connect 36 1 35 0;
#X connect 38 0 34 2;
#X connect 39 0 34 0;
#X connect 39 0 34 1;
#X connect 40 0 39 0;
#X connect 43 0 44 0;
#X connect 44 0 46 0;
#X connect 45 0 44 1;
#X connect 46 2 47 0;
#X connect 47 0 50 0;
#X connect 50 0 42 0;
#X connect 50 0 48 0;
#X connect 52 0 40 1;
