#N canvas 994 329 926 716 10;
#X declare -path chair;
#X declare -path abstractions;
#X obj 31 15 tgl 15 0 empty empty empty 17 7 0 10 -262144 -1 -1 0 1
;
#X obj 31 104 tickle~;
#N canvas 1155 62 646 397 rotaries 0;
#X obj 103 6 inlet;
#X obj 285 180 s \$0-led1;
#X obj 474 179 s \$0-led2;
#X obj 112 173 s \$0-led0;
#X obj 103 119 vsl 15 35 0 1 0 0 empty empty empty 0 -9 0 10 -262144
-1 -1 0 1;
#X obj 103 30 route 0 1 2;
#X obj 130 119 vsl 15 35 0 1 0 0 empty empty empty 0 -9 0 10 -262144
-1 -1 0 1;
#X obj 159 119 vsl 15 35 0 1 0 0 empty empty empty 0 -9 0 10 -262144
-1 -1 0 1;
#X obj 103 73 chair.rotary-limit-range 24;
#X obj 283 73 chair.rotary-limit-range 24;
#X obj 465 73 chair.rotary-limit-range 24;
#X obj 251 336 s \$0-detune;
#X obj 400 334 s \$0-subharmonics;
#X obj 103 335 s \$0-distortion;
#X obj 103 276 * 100;
#X obj 251 259 * 59;
#X obj 251 280 + 1;
#X connect 0 0 5 0;
#X connect 4 0 3 0;
#X connect 4 0 14 0;
#X connect 5 0 8 0;
#X connect 5 1 9 0;
#X connect 5 2 10 0;
#X connect 6 0 1 0;
#X connect 6 0 15 0;
#X connect 7 0 2 0;
#X connect 7 0 12 0;
#X connect 8 0 4 0;
#X connect 9 0 6 0;
#X connect 10 0 7 0;
#X connect 14 0 13 0;
#X connect 15 0 16 0;
#X connect 16 0 11 0;
#X coords 0 -1 1 1 85 60 1 100 100;
#X restore 122 181 pd rotaries;
#X obj 70 202 route 0;
#X obj 70 131 route pos rotary button touch;
#X msg 50 41 info;
#X obj 31 317 lop~ 10000;
#X obj 31 296 hip~ 4;
#X obj 70 223 s \$0-xy;
#X obj 228 159 s \$0-touch;
#X obj 155 159 s \$0-updown;
#X obj 468 29 declare -path chair;
#N canvas 2698 771 676 343 LED 0;
#X obj 69 185 outlet;
#X obj 35 14 r \$0-led0;
#X obj 144 14 r \$0-led1;
#X obj 243 9 r \$0-led2;
#X msg 35 68 led 0 \$1 0 0;
#X msg 144 71 led 1 0 \$1 0;
#X msg 243 71 led 2 0 0 \$1;
#X obj 35 40 change;
#X obj 144 40 change;
#X obj 243 39 change;
#X connect 1 0 7 0;
#X connect 2 0 8 0;
#X connect 3 0 9 0;
#X connect 4 0 0 0;
#X connect 5 0 0 0;
#X connect 6 0 0 0;
#X connect 7 0 4 0;
#X connect 8 0 5 0;
#X connect 9 0 6 0;
#X restore 62 73 pd LED;
#X obj 31 683 dac~;
#X obj 31 436 *~;
#X obj 47 367 r \$0-touch;
#X obj 47 413 line~;
#X obj 32 256 chair.gain~;
#X obj 196 318 tgl 15 0 empty empty empty 17 7 0 10 -262144 -1 -1 0
1;
#X obj 31 342 chair.feedback-cancellation~;
#X obj 32 631 chair.gain~;
#X msg 47 390 \$1 5;
#X obj 468 51 declare -path abstractions;
#X obj 215 335 f;
#X obj 242 337 + 1;
#X obj 231 364 r \$0-pitch;
#X obj 248 389 r \$0-lop;
#X obj 332 513 r \$0-detune;
#X obj 265 413 r \$0-feedreal;
#X obj 281 438 r \$0-feedimag;
#X obj 298 464 r \$0-feedreal2;
#X obj 315 487 r \$0-feedimag2;
#X obj 32 597 *~ 0.5;
#N canvas 2349 665 647 368 mapping 0;
#X obj 150 297 expr $f1*cos($f2);
#X obj 266 297 expr $f1*sin($f2);
#X msg 150 154 1 \$1;
#X obj 150 180 -;
#X obj 93 182 + 1000;
#X msg 23 92 1 \$1;
#X obj 23 115 -;
#X obj 23 323 s \$0-pitch;
#X obj 93 324 s \$0-lop;
#X obj 150 324 s \$0-feedreal;
#X obj 266 323 s \$0-feedimag;
#X obj 93 62 sqrt;
#X obj 493 322 s \$0-feedimag2;
#X obj 380 321 s \$0-feedreal2;
#X obj 150 133 * 0.001;
#X obj 23 182 + 0.05;
#X obj 23 66 sqrt;
#X obj 93 133 * 6000;
#X obj 493 99 * 3.14159;
#X obj 266 91 * 3.14159;
#X obj 380 296 expr $f1*cos($f2);
#X obj 493 298 expr $f1*sin($f2);
#X obj 493 75 * -1;
#X obj 93 84 sqrt;
#X obj 23 137 * 0.3;
#X obj 493 17 r \$0-fundamental;
#X obj 266 14 r \$0-subharmonics;
#X obj 23 35 unpack f f;
#X obj 23 13 r \$0-xy;
#X obj 93 106 t f f;
#X floatatom 41 222 5 0 0 0 - - -, f 5;
#X obj 493 211 t b f b f;
#X obj 266 209 t b f b f;
#X obj 150 208 t f f f f;
#X connect 0 0 9 0;
#X connect 1 0 10 0;
#X connect 2 0 3 0;
#X connect 3 0 33 0;
#X connect 4 0 8 0;
#X connect 5 0 6 0;
#X connect 6 0 24 0;
#X connect 11 0 23 0;
#X connect 14 0 2 0;
#X connect 15 0 30 0;
#X connect 15 0 7 0;
#X connect 16 0 5 0;
#X connect 17 0 4 0;
#X connect 18 0 31 0;
#X connect 19 0 32 0;
#X connect 20 0 13 0;
#X connect 21 0 12 0;
#X connect 22 0 18 0;
#X connect 23 0 29 0;
#X connect 24 0 15 0;
#X connect 25 0 22 0;
#X connect 26 0 19 0;
#X connect 27 0 16 0;
#X connect 27 1 11 0;
#X connect 28 0 27 0;
#X connect 29 0 17 0;
#X connect 29 1 14 0;
#X connect 31 0 20 0;
#X connect 31 1 20 1;
#X connect 31 2 21 0;
#X connect 31 3 21 1;
#X connect 32 0 0 0;
#X connect 32 1 0 1;
#X connect 32 2 1 0;
#X connect 32 3 1 1;
#X connect 33 0 0 0;
#X connect 33 1 1 0;
#X connect 33 2 20 0;
#X connect 33 3 21 0;
#X restore 229 57 pd mapping;
#N canvas 2076 690 362 286 init 0;
#X obj 22 14 loadbang;
#X obj 41 150 s \$0-detunehsl;
#X obj 61 91 s \$0-fundamentalhsl;
#X msg 61 66 0.15;
#X msg 22 172 0.5;
#X msg 41 119 2.5;
#X obj 22 199 s \$0-subharmonicshsl;
#X obj 22 39 t b b b;
#X connect 0 0 7 0;
#X connect 3 0 2 0;
#X connect 4 0 6 0;
#X connect 5 0 1 0;
#X connect 7 0 4 0;
#X connect 7 1 5 0;
#X connect 7 2 3 0;
#X restore 229 34 pd init;
#X floatatom 524 520 8 0 0 0 - - -, f 8;
#X obj 527 500 hsl 128 15 0 1 0 0 empty \$0-fundamentalhsl empty -2
-8 0 10 -262144 -1 -1 1905 1;
#X obj 524 544 s \$0-fundamental;
#X obj 524 279 r \$0-updown;
#X obj 524 457 / 5;
#X obj 524 426 clip 1 5;
#X obj 524 478 - 0.1;
#X obj 269 337 % 14;
#X obj 215 306 sel 1;
#X obj 215 284 r \$0-touch;
#X obj 524 310 route up down;
#X obj 524 334 sel 1;
#X obj 584 336 sel 1;
#X obj 524 396 f;
#X obj 553 396 + 1;
#X obj 583 396 f;
#X obj 613 396 - 1;
#X obj 555 456 s \$0-recurs;
#X obj 610 359 r \$0-recurs;
#X obj 524 365 bng 15 250 50 0 empty empty empty 17 7 0 10 -262144
-1 -1;
#X obj 584 363 bng 15 250 50 0 empty empty empty 17 7 0 10 -262144
-1 -1;
#X obj 215 542 pack f f f f f f f f;
#X obj 32 569 clone karplus-double-complex 14;
#X text 342 118 In this example we ignore the hexagon pads and greate
one continuous surface for sonic exploration.;
#X text 119 244 Rotaries:;
#X text 118 260 Distorsion \, Detune \, Subharmonics;
#X connect 0 0 1 0;
#X connect 1 0 17 0;
#X connect 1 1 4 0;
#X connect 3 0 8 0;
#X connect 4 0 3 0;
#X connect 4 1 2 0;
#X connect 4 2 10 0;
#X connect 4 3 9 0;
#X connect 5 0 1 0;
#X connect 6 0 19 0;
#X connect 7 0 6 0;
#X connect 12 0 1 0;
#X connect 14 0 57 0;
#X connect 15 0 21 0;
#X connect 16 0 14 1;
#X connect 17 0 7 0;
#X connect 18 0 19 1;
#X connect 19 0 14 0;
#X connect 20 0 13 0;
#X connect 20 0 13 1;
#X connect 21 0 16 0;
#X connect 23 0 24 0;
#X connect 23 0 56 0;
#X connect 24 0 42 0;
#X connect 25 0 56 1;
#X connect 26 0 56 2;
#X connect 27 0 56 7;
#X connect 28 0 56 3;
#X connect 29 0 56 4;
#X connect 30 0 56 5;
#X connect 31 0 56 6;
#X connect 32 0 20 0;
#X connect 35 0 37 0;
#X connect 36 0 35 0;
#X connect 38 0 45 0;
#X connect 39 0 41 0;
#X connect 40 0 39 0;
#X connect 40 0 52 0;
#X connect 41 0 36 0;
#X connect 42 0 23 1;
#X connect 43 0 23 0;
#X connect 44 0 43 0;
#X connect 45 0 46 0;
#X connect 45 1 47 0;
#X connect 46 0 54 0;
#X connect 47 0 55 0;
#X connect 48 0 49 0;
#X connect 49 0 48 1;
#X connect 49 0 40 0;
#X connect 50 0 51 0;
#X connect 51 0 50 1;
#X connect 51 0 40 0;
#X connect 53 0 50 1;
#X connect 53 0 48 1;
#X connect 54 0 48 0;
#X connect 55 0 50 0;
#X connect 56 0 57 1;
#X connect 57 0 32 0;
