#N canvas 584 189 717 801 10;
#X declare -path chair;
#X declare -path abstractions;
#X obj 352 33 declare -path chair;
#X obj 39 262 chair.gain~;
#X obj 233 300 tgl 15 0 empty \$0-active empty 17 7 0 10 -262144 -1
-1 1 1;
#X obj 352 55 declare -path abstractions;
#X text 37 111 Rotaries:;
#X obj 38 547 hip~ 4;
#X obj 37 577 dac~;
#X obj 39 526 chair.vfreeverb~;
#X obj 83 548 hip~ 4;
#N canvas 462 236 646 397 rotaries 0;
#X obj 103 119 vsl 15 35 0 1 0 0 empty empty empty 0 -9 0 10 -262144
-1 -1 2008 1;
#X obj 130 119 vsl 15 35 0 1 0 0 empty empty empty 0 -9 0 10 -262144
-1 -1 1928 1;
#X obj 159 119 vsl 15 35 0 1 0 0 empty empty empty 0 -9 0 10 -262144
-1 -1 964 1;
#X obj 241 340 s \$0-roomsize;
#X obj 400 334 s \$0-subharmonics;
#X obj 103 340 s \$0-fundamental;
#X msg 218 37 18;
#X msg 267 35 5;
#X obj 233 15 loadbang;
#X msg 313 34 6;
#X obj 32 15 ctlin 14;
#X obj 32 40 / 127;
#X obj 95 39 / 127;
#X obj 156 39 / 127;
#X obj 95 14 ctlin 15;
#X obj 156 14 ctlin 16;
#X connect 0 0 5 0;
#X connect 1 0 3 0;
#X connect 2 0 4 0;
#X connect 6 0 11 0;
#X connect 7 0 12 0;
#X connect 8 0 6 0;
#X connect 8 0 7 0;
#X connect 8 0 9 0;
#X connect 9 0 13 0;
#X connect 10 0 11 0;
#X connect 11 0 0 0;
#X connect 12 0 1 0;
#X connect 13 0 2 0;
#X connect 14 0 12 0;
#X connect 15 0 13 0;
#X coords 0 -1 1 1 85 60 1 100 100;
#X restore 38 37 pd rotaries;
#X obj 85 501 r \$0-roomsize;
#X obj 38 409 *~ 0.3;
#X obj 351 634 s \$0-detune;
#X obj 351 437 r \$0-xy;
#X obj 351 465 chair.gesture;
#X obj 426 439 r \$0-touch;
#X obj 351 491 unpack f f f f;
#X text 36 127 Fundamental \, Roomsize \, Subharmonics;
#X obj 351 589 * -59;
#X obj 351 610 + 80;
#X obj 38 382 clone karplus-double-complex 5 \$0;
#X floatatom 486 545 5 0 0 0 - - -;
#X floatatom 372 563 5 0 0 0 - - -;
#X floatatom 391 544 5 0 0 0 - - -;
#X floatatom 429 537 5 0 0 0 - - -;
#X obj 38 446 chair.gain~;
#X text 342 118 In this example we ignore the hexagon pads and create
one continuous surface for sonic exploration.;
#X obj 38 323 chair.feedback-cancellation~ 50 1;
#N canvas 1202 590 450 300 init 0;
#X obj 82 37 loadbang;
#X msg 82 60 1;
#X obj 82 83 s \$0-active;
#X connect 0 0 1 0;
#X connect 1 0 2 0;
#X restore 353 77 pd init;
#X obj 352 285 f;
#X obj 379 286 + 1;
#X obj 352 343 s \$0-current;
#X obj 352 207 notein 1;
#X obj 39 213 adc~ 1;
#X obj 406 286 % 5;
#N canvas 4 121 450 300 position 0;
#X obj 36 140 s \$0-xy;
#X obj 36 17 ctlin 12;
#X obj 107 17 ctlin 13;
#X obj 36 115 pack 0 0;
#X obj 103 74 t b f;
#X obj 36 49 / 127;
#X obj 107 48 / 127;
#X connect 1 0 5 0;
#X connect 2 0 6 0;
#X connect 3 0 0 0;
#X connect 4 0 3 0;
#X connect 4 1 3 1;
#X connect 5 0 3 0;
#X connect 6 0 4 0;
#X restore 351 380 pd position;
#N canvas 793 462 647 416 mapping 0;
#X obj 150 297 expr $f1*cos($f2);
#X obj 266 297 expr $f1*sin($f2);
#X msg 150 154 1 \$1;
#X obj 150 180 -;
#X obj 93 182 + 1000;
#X msg 23 92 1 \$1;
#X obj 23 115 -;
#X obj 23 323 s \$0-pitch;
#X obj 93 324 s \$0-lop;
#X obj 150 324 s \$0-feedreal;
#X obj 266 323 s \$0-feedimag;
#X obj 93 62 sqrt;
#X obj 493 324 s \$0-feedimag2;
#X obj 380 325 s \$0-feedreal2;
#X obj 150 133 * 0.001;
#X obj 23 182 + 0.05;
#X obj 23 66 sqrt;
#X obj 93 133 * 6000;
#X obj 493 99 * 3.14159;
#X obj 266 91 * 3.14159;
#X obj 380 296 expr $f1*cos($f2);
#X obj 493 298 expr $f1*sin($f2);
#X obj 493 75 * -1;
#X obj 93 84 sqrt;
#X obj 23 137 * 0.3;
#X obj 493 17 r \$0-fundamental;
#X obj 266 14 r \$0-subharmonics;
#X obj 23 35 unpack f f;
#X obj 23 13 r \$0-xy;
#X obj 93 106 t f f;
#X obj 493 211 t b f b f;
#X obj 266 209 t b f b f;
#X obj 150 208 t f f f f;
#X connect 0 0 9 0;
#X connect 1 0 10 0;
#X connect 2 0 3 0;
#X connect 3 0 32 0;
#X connect 4 0 8 0;
#X connect 5 0 6 0;
#X connect 6 0 24 0;
#X connect 11 0 23 0;
#X connect 14 0 2 0;
#X connect 15 0 7 0;
#X connect 16 0 5 0;
#X connect 17 0 4 0;
#X connect 18 0 30 0;
#X connect 19 0 31 0;
#X connect 20 0 13 0;
#X connect 21 0 12 0;
#X connect 22 0 18 0;
#X connect 23 0 29 0;
#X connect 24 0 15 0;
#X connect 25 0 22 0;
#X connect 26 0 19 0;
#X connect 27 0 16 0;
#X connect 27 1 11 0;
#X connect 28 0 27 0;
#X connect 29 0 17 0;
#X connect 29 1 14 0;
#X connect 30 0 20 0;
#X connect 30 1 20 1;
#X connect 30 2 21 0;
#X connect 30 3 21 1;
#X connect 31 0 0 0;
#X connect 31 1 0 1;
#X connect 31 2 1 0;
#X connect 31 3 1 1;
#X connect 32 0 0 0;
#X connect 32 1 1 0;
#X connect 32 2 20 0;
#X connect 32 3 21 0;
#X restore 351 403 pd mapping;
#X obj 352 232 stripnote;
#X obj 352 258 t b;
#X floatatom 368 315 5 0 0 0 - - -;
#X connect 1 0 27 0;
#X connect 2 0 27 2;
#X connect 5 0 6 0;
#X connect 7 0 5 0;
#X connect 7 1 8 0;
#X connect 8 0 6 1;
#X connect 10 0 7 2;
#X connect 10 0 7 4;
#X connect 11 0 25 0;
#X connect 13 0 14 0;
#X connect 14 0 16 0;
#X connect 15 0 14 1;
#X connect 16 0 18 0;
#X connect 16 0 22 0;
#X connect 16 1 23 0;
#X connect 16 2 24 0;
#X connect 16 3 21 0;
#X connect 18 0 19 0;
#X connect 19 0 12 0;
#X connect 20 0 11 0;
#X connect 25 0 7 0;
#X connect 25 0 7 1;
#X connect 27 0 20 0;
#X connect 29 0 30 0;
#X connect 29 0 31 0;
#X connect 29 0 39 0;
#X connect 30 0 34 0;
#X connect 32 0 37 0;
#X connect 32 1 37 1;
#X connect 33 0 1 0;
#X connect 34 0 29 1;
#X connect 37 0 38 0;
#X connect 38 0 29 0;
