#N canvas 640 305 747 720 10;
#X declare -path chair;
#X declare -path abstractions;
#X obj 66 31 tgl 15 0 empty empty empty 17 7 0 10 -262144 -1 -1 1 1
;
#X obj 66 91 tickle~;
#X msg 102 59 info;
#X obj 272 71 declare -path chair;
#X obj 272 93 declare -path abstractions;
#X obj 65 219 chair.gain~;
#X obj 107 119 route pos rotary touch;
#X obj 264 280 route 0;
#X obj 65 609 chair.gain~;
#X obj 64 696 dac~;
#X obj 64 661 hip~ 4;
#X obj 65 396 *~;
#X obj 236 153 s \$0-touch;
#X obj 90 326 r \$0-touch;
#X msg 90 346 \$1 3;
#X obj 90 368 line~;
#X obj 66 281 chair.feedback-cancellation~;
#X obj 185 257 tgl 15 0 empty empty empty 17 7 0 10 -262144 -1 -1 1
1;
#X obj 390 364 unpack f f;
#X obj 404 472 line~;
#X msg 403 441 \$1 20;
#X obj 461 473 line~;
#X msg 459 442 \$1 20;
#X floatatom 84 430 5 0 0 0 - - -;
#X obj 344 227 route 0 1 2;
#N canvas 59 430 880 689 nested-comb-patch 0;
#X obj 38 73 inlet~;
#X obj 385 74 inlet~;
#X obj 38 484 outlet~;
#X obj 38 169 +~;
#X obj 38 460 +~;
#X obj 802 12 block~ 1;
#X obj 116 206 delwrite~ \$0-outer 48000;
#X obj 269 207 delread4~ \$0-outer;
#X obj 284 319 delwrite~ \$0-inner 48000;
#X obj 397 371 delread4~ \$0-inner;
#X obj 268 248 *~, f 20;
#X obj 268 283 +~, f 44;
#X obj 268 371 *~;
#X obj 267 427 +~, f 22;
#X obj 531 427 *~;
#X obj 556 400 *~ -1;
#X obj 95 74 inlet~ gain;
#X obj 557 73 inlet~;
#X obj 743 74 inlet~ inner-delay;
#X obj 624 73 inlet~ outer-delay;
#X text 302 498 http://www.richarddudas.com/documents/ahn_dudas_icmc2013.pdf
;
#X obj 39 259 *~, f 10;
#X obj 768 129 samplerate~;
#X obj 768 108 loadbang;
#X obj 768 151 / 1000;
#X obj 599 173 /~ 48;
#X obj 706 192 /~ 48;
#X connect 0 0 3 0;
#X connect 1 0 10 1;
#X connect 3 0 6 0;
#X connect 3 0 21 0;
#X connect 4 0 2 0;
#X connect 7 0 10 0;
#X connect 9 0 14 0;
#X connect 9 0 13 1;
#X connect 10 0 11 0;
#X connect 11 0 8 0;
#X connect 11 0 12 0;
#X connect 12 0 13 0;
#X connect 13 0 4 1;
#X connect 13 0 3 1;
#X connect 14 0 11 1;
#X connect 15 0 14 1;
#X connect 16 0 21 1;
#X connect 17 0 12 1;
#X connect 17 0 15 0;
#X connect 18 0 26 0;
#X connect 19 0 25 0;
#X connect 21 0 4 0;
#X connect 22 0 24 0;
#X connect 23 0 22 0;
#X connect 24 0 25 1;
#X connect 24 0 26 1;
#X connect 25 0 7 0;
#X connect 26 0 9 0;
#X restore 65 511 pd nested-comb-patch;
#N canvas 933 430 696 683 nested-comb-code 0;
#X obj 330 36 inlet~;
#X obj 68 650 outlet~;
#X obj 68 605 +~, f 28;
#X obj 7 35 block~ 1;
#X obj 232 300 *~, f 17;
#X obj 232 446 +~, f 58;
#X obj 232 407 *~, f 31;
#X obj 231 340 +~, f 24;
#X obj 372 300 *~, f 18;
#X obj 476 214 *~ -1;
#X obj 179 38 inlet~ gain;
#X obj 414 37 inlet~;
#X text 270 634 http://www.richarddudas.com/documents/ahn_dudas_icmc2013.pdf
;
#X obj 67 563 *~, f 19;
#X obj 67 35 inlet~;
#X obj 489 35 inlet~ del2;
#X obj 579 35 inlet~ del1;
#X text 67 11 in1;
#X text 179 17 in2;
#X text 330 13 in3;
#X text 414 13 in4;
#X text 488 12 in5;
#X text 578 12 in6;
#X text 439 214 mul4;
#X text 343 300 mul5;
#X text 199 340 add8;
#X text 199 407 mul9;
#X text 197 447 add10;
#X text 200 301 mul7;
#X obj 67 498 +~;
#X text 29 498 add11;
#X text 27 564 mul12;
#N canvas 1367 923 200 150 read-del1 0;
#X obj 20 20 inlet~;
#X obj 20 120 outlet~;
#X obj 20 60 delread4~ \$0-del1;
#X connect 0 0 2 0;
#X connect 2 0 1 0;
#X restore 578 215 pd read-del1;
#N canvas 1078 801 200 150 read-del2 0;
#X obj 20 20 inlet~;
#X obj 20 120 outlet~;
#X obj 21 60 delread4~ \$0-del2;
#X connect 0 0 2 0;
#X connect 2 0 1 0;
#X restore 233 259 pd read-del2;
#N canvas 2249 775 200 150 write-del1 0;
#X obj 20 20 inlet~;
#X obj 30 60 delwrite~ \$0-del1 48000;
#X connect 0 0 1 0;
#X restore 249 374 pd write-del1;
#N canvas 2266 987 200 150 write-del2 0;
#X obj 20 20 inlet~;
#X obj 19 60 delwrite~ \$0-del2 48000;
#X connect 0 0 1 0;
#X restore 84 531 pd write-del2;
#X obj 606 81 samplerate~;
#X obj 606 60 loadbang;
#X obj 606 103 / 1000;
#X obj 489 147 /~ 48;
#X obj 579 148 /~ 48;
#X text 267 606 Jae-hyun Ahn \, Richard Dudas: Muaical Applications
of Nested Comb Filters for Inharmonic Resonator Effects. ICMC 2013
;
#X text 268 650 (Translated to Pd);
#X text 28 605 add13;
#X connect 0 0 4 1;
#X connect 2 0 1 0;
#X connect 4 0 7 0;
#X connect 5 0 29 1;
#X connect 5 0 2 1;
#X connect 6 0 5 0;
#X connect 7 0 6 0;
#X connect 7 0 34 0;
#X connect 8 0 7 1;
#X connect 9 0 8 1;
#X connect 10 0 13 1;
#X connect 11 0 9 0;
#X connect 11 0 6 1;
#X connect 13 0 2 0;
#X connect 14 0 29 0;
#X connect 15 0 39 0;
#X connect 16 0 40 0;
#X connect 29 0 13 0;
#X connect 29 0 35 0;
#X connect 32 0 8 0;
#X connect 32 0 5 1;
#X connect 33 0 4 0;
#X connect 36 0 38 0;
#X connect 37 0 36 0;
#X connect 38 0 39 1;
#X connect 38 0 40 1;
#X connect 39 0 33 0;
#X connect 40 0 32 0;
#X restore 363 519 pd nested-comb-code;
#X floatatom 510 424 5 0 0 0 - - -;
#X floatatom 502 453 5 0 0 0 - - -;
#X floatatom 379 328 5 0 0 0 - - -;
#X floatatom 541 324 5 0 0 0 - - -;
#X obj 390 390 * 900;
#X obj 444 390 * 900;
#X obj 397 417 + 1;
#X obj 451 416 + 1;
#X obj 64 566 *~;
#X obj 344 574 *~;
#X obj 425 555 tgl 15 0 empty empty empty 17 7 0 10 -262144 -1 -1 0
1;
#X floatatom 405 639 5 0 0 0 - - -;
#X obj 403 596 == 0;
#X obj 344 293 chair.rotary-limit-range 50;
#X obj 522 291 chair.rotary-limit-range 50;
#X connect 0 0 1 0;
#X connect 1 0 5 0;
#X connect 1 1 6 0;
#X connect 2 0 1 0;
#X connect 5 0 16 0;
#X connect 6 0 7 0;
#X connect 6 1 24 0;
#X connect 6 2 12 0;
#X connect 7 0 18 0;
#X connect 8 0 10 0;
#X connect 10 0 9 0;
#X connect 10 0 9 1;
#X connect 11 0 25 0;
#X connect 11 0 26 0;
#X connect 13 0 14 0;
#X connect 14 0 15 0;
#X connect 15 0 11 1;
#X connect 16 0 11 0;
#X connect 17 0 16 1;
#X connect 18 0 31 0;
#X connect 18 1 32 0;
#X connect 19 0 25 4;
#X connect 19 0 26 4;
#X connect 20 0 19 0;
#X connect 21 0 25 5;
#X connect 21 0 26 5;
#X connect 22 0 21 0;
#X connect 23 0 25 1;
#X connect 23 0 26 1;
#X connect 24 0 40 0;
#X connect 24 1 41 0;
#X connect 25 0 35 0;
#X connect 26 0 36 0;
#X connect 31 0 33 0;
#X connect 32 0 34 0;
#X connect 33 0 20 0;
#X connect 33 0 28 0;
#X connect 34 0 22 0;
#X connect 34 0 27 0;
#X connect 35 0 8 0;
#X connect 36 0 8 0;
#X connect 37 0 35 1;
#X connect 37 0 39 0;
#X connect 39 0 36 1;
#X connect 39 0 38 0;
#X connect 40 0 25 2;
#X connect 40 0 26 2;
#X connect 40 0 29 0;
#X connect 41 0 25 3;
#X connect 41 0 26 3;
#X connect 41 0 30 0;
