#N canvas 666 325 535 764 10;
#X declare -path chair;
#X declare -path abstractions;
#X obj 44 22 tgl 15 0 empty empty empty 17 7 0 10 -262144 -1 -1 1 1
;
#X obj 44 87 tickle~;
#X msg 68 39 info;
#X obj 349 38 declare -path chair;
#X obj 349 60 declare -path abstractions;
#X obj 43 215 chair.gain~;
#X obj 43 605 chair.gain~;
#X obj 42 692 dac~;
#X obj 42 657 hip~ 4;
#X obj 325 259 s \$0-touch;
#X obj 166 309 r \$0-touch;
#X obj 44 277 chair.feedback-cancellation~;
#X obj 209 254 tgl 15 0 empty \$0-active empty 17 7 0 10 -262144 -1
-1 1 1;
#X obj 406 295 unpack f f;
#X obj 222 484 line~;
#X msg 222 462 \$1 20;
#X obj 279 484 line~;
#X msg 279 462 \$1 20;
#X floatatom 65 480 3 0 10 1 gain - -;
#N canvas 933 430 696 683 nested-comb-code 0;
#X obj 330 36 inlet~;
#X obj 68 650 outlet~;
#X obj 68 605 +~, f 28;
#X obj 7 35 block~ 1;
#X obj 232 300 *~, f 17;
#X obj 232 446 +~, f 58;
#X obj 232 407 *~, f 31;
#X obj 231 340 +~, f 24;
#X obj 372 300 *~, f 18;
#X obj 476 214 *~ -1;
#X obj 179 38 inlet~ gain;
#X obj 414 37 inlet~;
#X text 270 634 http://www.richarddudas.com/documents/ahn_dudas_icmc2013.pdf
;
#X obj 67 563 *~, f 19;
#X obj 67 35 inlet~;
#X obj 489 35 inlet~ del2;
#X obj 579 35 inlet~ del1;
#X text 67 11 in1;
#X text 179 17 in2;
#X text 330 13 in3;
#X text 414 13 in4;
#X text 488 12 in5;
#X text 578 12 in6;
#X text 439 214 mul4;
#X text 343 300 mul5;
#X text 199 340 add8;
#X text 199 407 mul9;
#X text 197 447 add10;
#X text 200 301 mul7;
#X obj 67 498 +~;
#X text 29 498 add11;
#X text 27 564 mul12;
#N canvas 1367 923 200 150 read-del1 0;
#X obj 20 20 inlet~;
#X obj 20 120 outlet~;
#X obj 20 60 delread4~ \$0-del1;
#X connect 0 0 2 0;
#X connect 2 0 1 0;
#X restore 578 215 pd read-del1;
#N canvas 1078 801 200 150 read-del2 0;
#X obj 20 20 inlet~;
#X obj 20 120 outlet~;
#X obj 21 60 delread4~ \$0-del2;
#X connect 0 0 2 0;
#X connect 2 0 1 0;
#X restore 233 259 pd read-del2;
#N canvas 2249 775 200 150 write-del1 0;
#X obj 20 20 inlet~;
#X obj 30 60 delwrite~ \$0-del1 48000;
#X connect 0 0 1 0;
#X restore 249 374 pd write-del1;
#N canvas 2266 987 200 150 write-del2 0;
#X obj 20 20 inlet~;
#X obj 19 60 delwrite~ \$0-del2 48000;
#X connect 0 0 1 0;
#X restore 84 531 pd write-del2;
#X obj 606 81 samplerate~;
#X obj 606 60 loadbang;
#X obj 606 103 / 1000;
#X obj 489 147 /~ 48;
#X obj 579 148 /~ 48;
#X text 268 650 (Translated to Pd);
#X text 28 605 add13;
#X text 267 606 Jae-hyun Ahn \, Richard Dudas: Musical Applications
of Nested Comb Filters for Inharmonic Resonator Effects. ICMC 2013
;
#X connect 0 0 4 1;
#X connect 2 0 1 0;
#X connect 4 0 7 0;
#X connect 5 0 29 1;
#X connect 5 0 2 1;
#X connect 6 0 5 0;
#X connect 7 0 6 0;
#X connect 7 0 34 0;
#X connect 8 0 7 1;
#X connect 9 0 8 1;
#X connect 10 0 13 1;
#X connect 11 0 9 0;
#X connect 11 0 6 1;
#X connect 13 0 2 0;
#X connect 14 0 29 0;
#X connect 15 0 39 0;
#X connect 16 0 40 0;
#X connect 29 0 13 0;
#X connect 29 0 35 0;
#X connect 32 0 8 0;
#X connect 32 0 5 1;
#X connect 33 0 4 0;
#X connect 36 0 38 0;
#X connect 37 0 36 0;
#X connect 38 0 39 1;
#X connect 38 0 40 1;
#X connect 39 0 33 0;
#X connect 40 0 32 0;
#X restore 43 547 pd nested-comb-code;
#X floatatom 463 449 5 0 0 0 - - -;
#X floatatom 406 448 5 0 0 0 - - -;
#X floatatom 264 405 5 0 0 0 - - -;
#X floatatom 303 404 5 0 0 0 - - -;
#X obj 406 380 * 900;
#X obj 463 380 * 900;
#X obj 406 402 + 1;
#X obj 463 401 + 1;
#N canvas 87 742 664 365 rotaries 0;
#X obj 103 19 inlet;
#X obj 285 180 s \$0-led1;
#X obj 474 179 s \$0-led2;
#X obj 112 173 s \$0-led0;
#X obj 103 119 vsl 15 35 0 1 0 0 empty empty empty 0 -9 0 10 -262144
-1 -1 3264 1;
#X obj 103 43 route 0 1 2;
#X obj 130 119 vsl 15 35 0 1 0 0 empty empty empty 0 -9 0 10 -262144
-1 -1 3196 1;
#X obj 160 119 vsl 15 35 0 1 0 0 empty empty empty 0 -9 0 10 -262144
-1 -1 3400 1;
#X obj 435 0 loadbang;
#X obj 103 298 outlet;
#X obj 103 73 chair.rotary-limit-range 50;
#X obj 283 73 chair.rotary-limit-range 50;
#X obj 465 73 chair.rotary-limit-range 50;
#X obj 287 300 outlet;
#X obj 486 299 outlet;
#X obj 485 244 * 1400;
#X msg 435 29 48;
#X msg 383 29 46;
#X msg 473 28 30;
#X connect 0 0 5 0;
#X connect 4 0 3 0;
#X connect 4 0 9 0;
#X connect 5 0 10 0;
#X connect 5 1 11 0;
#X connect 5 2 12 0;
#X connect 6 0 1 0;
#X connect 6 0 13 0;
#X connect 7 0 2 0;
#X connect 7 0 15 0;
#X connect 8 0 16 0;
#X connect 8 0 18 0;
#X connect 8 0 17 0;
#X connect 10 0 4 0;
#X connect 11 0 6 0;
#X connect 12 0 7 0;
#X connect 15 0 14 0;
#X connect 16 0 11 1;
#X connect 17 0 10 1;
#X connect 18 0 12 1;
#X coords 0 -1 1 1 85 60 1 100 100;
#X restore 264 283 pd rotaries;
#X obj 65 436 loadbang;
#X msg 65 459 1;
#X floatatom 342 404 5 0 0 0 - - -;
#X obj 433 348 t f f, f 10;
#X text 180 128 Rotaries: coefficient1 \, coefficient2 \, delay-length-multiplicator
;
#N canvas 1104 738 676 343 LED 0;
#X obj 69 185 outlet;
#X obj 35 33 r \$0-led0;
#X obj 144 33 r \$0-led1;
#X obj 243 28 r \$0-led2;
#X msg 35 68 led 0 \$1 0 \$1;
#X msg 243 71 led 2 \$1 \$1 0;
#X msg 144 71 led 1 0 \$1 \$1;
#X connect 1 0 4 0;
#X connect 2 0 6 0;
#X connect 3 0 5 0;
#X connect 4 0 0 0;
#X connect 5 0 0 0;
#X connect 6 0 0 0;
#X restore 73 60 pd LED;
#X obj 264 212 route rotary position;
#X obj 325 238 chair.capsense;
#X obj 43 336 chair.touchgate~ 1 30;
#N canvas 1202 590 450 300 init 0;
#X obj 82 37 loadbang;
#X msg 82 60 1;
#X obj 82 83 s \$0-active;
#X connect 0 0 1 0;
#X connect 1 0 2 0;
#X restore 350 83 pd init;
#X connect 0 0 1 0;
#X connect 1 0 5 0;
#X connect 1 1 35 0;
#X connect 2 0 1 0;
#X connect 5 0 11 0;
#X connect 6 0 8 0;
#X connect 8 0 7 0;
#X connect 8 0 7 1;
#X connect 10 0 37 1;
#X connect 11 0 37 0;
#X connect 12 0 11 2;
#X connect 13 0 24 0;
#X connect 13 1 25 0;
#X connect 14 0 19 4;
#X connect 15 0 14 0;
#X connect 16 0 19 5;
#X connect 17 0 16 0;
#X connect 18 0 19 1;
#X connect 19 0 6 0;
#X connect 24 0 26 0;
#X connect 25 0 27 0;
#X connect 26 0 15 0;
#X connect 26 0 21 0;
#X connect 27 0 17 0;
#X connect 27 0 20 0;
#X connect 28 0 19 2;
#X connect 28 0 22 0;
#X connect 28 1 19 3;
#X connect 28 1 23 0;
#X connect 28 2 31 0;
#X connect 28 2 32 0;
#X connect 29 0 30 0;
#X connect 30 0 18 0;
#X connect 32 0 24 1;
#X connect 32 1 25 1;
#X connect 34 0 1 0;
#X connect 35 0 28 0;
#X connect 35 1 36 0;
#X connect 36 0 9 0;
#X connect 36 1 13 0;
#X connect 37 0 19 0;
