#N canvas 61 139 478 478 10;
#X declare -path ./abstractions;
#X declare -path ./chair;
#N canvas 417 210 646 397 rotaries 0;
#X obj 103 119 vsl 15 35 0 127 0 0 empty empty empty 0 -9 0 10 -262144
-1 -1 1660 1;
#X obj 130 119 vsl 15 35 0 127 0 0 empty empty empty 0 -9 0 10 -262144
-1 -1 2517 1;
#X obj 159 119 vsl 15 35 0 127 0 0 empty empty empty 0 -9 0 10 -262144
-1 -1 1928 1;
#X obj 40 240 s \$0-param-1;
#X obj 142 241 s \$0-param-2;
#X obj 244 241 s \$0-param-3;
#X obj 65 38 ctlin 14;
#X obj 130 38 ctlin 15;
#X obj 202 38 ctlin 16;
#X connect 0 0 3 0;
#X connect 1 0 4 0;
#X connect 2 0 5 0;
#X connect 6 0 0 0;
#X connect 7 0 1 0;
#X connect 8 0 2 0;
#X coords 0 -1 1 1 85 60 1 100 100;
#X restore 40 89 pd rotaries;
#X obj 39 308 chair.gain~;
#X obj 39 401 dac~;
#N canvas 545 23 679 855 snare 0;
#X obj 45 26 inlet~;
#X obj 163 785 *~ 0.98;
#X obj 46 806 +~;
#X obj 74 833 delwrite~ \$0-del 200;
#X obj 47 865 outlet~;
#X obj 239 633 +~;
#X obj 240 553 noise~;
#X obj 241 264 noise~;
#X obj 163 359 allp~ 2.2;
#X obj 163 423 allp~ 2.5;
#X obj 162 755 *~ -1;
#X obj 241 287 lop~ 100;
#X obj 240 576 lop~ 500;
#X obj 240 597 *~ 0.01;
#X obj 225 725 r \$0-highdamp;
#X obj 162 726 lop~ 7000;
#X obj 297 579 / 100;
#X obj 162 332 allp4~ 6.53;
#X obj 194 185 noise~;
#X obj 193 254 +~;
#X obj 258 215 r \$0-param-1;
#X obj 258 238 / 10;
#X obj 241 310 +~ 1;
#X obj 193 231 *~ 0.5;
#X obj 231 359 sig~ 0.5;
#X obj 194 207 lop~ 2000;
#X obj 230 422 sig~ 0.14;
#X obj 281 70 r \$0-param-2;
#X obj 281 141 * 15000;
#X obj 281 164 + 1000;
#X obj 281 93 / 100;
#X obj 281 116 pow 3;
#X obj 297 602 expr 1-$f1;
#X obj 297 447 r \$0-param-2;
#X obj 297 470 / 100;
#X obj 297 492 pow 3;
#X obj 297 512 expr 1-$f1;
#X obj 297 535 * 0.25;
#X obj 297 558 + 0.75;
#X obj 320 676 r \$0-param-2;
#X obj 320 698 / 100;
#X obj 320 720 pow 3;
#X obj 320 740 expr 1-$f1;
#X obj 320 784 + 0.7;
#X obj 320 762 * 0.275;
#X obj 164 692 hip~;
#X obj 185 671 r \$0-lowdamp;
#X obj 242 333 *~ 0.75;
#X obj 161 158 delread4~ \$0-del;
#X obj 162 130 +~;
#X obj 193 -16 chair.distance;
#X obj 193 -57 r \$0-xy;
#X msg 274 -37 0.5 0.5;
#X obj 193 26 pow 2;
#X obj 193 5 / 0.72;
#X obj 193 49 expr 1-$f1;
#X obj 193 70 + 2;
#X obj 274 -59 loadbang;
#X obj 411 507 / 100;
#X obj 411 530 moses 0.5;
#X obj 464 551 - 0.5;
#X obj 411 553 * 2;
#X obj 464 574 * 2;
#X obj 464 597 pow 2;
#X obj 464 619 * 200;
#X obj 411 575 sqrt;
#X obj 411 484 r \$0-param-3;
#X obj 409 619 + 2000;
#X obj 409 596 * 7000;
#X obj 45 50 chair.dc-offset~;
#X obj 139 102 *~ 0.5;
#X obj 138 79 lop~ 20;
#X text 410 841 philipp schmalfuß \, 2018;
#X obj 438 113 block~ 1;
#X obj 163 635 allp4~ 4;
#X connect 0 0 69 0;
#X connect 1 0 2 1;
#X connect 2 0 3 0;
#X connect 2 0 4 0;
#X connect 5 0 74 2;
#X connect 6 0 12 0;
#X connect 7 0 11 0;
#X connect 8 0 9 0;
#X connect 9 0 74 0;
#X connect 10 0 1 0;
#X connect 11 0 22 0;
#X connect 12 0 13 0;
#X connect 13 0 5 0;
#X connect 14 0 15 1;
#X connect 15 0 10 0;
#X connect 16 0 32 0;
#X connect 16 0 13 1;
#X connect 17 0 8 0;
#X connect 18 0 25 0;
#X connect 19 0 17 1;
#X connect 20 0 21 0;
#X connect 21 0 19 1;
#X connect 22 0 47 0;
#X connect 23 0 19 0;
#X connect 24 0 8 2;
#X connect 25 0 23 0;
#X connect 26 0 9 2;
#X connect 27 0 30 0;
#X connect 28 0 29 0;
#X connect 29 0 25 1;
#X connect 30 0 31 0;
#X connect 31 0 28 0;
#X connect 32 0 5 1;
#X connect 33 0 34 0;
#X connect 34 0 35 0;
#X connect 35 0 36 0;
#X connect 36 0 37 0;
#X connect 37 0 38 0;
#X connect 38 0 16 0;
#X connect 39 0 40 0;
#X connect 40 0 41 0;
#X connect 41 0 42 0;
#X connect 42 0 44 0;
#X connect 43 0 1 1;
#X connect 44 0 43 0;
#X connect 45 0 15 0;
#X connect 46 0 45 1;
#X connect 47 0 17 2;
#X connect 48 0 17 0;
#X connect 49 0 48 0;
#X connect 50 0 54 0;
#X connect 51 0 50 0;
#X connect 52 0 50 1;
#X connect 53 0 55 0;
#X connect 54 0 53 0;
#X connect 55 0 56 0;
#X connect 56 0 49 1;
#X connect 57 0 52 0;
#X connect 58 0 59 0;
#X connect 59 0 61 0;
#X connect 59 1 60 0;
#X connect 60 0 62 0;
#X connect 61 0 65 0;
#X connect 62 0 63 0;
#X connect 63 0 64 0;
#X connect 64 0 45 1;
#X connect 65 0 68 0;
#X connect 66 0 58 0;
#X connect 67 0 15 1;
#X connect 68 0 67 0;
#X connect 69 0 2 0;
#X connect 69 1 71 0;
#X connect 70 0 49 0;
#X connect 71 0 70 0;
#X connect 74 0 45 0;
#X restore 39 272 pd snare;
#N canvas 4 61 450 300 init 0;
#X obj 235 49 loadbang;
#X msg 131 93 0.75;
#X obj 131 116 s \$0-shake;
#X msg 201 102 -20;
#X obj 201 125 s \$0-sensitivity;
#X obj 306 128 s \$0-activate;
#X msg 309 102 1;
#X connect 0 0 1 0;
#X connect 0 0 3 0;
#X connect 0 0 6 0;
#X connect 1 0 2 0;
#X connect 3 0 4 0;
#X connect 6 0 5 0;
#X restore 189 128 pd init;
#X text 37 163 rotaries: 1: drumhead tuning \, 2: snare carpet \, 3:
filter;
#X obj 190 85 declare -path ./abstractions;
#X obj 190 106 declare -path ./chair;
#X obj 39 239 chair.feedback-cancellation~;
#X obj 204 218 tgl 15 0 empty \$0-activate empty 17 7 0 10 -262144
-1 -1 1 1;
#X obj 39 206 adc~;
#N canvas 0 23 450 300 position 0;
#X obj 47 121 s \$0-xy;
#X obj 36 63 ctlin 12;
#X obj 107 63 ctlin 13;
#X obj 46 96 pack 0 0;
#X connect 1 0 3 0;
#X connect 2 0 3 1;
#X connect 3 0 0 0;
#X restore 39 54 pd position;
#X connect 1 0 2 0;
#X connect 1 0 2 1;
#X connect 3 0 1 0;
#X connect 8 0 3 0;
#X connect 9 0 8 2;
#X connect 10 0 8 0;
