#N canvas 274 167 879 449 10;
#X declare -path ./abstractions;
#X declare -path ./chair;
#X obj 157 52 tgl 15 0 empty empty empty 17 7 0 10 -262144 -1 -1 0
1;
#X obj 157 75 tickle~;
#X obj 158 243 chair.dynamics~;
#N canvas 285 258 450 300 message 0;
#X obj 49 262 outlet;
#X obj 49 184 pack;
#X obj 76 138 abs;
#X obj 49 117 t f f;
#X floatatom 49 91 5 0 0 0 - - -;
#X obj 76 159 / 1.5;
#X obj 130 100 loadbang;
#X msg 130 123 -2;
#X obj 49 30 inlet;
#X msg 49 212 peak \, threshold-compress \$1 \, compress 75 \, threshold-expand
-43 \, expand 100 \, attack 0 \, release 180 \, lookahead 0 \, gain
\$2 \, dry/wet 100;
#X connect 1 0 9 0;
#X connect 2 0 5 0;
#X connect 3 0 1 0;
#X connect 3 1 2 0;
#X connect 4 0 3 0;
#X connect 5 0 1 1;
#X connect 6 0 7 0;
#X connect 7 0 3 0;
#X connect 8 0 4 0;
#X connect 9 0 0 0;
#X restore 258 243 pd message;
#X obj 196 120 chair.capsense;
#X obj 277 151 s \$0-xy;
#N canvas 417 210 646 397 rotaries 0;
#X obj 103 6 inlet;
#X obj 103 119 vsl 15 35 0 1 0 0 empty empty empty 0 -9 0 10 -262144
-1 -1 0 1;
#X obj 103 30 route 0 1 2;
#X obj 130 119 vsl 15 35 0 1 0 0 empty empty empty 0 -9 0 10 -262144
-1 -1 0 1;
#X obj 159 119 vsl 15 35 0 1 0 0 empty empty empty 0 -9 0 10 -262144
-1 -1 0 1;
#X obj 103 340 s \$0-param-1;
#X obj 103 237 * 100;
#X obj 180 238 * 100;
#X obj 288 238 * 100;
#X obj 241 340 s \$0-param-2;
#X obj 400 334 s \$0-param-3;
#X obj 103 73 chair.rotary-limit-range 96;
#X obj 283 73 chair.rotary-limit-range 96;
#X obj 466 73 chair.rotary-limit-range 96;
#X connect 0 0 2 0;
#X connect 1 0 6 0;
#X connect 2 0 11 0;
#X connect 2 1 12 0;
#X connect 2 2 13 0;
#X connect 3 0 7 0;
#X connect 4 0 8 0;
#X connect 6 0 5 0;
#X connect 7 0 9 0;
#X connect 8 0 10 0;
#X connect 11 0 1 0;
#X connect 12 0 3 0;
#X connect 13 0 4 0;
#X coords 0 -1 1 1 85 60 1 100 100;
#X restore 340 120 pd rotaries;
#X obj 196 97 route position rotary;
#X obj 578 69 hsl 128 15 0 300 0 0 empty empty empty -2 -8 0 10 -262144
-1 -1 0 1;
#X obj 575 111 s \$0-lowdamp;
#X floatatom 575 89 5 0 0 0 - - -;
#X obj 577 178 s \$0-highdamp;
#X obj 580 132 hsl 128 15 6000 200 0 0 empty empty empty -2 -8 0 10
-262144 -1 -1 0 1;
#X floatatom 577 152 5 0 0 0 - - -;
#X obj 580 199 hsl 128 15 70 99.9 0 0 empty \$0-decayhsl empty -2 -8
0 10 -262144 -1 -1 10619 1;
#X floatatom 577 219 5 0 0 0 - - -;
#X obj 577 241 s \$0-decay;
#N canvas 385 52 679 652 ridecymbal 0;
#X obj 438 214 block~ 1;
#X obj 4 116 inlet~;
#X obj 251 343 *~ 0.1;
#X obj 230 489 sig~;
#X obj 231 468 / 100;
#X obj 163 654 hip~ 1;
#X obj 164 736 *~ 0.98;
#X obj 148 759 +~;
#X obj 176 786 delwrite~ \$0-del 200;
#X obj 149 818 outlet~;
#X floatatom 242 711 5 0 99.99 0 - - -;
#X obj 242 733 / 100;
#X floatatom 221 654 5 0 0 0 - - -;
#X floatatom 236 676 5 0 0 0 - - -;
#X obj 231 419 sig~;
#X floatatom 232 378 5 0 100 0 - - -;
#X obj 232 398 / 100;
#X obj 239 158 /;
#X msg 239 137 1000 \$1;
#X obj 239 116 mtof;
#X obj 239 75 * 12;
#X obj 216 585 +~;
#X obj 244 543 noise~;
#X obj 250 274 noise~;
#X obj 163 419 allp~ 2.2;
#X obj 163 490 allp~ 2.5;
#X obj 164 586 allp~ 5;
#X obj 163 706 *~ -1;
#X obj 244 587 *~ 0.01;
#X obj 217 520 sig~ 0.09;
#X obj 250 320 +~ 1;
#X obj 301 366 / 100;
#X obj 301 389 * 50;
#X obj 301 343 r \$0-param-2;
#X obj 299 448 / 100;
#X obj 299 471 * 50;
#X obj 299 425 r \$0-param-3;
#X obj 275 639 r \$0-lowdamp;
#X obj 274 672 r \$0-highdamp;
#X obj 281 709 r \$0-decay;
#X obj 163 677 lop~ 7000;
#X obj 279 159 noise~;
#X obj 278 228 +~;
#X obj 329 203 r \$0-param-1;
#X obj 162 347 allp4~ 6.53;
#X obj 279 181 lop~ 10;
#X obj 278 205 *~ 0.03;
#X obj 244 566 lop~ 30;
#X obj 250 297 lop~ 10;
#X obj 329 226 / 15;
#X obj 162 187 +~;
#X obj 161 229 delread4~ \$0-del;
#X obj 84 112 osc~;
#X obj 84 158 *~;
#X floatatom 84 90 5 0 0 0 - - -;
#X floatatom 120 143 5 0 0 0 - - -;
#X obj 282 60 chair.distance;
#X obj 282 18 r \$0-xy;
#X msg 363 39 0.5 0.5;
#X obj 238 54 pow 2;
#X obj 363 17 loadbang;
#X floatatom 239 181 5 0 0 0 - - -;
#X obj 55 69 r \$0-vibra-freq;
#X obj 239 96 + 72;
#X obj 120 121 r \$0-vibra-amount;
#X obj 282 81 * 2;
#X text 449 795 philipp schmalfuß \, 2018;
#X connect 1 0 7 0;
#X connect 2 0 44 2;
#X connect 3 0 25 2;
#X connect 4 0 3 0;
#X connect 5 0 40 0;
#X connect 6 0 7 1;
#X connect 7 0 8 0;
#X connect 7 0 9 0;
#X connect 10 0 11 0;
#X connect 11 0 6 1;
#X connect 12 0 5 1;
#X connect 13 0 40 1;
#X connect 14 0 24 2;
#X connect 15 0 16 0;
#X connect 16 0 14 0;
#X connect 17 0 50 1;
#X connect 17 0 61 0;
#X connect 18 0 17 0;
#X connect 19 0 18 0;
#X connect 20 0 63 0;
#X connect 21 0 26 2;
#X connect 22 0 47 0;
#X connect 23 0 48 0;
#X connect 24 0 25 0;
#X connect 25 0 26 0;
#X connect 26 0 5 0;
#X connect 27 0 6 0;
#X connect 28 0 21 1;
#X connect 29 0 21 0;
#X connect 30 0 2 0;
#X connect 31 0 32 0;
#X connect 32 0 15 0;
#X connect 33 0 31 0;
#X connect 34 0 35 0;
#X connect 35 0 4 0;
#X connect 36 0 34 0;
#X connect 37 0 12 0;
#X connect 38 0 13 0;
#X connect 39 0 10 0;
#X connect 40 0 27 0;
#X connect 41 0 45 0;
#X connect 42 0 44 1;
#X connect 43 0 49 0;
#X connect 44 0 24 0;
#X connect 45 0 46 0;
#X connect 46 0 42 0;
#X connect 47 0 28 0;
#X connect 48 0 30 0;
#X connect 49 0 42 1;
#X connect 50 0 51 0;
#X connect 51 0 44 0;
#X connect 52 0 53 0;
#X connect 53 0 50 0;
#X connect 54 0 52 0;
#X connect 55 0 53 1;
#X connect 56 0 65 0;
#X connect 57 0 56 0;
#X connect 58 0 56 1;
#X connect 59 0 20 0;
#X connect 60 0 58 0;
#X connect 62 0 54 0;
#X connect 63 0 19 0;
#X connect 64 0 55 0;
#X connect 65 0 59 0;
#X restore 157 308 pd ridecymbal;
#X obj 261 201 hsl 128 15 0 -43 0 0 empty \$0-sensitivity empty -2
-8 0 10 -262144 -1 -1 5907 1;
#X floatatom 258 221 5 0 0 0 - - -;
#X obj 158 338 chair.gain~;
#X obj 158 389 dac~;
#X text 307 218 tickle sensitivity;
#X obj 579 308 hsl 128 15 0 20 0 0 empty empty empty -2 -8 0 10 -262144
-1 -1 0 1;
#X floatatom 576 328 5 0 0 0 - - -;
#X text 608 82 low frequency damping;
#X text 614 149 high frequency damping;
#N canvas 3 52 450 300 init 0;
#X obj 80 41 loadbang;
#X msg 80 64 95;
#X obj 80 87 s \$0-decayhsl;
#X obj 182 95 s \$0-sensitivity;
#X msg 182 72 -20;
#X connect 0 0 1 0;
#X connect 0 0 4 0;
#X connect 1 0 2 0;
#X connect 4 0 3 0;
#X restore 438 39 pd init;
#X obj 576 350 s \$0-vibra-freq;
#X text 621 325 vibrato frequency;
#X obj 580 379 hsl 128 15 0 1 0 0 empty empty empty -2 -8 0 10 -262144
-1 -1 0 1;
#X floatatom 577 399 5 0 0 0 - - -;
#X text 622 396 vibrato amount;
#X obj 577 421 s \$0-vibra-amount;
#X obj 574 2 declare -path ./abstractions;
#X obj 574 23 declare -path ./chair;
#X text 213 15 ~~~~work in progress~~~~;
#X connect 0 0 1 0;
#X connect 1 0 2 0;
#X connect 1 1 7 0;
#X connect 2 0 17 0;
#X connect 3 0 2 1;
#X connect 4 1 5 0;
#X connect 7 0 4 0;
#X connect 7 1 6 0;
#X connect 8 0 10 0;
#X connect 10 0 9 0;
#X connect 12 0 13 0;
#X connect 13 0 11 0;
#X connect 14 0 15 0;
#X connect 15 0 16 0;
#X connect 17 0 20 0;
#X connect 18 0 19 0;
#X connect 19 0 3 0;
#X connect 20 0 21 0;
#X connect 20 0 21 1;
#X connect 23 0 24 0;
#X connect 24 0 28 0;
#X connect 30 0 31 0;
#X connect 31 0 33 0;
