#N canvas 547 161 879 571 10;
#X declare -path ./abstractions;
#X declare -path ./chair;
#X obj 451 69 hsl 128 15 0 300 0 0 empty \$0-param-4 empty -2 -8 0
10 -262144 -1 -1 6350 1;
#X obj 448 111 s \$0-lowdamp;
#X floatatom 448 89 5 0 0 0 - - -;
#X obj 450 178 s \$0-highdamp;
#X obj 453 132 hsl 128 15 6000 200 0 0 empty \$0-param-5 empty -2 -8
0 10 -262144 -1 -1 5080 1;
#X floatatom 450 152 5 0 0 0 - - -;
#X obj 453 199 hsl 128 15 70 99.9 0 0 empty \$0-param-6 empty -2 -8
0 10 -262144 -1 -1 12065 1;
#X floatatom 450 219 5 0 0 0 - - -;
#X obj 450 241 s \$0-decay;
#N canvas 421 181 1073 969 ridecymbal 0;
#X obj 452 28 block~ 1;
#X obj 24 27 inlet~;
#X obj 172 400 *~ 0.1;
#X obj 151 546 sig~;
#X obj 152 525 / 100;
#X obj 84 717 hip~ 1;
#X obj 85 799 *~ 0.98;
#X obj 23 827 +~;
#X obj 51 854 delwrite~ \$0-del 200;
#X obj 24 886 outlet~;
#X floatatom 163 774 5 0 99.99 0 - - -;
#X obj 163 796 / 100;
#X floatatom 142 717 5 0 0 0 - - -;
#X floatatom 157 739 5 0 0 0 - - -;
#X obj 152 476 sig~;
#X floatatom 153 435 5 0 100 0 - - -;
#X obj 153 455 / 100;
#X obj 282 215 /;
#X msg 282 194 1000 \$1;
#X obj 282 173 mtof;
#X obj 125 651 +~;
#X obj 153 609 noise~;
#X obj 171 331 noise~;
#X obj 84 476 allp~ 2.2;
#X obj 84 547 allp~ 2.5;
#X obj 85 672 allp~ 5;
#X obj 84 769 *~ -1;
#X obj 153 653 *~ 0.01;
#X obj 126 586 sig~ 0.09;
#X obj 171 377 +~ 1;
#X obj 222 423 / 100;
#X obj 222 446 * 50;
#X obj 222 400 r \$0-param-2;
#X obj 220 505 / 100;
#X obj 220 528 * 50;
#X obj 220 482 r \$0-param-3;
#X obj 196 702 r \$0-lowdamp;
#X obj 195 735 r \$0-highdamp;
#X obj 202 772 r \$0-decay;
#X obj 84 740 lop~ 7000;
#X obj 188 227 noise~;
#X obj 187 297 +~;
#X obj 238 271 r \$0-param-1;
#X obj 83 404 allp4~ 6.53;
#X obj 188 249 lop~ 10;
#X obj 187 273 *~ 0.03;
#X obj 153 632 lop~ 30;
#X obj 171 354 lop~ 10;
#X obj 238 294 / 15;
#X obj 83 217 +~;
#X obj 82 259 delread4~ \$0-del;
#X obj 84 112 osc~;
#X obj 84 158 *~;
#X floatatom 84 90 5 0 0 0 - - -;
#X floatatom 120 143 5 0 0 0 - - -;
#X obj 282 60 chair.distance;
#X obj 282 18 r \$0-xy;
#X msg 363 39 0.5 0.5;
#X obj 282 103 pow 2;
#X obj 363 17 loadbang;
#X floatatom 282 231 5 0 0 0 - - -;
#X obj 84 65 r \$0-vibra-freq;
#X obj 120 121 r \$0-vibra-amount;
#X obj 282 81 * 2;
#X text 266 853 Philipp Schmalfuß \, 2018;
#X obj 282 128 * -12;
#X obj 282 149 + 92;
#X connect 1 0 7 0;
#X connect 2 0 43 2;
#X connect 3 0 24 2;
#X connect 4 0 3 0;
#X connect 5 0 39 0;
#X connect 6 0 7 1;
#X connect 7 0 8 0;
#X connect 7 0 9 0;
#X connect 10 0 11 0;
#X connect 11 0 6 1;
#X connect 12 0 5 1;
#X connect 13 0 39 1;
#X connect 14 0 23 2;
#X connect 15 0 16 0;
#X connect 16 0 14 0;
#X connect 17 0 49 1;
#X connect 17 0 60 0;
#X connect 18 0 17 0;
#X connect 19 0 18 0;
#X connect 20 0 25 2;
#X connect 21 0 46 0;
#X connect 22 0 47 0;
#X connect 23 0 24 0;
#X connect 24 0 25 0;
#X connect 25 0 5 0;
#X connect 26 0 6 0;
#X connect 27 0 20 1;
#X connect 28 0 20 0;
#X connect 29 0 2 0;
#X connect 30 0 31 0;
#X connect 31 0 15 0;
#X connect 32 0 30 0;
#X connect 33 0 34 0;
#X connect 34 0 4 0;
#X connect 35 0 33 0;
#X connect 36 0 12 0;
#X connect 37 0 13 0;
#X connect 38 0 10 0;
#X connect 39 0 26 0;
#X connect 40 0 44 0;
#X connect 41 0 43 1;
#X connect 42 0 48 0;
#X connect 43 0 23 0;
#X connect 44 0 45 0;
#X connect 45 0 41 0;
#X connect 46 0 27 0;
#X connect 47 0 29 0;
#X connect 48 0 41 1;
#X connect 49 0 50 0;
#X connect 50 0 43 0;
#X connect 51 0 52 0;
#X connect 52 0 49 0;
#X connect 53 0 51 0;
#X connect 54 0 52 1;
#X connect 55 0 63 0;
#X connect 56 0 55 0;
#X connect 57 0 55 1;
#X connect 58 0 65 0;
#X connect 59 0 57 0;
#X connect 61 0 53 0;
#X connect 62 0 54 0;
#X connect 63 0 58 0;
#X connect 65 0 66 0;
#X connect 66 0 19 0;
#X restore 29 446 pd ridecymbal;
#X obj 29 474 chair.gain~;
#X obj 30 527 dac~;
#X obj 452 308 hsl 128 15 0 20 0 0 empty empty empty -2 -8 0 10 -262144
-1 -1 0 1;
#X floatatom 449 328 5 0 0 0 - - -;
#X text 481 82 low frequency damping;
#X text 487 149 high frequency damping;
#N canvas 1483 618 450 300 init 0;
#X obj 80 41 loadbang;
#X msg 80 73 95;
#X obj 182 95 s \$0-sensitivity;
#X msg 182 72 -20;
#X obj 287 96 s \$0-activate;
#X msg 288 76 1;
#X obj 80 96 s \$0-param-6;
#X connect 0 0 1 0;
#X connect 0 0 3 0;
#X connect 0 0 5 0;
#X connect 1 0 6 0;
#X connect 3 0 2 0;
#X connect 5 0 4 0;
#X restore 311 39 pd init;
#X obj 449 350 s \$0-vibra-freq;
#X text 494 325 vibrato frequency;
#X obj 453 379 hsl 128 15 0 1 0 0 empty empty empty -2 -8 0 10 -262144
-1 -1 0 1;
#X floatatom 450 399 5 0 0 0 - - -;
#X text 495 396 vibrato amount;
#X obj 450 421 s \$0-vibra-amount;
#X obj 447 2 declare -path ./abstractions;
#X obj 447 23 declare -path ./chair;
#X text 86 15 ~~~~work in progress~~~~;
#X obj 29 344 chair.feedback-cancellation~;
#X obj 196 325 tgl 15 0 empty \$0-activate empty 17 7 0 10 -262144
-1 -1 1 1;
#N canvas 277 285 646 397 rotaries2 0;
#X obj 103 119 vsl 15 35 0 1 0 0 empty empty empty 0 -9 0 10 -262144
-1 -1 1700 1;
#X obj 130 119 vsl 15 35 0 1 0 0 empty empty empty 0 -9 0 10 -262144
-1 -1 1360 1;
#X obj 159 119 vsl 15 35 0 1 0 0 empty empty empty 0 -9 0 10 -262144
-1 -1 3230 1;
#X obj 216 179 s \$0-led1;
#X obj 405 178 s \$0-led2;
#X obj 112 173 s \$0-led0;
#X obj 103 340 s \$0-param-4;
#X obj 241 340 s \$0-param-5;
#X obj 400 334 s \$0-param-6;
#X obj 103 237 * 300;
#X obj 180 238 * -5800;
#X obj 181 282 + 6000;
#X obj 288 238 * 29.9;
#X obj 329 271 + 70;
#X obj 113 11 loadbang;
#X msg 98 33 0.5;
#X msg 193 30 0.95;
#X msg 147 31 0.4;
#X connect 0 0 5 0;
#X connect 0 0 9 0;
#X connect 1 0 3 0;
#X connect 1 0 10 0;
#X connect 2 0 4 0;
#X connect 2 0 12 0;
#X connect 9 0 6 0;
#X connect 10 0 11 0;
#X connect 11 0 7 0;
#X connect 12 0 13 0;
#X connect 13 0 8 0;
#X connect 14 0 15 0;
#X connect 14 0 17 0;
#X connect 14 0 16 0;
#X connect 15 0 0 0;
#X connect 16 0 2 0;
#X connect 17 0 1 0;
#X coords 0 -1 1 1 85 60 1 100 100;
#X restore 123 187 pd rotaries2;
#N canvas 346 390 646 397 rotaries1 0;
#X obj 103 119 vsl 15 35 0 1 0 0 empty empty empty 0 -9 0 10 -262144
-1 -1 1392 1;
#X obj 130 119 vsl 15 35 0 1 0 0 empty empty empty 0 -9 0 10 -262144
-1 -1 2302 1;
#X obj 159 119 vsl 15 35 0 1 0 0 empty empty empty 0 -9 0 10 -262144
-1 -1 2061 1;
#X obj 103 340 s \$0-param-1;
#X obj 103 237 * 100;
#X obj 180 238 * 100;
#X obj 288 238 * 100;
#X obj 241 340 s \$0-param-2;
#X obj 400 334 s \$0-param-3;
#X obj 216 179 s \$0-led1;
#X obj 405 178 s \$0-led2;
#X obj 112 173 s \$0-led0;
#X obj 100 22 ctlin 14;
#X obj 170 23 ctlin 15;
#X obj 246 22 ctlin 16;
#X obj 100 49 / 127;
#X obj 170 47 / 127;
#X obj 246 48 / 127;
#X connect 0 0 4 0;
#X connect 0 0 11 0;
#X connect 1 0 5 0;
#X connect 1 0 9 0;
#X connect 2 0 6 0;
#X connect 2 0 10 0;
#X connect 4 0 3 0;
#X connect 5 0 7 0;
#X connect 6 0 8 0;
#X connect 12 0 15 0;
#X connect 13 0 16 0;
#X connect 14 0 17 0;
#X connect 15 0 0 0;
#X connect 16 0 1 0;
#X connect 17 0 2 0;
#X coords 0 -1 1 1 85 60 1 100 100;
#X restore 30 188 pd rotaries1;
#N canvas 0 23 450 300 position 0;
#X obj 47 121 s \$0-xy;
#X obj 36 36 ctlin 12;
#X obj 107 36 ctlin 13;
#X obj 46 96 pack 0 0;
#X obj 44 67 / 127;
#X obj 103 67 / 127;
#X connect 1 0 4 0;
#X connect 2 0 5 0;
#X connect 3 0 0 0;
#X connect 4 0 3 0;
#X connect 5 0 3 1;
#X restore 34 143 pd position;
#X obj 29 300 adc~ 1;
#X connect 0 0 2 0;
#X connect 2 0 1 0;
#X connect 4 0 5 0;
#X connect 5 0 3 0;
#X connect 6 0 7 0;
#X connect 7 0 8 0;
#X connect 9 0 10 0;
#X connect 10 0 11 0;
#X connect 10 0 11 1;
#X connect 12 0 13 0;
#X connect 13 0 17 0;
#X connect 19 0 20 0;
#X connect 20 0 22 0;
#X connect 26 0 9 0;
#X connect 27 0 26 2;
#X connect 31 0 26 0;
