#N canvas 1195 204 917 901 10;
#X declare -path chair;
#X declare -path abstractions;
#X obj 36 30 tgl 15 0 empty empty empty 17 7 0 10 -262144 -1 -1 0 1
;
#X floatatom 366 208 5 0 0 0 - - -;
#N canvas 75 683 664 369 rotaries 0;
#X obj 102 25 inlet;
#X floatatom 114 264 5 0 0 0 - - -;
#X obj 283 195 * 9000;
#X floatatom 294 237 5 0 0 0 - - -;
#X obj 285 168 s \$0-led1;
#X obj 467 169 s \$0-led2;
#X obj 110 169 s \$0-led0;
#X obj 103 119 vsl 15 35 0 1 0 0 empty empty empty 0 -9 0 10 -262144
-1 -1 283 1;
#X obj 102 49 route 0 1 2;
#X obj 130 119 vsl 15 35 0 1 0 0 empty empty empty 0 -9 0 10 -262144
-1 -1 2975 1;
#X obj 159 120 vsl 15 35 0.01 1 0 0 empty empty empty 0 -9 0 10 -262144
-1 -1 359 1;
#X obj 354 7 loadbang;
#X obj 283 73 chair.rotary-limit-range 24;
#X msg 325 38 1;
#X msg 361 37 20;
#X msg 396 40 10;
#X obj 102 73 chair.rotary-limit-range 24;
#X obj 283 216 + 0;
#X obj 103 232 * 1;
#X obj 283 304 s \$0-lp;
#X obj 467 301 s \$0-timbre;
#X obj 104 300 s \$0-fb;
#X floatatom 490 266 5 0 0 0 - - -;
#X obj 467 220 * 2;
#X obj 465 73 chair.rotary-limit-range 96;
#X connect 0 0 8 0;
#X connect 2 0 17 0;
#X connect 7 0 6 0;
#X connect 7 0 18 0;
#X connect 8 0 16 0;
#X connect 8 1 12 0;
#X connect 8 2 24 0;
#X connect 9 0 4 0;
#X connect 9 0 2 0;
#X connect 10 0 5 0;
#X connect 10 0 23 0;
#X connect 11 0 14 0;
#X connect 11 0 13 0;
#X connect 11 0 15 0;
#X connect 12 0 9 0;
#X connect 13 0 16 1;
#X connect 14 0 12 1;
#X connect 15 0 24 1;
#X connect 16 0 7 0;
#X connect 17 0 3 0;
#X connect 17 0 19 0;
#X connect 18 0 1 0;
#X connect 18 0 21 0;
#X connect 23 0 20 0;
#X connect 23 0 22 0;
#X connect 24 0 10 0;
#X coords 0 -1 1 1 85 60 1 100 100;
#X restore 130 195 pd rotaries;
#X obj 438 331 s \$0-midinote;
#X floatatom 455 237 5 0 0 0 - - -;
#X floatatom 454 307 5 0 0 0 - - -;
#X msg 55 55 info;
#X obj 38 633 hip~ 4;
#X obj 156 325 s \$0-xy;
#X obj 75 325 s \$0-touch;
#X obj 356 130 r \$0-xy;
#X obj 185 173 s \$0-updown;
#X obj 384 22 declare -path chair;
#N canvas 941 662 464 257 LED 0;
#X obj 69 185 outlet;
#X obj 35 33 r \$0-led0;
#X obj 144 33 r \$0-led1;
#X obj 243 36 r \$0-led2;
#X msg 35 68 led 0 \$1 0 \$1;
#X msg 144 71 led 1 0 \$1 \$1;
#X msg 243 74 led 2 \$1 \$1 0;
#X connect 1 0 4 0;
#X connect 2 0 5 0;
#X connect 3 0 6 0;
#X connect 4 0 0 0;
#X connect 5 0 0 0;
#X connect 6 0 0 0;
#X restore 67 87 pd LED;
#X obj 37 670 dac~;
#X obj 438 211 chair.hex-tuning;
#X obj 356 152 chair.hex-mapping;
#X obj 131 386 r \$0-touch;
#X obj 37 360 chair.gain~;
#X obj 356 287 s \$0-current;
#X obj 38 549 chair.gain~;
#X obj 567 236 r \$0-updown;
#X obj 438 256 chair.transpose-oct -2;
#X msg 551 173 g_major;
#X msg 607 173 b_minor;
#X obj 384 43 declare -path abstractions;
#X text 124 259 Rotaries:;
#X obj 75 145 route position rotary button;
#X obj 75 297 chair.capsense;
#N canvas 354 244 463 284 instance-iteration 0;
#X obj 42 165 outlet;
#X obj 134 55 r \$0-midinote;
#X obj 42 56 r \$0-current;
#X obj 42 108 pack f f;
#X connect 1 0 3 1;
#X connect 2 0 3 0;
#X connect 3 0 0 0;
#X restore 162 477 pd instance-iteration;
#X obj 38 412 chair.touchgate~;
#X obj 39 477 chair.dc-offset~;
#X obj 36 118 tickle~;
#X obj 234 418 tgl 15 0 empty \$0-active empty 17 7 0 10 -262144 -1
-1 1 1;
#X obj 356 184 t f f;
#N canvas 864 596 450 300 init 0;
#X obj 95 66 loadbang;
#X msg 96 93 1;
#X obj 96 116 s \$0-active;
#X connect 0 0 1 0;
#X connect 1 0 2 0;
#X restore 385 66 pd init;
#X obj 39 443 chair.feedback-cancellation~ 50 1;
#X text 123 275 Feedback \, Cut-off \, Delay 2 Size;
#N canvas 0 50 450 300 (subpatch) 0;
#X array \$0-scope 1024 float 0;
#X coords 0 -1 1023 1 200 140 1 0 0;
#X restore 395 428 graph;
#X obj 401 655 tabwrite~ \$0-scope;
#X obj 401 631 metro 150;
#X obj 401 609 tgl 15 0 empty \$0-active empty 17 7 0 10 -262144 -1
-1 1 1;
#X msg 483 173 chromatic;
#X obj 483 146 loadbang;
#X obj 390 376 mtof;
#X obj 356 244 % 4;
#X obj 38 514 clone 2D-waveguide-allpass 4 \$0;
#X connect 0 0 32 0;
#X connect 6 0 32 0;
#X connect 7 0 14 0;
#X connect 7 0 14 1;
#X connect 10 0 16 0;
#X connect 13 0 32 0;
#X connect 15 0 4 0;
#X connect 15 0 22 0;
#X connect 16 0 34 0;
#X connect 17 0 30 1;
#X connect 18 0 30 0;
#X connect 20 0 39 0;
#X connect 20 0 7 0;
#X connect 21 0 22 1;
#X connect 22 0 5 0;
#X connect 22 0 3 0;
#X connect 22 0 44 0;
#X connect 23 0 15 1;
#X connect 24 0 15 1;
#X connect 27 0 28 0;
#X connect 27 1 2 0;
#X connect 27 2 11 0;
#X connect 28 0 9 0;
#X connect 28 1 8 0;
#X connect 29 0 46 1;
#X connect 30 0 36 0;
#X connect 31 0 46 0;
#X connect 32 0 18 0;
#X connect 32 1 27 0;
#X connect 33 0 36 2;
#X connect 34 0 1 0;
#X connect 34 0 45 0;
#X connect 34 1 15 0;
#X connect 36 0 31 0;
#X connect 40 0 39 0;
#X connect 41 0 40 0;
#X connect 42 0 15 1;
#X connect 43 0 42 0;
#X connect 44 0 36 1;
#X connect 45 0 19 0;
#X connect 46 0 20 0;
