#N canvas 586 147 916 901 10;
#X declare -path chair;
#X declare -path abstractions;
#N canvas 75 683 664 369 rotaries 0;
#X obj 283 195 * 9000;
#X obj 285 168 s \$0-led1;
#X obj 467 169 s \$0-led2;
#X obj 110 169 s \$0-led0;
#X obj 103 119 vsl 15 35 0.1 1 0 0 empty empty empty 0 -9 0 10 -262144
-1 -1 1883 1;
#X obj 130 119 vsl 15 35 0 1 0 0 empty empty empty 0 -9 0 10 -262144
-1 -1 1633 1;
#X obj 159 120 vsl 15 35 0.01 1 0 0 empty empty empty 0 -9 0 10 -262144
-1 -1 2481 1;
#X obj 283 304 s \$0-lp;
#X obj 467 301 s \$0-timbre;
#X obj 103 304 s \$0-fb;
#X obj 467 220 * 2;
#X obj 103 276 expr tanh($f1);
#X obj 103 197 * 4;
#X obj 103 18 ctlin 14 1;
#X obj 171 18 ctlin 15 1;
#X obj 243 18 ctlin 16 1;
#X obj 103 50 / 127;
#X obj 174 52 / 127;
#X obj 240 54 / 127;
#X connect 0 0 7 0;
#X connect 4 0 3 0;
#X connect 4 0 12 0;
#X connect 5 0 1 0;
#X connect 5 0 0 0;
#X connect 6 0 2 0;
#X connect 6 0 10 0;
#X connect 10 0 8 0;
#X connect 11 0 9 0;
#X connect 12 0 11 0;
#X connect 13 0 16 0;
#X connect 14 0 17 0;
#X connect 15 0 18 0;
#X connect 16 0 4 0;
#X connect 17 0 5 0;
#X connect 18 0 6 0;
#X coords 0 -1 1 1 85 60 1 100 100;
#X restore 124 99 pd rotaries;
#X obj 37 549 hip~ 4;
#X obj 356 11 declare -path chair;
#X obj 36 586 dac~;
#X obj 38 230 chair.gain~;
#X obj 38 493 chair.gain~;
#X obj 356 32 declare -path abstractions;
#X text 120 163 Rotaries:;
#N canvas 354 244 463 284 instance-iteration 0;
#X obj 42 165 outlet;
#X obj 134 55 r \$0-midinote;
#X obj 42 56 r \$0-current;
#X obj 42 108 pack f f;
#X connect 1 0 3 1;
#X connect 2 0 3 0;
#X connect 3 0 0 0;
#X restore 209 433 pd instance-iteration;
#X obj 38 392 chair.dc-offset~;
#X obj 233 336 tgl 15 0 empty \$0-active empty 17 7 0 10 -262144 -1
-1 1 1;
#N canvas 864 596 450 300 init 0;
#X obj 95 66 loadbang;
#X msg 96 93 1;
#X obj 96 116 s \$0-active;
#X connect 0 0 1 0;
#X connect 1 0 2 0;
#X restore 357 55 pd init;
#X obj 38 358 chair.feedback-cancellation~ 50 1;
#X text 119 179 Feedback \, Cut-off \, Delay 2 Size;
#N canvas 0 50 450 300 (subpatch) 0;
#X array \$0-scope 1024 float 0;
#X coords 0 -1 1023 1 200 140 1 0 0;
#X restore 356 302 graph;
#X obj 355 555 tabwrite~ \$0-scope;
#X obj 355 503 metro 150;
#X obj 355 481 tgl 15 0 empty \$0-active empty 17 7 0 10 -262144 -1
-1 1 1;
#X obj 135 332 mtof;
#X obj 420 482 r \$0-touch;
#X obj 420 505 sel 1;
#X floatatom 459 507 5 0 0 0 - - -;
#X obj 38 458 clone karplus-dispersion 4 \$0;
#X obj 135 308 r \$0-midinote;
#X obj 420 531 del 0;
#X obj 355 100 notein 1;
#X obj 355 128 stripnote;
#X floatatom 367 155 5 0 0 0 - - -;
#X obj 355 212 f;
#X obj 383 212 + 1;
#X obj 448 241 s \$0-midinote;
#X obj 355 179 t b f, f 16;
#X obj 355 241 s \$0-current;
#X obj 37 95 adc~ 1;
#X obj 413 212 % 4;
#X connect 1 0 3 0;
#X connect 1 0 3 1;
#X connect 4 0 12 0;
#X connect 5 0 15 0;
#X connect 5 0 1 0;
#X connect 8 0 22 1;
#X connect 9 0 22 0;
#X connect 10 0 12 2;
#X connect 12 0 9 0;
#X connect 16 0 15 0;
#X connect 17 0 16 0;
#X connect 18 0 12 1;
#X connect 19 0 20 0;
#X connect 20 0 24 0;
#X connect 21 0 24 1;
#X connect 22 0 5 0;
#X connect 23 0 18 0;
#X connect 24 0 15 0;
#X connect 25 0 26 0;
#X connect 25 1 26 1;
#X connect 26 0 27 0;
#X connect 26 0 31 0;
#X connect 28 0 29 0;
#X connect 28 0 32 0;
#X connect 29 0 34 0;
#X connect 31 0 28 0;
#X connect 31 1 30 0;
#X connect 33 0 4 0;
#X connect 34 0 28 1;
