#N canvas 1988 400 474 414 12;
#X obj 56 49 == \$2;
#X obj 100 262 del 6000;
#X msg 93 303 0;
#X msg 56 304 1;
#X msg 73 128 stop;
#X obj 56 72 sel 1, f 13;
#X obj 56 340 outlet;
#X obj 258 173 r polyphony;
#X obj 180 169 f;
#X obj 213 169 + 1;
#X obj 147 102 t b b;
#X obj 72 101 t b b;
#X msg 196 138 0;
#X obj 180 199 > 4;
#X obj 179 228 sel 0 1;
#X obj 56 19 inlet;
#X connect 0 0 5 0;
#X connect 1 0 2 0;
#X connect 2 0 6 0;
#X connect 3 0 6 0;
#X connect 4 0 1 0;
#X connect 5 0 3 0;
#X connect 5 0 11 0;
#X connect 5 1 10 0;
#X connect 7 0 13 1;
#X connect 8 0 9 0;
#X connect 8 0 13 0;
#X connect 9 0 8 1;
#X connect 10 0 1 0;
#X connect 10 1 8 0;
#X connect 11 0 4 0;
#X connect 11 1 12 0;
#X connect 12 0 8 1;
#X connect 13 0 14 0;
#X connect 14 0 1 0;
#X connect 14 1 2 0;
#X connect 15 0 0 0;
