#N canvas 49 133 578 416 10;
#X obj 103 119 vsl 15 35 0 1 0 0 empty empty empty 0 -9 0 10 -262144
-1 -1 1700 1;
#X obj 148 119 vsl 15 35 0 1 0 0 empty empty empty 0 -9 0 10 -262144
-1 -1 1700 1;
#X obj 198 120 vsl 15 35 0 1 0 0 empty empty empty 0 -9 0 10 -262144
-1 -1 1700 1;
#X obj 103 27 / 127;
#X obj 173 30 / 127;
#X obj 245 30 / 127;
#X obj 103 6 ctlin 11 1;
#X obj 173 7 ctlin 12 1;
#X obj 245 7 ctlin 13 1;
#X obj 103 184 t f f;
#X obj 223 185 t f f;
#X obj 347 187 t f f;
#X msg 103 234 0 \$1;
#X msg 223 233 1 \$1;
#X msg 347 236 2 \$1;
#X obj 103 281 outlet;
#X text 398 106 todo: LED;
#N canvas 103 456 548 377 arguments 0;
#X obj 33 13 loadbang;
#X obj 162 237 outlet;
#X msg 33 35 36;
#X obj 219 145 t b;
#X obj 33 240 outlet;
#X obj 90 142 t b;
#X obj 33 110 select .\$1;
#X obj 162 110 select .\$2;
#X obj 90 168 f \$1;
#X obj 219 171 f \$2;
#X obj 283 236 outlet;
#X obj 340 143 t b;
#X obj 33 61 t f f f;
#X obj 283 109 select .\$3;
#X msg 33 167 0.5;
#X msg 162 161 0.5;
#X msg 283 160 0.5;
#X obj 71 208 clip 0 1;
#X obj 204 201 clip 0 1;
#X obj 326 200 clip 0 1;
#X obj 33 87 makefilename .%c1;
#X obj 93 288 print 1;
#X obj 188 289 print 2;
#X obj 333 275 print 3;
#X obj 162 87 makefilename .%c2;
#X obj 283 86 makefilename .%c3;
#X obj 340 169 f \$3;
#X connect 0 0 2 0;
#X connect 2 0 12 0;
#X connect 3 0 9 0;
#X connect 5 0 8 0;
#X connect 6 0 14 0;
#X connect 6 1 5 0;
#X connect 7 0 15 0;
#X connect 7 1 3 0;
#X connect 8 0 17 0;
#X connect 8 0 21 0;
#X connect 9 0 18 0;
#X connect 9 0 22 0;
#X connect 11 0 26 0;
#X connect 12 0 20 0;
#X connect 12 1 24 0;
#X connect 12 2 25 0;
#X connect 13 0 16 0;
#X connect 13 1 11 0;
#X connect 14 0 4 0;
#X connect 14 0 21 0;
#X connect 15 0 1 0;
#X connect 15 0 22 0;
#X connect 16 0 10 0;
#X connect 16 0 23 0;
#X connect 17 0 4 0;
#X connect 18 0 1 0;
#X connect 19 0 10 0;
#X connect 20 0 6 0;
#X connect 24 0 7 0;
#X connect 25 0 13 0;
#X connect 26 0 19 0;
#X connect 26 0 23 0;
#X restore 249 57 pd arguments;
#X obj 130 207 s \$4-param-1;
#X obj 250 209 s \$4-param-2;
#X obj 374 212 s \$4-param-3;
#X connect 0 0 9 0;
#X connect 1 0 10 0;
#X connect 2 0 11 0;
#X connect 3 0 0 0;
#X connect 4 0 1 0;
#X connect 5 0 2 0;
#X connect 6 0 3 0;
#X connect 7 0 4 0;
#X connect 8 0 5 0;
#X connect 9 0 12 0;
#X connect 9 1 18 0;
#X connect 10 0 13 0;
#X connect 10 1 19 0;
#X connect 11 0 14 0;
#X connect 11 1 20 0;
#X connect 12 0 15 0;
#X connect 13 0 15 0;
#X connect 14 0 15 0;
#X connect 17 0 0 0;
#X connect 17 1 1 0;
#X connect 17 2 2 0;
#X coords 0 -1 1 1 140 60 1 100 100;
