#N canvas 757 169 830 532 10;
#X obj 56 376 outlet~;
#X obj 56 237 - 24;
#X obj 56 270 / 12;
#X obj 56 298 + 0.25;
#X obj 56 332 sig~;
#X text 140 376 https://obsoletetechnology.files.wordpress.com/2009/11/cv-voltage-vs-midi-note-value-plot.jpg
, f 94;
#X text 139 399 http://bytenoise.co.uk/CV-gate;
#X obj 133 236 mtof;
#X obj 133 298 / 55;
#X obj 56 178 route 0 1;
#X obj 56 20 inlet MIDI;
#X obj 56 147 list prepend 0;
#X obj 281 20 inlet scheme;
#X obj 281 74 sel vpo hpv;
#X msg 281 98 0;
#X msg 312 99 1;
#X obj 281 47 symbol;
#X text 168 179 Volts per octave or Hertz per volt;
#X connect 1 0 2 0;
#X connect 2 0 3 0;
#X connect 3 0 4 0;
#X connect 4 0 0 0;
#X connect 7 0 8 0;
#X connect 8 0 4 0;
#X connect 9 0 1 0;
#X connect 9 1 7 0;
#X connect 10 0 11 0;
#X connect 11 0 9 0;
#X connect 12 0 16 0;
#X connect 13 0 14 0;
#X connect 13 1 15 0;
#X connect 14 0 11 1;
#X connect 15 0 11 1;
#X connect 16 0 13 0;
