#N canvas 338 191 689 396 10;
#X obj 22 26 inlet;
#X obj 22 330 outlet;
#X obj 22 185 -;
#X obj 79 185 -;
#X obj 22 239 pow 2;
#X obj 79 240 pow 2;
#X obj 22 269 +;
#X obj 22 298 sqrt;
#X obj 79 212 abs;
#X obj 22 212 abs;
#X text 169 196 pythagoras;
#X text 186 82 x1 \, y1 \, x2 \, y2;
#X obj 22 81 unpack f f;
#X obj 101 81 unpack f f;
#X obj 101 26 inlet;
#X text 171 213 a^2 + b^2 = c^2;
#N canvas 669 229 450 300 arguments 0;
#X obj 33 24 loadbang;
#X obj 162 237 outlet;
#X msg 33 46 36;
#X obj 242 135 t b;
#X obj 33 240 outlet;
#X obj 113 141 t b;
#X obj 33 87 makefilename .%c1;
#X obj 162 87 makefilename .%c2;
#X obj 33 110 select .\$1;
#X obj 162 110 select .\$2;
#X obj 113 167 f \$1;
#X obj 242 161 f \$2;
#X msg 33 167 0.5;
#X msg 162 161 0.5;
#X connect 0 0 2 0;
#X connect 2 0 6 0;
#X connect 2 0 7 0;
#X connect 3 0 11 0;
#X connect 5 0 10 0;
#X connect 6 0 8 0;
#X connect 7 0 9 0;
#X connect 8 0 12 0;
#X connect 8 1 5 0;
#X connect 9 0 13 0;
#X connect 9 1 3 0;
#X connect 10 0 4 0;
#X connect 11 0 1 0;
#X connect 12 0 4 0;
#X connect 13 0 1 0;
#X restore 177 109 pd arguments;
#X connect 0 0 12 0;
#X connect 2 0 9 0;
#X connect 3 0 8 0;
#X connect 4 0 6 0;
#X connect 5 0 6 1;
#X connect 6 0 7 0;
#X connect 7 0 1 0;
#X connect 8 0 5 0;
#X connect 9 0 4 0;
#X connect 12 0 2 0;
#X connect 12 1 3 0;
#X connect 13 0 2 1;
#X connect 13 1 3 1;
#X connect 14 0 13 0;
#X connect 16 0 2 1;
#X connect 16 1 3 1;
