#N canvas 2008 339 507 445 12;
#X obj 93 300 del 6000;
#X msg 86 341 0;
#X msg 49 342 1;
#X msg 81 177 stop;
#X obj 49 378 outlet;
#X obj 251 211 r polyphony;
#X obj 173 207 f;
#X obj 206 207 + 1;
#X obj 140 140 t b b;
#X msg 189 176 0;
#X obj 173 237 > 4;
#X obj 172 266 sel 0 1;
#X obj 49 25 inlet;
#X obj 49 53 route \$1;
#X obj 140 110 change;
#X obj 49 130 t b b b;
#X connect 0 0 1 0;
#X connect 1 0 4 0;
#X connect 2 0 4 0;
#X connect 3 0 0 0;
#X connect 5 0 10 1;
#X connect 6 0 7 0;
#X connect 6 0 10 0;
#X connect 7 0 6 1;
#X connect 8 0 0 0;
#X connect 8 1 6 0;
#X connect 9 0 6 1;
#X connect 10 0 11 0;
#X connect 11 0 0 0;
#X connect 11 1 1 0;
#X connect 12 0 13 0;
#X connect 13 0 15 0;
#X connect 13 1 14 0;
#X connect 14 0 8 0;
#X connect 15 0 2 0;
#X connect 15 1 3 0;
#X connect 15 2 9 0;
