#N canvas 632 401 601 363 12;
#X obj 105 44 inlet;
#X obj 151 139 t f f;
#X obj 154 188 -;
#X obj 151 102 moses 127;
#X obj 105 77 moses 1;
#X obj 105 136 t b;
#X obj 211 141 t b;
#X msg 105 188 -1;
#X msg 211 183 1;
#X obj 105 247 outlet;
#X connect 0 0 4 0;
#X connect 1 0 2 1;
#X connect 1 1 2 0;
#X connect 2 0 9 0;
#X connect 3 0 1 0;
#X connect 3 1 6 0;
#X connect 4 0 5 0;
#X connect 4 1 3 0;
#X connect 5 0 7 0;
#X connect 6 0 8 0;
#X connect 7 0 9 0;
#X connect 8 0 9 0;
