#N canvas 49 180 778 416 10;
#X obj 76 146 route 0 1 2;
#X floatatom 76 220 5 0 0 0 - - -;
#X floatatom 97 198 5 0 0 0 - - -;
#X floatatom 118 175 5 0 0 0 - - -;
#X text 251 77 Helper abstracton for the ratary encoders;
#X text 246 124 Arguments:;
#X text 265 147 \$1 default value encoder 0;
#X text 266 162 \$2 default value encoder 1;
#X text 266 177 \$3 default value encoder 2;
#X text 265 192 \$4 use \$4 to propagate \$0 of the parent patch into
the abstraction!, f 34;
#X obj 72 73 cnv 15 150 70 empty empty empty 20 12 0 14 -262130 -66577
0;
#X obj 75 78 chair.encoders 0 1 0.5;
#X connect 0 0 1 0;
#X connect 0 1 2 0;
#X connect 0 2 3 0;
#X connect 11 0 0 0;
#X coords 0 416 1 415 130 60 0;
