#N canvas 2121 743 450 300 10;
#X obj 58 26 inlet;
#X obj 58 234 outlet;
#X obj 94 135 f \$1;
#X obj 58 91 sel -1 1;
#X obj 94 163 + 1;
#X obj 58 162 - 1;
#X obj 58 135 f \$1;
#X obj 115 67 r \$0-recurse;
#X obj 115 91 t f f;
#X obj 108 195 s \$0-recurse;
#X connect 0 0 3 0;
#X connect 2 0 4 0;
#X connect 3 0 6 0;
#X connect 3 1 2 0;
#X connect 4 0 9 0;
#X connect 4 0 1 0;
#X connect 5 0 9 0;
#X connect 5 0 1 0;
#X connect 6 0 5 0;
#X connect 7 0 8 0;
#X connect 8 0 6 1;
#X connect 8 1 2 1;
