#N canvas 1156 327 450 300 10;
#X obj 70 154 cnv 15 120 25 empty empty empty 20 12 0 14 -262130 -66577
0;
#X obj 41 17 tgl 15 0 empty empty empty 17 7 0 10 -262144 -1 -1 0 1
;
#X msg 60 43 info;
#X obj 41 106 tickle~;
#X obj 80 132 route button;
#X obj 80 209 tgl 15 0 empty empty empty 17 7 0 10 -262144 -1 -1 0
1;
#X obj 123 209 tgl 15 0 empty empty empty 17 7 0 10 -262144 -1 -1 0
1;
#X text 143 84 Hold both buttons to activate a modifier;
#X obj 80 181 route up down modifier;
#X obj 166 210 tgl 15 0 empty empty empty 17 7 0 10 -262144 -1 -1 0
1;
#X obj 80 156 chair.modifier;
#X connect 1 0 3 0;
#X connect 2 0 3 0;
#X connect 3 1 4 0;
#X connect 4 0 10 0;
#X connect 8 0 5 0;
#X connect 8 1 6 0;
#X connect 8 2 9 0;
#X connect 10 0 8 0;
