#N canvas 412 563 602 300 10;
#X obj 29 17 noise~;
#X obj 30 47 lop~ 350;
#X obj 160 79 tgl 15 0 empty empty empty 17 7 0 10 -262144 -1 -1 1
1;
#X text 207 90 arguments:;
#X text 181 22 Simple abstraction to gate a signal with fade in and
out times., f 37;
#X text 254 113 \$1 fade in time (default 2);
#X text 254 126 \$2 fade out time (default 5);
#X floatatom 160 138 5 0 0 0 - - -;
#X text 220 178 outlet can be used in voices and abstractions to switch
off dsp processing to save cpu using;
#X obj 24 106 cnv 15 145 25 empty empty empty 20 12 0 14 -262130 -66577
0;
#X obj 31 110 chair.touchgate~ 1 500;
#X obj 30 159 dac~;
#X obj 160 182 switch~;
#X connect 0 0 1 0;
#X connect 1 0 10 0;
#X connect 2 0 10 1;
#X connect 7 0 12 0;
#X connect 10 0 11 0;
#X connect 10 0 11 1;
#X connect 10 1 7 0;
