#N canvas 587 443 663 602 10;
#X obj 103 116 hsl 66 17 -30 30 0 0 \$0-gain \$0-gain-r -20_dB 5 8
1 10 -166441 -262144 -262144 1083 0;
#X obj 84 13 inlet~;
#X obj 86 522 outlet~;
#X obj 100 333 line~;
#X msg 100 310 \$1 10;
#X obj 84 366 *~;
#X obj 140 13 inlet;
#X obj 100 153 / 20;
#X obj 100 175 t b f;
#X obj 100 221 pow;
#X msg 100 198 10;
#X obj 85 410 clip~ -1 1;
#X obj 100 242 moses 0.04;
#X obj 100 262 t b;
#X msg 100 283 0;
#X obj 260 453 -~;
#X obj 263 523 outlet clipping;
#X obj 157 311 outlet amplitude;
#X obj 330 412 s \$0-gain-r;
#X obj 330 145 r \$0-gain;
#X msg 330 328 label \$1_dB;
#X obj 330 228 int;
#X msg 231 386 color 1 0 0;
#X msg 231 363 color 13 0 0;
#X obj 330 205 * 10;
#X obj 330 252 / 10;
#X obj 259 476 threshold~ 0 100 0 100;
#X text 365 228 Reduce to one number after the decimal divider;
#X text 262 551 Clipping warner;
#X obj 14 13 inlet~;
#X obj 16 522 outlet~;
#X obj 14 366 *~;
#X obj 15 410 clip~ -1 1;
#N canvas 3059 507 450 300 argument 0;
#X obj 33 24 loadbang;
#X obj 33 220 outlet;
#X obj 33 70 makefilename .%c1;
#X obj 33 93 select .\$1;
#X msg 33 46 36;
#X obj 113 144 f \$1;
#X obj 113 118 t b;
#X msg 33 144 -20;
#X connect 0 0 4 0;
#X connect 2 0 3 0;
#X connect 3 0 7 0;
#X connect 3 1 6 0;
#X connect 4 0 2 0;
#X connect 5 0 1 0;
#X connect 6 0 5 0;
#X connect 7 0 1 0;
#X restore 151 40 pd argument;
#X obj 106 452 -~;
#X obj 105 475 threshold~ 0 100 0 100;
#X connect 0 0 7 0;
#X connect 1 0 5 0;
#X connect 3 0 5 1;
#X connect 3 0 31 1;
#X connect 4 0 3 0;
#X connect 5 0 11 0;
#X connect 5 0 15 1;
#X connect 6 0 0 0;
#X connect 7 0 8 0;
#X connect 8 0 10 0;
#X connect 8 1 9 1;
#X connect 9 0 12 0;
#X connect 10 0 9 0;
#X connect 11 0 2 0;
#X connect 11 0 15 0;
#X connect 12 0 13 0;
#X connect 12 1 4 0;
#X connect 12 1 17 0;
#X connect 13 0 14 0;
#X connect 14 0 4 0;
#X connect 14 0 17 0;
#X connect 15 0 26 0;
#X connect 19 0 24 0;
#X connect 20 0 18 0;
#X connect 21 0 25 0;
#X connect 22 0 18 0;
#X connect 23 0 18 0;
#X connect 24 0 21 0;
#X connect 25 0 20 0;
#X connect 26 0 16 0;
#X connect 26 0 22 0;
#X connect 26 1 23 0;
#X connect 29 0 31 0;
#X connect 31 0 32 0;
#X connect 31 0 34 1;
#X connect 32 0 30 0;
#X connect 32 0 34 0;
#X connect 33 0 0 0;
#X connect 34 0 35 0;
#X connect 35 0 16 0;
#X connect 35 0 22 0;
#X connect 35 1 23 0;
#X coords 0 -1 1 1 71 35 1 100 100;
