#N canvas 478 656 450 300 10;
#X msg 60 52 -1;
#X msg 97 52 1;
#X floatatom 60 151 5 0 0 0 - - -;
#X text 193 109 argument \$1 is initial value;
#X obj 54 106 cnv 15 125 25 empty empty empty 20 12 0 14 -262130 -66577
0;
#X obj 60 109 chair.increment 50;
#X connect 0 0 5 0;
#X connect 1 0 5 0;
#X connect 5 0 2 0;
