#N canvas 1096 532 436 429 10;
#X obj 40 6 inlet;
#X obj 40 394 outlet;
#X obj 40 48 route up down;
#X obj 40 148 +;
#X obj 40 174 == 2;
#X obj 40 315 change;
#X obj 49 122 t b f;
#X msg 147 343 up \$1;
#X msg 251 344 down \$1;
#X msg 40 341 modifier \$1;
#X obj 147 287 f;
#X obj 251 285 f;
#X obj 142 238 t b f;
#X obj 233 236 t b f;
#X msg 108 235 stop;
#X msg 197 237 stop;
#X obj 200 126 sel 1 0;
#X obj 119 74 t f f;
#X obj 40 74 t f f;
#X obj 113 127 sel 1 0;
#X msg 233 186 1;
#X msg 144 190 1;
#X msg 148 153 0;
#X msg 237 149 0;
#X obj 251 315 change;
#X obj 146 314 change;
#X obj 55 200 sel 1;
#X obj 199 261 delay 105;
#X obj 109 263 delay 105;
#X connect 0 0 2 0;
#X connect 2 0 18 0;
#X connect 2 1 17 0;
#X connect 3 0 4 0;
#X connect 4 0 5 0;
#X connect 4 0 26 0;
#X connect 5 0 9 0;
#X connect 6 0 3 0;
#X connect 6 1 3 1;
#X connect 7 0 1 0;
#X connect 8 0 1 0;
#X connect 9 0 1 0;
#X connect 10 0 25 0;
#X connect 11 0 24 0;
#X connect 12 0 28 0;
#X connect 12 1 10 1;
#X connect 13 0 27 0;
#X connect 13 1 11 1;
#X connect 14 0 28 0;
#X connect 15 0 27 0;
#X connect 16 0 20 0;
#X connect 16 1 23 0;
#X connect 17 0 6 0;
#X connect 17 1 16 0;
#X connect 18 0 3 0;
#X connect 18 1 19 0;
#X connect 19 0 21 0;
#X connect 19 1 22 0;
#X connect 20 0 13 0;
#X connect 21 0 12 0;
#X connect 22 0 10 0;
#X connect 23 0 11 0;
#X connect 24 0 8 0;
#X connect 25 0 7 0;
#X connect 26 0 14 0;
#X connect 26 0 15 0;
#X connect 27 0 11 0;
#X connect 28 0 10 0;
