#N canvas 328 436 554 300 10;
#X obj 54 33 hsl 128 15 0 1 0 0 empty empty empty -2 -8 0 10 -262144
-1 -1 0 1;
#X obj 54 197 hsl 128 15 0 2 0 0 empty empty empty -2 -8 0 10 -262144
-1 -1 0 1;
#X obj 51 81 pack f f;
#X obj 51 55 t f f;
#X text 210 57 How fast are the position coordinates changing?;
#X floatatom 70 171 5 0 0 0 - - -;
#X obj 47 133 cnv 15 85 25 empty empty empty 20 12 0 14 -262130 -66577
0;
#X obj 51 136 chair.speed;
#X connect 0 0 3 0;
#X connect 2 0 7 0;
#X connect 3 0 2 0;
#X connect 3 1 2 1;
#X connect 7 0 5 0;
#X connect 7 0 1 0;
