#N canvas 916 180 578 743 10;
#X obj 103 119 vsl 15 35 0 1 0 0 empty empty empty 0 -9 0 10 -262144
-1 -1 1700 1;
#X obj 148 119 vsl 15 35 0 1 0 0 empty empty empty 0 -9 0 10 -262144
-1 -1 1700 1;
#X obj 198 120 vsl 15 35 0 1 0 0 empty empty empty 0 -9 0 10 -262144
-1 -1 1700 1;
#X obj 103 27 / 127;
#X obj 173 30 / 127;
#X obj 245 30 / 127;
#X obj 103 6 ctlin 11 1;
#X obj 173 7 ctlin 12 1;
#X obj 245 7 ctlin 13 1;
#X obj 103 184 t f f;
#X obj 223 185 t f f;
#X obj 347 187 t f f;
#X msg 103 234 0 \$1;
#X msg 223 233 1 \$1;
#X msg 347 236 2 \$1;
#X obj 103 281 outlet;
#N canvas 1186 706 548 377 arguments 0;
#X obj 33 13 loadbang;
#X obj 162 237 outlet;
#X msg 33 35 36;
#X obj 219 145 t b;
#X obj 33 240 outlet;
#X obj 90 142 t b;
#X obj 33 110 select .\$1;
#X obj 162 110 select .\$2;
#X obj 90 168 f \$1;
#X obj 219 171 f \$2;
#X obj 283 236 outlet;
#X obj 340 143 t b;
#X obj 33 61 t f f f;
#X obj 283 109 select .\$3;
#X msg 33 167 0.5;
#X msg 162 161 0.5;
#X msg 283 160 0.5;
#X obj 71 208 clip 0 1;
#X obj 204 201 clip 0 1;
#X obj 326 200 clip 0 1;
#X obj 33 87 makefilename .%c1;
#X obj 162 87 makefilename .%c2;
#X obj 283 86 makefilename .%c3;
#X obj 340 169 f \$3;
#X obj 143 22 inlet;
#X connect 0 0 2 0;
#X connect 2 0 12 0;
#X connect 3 0 9 0;
#X connect 5 0 8 0;
#X connect 6 0 14 0;
#X connect 6 1 5 0;
#X connect 7 0 15 0;
#X connect 7 1 3 0;
#X connect 8 0 17 0;
#X connect 9 0 18 0;
#X connect 11 0 23 0;
#X connect 12 0 20 0;
#X connect 12 1 21 0;
#X connect 12 2 22 0;
#X connect 13 0 16 0;
#X connect 13 1 11 0;
#X connect 14 0 4 0;
#X connect 15 0 1 0;
#X connect 16 0 10 0;
#X connect 17 0 4 0;
#X connect 18 0 1 0;
#X connect 19 0 10 0;
#X connect 20 0 6 0;
#X connect 21 0 7 0;
#X connect 22 0 13 0;
#X connect 23 0 19 0;
#X connect 24 0 2 0;
#X restore 238 76 pd arguments;
#X obj 130 207 s \$4-param-1;
#X obj 250 209 s \$4-param-2;
#X obj 374 212 s \$4-param-3;
#X obj 316 7 inlet;
#X obj 298 50 select reset;
#X obj 316 29 symbol;
#X obj 170 375 ctlout 46;
#X obj 320 337 ctlout 47;
#X obj 398 337 ctlout 48;
#X obj 238 427 ctlout 49;
#X obj 320 428 ctlout 50;
#X obj 398 428 ctlout 51;
#X obj 234 526 ctlout 52;
#X obj 316 527 ctlout 53;
#X obj 395 527 ctlout 54;
#X obj 170 284 * 127;
#X msg 170 321 0;
#X obj 249 288 * 127;
#X obj 310 286 * 127;
#X obj 365 618 ctlout 55;
#X msg 365 592 10;
#X obj 365 567 loadbang;
#X obj 170 348 change;
#X msg 322 377 0;
#X obj 322 404 change;
#X msg 395 475 0;
#X obj 395 502 change;
#X connect 0 0 9 0;
#X connect 1 0 10 0;
#X connect 2 0 11 0;
#X connect 3 0 0 0;
#X connect 4 0 1 0;
#X connect 5 0 2 0;
#X connect 6 0 3 0;
#X connect 7 0 4 0;
#X connect 8 0 5 0;
#X connect 9 0 12 0;
#X connect 9 0 32 0;
#X connect 9 1 17 0;
#X connect 10 0 13 0;
#X connect 10 0 34 0;
#X connect 10 1 18 0;
#X connect 11 0 14 0;
#X connect 11 0 35 0;
#X connect 11 1 19 0;
#X connect 12 0 15 0;
#X connect 13 0 15 0;
#X connect 14 0 15 0;
#X connect 16 0 0 0;
#X connect 16 1 1 0;
#X connect 16 2 2 0;
#X connect 20 0 22 0;
#X connect 21 0 16 0;
#X connect 22 0 21 0;
#X connect 32 0 24 0;
#X connect 32 0 25 0;
#X connect 32 0 33 0;
#X connect 33 0 39 0;
#X connect 34 0 26 0;
#X connect 34 0 28 0;
#X connect 34 0 40 0;
#X connect 35 0 29 0;
#X connect 35 0 30 0;
#X connect 35 0 42 0;
#X connect 37 0 36 0;
#X connect 38 0 37 0;
#X connect 39 0 23 0;
#X connect 40 0 41 0;
#X connect 41 0 27 0;
#X connect 42 0 43 0;
#X connect 43 0 31 0;
#X coords 0 -1 1 1 140 60 1 100 100;
