#N canvas 1028 481 411 357 10;
#X obj 65 31 inlet~;
#X obj 66 289 outlet~;
#X obj 66 267 *~, f 12;
#X obj 135 174 line~;
#X obj 135 32 inlet;
#N canvas 960 255 450 300 arguments 0;
#X obj 33 24 loadbang;
#X obj 162 237 outlet;
#X msg 33 46 36;
#X obj 242 135 t b;
#X obj 33 240 outlet;
#X obj 113 141 t b;
#X obj 33 87 makefilename .%c1;
#X obj 162 87 makefilename .%c2;
#X obj 33 110 select .\$1;
#X obj 162 110 select .\$2;
#X obj 113 167 f \$1;
#X obj 242 161 f \$2;
#X msg 33 167 2;
#X msg 162 161 5;
#X connect 0 0 2 0;
#X connect 2 0 6 0;
#X connect 2 0 7 0;
#X connect 3 0 11 0;
#X connect 5 0 10 0;
#X connect 6 0 8 0;
#X connect 7 0 9 0;
#X connect 8 0 12 0;
#X connect 8 1 5 0;
#X connect 9 0 13 0;
#X connect 9 1 3 0;
#X connect 10 0 4 0;
#X connect 11 0 1 0;
#X connect 12 0 4 0;
#X connect 13 0 1 0;
#X restore 212 59 pd arguments;
#X obj 135 92 f 2;
#X obj 135 59 sel 1 0;
#X msg 135 143 1 \$1;
#X msg 185 145 0 \$1;
#X obj 185 92 f 5;
#X obj 135 239 exp~;
#X obj 135 197 *~ 7;
#X obj 135 218 -~ 7;
#X obj 268 227 delay;
#X obj 219 292 outlet;
#X obj 135 118 t f b;
#X msg 219 226 1;
#X obj 185 117 t f f;
#X msg 268 248 0;
#X connect 0 0 2 0;
#X connect 2 0 1 0;
#X connect 3 0 12 0;
#X connect 4 0 7 0;
#X connect 5 0 6 1;
#X connect 5 1 10 1;
#X connect 6 0 16 0;
#X connect 7 0 6 0;
#X connect 7 1 10 0;
#X connect 8 0 3 0;
#X connect 9 0 3 0;
#X connect 10 0 18 0;
#X connect 11 0 2 1;
#X connect 12 0 13 0;
#X connect 13 0 11 0;
#X connect 14 0 19 0;
#X connect 16 0 8 0;
#X connect 16 1 17 0;
#X connect 17 0 15 0;
#X connect 18 0 9 0;
#X connect 18 1 14 0;
#X connect 19 0 15 0;
