#N canvas 932 411 769 597 12;
#X obj 50 45 ctlin \$1 \$2;
#X obj 32 510 outlet;
#X text 279 321 https://www.midi.org/specifications-old/item/table-3-control-change-messages-data-bytes-2
;
#X obj 205 80 loadbang;
#X obj 205 116 f \$1;
#X obj 205 150 t f f, f 9;
#X obj 205 191 < 32;
#X obj 205 289 + 32;
#X obj 205 257 f, f 9;
#X obj 205 218 sel 1 0;
#X obj 282 285 print chair.14-bit-ctlin;
#X msg 282 258 please use controllers < 32;
#X obj 112 186 ctlin;
#X obj 112 225 pack f f f;
#X msg 112 254 \$3 \$2 \$1;
#X obj 112 284 route \$2;
#X obj 112 331 route;
#X obj 50 282 << 7;
#X obj 32 446 |, f 5;
#X obj 32 406 f;
#X obj 32 370 t b f;
#X connect 0 0 17 0;
#X connect 3 0 4 0;
#X connect 4 0 5 0;
#X connect 5 0 6 0;
#X connect 5 1 8 1;
#X connect 6 0 9 0;
#X connect 7 0 16 1;
#X connect 8 0 7 0;
#X connect 9 0 8 0;
#X connect 9 1 11 0;
#X connect 11 0 10 0;
#X connect 12 0 13 0;
#X connect 12 1 13 1;
#X connect 12 2 13 2;
#X connect 13 0 14 0;
#X connect 14 0 15 0;
#X connect 15 0 16 0;
#X connect 16 0 20 0;
#X connect 17 0 19 1;
#X connect 18 0 1 0;
#X connect 19 0 18 0;
#X connect 20 0 19 0;
#X connect 20 1 18 1;
