#N canvas 564 146 985 855 10;
#X declare -path chair;
#X declare -path abstractions;
#X obj 304 24 declare -path chair;
#X obj 304 46 declare -path abstractions;
#X obj 61 532 dac~;
#X obj 61 497 hip~ 4;
#X obj 223 242 tgl 15 0 empty \$0-active empty 17 7 0 10 -262144 -1
-1 1 1;
#X text 59 95 Rotaries:;
#N canvas 103 586 783 464 rotaries 0;
#X obj 285 180 s \$0-led1;
#X obj 474 179 s \$0-led2;
#X obj 112 173 s \$0-led0;
#X obj 103 119 vsl 15 35 0 1 0 0 empty empty empty 0 -9 0 10 -262144
-1 -1 2329 1;
#X obj 130 119 vsl 15 35 0 1 0 0 empty empty empty 0 -9 0 10 -262144
-1 -1 2650 1;
#X obj 159 119 vsl 15 35 0 1 0 0 empty empty empty 0 -9 0 10 -262144
-1 -1 3025 1;
#X obj 399 343 s \$0-bend;
#X obj 101 343 s \$0-sustain;
#X obj 238 341 s \$0-damping;
#X floatatom 147 318 5 0 0 0 - - -;
#X obj 178 217 - 1;
#X obj 179 278 *;
#X obj 178 245 t f f;
#X obj 103 18 ctlin 14 1;
#X obj 171 18 ctlin 15 1;
#X obj 243 18 ctlin 16 1;
#X obj 103 50 / 127;
#X obj 174 52 / 127;
#X obj 240 54 / 127;
#X connect 3 0 2 0;
#X connect 3 0 7 0;
#X connect 4 0 0 0;
#X connect 4 0 10 0;
#X connect 5 0 1 0;
#X connect 5 0 6 0;
#X connect 10 0 12 0;
#X connect 11 0 8 0;
#X connect 12 0 11 0;
#X connect 12 1 11 1;
#X connect 13 0 16 0;
#X connect 14 0 17 0;
#X connect 15 0 18 0;
#X connect 16 0 3 0;
#X connect 17 0 4 0;
#X connect 18 0 5 0;
#X coords 0 -1 1 1 85 60 1 100 100;
#X restore 61 32 pd rotaries;
#X obj 252 375 pack f f;
#X obj 62 443 chair.stereogain~;
#X obj 104 498 hip~ 4;
#X text 58 111 Dynamic-level \, Decay \, Brightness;
#X obj 60 262 chair.feedback-cancellation~;
#N canvas 4 181 450 300 init 0;
#X obj 37 37 loadbang;
#X msg 37 60 1;
#X obj 37 83 s \$0-active;
#X connect 0 0 1 0;
#X connect 1 0 2 0;
#X restore 304 69 pd init;
#X obj 61 407 clone karplus-faustgen 14 \$0;
#X obj 60 224 adc~ 1;
#N canvas 0 23 450 300 position 0;
#X obj 47 121 s \$0-xy;
#X obj 36 17 ctlin 12;
#X obj 107 17 ctlin 13;
#X obj 46 96 pack 0 0;
#X obj 103 74 t b f;
#X obj 36 49 / 127;
#X obj 107 48 / 127;
#X connect 1 0 5 0;
#X connect 2 0 6 0;
#X connect 3 0 0 0;
#X connect 4 0 3 0;
#X connect 4 1 3 1;
#X connect 5 0 3 0;
#X connect 6 0 4 0;
#X restore 60 171 pd position;
#X obj 252 203 notein 1;
#X obj 315 377 s \$0-current;
#X obj 252 260 change;
#X obj 252 316 % 14;
#X obj 252 286 t f f;
#X obj 252 234 stripnote;
#X obj 252 349 t f f, f 11;
#X connect 3 0 2 0;
#X connect 4 0 11 2;
#X connect 7 0 13 1;
#X connect 8 0 3 0;
#X connect 8 1 9 0;
#X connect 9 0 2 1;
#X connect 11 0 13 0;
#X connect 13 0 8 0;
#X connect 13 1 8 1;
#X connect 14 0 11 0;
#X connect 16 0 21 0;
#X connect 16 1 21 1;
#X connect 18 0 20 0;
#X connect 19 0 22 0;
#X connect 20 0 19 0;
#X connect 20 1 7 1;
#X connect 21 0 18 0;
#X connect 22 0 7 0;
#X connect 22 1 17 0;
