#N canvas 2025 453 823 680 10;
#X declare -path chair;
#X declare -path abstractions;
#X msg 80 397 gain \$1;
#X obj 80 375 nbx 5 14 0 1 0 0 empty empty empty 0 -8 0 10 -262144
-1 -1 1 256;
#X obj 66 31 tgl 15 0 empty empty empty 17 7 0 10 -262144 -1 -1 1 1
;
#X obj 66 91 tickle~;
#X msg 102 59 info;
#X obj 67 434 faustgen~ abstractions/eks;
#X obj 272 71 declare -path chair;
#X obj 272 93 declare -path abstractions;
#X obj 65 219 chair.gain~;
#X obj 95 303 hsl 128 15 0 1 0 0 empty empty empty -2 -8 0 10 -262144
-1 -1 8400 1;
#X msg 328 321 freq \$1;
#X obj 107 119 route pos rotary touch;
#X obj 107 146 route 0;
#X obj 151 181 chair.hex-mapping;
#X obj 167 217 chair.hex-tuning;
#X obj 181 247 chair.transpose-oct;
#X msg 92 327 pick_angle \$1;
#X obj 387 431 hsl 128 15 0 1 0 0 empty empty empty -2 -8 0 10 -262144
-1 -1 5600 1;
#X msg 384 455 pick_position \$1;
#X obj 374 352 hsl 128 15 0 1 0 0 empty empty empty -2 -8 0 10 -262144
-1 -1 2300 1;
#X msg 372 376 brightness \$1;
#X obj 68 485 chair.gain~;
#X obj 67 572 dac~;
#X obj 67 537 hip~ 4;
#X connect 0 0 5 0;
#X connect 1 0 0 0;
#X connect 2 0 3 0;
#X connect 3 0 8 0;
#X connect 3 1 11 0;
#X connect 4 0 3 0;
#X connect 5 0 21 0;
#X connect 8 0 5 0;
#X connect 9 0 16 0;
#X connect 10 0 5 0;
#X connect 11 0 12 0;
#X connect 12 0 13 0;
#X connect 13 0 14 0;
#X connect 14 0 15 0;
#X connect 15 0 10 0;
#X connect 16 0 5 0;
#X connect 17 0 18 0;
#X connect 18 0 5 0;
#X connect 19 0 20 0;
#X connect 20 0 5 0;
#X connect 21 0 23 0;
#X connect 23 0 22 0;
#X connect 23 0 22 1;
