#N canvas 294 23 985 855 10;
#X declare -path chair;
#X declare -path abstractions;
#X obj 549 23 declare -path chair;
#X obj 549 45 declare -path abstractions;
#X obj 65 694 dac~;
#X obj 65 659 hip~ 4;
#X obj 227 404 tgl 15 0 empty \$0-active empty 17 7 0 10 -262144 -1
-1 1 1;
#X text 63 257 Rotaries:;
#N canvas 0 30 985 1018 rotaries 0;
#X obj 103 6 inlet;
#X obj 285 180 s \$0-led1;
#X obj 474 179 s \$0-led2;
#X obj 112 173 s \$0-led0;
#X obj 103 119 vsl 15 35 0 1 0 0 empty empty empty 0 -9 0 10 -262144
-1 -1 3400 1;
#X obj 103 30 route 0 1 2;
#X obj 130 119 vsl 15 35 0 1 0 0 empty empty empty 0 -9 0 10 -262144
-1 -1 1500 1;
#X obj 159 119 vsl 15 35 0 1 0 0 empty empty empty 0 -9 0 10 -262144
-1 -1 3400 1;
#X obj 103 73 chair.rotary-limit-range 24;
#X obj 283 73 chair.rotary-limit-range 24;
#X obj 465 73 chair.rotary-limit-range 24;
#X obj 344 3 loadbang;
#X msg 346 27 20;
#X obj 399 343 s \$0-bend;
#X obj 101 343 s \$0-sustain;
#X obj 238 341 s \$0-damping;
#X floatatom 147 318 5 0 0 0 - - -;
#X obj 178 217 - 1;
#X obj 179 278 *;
#X obj 178 245 t f f;
#X connect 0 0 5 0;
#X connect 4 0 3 0;
#X connect 4 0 14 0;
#X connect 5 0 8 0;
#X connect 5 1 9 0;
#X connect 5 2 10 0;
#X connect 6 0 1 0;
#X connect 6 0 17 0;
#X connect 7 0 2 0;
#X connect 7 0 13 0;
#X connect 8 0 4 0;
#X connect 9 0 6 0;
#X connect 10 0 7 0;
#X connect 11 0 12 0;
#X connect 12 0 8 1;
#X connect 12 0 9 1;
#X connect 12 0 10 1;
#X connect 17 0 19 0;
#X connect 18 0 15 0;
#X connect 19 0 18 0;
#X connect 19 1 18 1;
#X coords 0 -1 1 1 85 60 1 100 100;
#X restore 65 194 pd rotaries;
#X text 695 169 In this variation we have one voice per pad (14 in
total) each voice keeps its tuning as long as the scale or octave isn't
changed., f 34;
#X obj 310 512 pack f f;
#X obj 66 605 chair.stereogain~;
#X obj 108 660 hip~ 4;
#X text 62 273 Dynamic-level \, Decay \, Brightness;
#X obj 64 424 chair.feedback-cancellation~;
#N canvas 4 181 450 300 init 0;
#X obj 37 37 loadbang;
#X msg 37 60 1;
#X obj 37 83 s \$0-active;
#X connect 0 0 1 0;
#X connect 1 0 2 0;
#X restore 549 68 pd init;
#X obj 65 569 clone karplus-faustgen 14 \$0;
#X obj 64 386 adc~ 1;
#X obj 352 333 s \$0-touch;
#N canvas 0 23 450 300 position 0;
#X obj 47 121 s \$0-xy;
#X obj 36 17 ctlin 12;
#X obj 107 17 ctlin 13;
#X obj 46 96 pack 0 0;
#X obj 103 74 t b f;
#X obj 36 49 / 127;
#X obj 107 48 / 127;
#X connect 1 0 5 0;
#X connect 2 0 6 0;
#X connect 3 0 0 0;
#X connect 4 0 3 0;
#X connect 4 1 3 1;
#X connect 5 0 3 0;
#X connect 6 0 4 0;
#X restore 64 333 pd position;
#X obj 352 302 > 0;
#X obj 308 265 notein 1;
#X obj 325 443 s \$0-current;
#X obj 308 303 change;
#X obj 308 372 % 14;
#X obj 308 342 t f f;
#X connect 3 0 2 0;
#X connect 4 0 12 2;
#X connect 8 0 14 1;
#X connect 9 0 3 0;
#X connect 9 1 10 0;
#X connect 10 0 2 1;
#X connect 12 0 14 0;
#X connect 14 0 9 0;
#X connect 14 1 9 1;
#X connect 15 0 12 0;
#X connect 18 0 16 0;
#X connect 19 0 21 0;
#X connect 19 1 18 0;
#X connect 21 0 23 0;
#X connect 22 0 20 0;
#X connect 22 0 8 0;
#X connect 23 0 22 0;
#X connect 23 1 8 1;
