#N canvas 449 121 599 526 10;
#X declare -path chair;
#X declare -path abstractions;
#X obj 334 44 declare -path chair;
#X obj 334 66 declare -path abstractions;
#X obj 337 309 hsl 128 15 0 0.9 0 0 empty empty empty -2 -8 0 10 -262144
-1 -1 0 1;
#X obj 338 258 hsl 128 15 0.02 0.5 0 0 empty empty empty -2 -8 0 10
-262144 -1 -1 0 1;
#X obj 27 439 dac~;
#X obj 27 404 hip~ 4;
#X obj 191 78 tgl 15 0 empty \$0-active empty 17 7 0 10 -262144 -1
-1 1 1;
#X text 333 203 Rotaries:;
#N canvas 1070 657 646 397 rotaries 0;
#X obj 285 180 s \$0-led1;
#X obj 474 179 s \$0-led2;
#X obj 112 173 s \$0-led0;
#X obj 103 119 vsl 15 35 0 1 0 0 empty empty empty 0 -9 0 10 -262144
-1 -1 0 1;
#X obj 130 119 vsl 15 35 0 1 0 0 empty empty empty 0 -9 0 10 -262144
-1 -1 0 1;
#X obj 159 119 vsl 15 35 0 1 0 0 empty empty empty 0 -9 0 10 -262144
-1 -1 0 1;
#X obj 217 285 * 10;
#X obj 399 343 s \$0-brightness;
#X obj 241 340 s \$0-decaytime;
#X obj 103 340 s \$0-dynamic_level;
#X obj 103 260 * 60;
#X obj 103 283 - 60;
#X obj 103 18 ctlin 14 1;
#X obj 171 18 ctlin 15 1;
#X obj 243 18 ctlin 16 1;
#X obj 103 50 / 127;
#X obj 174 52 / 127;
#X obj 240 54 / 127;
#X connect 3 0 2 0;
#X connect 3 0 10 0;
#X connect 4 0 0 0;
#X connect 4 0 6 0;
#X connect 5 0 1 0;
#X connect 5 0 7 0;
#X connect 6 0 8 0;
#X connect 10 0 11 0;
#X connect 11 0 9 0;
#X connect 12 0 15 0;
#X connect 13 0 16 0;
#X connect 14 0 17 0;
#X connect 15 0 3 0;
#X connect 16 0 4 0;
#X connect 17 0 5 0;
#X coords 0 -1 1 1 85 60 1 100 100;
#X restore 335 140 pd rotaries;
#X obj 335 328 s \$0-pick_angle;
#X obj 335 276 s \$0-pick_position;
#X obj 28 350 chair.stereogain~;
#X obj 70 405 hip~ 4;
#X text 332 219 Dynamic-level \, Decay \, Brightness;
#X obj 27 68 *~ 2.5;
#X obj 336 361 hsl 128 15 0 1 0 0 empty empty empty -2 -8 0 10 -262144
-1 -1 0 1;
#X obj 333 380 s \$0-center-panned_spatial_width;
#X obj 335 415 hsl 128 15 0 1 0 0 empty empty empty -2 -8 0 10 -262144
-1 -1 0 1;
#X obj 332 434 s \$0-pan_angle;
#X obj 27 314 clone eks-faustgen 14 \$0;
#X obj 28 98 chair.feedback-cancellation~;
#N canvas 4 181 450 300 init 0;
#X obj 37 37 loadbang;
#X msg 37 60 1;
#X obj 37 83 s \$0-active;
#X connect 0 0 1 0;
#X connect 1 0 2 0;
#X restore 334 89 pd init;
#X obj 28 33 adc~ 1;
#X obj 168 137 notein 1;
#X obj 231 282 s \$0-current;
#X obj 168 225 % 14;
#X obj 168 169 stripnote;
#X obj 168 250 t f f, f 11;
#X obj 168 280 pack f f;
#X obj 168 200 t f f, f 8;
#X connect 2 0 9 0;
#X connect 3 0 10 0;
#X connect 5 0 4 0;
#X connect 6 0 20 2;
#X connect 11 0 5 0;
#X connect 11 1 12 0;
#X connect 12 0 4 1;
#X connect 14 0 20 0;
#X connect 15 0 16 0;
#X connect 17 0 18 0;
#X connect 19 0 11 0;
#X connect 19 1 11 1;
#X connect 20 0 19 0;
#X connect 22 0 14 0;
#X connect 23 0 26 0;
#X connect 23 1 26 1;
#X connect 25 0 27 0;
#X connect 26 0 29 0;
#X connect 27 0 28 0;
#X connect 27 1 24 0;
#X connect 28 0 19 1;
#X connect 29 0 25 0;
#X connect 29 1 28 1;
