#N canvas 797 300 717 801 10;
#X declare -path chair;
#X declare -path abstractions;
#X obj 31 15 tgl 15 0 empty empty empty 17 7 0 10 -262144 -1 -1 0 1
;
#X obj 31 104 tickle~;
#X msg 50 41 info;
#X obj 151 215 s \$0-xy;
#X obj 70 216 s \$0-touch;
#X obj 258 171 s \$0-updown;
#X obj 468 29 declare -path chair;
#N canvas 1168 731 676 343 LED 0;
#X obj 69 185 outlet;
#X obj 35 33 r \$0-led0;
#X obj 144 33 r \$0-led1;
#X obj 243 28 r \$0-led2;
#X msg 35 68 led 0 \$1 0 \$1;
#X msg 243 71 led 2 \$1 \$1 0;
#X msg 144 71 led 1 0 \$1 \$1;
#X connect 1 0 4 0;
#X connect 2 0 6 0;
#X connect 3 0 5 0;
#X connect 4 0 0 0;
#X connect 5 0 0 0;
#X connect 6 0 0 0;
#X restore 62 73 pd LED;
#X obj 154 413 r \$0-touch;
#X obj 32 296 chair.gain~;
#X obj 226 334 tgl 15 0 empty \$0-active empty 17 7 0 10 -262144 -1
-1 1 1;
#X obj 468 51 declare -path abstractions;
#X obj 280 444 f;
#X obj 307 444 + 1;
#N canvas 1241 683 647 416 mapping 0;
#X obj 150 297 expr $f1*cos($f2);
#X obj 266 297 expr $f1*sin($f2);
#X msg 150 154 1 \$1;
#X obj 150 180 -;
#X obj 93 182 + 1000;
#X msg 23 92 1 \$1;
#X obj 23 115 -;
#X obj 23 323 s \$0-pitch;
#X obj 93 324 s \$0-lop;
#X obj 150 324 s \$0-feedreal;
#X obj 266 323 s \$0-feedimag;
#X obj 93 62 sqrt;
#X obj 493 324 s \$0-feedimag2;
#X obj 380 325 s \$0-feedreal2;
#X obj 150 133 * 0.001;
#X obj 23 182 + 0.05;
#X obj 23 66 sqrt;
#X obj 93 133 * 6000;
#X obj 493 99 * 3.14159;
#X obj 266 91 * 3.14159;
#X obj 380 296 expr $f1*cos($f2);
#X obj 493 298 expr $f1*sin($f2);
#X obj 493 75 * -1;
#X obj 93 84 sqrt;
#X obj 23 137 * 0.3;
#X obj 493 17 r \$0-fundamental;
#X obj 266 14 r \$0-subharmonics;
#X obj 23 35 unpack f f;
#X obj 23 13 r \$0-xy;
#X obj 93 106 t f f;
#X obj 493 211 t b f b f;
#X obj 266 209 t b f b f;
#X obj 150 208 t f f f f;
#X connect 0 0 9 0;
#X connect 1 0 10 0;
#X connect 2 0 3 0;
#X connect 3 0 32 0;
#X connect 4 0 8 0;
#X connect 5 0 6 0;
#X connect 6 0 24 0;
#X connect 11 0 23 0;
#X connect 14 0 2 0;
#X connect 15 0 7 0;
#X connect 16 0 5 0;
#X connect 17 0 4 0;
#X connect 18 0 30 0;
#X connect 19 0 31 0;
#X connect 20 0 13 0;
#X connect 21 0 12 0;
#X connect 22 0 18 0;
#X connect 23 0 29 0;
#X connect 24 0 15 0;
#X connect 25 0 22 0;
#X connect 26 0 19 0;
#X connect 27 0 16 0;
#X connect 27 1 11 0;
#X connect 28 0 27 0;
#X connect 29 0 17 0;
#X connect 29 1 14 0;
#X connect 30 0 20 0;
#X connect 30 1 20 1;
#X connect 30 2 21 0;
#X connect 30 3 21 1;
#X connect 31 0 0 0;
#X connect 31 1 0 1;
#X connect 31 2 1 0;
#X connect 31 3 1 1;
#X connect 32 0 0 0;
#X connect 32 1 1 0;
#X connect 32 2 20 0;
#X connect 32 3 21 0;
#X restore 229 39 pd mapping;
#X obj 280 420 sel 1;
#X obj 280 398 r \$0-touch;
#X text 206 256 Rotaries:;
#X obj 32 679 hip~ 4;
#X obj 31 709 dac~;
#X obj 33 658 chair.vfreeverb~;
#X obj 77 680 hip~ 4;
#N canvas 1157 643 646 397 rotaries 0;
#X obj 103 6 inlet;
#X obj 285 180 s \$0-led1;
#X obj 474 179 s \$0-led2;
#X obj 112 173 s \$0-led0;
#X obj 103 119 vsl 15 35 0 1 0 0 empty empty empty 0 -9 0 10 -262144
-1 -1 2692 1;
#X obj 103 30 route 0 1 2;
#X obj 130 119 vsl 15 35 0 1 0 0 empty empty empty 0 -9 0 10 -262144
-1 -1 850 1;
#X obj 159 119 vsl 15 35 0 1 0 0 empty empty empty 0 -9 0 10 -262144
-1 -1 992 1;
#X obj 103 73 chair.rotary-limit-range 24;
#X obj 283 73 chair.rotary-limit-range 24;
#X obj 465 73 chair.rotary-limit-range 24;
#X obj 241 340 s \$0-roomsize;
#X obj 400 334 s \$0-subharmonics;
#X obj 103 340 s \$0-fundamental;
#X msg 263 29 18;
#X msg 364 36 5;
#X obj 311 4 loadbang;
#X msg 462 35 6;
#X connect 0 0 5 0;
#X connect 4 0 3 0;
#X connect 4 0 13 0;
#X connect 5 0 8 0;
#X connect 5 1 9 0;
#X connect 5 2 10 0;
#X connect 6 0 1 0;
#X connect 6 0 11 0;
#X connect 7 0 2 0;
#X connect 7 0 12 0;
#X connect 8 0 4 0;
#X connect 9 0 6 0;
#X connect 10 0 7 0;
#X connect 14 0 8 1;
#X connect 15 0 9 1;
#X connect 16 0 14 0;
#X connect 16 0 15 0;
#X connect 16 0 17 0;
#X connect 17 0 10 1;
#X coords 0 -1 1 1 85 60 1 100 100;
#X restore 208 193 pd rotaries;
#X obj 79 633 r \$0-roomsize;
#X obj 32 541 *~ 0.3;
#X obj 280 468 s \$0-current;
#X obj 279 760 s \$0-detune;
#X obj 279 563 r \$0-xy;
#X obj 279 591 chair.gesture;
#X obj 354 565 r \$0-touch;
#X obj 279 617 unpack f f f f;
#X text 205 272 Fundamental \, Roomsize \, Subharmonics;
#X obj 279 715 * -59;
#X obj 279 736 + 80;
#X obj 32 514 clone karplus-double-complex 5 \$0;
#X obj 334 444 % 5;
#X floatatom 414 671 5 0 0 0 - - -;
#X floatatom 300 689 5 0 0 0 - - -;
#X floatatom 319 670 5 0 0 0 - - -;
#X floatatom 357 663 5 0 0 0 - - -;
#X obj 70 191 chair.capsense;
#X obj 70 131 route position rotary button;
#X obj 33 578 chair.gain~;
#X obj 31 438 chair.touchgate~ 1 30;
#X text 342 118 In this example we ignore the hexagon pads and create
one continuous surface for sonic exploration.;
#X obj 31 357 chair.feedback-cancellation~ 50 1;
#N canvas 1202 590 450 300 init 0;
#X obj 82 37 loadbang;
#X msg 82 60 1;
#X obj 82 83 s \$0-active;
#X connect 0 0 1 0;
#X connect 1 0 2 0;
#X restore 469 73 pd init;
#X connect 0 0 1 0;
#X connect 1 0 9 0;
#X connect 1 1 41 0;
#X connect 2 0 1 0;
#X connect 7 0 1 0;
#X connect 8 0 43 1;
#X connect 9 0 45 0;
#X connect 10 0 45 2;
#X connect 12 0 13 0;
#X connect 12 0 25 0;
#X connect 13 0 35 0;
#X connect 15 0 12 0;
#X connect 16 0 15 0;
#X connect 18 0 19 0;
#X connect 20 0 18 0;
#X connect 20 1 21 0;
#X connect 21 0 19 1;
#X connect 23 0 20 2;
#X connect 23 0 20 4;
#X connect 24 0 42 0;
#X connect 27 0 28 0;
#X connect 28 0 30 0;
#X connect 29 0 28 1;
#X connect 30 0 32 0;
#X connect 30 0 37 0;
#X connect 30 1 38 0;
#X connect 30 2 39 0;
#X connect 30 3 36 0;
#X connect 32 0 33 0;
#X connect 33 0 26 0;
#X connect 34 0 24 0;
#X connect 35 0 12 1;
#X connect 40 0 4 0;
#X connect 40 1 3 0;
#X connect 41 0 40 0;
#X connect 41 1 22 0;
#X connect 41 2 5 0;
#X connect 42 0 20 0;
#X connect 42 0 20 1;
#X connect 43 0 34 0;
#X connect 45 0 43 0;
