#N canvas 449 226 923 766 10;
#X declare -path chair;
#X declare -path abstractions;
#X obj 66 24 tgl 15 0 empty empty empty 17 7 0 10 -262144 -1 -1 1 1
;
#X obj 66 91 tickle~;
#X msg 85 43 info;
#X obj 549 23 declare -path chair;
#X obj 549 45 declare -path abstractions;
#X obj 280 322 hsl 128 15 0 0.9 0 0 empty empty empty -2 -8 0 10 -262144
-1 -1 0 1;
#X obj 281 271 hsl 128 15 0.02 0.5 0 0 empty empty empty -2 -8 0 10
-262144 -1 -1 0 1;
#X obj 65 694 dac~;
#X obj 65 659 hip~ 4;
#X obj 160 205 s \$0-touch;
#X obj 227 404 tgl 15 0 empty \$0-active empty 17 7 0 10 -262144 -1
-1 1 1;
#X text 278 207 Rotaries:;
#N canvas 1070 657 646 397 rotaries 0;
#X obj 103 6 inlet;
#X obj 285 180 s \$0-led1;
#X obj 474 179 s \$0-led2;
#X obj 112 173 s \$0-led0;
#X obj 103 119 vsl 15 35 0 1 0 0 empty empty empty 0 -9 0 10 -262144
-1 -1 1700 1;
#X obj 103 30 route 0 1 2;
#X obj 130 119 vsl 15 35 0 1 0 0 empty empty empty 0 -9 0 10 -262144
-1 -1 142 1;
#X obj 159 119 vsl 15 35 0 1 0 0 empty empty empty 0 -9 0 10 -262144
-1 -1 2692 1;
#X obj 103 73 chair.rotary-limit-range 24;
#X obj 283 73 chair.rotary-limit-range 24;
#X obj 465 73 chair.rotary-limit-range 24;
#X obj 217 285 * 10;
#X obj 399 343 s \$0-brightness;
#X obj 241 340 s \$0-decaytime;
#X obj 103 340 s \$0-dynamic_level;
#X obj 103 260 * 60;
#X obj 103 283 - 60;
#X obj 344 3 loadbang;
#X msg 346 27 20;
#X connect 0 0 5 0;
#X connect 4 0 3 0;
#X connect 4 0 15 0;
#X connect 5 0 8 0;
#X connect 5 1 9 0;
#X connect 5 2 10 0;
#X connect 6 0 1 0;
#X connect 6 0 11 0;
#X connect 7 0 2 0;
#X connect 7 0 12 0;
#X connect 8 0 4 0;
#X connect 9 0 6 0;
#X connect 10 0 7 0;
#X connect 11 0 13 0;
#X connect 15 0 16 0;
#X connect 16 0 14 0;
#X connect 17 0 18 0;
#X connect 18 0 8 1;
#X connect 18 0 9 1;
#X connect 18 0 10 1;
#X coords 0 -1 1 1 85 60 1 100 100;
#X restore 280 144 pd rotaries;
#X floatatom 680 325 5 0 0 0 - - -;
#X obj 668 273 r \$0-xy;
#X obj 668 295 chair.hex-mapping;
#X obj 668 371 s \$0-current;
#X text 694 169 In this variation we have one voice per pad (14 in
total) each voice keeps its tuning as long as the scale or octave isn't
changed., f 34;
#X obj 493 337 until;
#X msg 493 314 14;
#X obj 493 367 f;
#X obj 524 367 + 1;
#X obj 493 283 t b b;
#X msg 542 337 0;
#X obj 493 518 pack f f;
#X floatatom 554 446 5 0 0 0 - - -;
#X obj 538 422 chair.hex-tuning;
#X obj 493 397 t f f;
#X obj 493 237 loadbang;
#X obj 604 241 t b a;
#X msg 604 184 g_major;
#X msg 623 208 b_minor;
#X obj 668 347 change;
#X obj 538 470 chair.transpose-oct -2;
#X obj 667 422 r \$0-updown;
#X obj 278 341 s \$0-pick_angle;
#X obj 278 289 s \$0-pick_position;
#X obj 228 205 s \$0-xy;
#X obj 105 227 s \$0-updown;
#X obj 66 605 chair.stereogain~;
#X obj 108 660 hip~ 4;
#X text 277 223 Dynamic-level \, Decay \, Brightness;
#X obj 65 256 *~ 2.5;
#X obj 279 374 hsl 128 15 0 1 0 0 empty empty empty -2 -8 0 10 -262144
-1 -1 0 1;
#X obj 276 393 s \$0-center-panned_spatial_width;
#X obj 278 428 hsl 128 15 0 1 0 0 empty empty empty -2 -8 0 10 -262144
-1 -1 0 1;
#X obj 275 447 s \$0-pan_angle;
#X obj 65 569 clone eks-faustgen 14 \$0;
#X obj 105 119 route button position rotary;
#X obj 160 172 chair.capsense;
#X obj 64 424 chair.feedback-cancellation~;
#X obj 182 327 r \$0-touch;
#X obj 65 353 chair.touchgate~ 1 3;
#N canvas 1168 731 676 343 LED 0;
#X obj 69 185 outlet;
#X obj 35 33 r \$0-led0;
#X obj 144 33 r \$0-led1;
#X obj 243 28 r \$0-led2;
#X msg 35 68 led 0 \$1 0 \$1;
#X msg 243 71 led 2 \$1 \$1 0;
#X msg 144 71 led 1 0 \$1 \$1;
#X connect 1 0 4 0;
#X connect 2 0 6 0;
#X connect 3 0 5 0;
#X connect 4 0 0 0;
#X connect 5 0 0 0;
#X connect 6 0 0 0;
#X restore 100 65 pd LED;
#N canvas 4 181 450 300 init 0;
#X obj 37 37 loadbang;
#X msg 37 60 1;
#X obj 37 83 s \$0-active;
#X connect 0 0 1 0;
#X connect 1 0 2 0;
#X restore 549 68 pd init;
#X connect 0 0 1 0;
#X connect 1 0 42 0;
#X connect 1 1 48 0;
#X connect 2 0 1 0;
#X connect 5 0 35 0;
#X connect 6 0 36 0;
#X connect 8 0 7 0;
#X connect 10 0 50 2;
#X connect 14 0 15 0;
#X connect 15 0 13 0;
#X connect 15 0 32 0;
#X connect 18 0 20 0;
#X connect 19 0 18 0;
#X connect 20 0 21 0;
#X connect 20 0 27 0;
#X connect 21 0 20 1;
#X connect 22 0 19 0;
#X connect 22 1 23 0;
#X connect 23 0 20 1;
#X connect 24 0 47 1;
#X connect 26 0 25 0;
#X connect 26 0 33 0;
#X connect 27 0 24 0;
#X connect 27 1 26 0;
#X connect 28 0 22 0;
#X connect 29 0 22 0;
#X connect 29 1 26 1;
#X connect 30 0 29 0;
#X connect 31 0 29 0;
#X connect 32 0 16 0;
#X connect 33 0 24 1;
#X connect 33 1 22 0;
#X connect 34 0 33 1;
#X connect 39 0 8 0;
#X connect 39 1 40 0;
#X connect 40 0 7 1;
#X connect 42 0 52 0;
#X connect 43 0 44 0;
#X connect 45 0 46 0;
#X connect 47 0 39 0;
#X connect 47 1 39 1;
#X connect 48 0 38 0;
#X connect 48 1 49 0;
#X connect 48 2 12 0;
#X connect 49 0 9 0;
#X connect 49 1 37 0;
#X connect 50 0 47 0;
#X connect 51 0 52 1;
#X connect 52 0 50 0;
#X connect 53 0 1 0;
