#N canvas 552 219 1321 821 10;
#X declare -path abstractions;
#X declare -lib chair;
#X obj 44 587 dac~;
#X obj 633 393 hsl 128 15 0 1 0 0 empty empty empty -2 -8 0 10 -262144
-1 -1 0 1;
#X floatatom 936 387 5 0 0 0 - - -;
#X text 931 366 get an integer division of string;
#X msg 664 325 0.5;
#X msg 788 325 0.2;
#X msg 822 325 0.16667;
#X msg 942 325 0.125;
#X msg 630 325 0;
#X msg 788 301 0.4;
#X msg 883 301 0.28574;
#X msg 883 325 0.14286;
#X msg 990 325 0.11111;
#X msg 696 325 0.33333;
#X msg 696 301 0.66667;
#X msg 990 301 0.22222;
#X msg 1050 325 0.1;
#X msg 1085 325 0.090909;
#X msg 1085 301 0.181818;
#X text 838 275 harmonic nodes;
#X floatatom 630 457 8 0 0 0 - - -;
#X text 663 415 del time offset multiplier;
#X floatatom 1019 399 5 0 0 0 - - -;
#X obj 936 413 expr 1./$f1;
#X msg 751 325 0.25;
#X msg 943 299 0.375;
#X msg 989 277 0.44444;
#X msg 1050 302 0.3;
#X msg 1085 278 0.545455;
#X obj 1019 425 expr 1 - (1./$f1);
#X obj 43 153 tickle~;
#X obj 43 65 tgl 15 0 empty empty empty 17 7 0 10 -262144 -1 -1 0 1
;
#X obj 249 32 declare -path abstractions;
#X obj 249 55 declare -lib chair;
#X obj 43 357 chair.gain~;
#X obj 43 522 chair.gain~;
#X msg 57 84 info;
#X obj 42 413 chair.touchgate~;
#X obj 82 286 chair.capsense;
#X obj 163 311 s \$0-xy;
#X obj 82 312 s \$0-touch;
#X obj 135 387 r \$0-touch;
#X obj 392 141 r \$0-xy;
#X obj 392 163 chair.hex-mapping;
#X obj 473 186 r \$0-touch;
#X floatatom 392 278 5 0 0 0 - - -;
#X obj 593 106 chair.gesture;
#X obj 392 232 t f f;
#X obj 593 79 r \$0-xy;
#X obj 668 79 r \$0-touch;
#X obj 419 254 s \$0-current;
#X obj 630 543 s \$0-offset;
#X obj 60 332 tgl 15 0 empty empty empty 17 7 0 10 -262144 -1 -1 0
1;
#X floatatom 647 188 5 0 0 1 distance - -;
#X floatatom 620 215 5 0 0 1 y-offset - -;
#X floatatom 593 242 5 0 0 1 x-offset - -;
#X obj 593 132 unpack f f f f;
#X floatatom 674 161 5 0 0 1 angle - -;
#X obj 685 275 - 1;
#X msg 685 244 1 \$1;
#X floatatom 232 200 5 0 0 0 - - -;
#X floatatom 112 108 5 0 0 0 - - -;
#X msg 112 130 latency \$1;
#N canvas 79 704 664 369 rotaries 0;
#X obj 102 25 inlet;
#X floatatom 136 275 5 0 0 0 - - -;
#X obj 283 195 * 9000;
#X floatatom 294 237 5 0 0 0 - - -;
#X obj 285 168 s \$0-led1;
#X obj 467 169 s \$0-led2;
#X obj 110 169 s \$0-led0;
#X obj 103 119 vsl 15 35 0 1 0 0 empty empty empty 0 -9 0 10 -262144
-1 -1 3329 1;
#X obj 102 49 route 0 1 2;
#X obj 130 119 vsl 15 35 0 1 0 0 empty empty empty 0 -9 0 10 -262144
-1 -1 2975 1;
#X obj 159 120 vsl 15 35 0 1 0 0 empty empty empty 0 -9 0 10 -262144
-1 -1 1558 1;
#X obj 354 7 loadbang;
#X obj 283 73 chair.rotary-limit-range 24;
#X obj 465 73 chair.rotary-limit-range 24;
#X msg 361 37 20;
#X msg 396 40 10;
#X obj 467 220 * 1;
#X obj 102 73 chair.rotary-limit-range 48;
#X obj 283 304 s \$0-lp;
#X obj 103 298 s \$0-feedback;
#X obj 103 219 sqrt;
#X obj 103 243 sqrt;
#X msg 325 38 46;
#X obj 283 216 + 500;
#X obj 467 301 s \$0-x;
#X connect 0 0 8 0;
#X connect 2 0 23 0;
#X connect 7 0 6 0;
#X connect 7 0 20 0;
#X connect 8 0 17 0;
#X connect 8 1 12 0;
#X connect 8 2 13 0;
#X connect 9 0 4 0;
#X connect 9 0 2 0;
#X connect 10 0 5 0;
#X connect 10 0 16 0;
#X connect 11 0 14 0;
#X connect 11 0 22 0;
#X connect 11 0 15 0;
#X connect 12 0 9 0;
#X connect 13 0 10 0;
#X connect 14 0 12 1;
#X connect 15 0 13 1;
#X connect 16 0 24 0;
#X connect 17 0 7 0;
#X connect 20 0 21 0;
#X connect 21 0 19 0;
#X connect 21 0 1 0;
#X connect 22 0 17 1;
#X connect 23 0 3 0;
#X connect 23 0 18 0;
#X coords 0 -1 1 1 85 60 1 100 100;
#X restore 139 203 pd rotaries;
#X obj 82 176 route position rotary latency;
#X obj 299 319 r \$0-feedback;
#X floatatom 299 343 5 0 0 0 - - -;
#N canvas 941 662 464 257 LED 0;
#X obj 69 185 outlet;
#X obj 35 33 r \$0-led0;
#X obj 144 33 r \$0-led1;
#X obj 243 36 r \$0-led2;
#X msg 35 68 led 0 \$1 0 \$1;
#X msg 144 71 led 1 0 \$1 \$1;
#X msg 243 74 led 2 \$1 \$1 0;
#X connect 1 0 4 0;
#X connect 2 0 5 0;
#X connect 3 0 6 0;
#X connect 4 0 0 0;
#X connect 5 0 0 0;
#X connect 6 0 0 0;
#X restore 61 106 pd LED;
#X obj 42 447 chair.feedback-cancellation~ 50 1;
#X text 124 264 Rotaries: Feedback \, Lowpass \, none;
#X obj 630 489 list prepend;
#X obj 630 517 list trim;
#X obj 699 462 r \$0-current;
#X obj 392 208 chair.hex-hold;
#X obj 42 477 clone karplus-division 14 \$0;
#X msg 276 459 vis 1 1;
#X msg 464 417 ratios;
#X msg 454 395 isomorphic;
#X msg 446 372 chromatic;
#X msg 435 347 b_minor;
#X msg 421 321 g_major;
#X obj 404 447 s \$0-tuning;
#X text 418 601 Based on a Patch by Richard Dudas \, 2018;
#X connect 1 0 20 0;
#X connect 2 0 23 0;
#X connect 4 0 1 0;
#X connect 5 0 1 0;
#X connect 6 0 1 0;
#X connect 7 0 1 0;
#X connect 8 0 1 0;
#X connect 9 0 1 0;
#X connect 10 0 1 0;
#X connect 11 0 1 0;
#X connect 12 0 1 0;
#X connect 13 0 1 0;
#X connect 14 0 1 0;
#X connect 15 0 1 0;
#X connect 16 0 1 0;
#X connect 17 0 1 0;
#X connect 18 0 1 0;
#X connect 20 0 70 0;
#X connect 22 0 29 0;
#X connect 23 0 1 0;
#X connect 24 0 1 0;
#X connect 25 0 1 0;
#X connect 26 0 1 0;
#X connect 27 0 1 0;
#X connect 28 0 1 0;
#X connect 29 0 1 0;
#X connect 30 0 34 0;
#X connect 30 1 64 0;
#X connect 31 0 30 0;
#X connect 34 0 37 0;
#X connect 35 0 0 0;
#X connect 35 0 0 1;
#X connect 36 0 30 0;
#X connect 37 0 68 0;
#X connect 38 0 40 0;
#X connect 38 0 52 0;
#X connect 38 1 39 0;
#X connect 41 0 37 1;
#X connect 42 0 43 0;
#X connect 43 0 73 0;
#X connect 44 0 73 1;
#X connect 46 0 56 0;
#X connect 47 0 45 0;
#X connect 47 1 50 0;
#X connect 48 0 46 0;
#X connect 49 0 46 1;
#X connect 54 0 59 0;
#X connect 56 0 55 0;
#X connect 56 1 54 0;
#X connect 56 2 53 0;
#X connect 56 3 57 0;
#X connect 58 0 1 0;
#X connect 59 0 58 0;
#X connect 61 0 62 0;
#X connect 62 0 30 0;
#X connect 64 0 38 0;
#X connect 64 1 63 0;
#X connect 64 2 60 0;
#X connect 65 0 66 0;
#X connect 67 0 30 0;
#X connect 68 0 74 0;
#X connect 70 0 71 0;
#X connect 71 0 51 0;
#X connect 72 0 70 1;
#X connect 73 0 47 0;
#X connect 74 0 35 0;
#X connect 75 0 74 1;
#X connect 76 0 81 0;
#X connect 77 0 81 0;
#X connect 78 0 81 0;
#X connect 79 0 81 0;
#X connect 80 0 81 0;
