#N canvas 559 155 1250 710 10;
#X declare -path chair;
#X declare -path abstractions;
#X obj 468 29 declare -path chair;
#X obj 468 51 declare -path abstractions;
#X obj 570 499 s pmpdhip;
#X floatatom 570 474 5 0 0 0 - - -, f 5;
#X obj 645 500 s masses;
#X floatatom 645 471 5 2 100 0 - - -, f 5;
#X obj 645 426 loadbang;
#X msg 645 446 25;
#X obj 731 425 r stringmasses;
#X obj 31 35 tgl 15 0 empty empty empty 17 7 0 10 -262144 -1 -1 1 1
;
#X obj 31 124 tickle~;
#X floatatom 485 307 5 0 0 0 - - -, f 5;
#N canvas 1024 175 664 838 rotaries 0;
#X obj 103 25 inlet;
#X floatatom 136 275 5 0 0 0 - - -, f 5;
#X obj 286 192 sqrt;
#X obj 286 213 sqrt;
#X obj 286 234 sqrt;
#X obj 286 255 clip 0.5 0.99;
#X floatatom 324 278 5 0 0 0 - - -, f 5;
#X obj 468 241 * 9000;
#X obj 468 262 + 500;
#X floatatom 479 283 5 0 0 0 - - -, f 5;
#X msg 468 198 1 \$1;
#X obj 468 219 -;
#X obj 285 168 s \$0-led1;
#X obj 467 169 s \$0-led2;
#X obj 110 169 s \$0-led0;
#X obj 286 300 s \$0-feedback;
#X obj 103 298 s \$0-fm-amount;
#X obj 103 232 * 2;
#X obj 103 119 vsl 15 35 0 1 0 0 empty empty empty 0 -9 0 10 -262144
-1 -1 1700 1;
#X obj 103 49 route 0 1 2;
#X obj 130 119 vsl 15 35 0 1 0 0 empty empty empty 0 -9 0 10 -262144
-1 -1 2692 1;
#X obj 159 120 vsl 15 35 0 1 0 0 empty empty empty 0 -9 0 10 -262144
-1 -1 1558 1;
#X obj 468 306 s \$0-timbre;
#X obj 442 9 loadbang;
#X obj 283 73 chair.rotary-limit-range 24;
#X msg 442 44 12;
#X obj 103 73 chair.rotary-limit-range 24;
#X obj 465 73 chair.rotary-limit-range 24;
#X connect 0 0 19 0;
#X connect 2 0 3 0;
#X connect 3 0 4 0;
#X connect 4 0 5 0;
#X connect 5 0 6 0;
#X connect 5 0 15 0;
#X connect 7 0 8 0;
#X connect 8 0 9 0;
#X connect 8 0 22 0;
#X connect 10 0 11 0;
#X connect 11 0 7 0;
#X connect 17 0 16 0;
#X connect 17 0 1 0;
#X connect 18 0 17 0;
#X connect 18 0 14 0;
#X connect 19 0 26 0;
#X connect 19 1 24 0;
#X connect 19 2 27 0;
#X connect 20 0 2 0;
#X connect 20 0 12 0;
#X connect 21 0 10 0;
#X connect 21 0 13 0;
#X connect 23 0 25 0;
#X connect 24 0 20 0;
#X connect 25 0 24 1;
#X connect 26 0 18 0;
#X connect 27 0 21 0;
#X coords 0 -1 1 1 85 60 1 100 100;
#X restore 122 201 pd rotaries;
#X obj 70 222 route 0;
#X obj 70 151 route pos rotary button touch;
#X msg 50 61 info;
#X obj 31 337 lop~ 10000;
#X obj 31 316 hip~ 4;
#X obj 70 243 s \$0-xy;
#X obj 228 179 s \$0-touch;
#X obj 473 255 r \$0-xy;
#X obj 155 179 s \$0-updown;
#N canvas 2698 771 676 343 LED 0;
#X obj 69 185 outlet;
#X obj 35 33 r \$0-led0;
#X obj 144 33 r \$0-led1;
#X obj 243 28 r \$0-led2;
#X msg 35 96 led 0 \$1 0 0;
#X msg 144 99 led 1 0 \$1 0;
#X msg 243 99 led 2 0 0 \$1;
#X obj 35 67 change;
#X obj 144 65 change;
#X obj 243 63 change;
#X connect 1 0 7 0;
#X connect 2 0 8 0;
#X connect 3 0 9 0;
#X connect 4 0 0 0;
#X connect 5 0 0 0;
#X connect 6 0 0 0;
#X connect 7 0 4 0;
#X connect 8 0 5 0;
#X connect 9 0 6 0;
#X restore 62 93 pd LED;
#X obj 31 630 dac~;
#X obj 473 277 chair.hex-mapping;
#X obj 31 456 *~;
#X obj 47 387 r \$0-touch;
#X obj 47 410 \$1 5;
#X obj 47 433 line~;
#X obj 32 276 chair.gain~;
#X obj 473 353 s \$0-current;
#X obj 196 338 tgl 15 0 empty empty empty 17 7 0 10 -262144 -1 -1 1
1;
#X obj 31 362 chair.feedback-cancellation~;
#X obj 298 319 until;
#X msg 298 296 14;
#X obj 298 349 f;
#X obj 329 349 + 1;
#X obj 298 265 t b b;
#X msg 347 319 0;
#X obj 298 500 pack f f;
#X floatatom 359 428 5 0 0 0 - - -, f 5;
#X obj 343 404 chair.hex-tuning;
#X obj 298 379 t f f;
#X obj 298 219 loadbang;
#X obj 409 223 t b a;
#X msg 409 166 g_major;
#X obj 32 578 chair.gain~;
#X msg 428 190 b_minor;
#X obj 473 329 change;
#X obj 343 452 chair.transpose-oct -2;
#X obj 472 404 r \$0-updown;
#X obj 330 543 print;
#X obj 32 533 clone circular-string 14 \$0;
#X connect 3 0 2 0;
#X connect 5 0 4 0;
#X connect 6 0 7 0;
#X connect 7 0 5 0;
#X connect 8 0 5 0;
#X connect 9 0 10 0;
#X connect 10 0 29 0;
#X connect 10 1 14 0;
#X connect 13 0 18 0;
#X connect 14 0 13 0;
#X connect 14 1 12 0;
#X connect 14 2 21 0;
#X connect 14 3 19 0;
#X connect 15 0 10 0;
#X connect 16 0 32 0;
#X connect 17 0 16 0;
#X connect 20 0 24 0;
#X connect 22 0 10 0;
#X connect 24 0 11 0;
#X connect 24 0 48 0;
#X connect 25 0 52 0;
#X connect 26 0 27 0;
#X connect 27 0 28 0;
#X connect 28 0 25 1;
#X connect 29 0 17 0;
#X connect 31 0 32 1;
#X connect 32 0 25 0;
#X connect 33 0 35 0;
#X connect 34 0 33 0;
#X connect 35 0 36 0;
#X connect 35 0 42 0;
#X connect 36 0 35 1;
#X connect 37 0 34 0;
#X connect 37 1 38 0;
#X connect 38 0 35 1;
#X connect 39 0 51 0;
#X connect 39 0 52 1;
#X connect 41 0 40 0;
#X connect 41 0 49 0;
#X connect 42 0 39 0;
#X connect 42 1 41 0;
#X connect 43 0 37 0;
#X connect 44 0 37 0;
#X connect 44 1 41 1;
#X connect 45 0 44 0;
#X connect 46 0 23 0;
#X connect 46 0 23 1;
#X connect 47 0 44 0;
#X connect 48 0 30 0;
#X connect 49 0 39 1;
#X connect 49 1 37 0;
#X connect 50 0 49 1;
#X connect 52 0 46 0;
