#N canvas 544 190 1159 710 10;
#X declare -path chair;
#X declare -path abstractions;
#X declare -lib pmpd;
#X obj 468 29 declare -path chair;
#X obj 468 51 declare -path abstractions;
#X floatatom 626 485 5 2 100 0 - - -, f 5;
#X obj 608 429 loadbang;
#X msg 626 460 25;
#X obj 31 35 tgl 15 0 empty empty empty 17 7 0 10 -262144 -1 -1 1 1
;
#X obj 31 113 tickle~;
#X floatatom 485 307 5 0 0 0 - - -, f 5;
#N canvas 194 576 652 389 rotaries 0;
#X obj 103 25 inlet;
#X obj 285 168 s \$0-led1;
#X obj 467 169 s \$0-led2;
#X obj 110 169 s \$0-led0;
#X obj 103 119 vsl 15 35 0 1 0 0 empty empty empty 0 -9 0 10 -262144
-1 -1 2125 1;
#X obj 103 49 route 0 1 2;
#X obj 130 119 vsl 15 35 0 1 0 0 empty empty empty 0 -9 0 10 -262144
-1 -1 0 1;
#X obj 159 120 vsl 15 35 0 1 0 0 empty empty empty 0 -9 0 10 -262144
-1 -1 567 1;
#X obj 442 9 loadbang;
#X obj 283 73 chair.rotary-limit-range 24;
#X msg 442 44 12;
#X obj 103 73 chair.rotary-limit-range 24;
#X obj 465 73 chair.rotary-limit-range 24;
#X obj 103 298 s \$0-invol;
#X obj 103 232 * 60;
#X obj 103 264 - 30;
#X connect 0 0 5 0;
#X connect 4 0 3 0;
#X connect 4 0 14 0;
#X connect 5 0 11 0;
#X connect 5 1 9 0;
#X connect 5 2 12 0;
#X connect 8 0 10 0;
#X connect 9 0 6 0;
#X connect 10 0 9 1;
#X connect 11 0 4 0;
#X connect 12 0 7 0;
#X connect 14 0 15 0;
#X connect 15 0 13 0;
#X coords 0 -1 1 1 85 60 1 100 100;
#X restore 122 190 pd rotaries;
#X obj 70 211 route 0;
#X obj 70 140 route pos rotary button touch;
#X msg 50 50 info;
#X obj 70 232 s \$0-xy;
#X obj 228 168 s \$0-touch;
#X obj 473 255 r \$0-xy;
#X obj 155 168 s \$0-updown;
#N canvas 940 567 676 343 LED 0;
#X obj 69 185 outlet;
#X obj 35 33 r \$0-led0;
#X obj 144 33 r \$0-led1;
#X obj 243 28 r \$0-led2;
#X msg 35 96 led 0 \$1 0 0;
#X msg 144 99 led 1 0 \$1 0;
#X msg 243 99 led 2 0 0 \$1;
#X obj 35 67 change;
#X obj 144 65 change;
#X obj 243 63 change;
#X msg 196 157 led 1 0 0 0;
#X msg 295 157 led 2 0 0 0;
#X obj 358 125 loadbang;
#X connect 1 0 7 0;
#X connect 2 0 8 0;
#X connect 3 0 9 0;
#X connect 4 0 0 0;
#X connect 5 0 0 0;
#X connect 6 0 0 0;
#X connect 7 0 4 0;
#X connect 10 0 0 0;
#X connect 11 0 0 0;
#X connect 12 0 11 0;
#X connect 12 0 10 0;
#X restore 62 82 pd LED;
#X obj 32 659 dac~;
#X obj 473 277 chair.hex-mapping;
#X obj 31 518 *~;
#X obj 47 416 r \$0-touch;
#X obj 47 495 line~;
#X obj 473 353 s \$0-current;
#X obj 196 367 tgl 15 0 empty empty empty 17 7 0 10 -262144 -1 -1 1
1;
#X obj 31 391 chair.feedback-cancellation~;
#X obj 298 319 until;
#X msg 298 296 14;
#X obj 298 349 f;
#X obj 329 349 + 1;
#X obj 298 265 t b b;
#X msg 347 319 0;
#X obj 298 500 pack f f;
#X floatatom 359 428 5 0 0 0 - - -, f 5;
#X obj 343 404 chair.hex-tuning;
#X obj 298 379 t f f;
#X obj 309 222 loadbang;
#X obj 409 223 t b a;
#X msg 409 122 g_major;
#X obj 32 592 chair.gain~;
#X msg 425 146 b_minor;
#X obj 473 329 change;
#X obj 343 452 chair.transpose-oct -2;
#X obj 472 404 r \$0-updown;
#X obj 47 442 sel 0 1;
#X msg 95 469 1 2;
#X msg 47 469 0 20;
#X obj 626 509 s \$0-masses;
#X msg 440 170 chromatic;
#X obj 32 325 chair.gain~;
#X obj 96 303 r \$0-invol;
#X obj 32 546 clone circular-string 14 \$0;
#X obj 624 643 s \$0-damping;
#X floatatom 624 615 5 2 100 0 - - -, f 5;
#X obj 627 592 hsl 128 15 0.0001 0.5 0 0 empty empty empty -2 -8 0
10 -262144 -1 -1 1268 1;
#X msg 608 566 0.05;
#X msg 298 119 bang;
#X obj 468 74 declare -lib pmpd;
#X text 606 159 In this example we are using the Physical Modelling
for Pure Data (pmpd) library \, and in particular the pmpd~-object
to create pysical simulations of resonators.;
#X text 606 212 It is also possible to create simulations which are
impossible in reality \, such as a circular string.;
#X text 608 267 Only the left rotary has a function in this patch.
;
#X text 740 506 you may change these parameter \, but they will only
have an effect if the networks in the pmpd~ objects are rebuild.,
f 38;
#X text 296 100 rebuild networks;
#X text 121 256 Rotaries:;
#X text 120 272 Volume \, NON \, NON;
#X obj 32 633 hip~ 4;
#X connect 2 0 46 0;
#X connect 3 0 4 0;
#X connect 3 0 54 0;
#X connect 4 0 2 0;
#X connect 5 0 6 0;
#X connect 6 0 48 0;
#X connect 6 1 10 0;
#X connect 9 0 12 0;
#X connect 10 0 9 0;
#X connect 10 1 8 0;
#X connect 10 2 15 0;
#X connect 10 3 13 0;
#X connect 11 0 6 0;
#X connect 14 0 18 0;
#X connect 16 0 6 0;
#X connect 18 0 7 0;
#X connect 18 0 40 0;
#X connect 19 0 50 0;
#X connect 20 0 43 0;
#X connect 21 0 19 1;
#X connect 23 0 24 1;
#X connect 24 0 19 0;
#X connect 25 0 27 0;
#X connect 26 0 25 0;
#X connect 27 0 28 0;
#X connect 27 0 34 0;
#X connect 28 0 27 1;
#X connect 29 0 26 0;
#X connect 29 1 30 0;
#X connect 30 0 27 1;
#X connect 31 0 50 1;
#X connect 33 0 32 0;
#X connect 33 0 41 0;
#X connect 34 0 31 0;
#X connect 34 1 33 0;
#X connect 35 0 29 0;
#X connect 36 0 29 0;
#X connect 36 1 33 1;
#X connect 37 0 36 0;
#X connect 38 0 64 0;
#X connect 39 0 36 0;
#X connect 40 0 22 0;
#X connect 41 0 31 1;
#X connect 41 1 29 0;
#X connect 42 0 41 1;
#X connect 43 0 45 0;
#X connect 43 1 44 0;
#X connect 44 0 21 0;
#X connect 45 0 21 0;
#X connect 47 0 36 0;
#X connect 48 0 24 0;
#X connect 49 0 48 1;
#X connect 50 0 38 0;
#X connect 52 0 51 0;
#X connect 53 0 52 0;
#X connect 54 0 53 0;
#X connect 55 0 29 0;
#X connect 64 0 17 0;
#X connect 64 0 17 1;
