#N canvas 221 37 1003 765 10;
#X declare -path chair;
#X declare -path abstractions;
#X declare -lib pmpd;
#X obj 468 29 declare -path chair;
#X obj 468 51 declare -path abstractions;
#X floatatom 613 487 5 2 100 0 - - -;
#X obj 595 431 loadbang;
#X msg 613 462 25;
#N canvas 568 281 652 389 rotaries 1;
#X obj 103 119 vsl 15 35 0 1 0 0 empty empty empty 0 -9 0 10 -262144
-1 -1 482 1;
#X obj 130 119 vsl 15 35 0 1 0 0 empty empty empty 0 -9 0 10 -262144
-1 -1 134 1;
#X obj 159 120 vsl 15 35 0 1 0 0 empty empty empty 0 -9 0 10 -262144
-1 -1 161 1;
#X obj 466 306 s \$0-drywet;
#X obj 279 304 s \$0-feedback-gain;
#X obj 281 230 * 3;
#X obj 279 279 line;
#X msg 279 255 \$1 25;
#X obj 103 232 * 13000;
#X obj 103 264 + 8;
#X obj 112 341 s \$0-lop;
#X obj 111 317 line;
#X msg 111 293 \$1 25;
#X msg 280 39 18;
#X msg 329 37 5;
#X obj 295 17 loadbang;
#X msg 375 36 6;
#X obj 94 17 ctlin 14;
#X obj 94 42 / 127;
#X obj 157 41 / 127;
#X obj 218 41 / 127;
#X obj 157 16 ctlin 15;
#X obj 218 16 ctlin 16;
#X connect 0 0 8 0;
#X connect 1 0 5 0;
#X connect 2 0 3 0;
#X connect 5 0 7 0;
#X connect 6 0 4 0;
#X connect 7 0 6 0;
#X connect 8 0 9 0;
#X connect 9 0 12 0;
#X connect 11 0 10 0;
#X connect 12 0 11 0;
#X connect 13 0 18 0;
#X connect 14 0 19 0;
#X connect 15 0 13 0;
#X connect 15 0 14 0;
#X connect 15 0 16 0;
#X connect 16 0 20 0;
#X connect 17 0 18 0;
#X connect 18 0 0 0;
#X connect 19 0 1 0;
#X connect 20 0 2 0;
#X connect 21 0 19 0;
#X connect 22 0 20 0;
#X coords 0 -1 1 1 85 60 1 100 100;
#X restore 70 234 pd rotaries;
#X obj 31 718 dac~;
#X obj 196 398 tgl 15 0 empty empty empty 17 7 0 10 -262144 -1 -1 0
1;
#X obj 31 422 chair.feedback-cancellation~;
#X obj 613 511 s \$0-masses;
#X obj 32 350 chair.gain~;
#X obj 32 546 clone circular-string 14 \$0;
#X obj 611 645 s \$0-damping;
#X floatatom 611 617 5 2 100 0 - - -;
#X obj 614 594 hsl 128 15 0.0001 0.5 0 0 empty empty empty -2 -8 0
10 -262144 -1 -1 1268 1;
#X msg 595 568 0.05;
#X obj 468 74 declare -lib pmpd;
#X text 606 159 In this example we are using the Physical Modelling
for Pure Data (pmpd) library \, and in particular the pmpd~-object
to create pysical simulations of resonators.;
#X text 606 212 It is also possible to create simulations which are
impossible in reality \, such as a circular string.;
#X text 608 267 Only the left rotary has a function in this patch.
;
#X text 69 300 Rotaries:;
#X obj 31 689 hip~ 4;
#X obj 31 625 chair.chrismoore-reverb~;
#X obj 80 689 hip~ 4;
#X obj 172 601 r \$0-drywet;
#X obj 148 581 r \$0-feedback-gain;
#X obj 32 650 chair.stereogain~;
#X obj 54 582 r \$0-lop;
#X text 67 316 Lowpass \, Feedback \, Reverb;
#X text 727 508 You may change these parameters \, but they will only
have an effect if the networks in the pmpd~ objects are rebuild.,
f 38;
#X obj 31 113 adc~ 1;
#N canvas 0 23 450 300 position 0;
#X obj 47 121 s \$0-xy;
#X obj 36 17 ctlin 12;
#X obj 107 17 ctlin 13;
#X obj 46 96 pack 0 0;
#X obj 103 74 t b f;
#X obj 36 49 / 127;
#X obj 107 48 / 127;
#X connect 1 0 5 0;
#X connect 2 0 6 0;
#X connect 3 0 0 0;
#X connect 4 0 3 0;
#X connect 4 1 3 1;
#X connect 5 0 3 0;
#X connect 6 0 4 0;
#X restore 69 189 pd position;
#X obj 256 183 s \$0-touch;
#X obj 256 152 > 0;
#X obj 211 114 notein 1;
#X obj 211 238 s \$0-current;
#X obj 211 152 change;
#X obj 211 210 % 14;
#X obj 338 341 until;
#X msg 338 318 14;
#X obj 338 371 f;
#X obj 369 371 + 1;
#X obj 338 287 t b b;
#X msg 394 328 0;
#X obj 338 522 pack f f;
#X obj 338 401 t f f;
#X obj 349 244 loadbang;
#X msg 362 266 bang;
#X obj 211 183 - 48;
#X obj 370 449 + 48;
#X connect 2 0 9 0;
#X connect 3 0 4 0;
#X connect 3 0 15 0;
#X connect 4 0 2 0;
#X connect 7 0 8 2;
#X connect 8 0 11 0;
#X connect 10 0 8 0;
#X connect 11 0 22 0;
#X connect 13 0 12 0;
#X connect 14 0 13 0;
#X connect 15 0 14 0;
#X connect 21 0 6 0;
#X connect 22 0 26 0;
#X connect 22 1 26 1;
#X connect 23 0 6 1;
#X connect 24 0 22 6;
#X connect 25 0 22 5;
#X connect 26 0 21 0;
#X connect 26 1 23 0;
#X connect 27 0 22 1;
#X connect 27 0 22 3;
#X connect 30 0 10 0;
#X connect 33 0 32 0;
#X connect 34 0 36 0;
#X connect 34 1 33 0;
#X connect 36 0 48 0;
#X connect 37 0 35 0;
#X connect 38 0 40 0;
#X connect 39 0 38 0;
#X connect 40 0 41 0;
#X connect 40 0 45 0;
#X connect 41 0 40 1;
#X connect 42 0 39 0;
#X connect 42 1 43 0;
#X connect 43 0 40 1;
#X connect 44 0 11 1;
#X connect 45 0 44 0;
#X connect 45 1 49 0;
#X connect 46 0 42 0;
#X connect 47 0 42 0;
#X connect 48 0 37 0;
#X connect 49 0 44 1;
