#N canvas 432 198 1003 765 10;
#X declare -path chair;
#X declare -path abstractions;
#X declare -lib pmpd;
#X obj 468 29 declare -path chair;
#X obj 468 51 declare -path abstractions;
#X floatatom 626 485 5 2 100 0 - - -;
#X obj 608 429 loadbang;
#X msg 626 460 25;
#X obj 31 35 tgl 15 0 empty empty empty 17 7 0 10 -262144 -1 -1 1 1
;
#X obj 31 113 tickle~;
#X floatatom 554 329 5 0 0 0 - - -;
#N canvas 1097 679 652 389 rotaries 0;
#X obj 103 25 inlet;
#X obj 285 168 s \$0-led1;
#X obj 467 169 s \$0-led2;
#X obj 110 169 s \$0-led0;
#X obj 103 119 vsl 15 35 0 1 0 0 empty empty empty 0 -9 0 10 -262144
-1 -1 1775 1;
#X obj 103 49 route 0 1 2;
#X obj 130 119 vsl 15 35 0 1 0 0 empty empty empty 0 -9 0 10 -262144
-1 -1 2342 1;
#X obj 159 120 vsl 15 35 0 1 0 0 empty empty empty 0 -9 0 10 -262144
-1 -1 0 1;
#X obj 442 9 loadbang;
#X obj 283 73 chair.rotary-limit-range 24;
#X msg 442 44 12;
#X obj 103 73 chair.rotary-limit-range 24;
#X obj 465 73 chair.rotary-limit-range 24;
#X obj 466 306 s \$0-drywet;
#X obj 279 304 s \$0-feedback-gain;
#X obj 281 230 * 3;
#X obj 279 279 line;
#X msg 279 255 \$1 25;
#X obj 103 232 * 13000;
#X obj 103 264 + 8;
#X obj 112 341 s \$0-lop;
#X obj 111 317 line;
#X msg 111 293 \$1 25;
#X connect 0 0 5 0;
#X connect 4 0 3 0;
#X connect 4 0 18 0;
#X connect 5 0 11 0;
#X connect 5 1 9 0;
#X connect 5 2 12 0;
#X connect 6 0 15 0;
#X connect 6 0 1 0;
#X connect 7 0 2 0;
#X connect 7 0 13 0;
#X connect 8 0 10 0;
#X connect 9 0 6 0;
#X connect 10 0 9 1;
#X connect 11 0 4 0;
#X connect 12 0 7 0;
#X connect 15 0 17 0;
#X connect 16 0 14 0;
#X connect 17 0 16 0;
#X connect 18 0 19 0;
#X connect 19 0 22 0;
#X connect 21 0 20 0;
#X connect 22 0 21 0;
#X coords 0 -1 1 1 85 60 1 100 100;
#X restore 70 192 pd rotaries;
#X msg 54 55 info;
#X obj 281 190 s \$0-xy;
#X obj 200 190 s \$0-touch;
#X obj 542 277 r \$0-xy;
#X obj 125 167 s \$0-updown;
#N canvas 940 567 676 343 LED 0;
#X obj 69 185 outlet;
#X obj 35 33 r \$0-led0;
#X obj 144 33 r \$0-led1;
#X obj 243 28 r \$0-led2;
#X msg 35 96 led 0 \$1 0 0;
#X msg 144 99 led 1 0 \$1 0;
#X msg 243 99 led 2 0 0 \$1;
#X obj 35 67 change;
#X obj 144 65 change;
#X obj 243 63 change;
#X connect 1 0 7 0;
#X connect 2 0 8 0;
#X connect 3 0 9 0;
#X connect 4 0 0 0;
#X connect 5 0 0 0;
#X connect 6 0 0 0;
#X connect 7 0 4 0;
#X connect 8 0 5 0;
#X connect 9 0 6 0;
#X restore 62 82 pd LED;
#X obj 31 710 dac~;
#X obj 542 299 chair.hex-mapping;
#X obj 31 489 *~;
#X obj 47 387 r \$0-touch;
#X obj 47 466 line~;
#X obj 542 375 s \$0-current;
#X obj 196 338 tgl 15 0 empty empty empty 17 7 0 10 -262144 -1 -1 1
1;
#X obj 31 362 chair.feedback-cancellation~;
#X obj 367 341 until;
#X msg 367 318 14;
#X obj 367 371 f;
#X obj 398 371 + 1;
#X obj 367 287 t b b;
#X msg 423 328 0;
#X obj 367 522 pack f f;
#X floatatom 428 450 5 0 0 0 - - -;
#X obj 412 426 chair.hex-tuning;
#X obj 367 401 t f f;
#X obj 378 244 loadbang;
#X obj 478 245 t b a;
#X msg 478 144 g_major;
#X msg 494 168 b_minor;
#X obj 542 351 change;
#X obj 412 474 chair.transpose-oct -2;
#X obj 541 449 r \$0-updown;
#X obj 47 413 sel 0 1;
#X msg 95 440 1 2;
#X msg 47 440 0 20;
#X obj 626 509 s \$0-masses;
#X msg 509 192 chromatic;
#X obj 32 296 chair.gain~;
#X obj 32 546 clone circular-string 14 \$0;
#X obj 624 643 s \$0-damping;
#X floatatom 624 615 5 2 100 0 - - -;
#X obj 627 592 hsl 128 15 0.0001 0.5 0 0 empty empty empty -2 -8 0
10 -262144 -1 -1 1268 1;
#X msg 608 566 0.05;
#X msg 367 141 bang;
#X obj 468 74 declare -lib pmpd;
#X text 606 159 In this example we are using the Physical Modelling
for Pure Data (pmpd) library \, and in particular the pmpd~-object
to create pysical simulations of resonators.;
#X text 606 212 It is also possible to create simulations which are
impossible in reality \, such as a circular string.;
#X text 608 267 Only the left rotary has a function in this patch.
;
#X text 365 122 rebuild networks;
#X text 69 258 Rotaries:;
#X obj 31 681 hip~ 4;
#X obj 31 617 chair.chrismoore-reverb~;
#X obj 80 681 hip~ 4;
#X obj 172 586 r \$0-drywet;
#X obj 148 566 r \$0-feedback-gain;
#X obj 32 642 chair.stereogain~;
#X obj 54 574 r \$0-lop;
#X text 68 274 Lowpass \, Feedback \, Reverb;
#X text 740 506 You may change these parameters \, but they will only
have an effect if the networks in the pmpd~ objects are rebuild.,
f 38;
#X obj 200 167 chair.capsense;
#X obj 70 140 route rotary button position;
#X connect 2 0 43 0;
#X connect 3 0 4 0;
#X connect 3 0 50 0;
#X connect 4 0 2 0;
#X connect 5 0 6 0;
#X connect 6 0 45 0;
#X connect 6 1 68 0;
#X connect 9 0 6 0;
#X connect 12 0 16 0;
#X connect 14 0 6 0;
#X connect 16 0 7 0;
#X connect 16 0 37 0;
#X connect 17 0 46 0;
#X connect 18 0 40 0;
#X connect 19 0 17 1;
#X connect 21 0 22 2;
#X connect 22 0 17 0;
#X connect 23 0 25 0;
#X connect 24 0 23 0;
#X connect 25 0 26 0;
#X connect 25 0 32 0;
#X connect 26 0 25 1;
#X connect 27 0 24 0;
#X connect 27 1 28 0;
#X connect 28 0 25 1;
#X connect 29 0 46 1;
#X connect 31 0 30 0;
#X connect 31 0 38 0;
#X connect 32 0 29 0;
#X connect 32 1 31 0;
#X connect 33 0 27 0;
#X connect 34 0 27 0;
#X connect 34 1 31 1;
#X connect 35 0 34 0;
#X connect 36 0 34 0;
#X connect 37 0 20 0;
#X connect 38 0 29 1;
#X connect 38 1 27 0;
#X connect 39 0 38 1;
#X connect 40 0 42 0;
#X connect 40 1 41 0;
#X connect 41 0 19 0;
#X connect 42 0 19 0;
#X connect 44 0 34 0;
#X connect 45 0 22 0;
#X connect 46 0 59 0;
#X connect 48 0 47 0;
#X connect 49 0 48 0;
#X connect 50 0 49 0;
#X connect 51 0 27 0;
#X connect 58 0 15 0;
#X connect 59 0 63 0;
#X connect 59 1 63 1;
#X connect 60 0 15 1;
#X connect 61 0 59 6;
#X connect 62 0 59 5;
#X connect 63 0 58 0;
#X connect 63 1 60 0;
#X connect 64 0 59 1;
#X connect 64 0 59 3;
#X connect 67 0 11 0;
#X connect 67 1 10 0;
#X connect 68 0 8 0;
#X connect 68 1 13 0;
#X connect 68 2 67 0;
