#N canvas 664 163 1036 712 10;
#X declare -path chair;
#X declare -path abstractions;
#X declare -lib pmpd;
#X obj 468 29 declare -path chair;
#X obj 468 51 declare -path abstractions;
#X floatatom 475 501 5 2 11 0 - - -, f 5;
#X obj 475 445 loadbang;
#X obj 31 35 tgl 15 0 empty empty empty 17 7 0 10 -262144 -1 -1 1 1
;
#X obj 31 113 tickle~;
#X floatatom 485 307 5 0 0 0 - - -, f 5;
#N canvas 194 576 652 389 rotaries 0;
#X obj 103 25 inlet;
#X obj 285 168 s \$0-led1;
#X obj 467 169 s \$0-led2;
#X obj 110 169 s \$0-led0;
#X obj 103 119 vsl 15 35 0 1 0 0 empty empty empty 0 -9 0 10 -262144
-1 -1 1133 1;
#X obj 103 49 route 0 1 2;
#X obj 130 119 vsl 15 35 0 1 0 0 empty empty empty 0 -9 0 10 -262144
-1 -1 1842 1;
#X obj 159 120 vsl 15 35 0 1 0 0 empty empty empty 0 -9 0 10 -262144
-1 -1 1417 1;
#X obj 441 10 loadbang;
#X obj 283 73 chair.rotary-limit-range 24;
#X obj 103 73 chair.rotary-limit-range 24;
#X obj 465 73 chair.rotary-limit-range 24;
#X obj 103 298 s \$0-invol;
#X obj 103 232 * 60;
#X obj 103 264 - 30;
#X obj 284 298 s \$0-damping;
#X msg 441 38 3;
#X msg 258 40 12;
#X obj 284 239 * -0.2;
#X obj 284 267 + 0.2001;
#X connect 0 0 5 0;
#X connect 4 0 3 0;
#X connect 4 0 13 0;
#X connect 5 0 10 0;
#X connect 5 1 9 0;
#X connect 5 2 11 0;
#X connect 6 0 1 0;
#X connect 6 0 18 0;
#X connect 8 0 16 0;
#X connect 8 0 17 0;
#X connect 9 0 6 0;
#X connect 10 0 4 0;
#X connect 11 0 7 0;
#X connect 13 0 14 0;
#X connect 14 0 12 0;
#X connect 16 0 9 1;
#X connect 17 0 10 1;
#X connect 18 0 19 0;
#X connect 19 0 15 0;
#X coords 0 -1 1 1 85 60 1 100 100;
#X restore 122 190 pd rotaries;
#X obj 70 211 route 0;
#X obj 70 140 route pos rotary button touch;
#X msg 50 50 info;
#X obj 70 232 s \$0-xy;
#X obj 228 168 s \$0-touch;
#X obj 473 255 r \$0-xy;
#X obj 155 168 s \$0-updown;
#N canvas 2698 771 676 343 LED 0;
#X obj 69 185 outlet;
#X obj 35 33 r \$0-led0;
#X obj 144 33 r \$0-led1;
#X obj 243 28 r \$0-led2;
#X msg 35 96 led 0 \$1 0 0;
#X msg 144 99 led 1 0 \$1 0;
#X msg 243 99 led 2 0 0 \$1;
#X obj 35 67 change;
#X obj 144 65 change;
#X obj 243 63 change;
#X connect 1 0 7 0;
#X connect 2 0 8 0;
#X connect 3 0 9 0;
#X connect 4 0 0 0;
#X connect 5 0 0 0;
#X connect 6 0 0 0;
#X connect 7 0 4 0;
#X connect 8 0 5 0;
#X connect 9 0 6 0;
#X restore 62 82 pd LED;
#X obj 31 662 dac~;
#X obj 473 277 chair.hex-mapping;
#X obj 31 508 *~;
#X obj 47 406 r \$0-touch;
#X obj 47 485 line~;
#X obj 473 353 s \$0-current;
#X obj 196 357 tgl 15 0 empty empty empty 17 7 0 10 -262144 -1 -1 1
1;
#X obj 31 381 chair.feedback-cancellation~;
#X obj 298 319 until;
#X msg 298 296 14;
#X obj 298 349 f;
#X obj 329 349 + 1;
#X obj 298 265 t b b;
#X msg 347 319 0;
#X obj 298 500 pack f f;
#X floatatom 359 428 5 0 0 0 - - -, f 5;
#X obj 343 404 chair.hex-tuning;
#X obj 298 379 t f f;
#X obj 309 222 loadbang;
#X obj 473 329 change;
#X obj 47 432 sel 0 1;
#X msg 95 459 1 2;
#X msg 47 459 0 20;
#X obj 96 312 r \$0-invol;
#X msg 298 119 bang;
#X obj 468 74 declare -lib pmpd;
#X text 606 159 In this example we are using the Physical Modelling
for Pure Data (pmpd) library \, and in particular the pmpd~-object
to create pysical simulations of resonators.;
#X text 606 212 It is also possible to create simulations which are
impossible in reality \, such as a circular string.;
#X text 296 100 rebuild networks;
#X obj 475 525 s \$0-gridsize;
#X msg 475 476 5;
#X text 604 437 You may change these parameters \, but they will only
have an effect if the networks in the pmpd~ objects are rebuild.,
f 38;
#X text 604 305 The right rotary has no function in this patch.;
#X text 605 343 The amount of masses will change the tuning \, as will
the tension of the springs between the masses. If the tension is either
too stiff or too loose you won't hear anything.;
#X obj 32 334 chair.gain~;
#X obj 31 565 chair.stereogain~;
#X obj 343 456 - 24;
#X text 608 258 First rotary is input volume \, second rotary is the
damping (decay) \, but is only updated when rebuilding the network.
;
#X obj 32 533 clone square-plate 14 \$0;
#X obj 79 612 hip~ 4;
#X obj 31 613 hip~ 4;
#X text 119 253 Rotaries:;
#X text 118 269 Volume \, Decay \, NONE;
#X connect 2 0 45 0;
#X connect 3 0 46 0;
#X connect 4 0 5 0;
#X connect 5 0 50 0;
#X connect 5 1 9 0;
#X connect 8 0 11 0;
#X connect 9 0 8 0;
#X connect 9 1 7 0;
#X connect 9 2 14 0;
#X connect 9 3 12 0;
#X connect 10 0 5 0;
#X connect 13 0 17 0;
#X connect 15 0 5 0;
#X connect 17 0 6 0;
#X connect 17 0 35 0;
#X connect 18 0 54 0;
#X connect 19 0 36 0;
#X connect 20 0 18 1;
#X connect 22 0 23 1;
#X connect 23 0 18 0;
#X connect 24 0 26 0;
#X connect 25 0 24 0;
#X connect 26 0 27 0;
#X connect 26 0 33 0;
#X connect 27 0 26 1;
#X connect 28 0 25 0;
#X connect 28 1 29 0;
#X connect 29 0 26 1;
#X connect 30 0 54 1;
#X connect 32 0 31 0;
#X connect 32 0 52 0;
#X connect 33 0 30 0;
#X connect 33 1 32 0;
#X connect 34 0 28 0;
#X connect 35 0 21 0;
#X connect 36 0 38 0;
#X connect 36 1 37 0;
#X connect 37 0 20 0;
#X connect 38 0 20 0;
#X connect 39 0 50 1;
#X connect 40 0 28 0;
#X connect 46 0 2 0;
#X connect 50 0 23 0;
#X connect 51 0 56 0;
#X connect 51 1 55 0;
#X connect 52 0 30 1;
#X connect 54 0 51 0;
#X connect 54 1 51 1;
#X connect 55 0 16 1;
#X connect 56 0 16 0;
