#N canvas 660 181 1036 762 10;
#X declare -path chair;
#X declare -path abstractions;
#X declare -lib pmpd;
#X obj 468 29 declare -path chair;
#X obj 468 51 declare -path abstractions;
#X obj 31 35 tgl 15 0 empty empty empty 17 7 0 10 -262144 -1 -1 1 1
;
#X obj 31 113 tickle~;
#X floatatom 474 282 5 0 0 0 - - -;
#N canvas 1268 656 652 389 rotaries 0;
#X obj 103 25 inlet;
#X obj 285 168 s \$0-led1;
#X obj 467 169 s \$0-led2;
#X obj 110 169 s \$0-led0;
#X obj 103 119 vsl 15 35 0 1 0 0 empty empty empty 0 -9 0 10 -262144
-1 -1 1983 1;
#X obj 103 49 route 0 1 2;
#X obj 130 119 vsl 15 35 0 1 0 0 empty empty empty 0 -9 0 10 -262144
-1 -1 708 1;
#X obj 159 120 vsl 15 35 0 1 0 0 empty empty empty 0 -9 0 10 -262144
-1 -1 142 1;
#X obj 441 10 loadbang;
#X obj 283 73 chair.rotary-limit-range 24;
#X obj 103 73 chair.rotary-limit-range 24;
#X obj 465 73 chair.rotary-limit-range 24;
#X obj 103 298 s \$0-invol;
#X obj 103 232 * 60;
#X obj 103 264 - 30;
#X msg 441 38 3;
#X msg 258 40 12;
#X floatatom 375 284 7 0 0 0 - - -;
#X obj 284 298 s \$0-damping;
#X obj 284 267 + 0.011;
#X obj 284 239 * -0.01;
#X connect 0 0 5 0;
#X connect 4 0 3 0;
#X connect 4 0 13 0;
#X connect 5 0 10 0;
#X connect 5 1 9 0;
#X connect 5 2 11 0;
#X connect 6 0 1 0;
#X connect 6 0 20 0;
#X connect 8 0 15 0;
#X connect 8 0 16 0;
#X connect 9 0 6 0;
#X connect 10 0 4 0;
#X connect 11 0 7 0;
#X connect 13 0 14 0;
#X connect 14 0 12 0;
#X connect 15 0 9 1;
#X connect 16 0 10 1;
#X connect 19 0 17 0;
#X connect 19 0 18 0;
#X connect 20 0 19 0;
#X coords 0 -1 1 1 85 60 1 100 100;
#X restore 70 189 pd rotaries;
#X msg 50 55 info;
#X obj 31 641 hip~ 4;
#X obj 231 195 s \$0-xy;
#X obj 180 218 s \$0-touch;
#X obj 462 230 r \$0-xy;
#X obj 84 167 s \$0-updown;
#N canvas 1244 702 676 343 LED 0;
#X obj 69 185 outlet;
#X obj 35 33 r \$0-led0;
#X obj 144 33 r \$0-led1;
#X obj 243 28 r \$0-led2;
#X msg 35 96 led 0 \$1 0 0;
#X msg 144 99 led 1 0 \$1 0;
#X msg 243 99 led 2 0 0 \$1;
#X obj 35 67 change;
#X obj 144 65 change;
#X obj 243 63 change;
#X msg 341 136 led 2 0 0 0;
#X obj 341 113 loadbang;
#X connect 1 0 7 0;
#X connect 2 0 8 0;
#X connect 3 0 9 0;
#X connect 4 0 0 0;
#X connect 5 0 0 0;
#X connect 6 0 0 0;
#X connect 7 0 4 0;
#X connect 8 0 5 0;
#X connect 10 0 0 0;
#X connect 11 0 10 0;
#X restore 62 82 pd LED;
#X obj 30 675 dac~;
#X obj 462 252 chair.hex-mapping;
#X obj 154 473 r \$0-touch;
#X obj 462 328 s \$0-current;
#X obj 196 401 tgl 15 0 empty \$0-active empty 17 7 0 10 -262144 -1
-1 1 1;
#X obj 31 425 chair.feedback-cancellation~;
#X obj 298 319 until;
#X msg 298 296 14;
#X obj 298 349 f;
#X obj 329 349 + 1;
#X obj 298 265 t b b;
#X msg 347 319 0;
#X obj 298 500 pack f f;
#X floatatom 359 428 5 0 0 0 - - -;
#X obj 343 404 chair.hex-tuning;
#X obj 298 379 t f f;
#X obj 309 222 loadbang;
#X obj 462 304 change;
#X obj 96 324 r \$0-invol;
#X msg 298 168 bang;
#X obj 468 74 declare -lib pmpd;
#X text 606 159 In this example we are using the Physical Modelling
for Pure Data (pmpd) library \, and in particular the pmpd~-object
to create pysical simulations of resonators.;
#X text 296 149 rebuild networks;
#X text 604 305 The right rotary has no function in this patch.;
#X obj 32 346 chair.gain~;
#X text 608 258 First rotary is input volume \, second rotary is the
damping (decay) \, but is only updated when rebuilding the network.
;
#X obj 343 456 - 36;
#X text 66 252 Rotaries:;
#X text 65 268 Volume \, Damping \, NONE;
#X obj 31 586 chair.stereogain~;
#X obj 75 641 hip~ 4;
#X obj 32 547 clone disk-gong 14 \$0;
#X obj 70 140 route rotary button position;
#X obj 180 168 chair.capsense;
#X obj 31 500 chair.touchgate~ 2 20;
#N canvas 1234 749 450 300 init 0;
#X obj 68 16 loadbang;
#X msg 68 39 1;
#X obj 68 62 s \$0-active;
#X connect 0 0 1 0;
#X connect 1 0 2 0;
#X restore 467 96 pd init;
#X msg 438 379 ratios;
#X connect 2 0 3 0;
#X connect 3 0 37 0;
#X connect 3 1 45 0;
#X connect 6 0 3 0;
#X connect 7 0 13 0;
#X connect 10 0 14 0;
#X connect 12 0 3 0;
#X connect 14 0 4 0;
#X connect 14 0 30 0;
#X connect 15 0 47 1;
#X connect 17 0 18 2;
#X connect 18 0 47 0;
#X connect 19 0 21 0;
#X connect 20 0 19 0;
#X connect 21 0 22 0;
#X connect 21 0 28 0;
#X connect 22 0 21 1;
#X connect 23 0 20 0;
#X connect 23 1 24 0;
#X connect 24 0 21 1;
#X connect 25 0 44 1;
#X connect 27 0 26 0;
#X connect 27 0 39 0;
#X connect 28 0 25 0;
#X connect 28 1 27 0;
#X connect 29 0 23 0;
#X connect 30 0 16 0;
#X connect 31 0 37 1;
#X connect 32 0 23 0;
#X connect 37 0 18 0;
#X connect 39 0 25 1;
#X connect 42 0 7 0;
#X connect 42 1 43 0;
#X connect 43 0 13 1;
#X connect 44 0 42 0;
#X connect 44 1 42 1;
#X connect 45 0 5 0;
#X connect 45 1 11 0;
#X connect 45 2 46 0;
#X connect 46 0 9 0;
#X connect 46 1 8 0;
#X connect 47 0 44 0;
#X connect 49 0 27 1;
