#N canvas 111 68 897 742 10;
#X declare -path chair;
#X declare -path abstractions;
#X declare -lib pmpd;
#X obj 468 29 declare -path chair;
#X obj 468 51 declare -path abstractions;
#N canvas 366 406 652 389 rotaries 0;
#X obj 103 119 vsl 15 35 0 1 0 0 empty empty empty 0 -9 0 10 -262144
-1 -1 1633 1;
#X obj 130 119 vsl 15 35 0 1 0 0 empty empty empty 0 -9 0 10 -262144
-1 -1 696 1;
#X obj 159 120 vsl 15 35 0 1 0 0 empty empty empty 0 -9 0 10 -262144
-1 -1 2008 1;
#X obj 441 10 loadbang;
#X obj 103 298 s \$0-invol;
#X obj 103 232 * 60;
#X obj 103 264 - 30;
#X msg 441 38 3;
#X msg 339 40 12;
#X floatatom 375 284 7 0 0 0 - - -;
#X obj 284 298 s \$0-damping;
#X obj 284 267 + 0.011;
#X obj 284 239 * -0.01;
#X obj 94 17 ctlin 14;
#X obj 94 42 / 127;
#X obj 157 41 / 127;
#X obj 218 41 / 127;
#X obj 157 16 ctlin 15;
#X obj 218 16 ctlin 16;
#X connect 0 0 5 0;
#X connect 1 0 12 0;
#X connect 3 0 7 0;
#X connect 3 0 8 0;
#X connect 5 0 6 0;
#X connect 6 0 4 0;
#X connect 7 0 16 0;
#X connect 8 0 15 0;
#X connect 11 0 9 0;
#X connect 11 0 10 0;
#X connect 12 0 11 0;
#X connect 13 0 14 0;
#X connect 14 0 0 0;
#X connect 15 0 1 0;
#X connect 16 0 2 0;
#X connect 17 0 15 0;
#X connect 18 0 16 0;
#X coords 0 -1 1 1 85 60 1 100 100;
#X restore 50 100 pd rotaries;
#X obj 31 641 hip~ 4;
#X obj 30 675 dac~;
#X obj 196 401 tgl 15 0 empty \$0-active empty 17 7 0 10 -262144 -1
-1 1 1;
#X obj 31 425 chair.feedback-cancellation~;
#X obj 96 324 r \$0-invol;
#X obj 468 74 declare -lib pmpd;
#X text 470 208 In this example we are using the Physical Modelling
for Pure Data (pmpd) library \, and in particular the pmpd~-object
to create pysical simulations of resonators.;
#X text 468 354 The right rotary has no function in this patch.;
#X obj 32 346 chair.gain~;
#X text 472 307 First rotary is input volume \, second rotary is the
damping (decay) \, but is only updated when rebuilding the network.
;
#X text 46 163 Rotaries:;
#X text 45 179 Volume \, Damping \, NONE;
#X obj 31 586 chair.stereogain~;
#X obj 75 641 hip~ 4;
#X obj 32 547 clone disk-gong 14 \$0;
#N canvas 1234 749 450 300 init 0;
#X obj 68 16 loadbang;
#X msg 68 39 1;
#X obj 68 62 s \$0-active;
#X connect 0 0 1 0;
#X connect 1 0 2 0;
#X restore 467 96 pd init;
#X obj 287 170 s \$0-touch;
#X obj 287 139 > 0;
#X obj 242 101 notein 1;
#X obj 242 225 s \$0-current;
#X obj 242 139 change;
#X obj 242 197 % 14;
#X obj 256 378 until;
#X msg 256 355 14;
#X obj 256 408 f;
#X obj 287 408 + 1;
#X obj 256 324 t b b;
#X msg 312 365 0;
#X obj 256 559 pack f f;
#X obj 256 438 t f f;
#X obj 256 281 loadbang;
#X msg 280 303 bang;
#X obj 32 312 adc~ 1;
#X obj 242 170 - 36;
#X obj 288 486 + 36;
#X connect 3 0 4 0;
#X connect 5 0 6 2;
#X connect 6 0 17 0;
#X connect 7 0 11 1;
#X connect 11 0 6 0;
#X connect 15 0 3 0;
#X connect 15 1 16 0;
#X connect 16 0 4 1;
#X connect 17 0 15 0;
#X connect 17 1 15 1;
#X connect 20 0 19 0;
#X connect 21 0 23 0;
#X connect 21 1 20 0;
#X connect 23 0 36 0;
#X connect 24 0 22 0;
#X connect 25 0 27 0;
#X connect 26 0 25 0;
#X connect 27 0 28 0;
#X connect 27 0 32 0;
#X connect 28 0 27 1;
#X connect 29 0 26 0;
#X connect 29 1 30 0;
#X connect 30 0 27 1;
#X connect 31 0 17 1;
#X connect 32 0 31 0;
#X connect 32 1 37 0;
#X connect 33 0 29 0;
#X connect 34 0 29 0;
#X connect 35 0 11 0;
#X connect 36 0 24 0;
#X connect 37 0 31 1;
