#N canvas 2111 517 600 576 10;
#X floatatom 148 217 3 0 0 0 - - -;
#X obj 97 157 notein, f 17;
#X obj 97 189 stripnote;
#X floatatom 97 218 3 0 0 0 - - -;
#X floatatom 278 233 3 0 0 0 - - -;
#X obj 97 246 bng 20 250 50 0 empty empty empty 17 7 0 10 -262144 -1
-1;
#X obj 184 385 adc~;
#X obj 180 422 dac~;
#X obj 278 208 ctlin 1;
#X floatatom 279 324 3 0 0 0 - - -;
#X obj 279 299 ctlin 12;
#X floatatom 278 422 3 0 0 0 - - -;
#X obj 278 397 ctlin 14;
#X floatatom 343 422 3 0 0 0 - - -;
#X obj 343 397 ctlin 15;
#X floatatom 415 422 3 0 0 0 - - -;
#X obj 415 397 ctlin 16;
#X floatatom 98 459 3 0 0 0 - - -;
#X obj 98 290 ctlin 17;
#X obj 98 323 vsl 15 128 0 127 0 0 empty empty empty 0 -9 0 10 -262144
-1 -1 0 1;
#X floatatom 354 321 3 0 0 0 - - -;
#X obj 354 296 ctlin 13;
#X text 277 372 Encoder 0;
#X text 345 372 Encoder 1;
#X text 413 372 Encoder 2;
#X text 352 269 absolute Y;
#X text 274 271 absolute X;
#X text 273 182 relative Y;
#X floatatom 353 231 5 0 0 0 - - -;
#X text 348 153 Pitch Bend;
#X text 273 155 Mod Wheel;
#X text 348 180 relative X;
#X obj 353 206 bendin;
#X text 91 73 make sure to activate DSP \, such that the tickle sends
audio and calculates the envelope and velocity data. With audio off
\, the tickle will only send static Midi data from the touchpad!;
#X connect 1 0 2 0;
#X connect 1 1 2 1;
#X connect 2 0 3 0;
#X connect 2 1 0 0;
#X connect 3 0 5 0;
#X connect 6 0 7 0;
#X connect 6 0 7 1;
#X connect 8 0 4 0;
#X connect 10 0 9 0;
#X connect 12 0 11 0;
#X connect 14 0 13 0;
#X connect 16 0 15 0;
#X connect 18 0 19 0;
#X connect 19 0 17 0;
#X connect 21 0 20 0;
#X connect 32 0 28 0;
