#N canvas 313 233 779 795 10;
#X declare -path chair;
#X obj 232 28 declare -path chair;
#X obj 51 103 tgl 15 0 empty empty empty 17 7 0 10 -262144 -1 -1 1
1;
#X msg 67 125 info;
#X obj 52 429 chair.DC-offset~;
#X obj 246 368 tgl 15 0 empty empty empty 17 7 0 10 -262144 -1 -1 0
1;
#X obj 51 397 chair.feedback-cancellation~ 0 50;
#X obj 69 530 chair.peak-hold~;
#X obj 179 426 vsl 15 95 0.99 0.9999 0 0 empty empty empty 0 -9 0 10
-262144 -1 -1 0 1;
#X floatatom 179 529 7 0 0 0 - - -, f 7;
#X obj 90 182 route pos rotary touch;
#X obj 90 205 route 0;
#X obj 90 228 unpack f f;
#X obj 52 332 chair.gain~;
#X obj 329 383 sig~;
#X obj 364 383 sig~;
#X obj 52 616 dac~ 1 2 3 4 5 6;
#X obj 180 227 sig~;
#X text 447 221 audio \, env \, gate \, x \, y \, dc;
#X obj 51 153 tickle~ debug;
#X floatatom 167 153 5 0 0 0 - - -, f 5;
#X obj 288 436 /~ 12;
#X obj 332 432 /~ 12;
#X connect 1 0 18 0;
#X connect 2 0 18 0;
#X connect 3 0 6 0;
#X connect 3 0 15 0;
#X connect 3 1 15 5;
#X connect 4 0 5 1;
#X connect 5 0 3 0;
#X connect 6 0 15 1;
#X connect 7 0 6 1;
#X connect 7 0 8 0;
#X connect 9 0 10 0;
#X connect 9 2 16 0;
#X connect 10 0 11 0;
#X connect 11 0 13 0;
#X connect 11 1 14 0;
#X connect 12 0 15 0;
#X connect 13 0 20 0;
#X connect 14 0 21 0;
#X connect 16 0 15 2;
#X connect 18 0 12 0;
#X connect 18 1 9 0;
#X connect 18 2 19 0;
#X connect 20 0 15 3;
#X connect 21 0 15 4;
