#N canvas 151 299 752 795 10;
#X declare -path chair;
#X obj 233 20 declare -path chair;
#X obj 35 18 tgl 15 0 empty empty empty 17 7 0 10 -262144 -1 -1 0 1
;
#X msg 51 40 info;
#X obj 232 325 tgl 15 0 empty empty empty 17 7 0 10 -262144 -1 -1 0
1;
#X obj 53 485 chair.peak-hold~;
#X obj 164 376 vsl 15 95 0.99 0.9999 0 0 empty empty empty 0 -9 0 10
-262144 -1 -1 0 1;
#X floatatom 163 484 7 0 0 0 - - -;
#X obj 74 214 route 0;
#X obj 141 615 unpack f f;
#X obj 36 287 chair.gain~;
#X obj 141 639 sig~;
#X obj 198 641 sig~;
#X obj 142 666 /~ 12;
#X obj 197 667 /~ 12;
#N canvas 2698 771 676 343 LED 0;
#X obj 69 185 outlet;
#X obj 35 33 r \$0-led0;
#X obj 144 33 r \$0-led1;
#X obj 243 28 r \$0-led2;
#X msg 35 96 led 0 \$1 0 0;
#X msg 144 99 led 1 0 \$1 0;
#X msg 243 99 led 2 0 0 \$1;
#X obj 35 67 change;
#X obj 144 65 change;
#X obj 243 63 change;
#X connect 1 0 7 0;
#X connect 2 0 8 0;
#X connect 3 0 9 0;
#X connect 4 0 0 0;
#X connect 5 0 0 0;
#X connect 6 0 0 0;
#X connect 7 0 4 0;
#X connect 8 0 5 0;
#X connect 9 0 6 0;
#X restore 59 80 pd LED;
#N canvas 841 185 664 838 rotaries 0;
#X obj 103 25 inlet;
#X obj 285 168 s \$0-led1;
#X obj 467 169 s \$0-led2;
#X obj 110 169 s \$0-led0;
#X obj 103 119 vsl 15 35 0 1 0 0 empty empty empty 0 -9 0 10 -262144
-1 -1 0 1;
#X obj 103 49 route 0 1 2;
#X obj 130 119 vsl 15 35 0 1 0 0 empty empty empty 0 -9 0 10 -262144
-1 -1 0 1;
#X obj 159 120 vsl 15 35 0 1 0 0 empty empty empty 0 -9 0 10 -262144
-1 -1 0 1;
#X obj 103 298 outlet;
#X obj 295 304 outlet;
#X obj 473 302 outlet;
#X obj 103 73 chair.rotary-limit-range 24;
#X obj 283 73 chair.rotary-limit-range 24;
#X obj 465 73 chair.rotary-limit-range 24;
#X connect 0 0 5 0;
#X connect 4 0 3 0;
#X connect 4 0 8 0;
#X connect 5 0 11 0;
#X connect 5 1 12 0;
#X connect 5 2 13 0;
#X connect 6 0 1 0;
#X connect 6 0 9 0;
#X connect 7 0 2 0;
#X connect 7 0 10 0;
#X connect 11 0 4 0;
#X connect 12 0 6 0;
#X connect 13 0 7 0;
#X coords 0 -1 1 1 85 60 1 100 100;
#X restore 376 620 pd rotaries;
#X text 358 52 This patch provides the output of the Tickle instrument
to VCV Rack.;
#X obj 258 477 chair.hex-mapping;
#X obj 258 506 chair.hex-tuning;
#X obj 53 595 *~ 10;
#X obj 35 108 tickle~;
#X obj 124 193 s \$0-touch;
#X obj 63 521 r \$0-touch;
#X obj 92 595 line~;
#X msg 92 567 \$1 2;
#X text 358 92 Use Jack (Linux) \, Soundflower (mac) or LoopBe \, Rewire
(Win) to route the 6 audio channels into Reaktor., f 45;
#X obj 34 719 dac~ 1 2 3 4 5 6 7 8 9 10, f 72;
#X text 30 754 excitation \, envelope \, gate \, x \, y \, dc-offset
\, note \, rotary0 \, rotary1 \, rotary2;
#X obj 366 686 sig~;
#X obj 400 686 sig~;
#X obj 436 686 sig~;
#X obj 174 172 s \$0-rotaries;
#X obj 376 598 r \$0-rotaries;
#X obj 259 529 chair.transpose-oct;
#X obj 224 151 s \$0-buttons;
#X obj 368 506 r \$0-buttons;
#X obj 259 580 chair.mtocv~;
#X obj 74 236 s \$0-xy;
#X obj 139 591 r \$0-xy;
#X obj 258 451 r \$0-xy;
#X obj 36 384 chair.dc-offset~;
#X obj 74 130 route position touch rotary button;
#X obj 37 346 chair.feedback-cancellation~ 50 0;
#X connect 1 0 20 0;
#X connect 2 0 20 0;
#X connect 3 0 42 2;
#X connect 4 0 19 0;
#X connect 5 0 4 1;
#X connect 5 0 6 0;
#X connect 7 0 37 0;
#X connect 8 0 10 0;
#X connect 8 1 11 0;
#X connect 9 0 42 0;
#X connect 10 0 12 0;
#X connect 11 0 13 0;
#X connect 12 0 26 3;
#X connect 13 0 26 4;
#X connect 14 0 20 0;
#X connect 15 0 28 0;
#X connect 15 1 29 0;
#X connect 15 2 30 0;
#X connect 17 0 18 0;
#X connect 18 0 33 0;
#X connect 19 0 26 1;
#X connect 20 0 9 0;
#X connect 20 1 41 0;
#X connect 22 0 24 0;
#X connect 23 0 26 2;
#X connect 24 0 23 0;
#X connect 28 0 26 7;
#X connect 29 0 26 8;
#X connect 30 0 26 9;
#X connect 32 0 15 0;
#X connect 33 0 36 0;
#X connect 35 0 33 1;
#X connect 36 0 26 6;
#X connect 38 0 8 0;
#X connect 39 0 17 0;
#X connect 40 0 4 0;
#X connect 40 0 26 0;
#X connect 40 1 26 5;
#X connect 41 0 7 0;
#X connect 41 1 21 0;
#X connect 41 2 31 0;
#X connect 41 3 34 0;
#X connect 42 0 40 0;
