#N canvas 54 278 1473 835 10;
#X declare -path chair;
#X declare -lib tkwidgets;
#X declare -lib moonlib;
#X declare -lib ggee;
#X obj 822 7 tgl 15 0 empty empty empty 17 7 0 10 -262144 -1 -1 0 1
;
#X obj 822 96 tickle~;
#X floatatom 932 390 5 0 0 0 - - -;
#X msg 841 33 info;
#X obj 822 287 lop~ 10000;
#X obj 822 264 hip~ 4;
#X obj 942 193 s \$0-xy;
#X obj 861 194 s \$0-touch;
#X obj 920 338 r \$0-xy;
#X obj 922 147 s \$0-updown;
#X obj 1150 11 declare -path chair;
#N canvas 2698 771 676 343 LED 0;
#X obj 69 185 outlet;
#X obj 35 14 r \$0-led0;
#X obj 144 14 r \$0-led1;
#X obj 243 9 r \$0-led2;
#X msg 35 68 led 0 \$1 0 0;
#X msg 144 71 led 1 0 \$1 0;
#X msg 243 71 led 2 0 0 \$1;
#X obj 35 40 change;
#X obj 144 40 change;
#X obj 243 39 change;
#X msg 237 130 led 0 0 0 0;
#X msg 348 133 led 1 0 0 0;
#X msg 445 133 led 2 0 0 0;
#X obj 357 80 loadbang;
#X connect 1 0 7 0;
#X connect 2 0 8 0;
#X connect 3 0 9 0;
#X connect 4 0 0 0;
#X connect 5 0 0 0;
#X connect 6 0 0 0;
#X connect 7 0 4 0;
#X connect 8 0 5 0;
#X connect 9 0 6 0;
#X connect 10 0 0 0;
#X connect 11 0 0 0;
#X connect 12 0 0 0;
#X connect 13 0 12 0;
#X connect 13 0 11 0;
#X connect 13 0 10 0;
#X restore 853 65 pd LED;
#X obj 824 771 dac~;
#X obj 920 360 chair.hex-mapping;
#X obj 822 406 *~;
#X obj 838 337 r \$0-touch;
#X obj 838 383 line~;
#X obj 823 226 chair.gain~;
#X obj 987 288 tgl 15 0 empty empty empty 17 7 0 10 -262144 -1 -1 0
1;
#X obj 822 312 chair.feedback-cancellation~;
#X floatatom 932 446 5 0 0 0 - - -;
#X obj 920 423 chair.hex-tuning;
#X msg 1013 384 g_major;
#X obj 825 719 chair.gain~;
#X msg 1074 385 b_minor;
#X obj 920 568 mtof;
#X obj 920 515 change;
#X obj 1150 33 declare -lib tkwidgets;
#X obj 401 323 moonlib/image tickle.gif 0;
#X obj 1151 55 declare -lib moonlib;
#X obj 1151 78 declare -lib ggee;
#X obj 67 374 bng 25 250 50 0 empty digit empty 17 7 0 10 -262140 -53251
-262144;
#X msg 1165 700 \; digit pos \$1 \$2;
#X obj 1165 674 pack f f;
#X obj 1165 545 r \$0-xy;
#X obj 1165 582 unpack f f;
#X obj 1165 613 * 785;
#X obj 1222 612 * 450;
#X obj 1222 635 + 140;
#X obj 1164 421 sel 1 0;
#X msg 1164 448 -1.0816e+07 -3.60449e+06 0;
#X msg 1164 499 \; digit color \$1 \$2 \$3;
#X msg 1184 472 -1.67772e+07 -3.60449e+06 0;
#X obj 874 622 osc~;
#X obj 823 658 *~;
#X obj 856 668 osc~;
#X obj 824 691 *~;
#X obj 957 591 mtof;
#X obj 957 568 + 2;
#X obj 1164 395 r \$0-touch;
#X text 1049 174 This visualization provides a visual feedback for
the x and y data of the touchpad.;
#X msg 838 360 \$1 5;
#X obj 920 536 t f f;
#X obj 857 592 osc~;
#X obj 823 627 *~;
#X obj 920 467 chair.transpose-oct -2;
#X obj 1049 446 r \$0-updown;
#X text 1048 222 Library ggee has an image object to load gifs into
the patcher window. An updated version of [image] is in moonlib.;
#X obj 861 123 route position button;
#X obj 861 170 chair.capsense;
#X connect 0 0 1 0;
#X connect 1 0 17 0;
#X connect 1 1 58 0;
#X connect 3 0 1 0;
#X connect 4 0 19 0;
#X connect 5 0 4 0;
#X connect 8 0 13 0;
#X connect 11 0 1 0;
#X connect 13 0 2 0;
#X connect 13 0 21 0;
#X connect 14 0 54 0;
#X connect 15 0 51 0;
#X connect 16 0 14 1;
#X connect 17 0 5 0;
#X connect 18 0 19 2;
#X connect 19 0 14 0;
#X connect 21 0 20 0;
#X connect 21 0 55 0;
#X connect 22 0 21 1;
#X connect 23 0 12 0;
#X connect 23 0 12 1;
#X connect 24 0 21 1;
#X connect 25 0 43 0;
#X connect 25 0 53 0;
#X connect 26 0 52 0;
#X connect 33 0 32 0;
#X connect 34 0 35 0;
#X connect 35 0 36 0;
#X connect 35 1 37 0;
#X connect 36 0 33 0;
#X connect 37 0 38 0;
#X connect 38 0 33 1;
#X connect 39 0 40 0;
#X connect 39 1 42 0;
#X connect 40 0 41 0;
#X connect 42 0 41 0;
#X connect 43 0 44 1;
#X connect 44 0 46 0;
#X connect 45 0 46 1;
#X connect 46 0 23 0;
#X connect 47 0 45 0;
#X connect 48 0 47 0;
#X connect 49 0 39 0;
#X connect 51 0 16 0;
#X connect 52 0 25 0;
#X connect 52 1 48 0;
#X connect 53 0 54 1;
#X connect 54 0 44 0;
#X connect 55 0 26 0;
#X connect 56 0 55 1;
#X connect 58 0 59 0;
#X connect 58 1 9 0;
#X connect 59 0 7 0;
#X connect 59 1 6 0;
