#N canvas 2180 158 1473 955 10;
#X declare -path chair;
#X declare -lib tkwidgets;
#X declare -lib moonlib;
#X declare -lib ggee;
#X obj 822 7 tgl 15 0 empty empty empty 17 7 0 10 -262144 -1 -1 1 1
;
#X obj 822 96 tickle~;
#X floatatom 932 334 5 0 0 0 - - -;
#X msg 841 33 info;
#X obj 942 193 s \$0-xy;
#X obj 861 194 s \$0-touch;
#X obj 920 282 r \$0-xy;
#X obj 877 147 s \$0-updown;
#X obj 1150 11 declare -path chair;
#N canvas 2698 771 676 343 LED 0;
#X obj 69 185 outlet;
#X obj 35 14 r \$0-led0;
#X obj 144 14 r \$0-led1;
#X obj 243 9 r \$0-led2;
#X msg 35 68 led 0 \$1 0 0;
#X msg 144 71 led 1 0 \$1 0;
#X msg 243 71 led 2 0 0 \$1;
#X obj 35 40 change;
#X obj 144 40 change;
#X obj 243 39 change;
#X msg 237 130 led 0 0 0 0;
#X msg 348 133 led 1 0 0 0;
#X msg 445 133 led 2 0 0 0;
#X obj 357 80 loadbang;
#X connect 1 0 7 0;
#X connect 2 0 8 0;
#X connect 3 0 9 0;
#X connect 4 0 0 0;
#X connect 5 0 0 0;
#X connect 6 0 0 0;
#X connect 7 0 4 0;
#X connect 8 0 5 0;
#X connect 9 0 6 0;
#X connect 10 0 0 0;
#X connect 11 0 0 0;
#X connect 12 0 0 0;
#X connect 13 0 12 0;
#X connect 13 0 11 0;
#X connect 13 0 10 0;
#X restore 853 65 pd LED;
#X obj 822 865 dac~;
#X obj 920 304 chair.hex-mapping;
#X obj 822 338 *~;
#X obj 838 269 r \$0-touch;
#X obj 838 315 line~;
#X obj 823 226 chair.gain~;
#X floatatom 932 390 5 0 0 0 - - -;
#X obj 920 367 chair.hex-tuning;
#X msg 1013 328 g_major;
#X obj 822 761 chair.gain~;
#X msg 1074 329 b_minor;
#X obj 920 459 change;
#X obj 1150 33 declare -lib tkwidgets;
#X obj 401 323 moonlib/image tickle.gif 0;
#X obj 1151 55 declare -lib moonlib;
#X obj 1151 78 declare -lib ggee;
#X obj 310 443 bng 25 250 50 0 empty digit empty 17 7 0 10 -168128
-53251 -262144;
#X msg 1271 696 \; digit pos \$1 \$2;
#X obj 1271 670 pack f f;
#X obj 1271 541 r \$0-xy;
#X obj 1271 578 unpack f f;
#X obj 1271 609 * 785;
#X obj 1328 608 * 450;
#X obj 1328 631 + 140;
#X obj 1270 417 sel 1 0;
#X msg 1270 444 -1.0816e+07 -3.60449e+06 0;
#X msg 1270 495 \; digit color \$1 \$2 \$3;
#X msg 1290 468 -1.67772e+07 -3.60449e+06 0;
#X obj 1270 391 r \$0-touch;
#X text 1074 229 This visualization provides a visual feedback for
the x and y data of the touchpad.;
#X msg 838 292 \$1 5;
#X obj 920 411 chair.transpose-oct -2;
#X obj 1049 390 r \$0-updown;
#X text 1073 277 Library ggee has an image object to load gifs into
the patcher window. An updated version of [image] is in moonlib.;
#X obj 861 170 chair.capsense;
#X obj 846 695 lop~ 1500;
#X obj 961 569 osc~ 5;
#X obj 960 598 *~ 1000;
#X obj 960 622 +~ 1000;
#X floatatom 863 654 5 0 0 0 - - -;
#X obj 981 702 *~ 0.5;
#X obj 861 123 route position button rotary;
#N canvas 1252 202 664 369 rotaries 0;
#X obj 102 25 inlet;
#X obj 285 168 s \$0-led1;
#X obj 467 169 s \$0-led2;
#X obj 110 169 s \$0-led0;
#X obj 103 119 vsl 15 35 0 1 0 0 empty empty empty 0 -9 0 10 -262144
-1 -1 1224 1;
#X obj 102 49 route 0 1 2;
#X obj 130 119 vsl 15 35 0 1 0 0 empty empty empty 0 -9 0 10 -262144
-1 -1 2482 1;
#X obj 159 120 vsl 15 35 0 1 0 0 empty empty empty 0 -9 0 10 -262144
-1 -1 816 1;
#X obj 287 16 loadbang;
#X msg 288 45 0.5;
#X obj 103 232 * 60;
#X obj 103 263 + 1;
#X obj 103 298 s \$0-osc;
#X obj 296 289 s \$0-mult;
#X obj 476 253 + 1;
#X obj 475 283 s \$0-phasor;
#X obj 296 260 + 1;
#X obj 102 73 chair.rotary-limit-range 50;
#X obj 474 230 * 90;
#X obj 465 73 chair.rotary-limit-range 50;
#X obj 294 237 * 1000;
#X obj 283 73 chair.rotary-limit-range 100;
#X connect 0 0 5 0;
#X connect 4 0 3 0;
#X connect 4 0 10 0;
#X connect 5 0 17 0;
#X connect 5 1 21 0;
#X connect 5 2 19 0;
#X connect 6 0 1 0;
#X connect 6 0 20 0;
#X connect 7 0 2 0;
#X connect 7 0 18 0;
#X connect 8 0 9 0;
#X connect 9 0 6 0;
#X connect 10 0 11 0;
#X connect 11 0 12 0;
#X connect 14 0 15 0;
#X connect 16 0 13 0;
#X connect 17 0 4 0;
#X connect 18 0 14 0;
#X connect 19 0 7 0;
#X connect 20 0 16 0;
#X connect 21 0 6 0;
#X coords 0 -1 1 1 85 60 1 100 100;
#X restore 993 150 pd rotaries;
#X obj 961 546 nbx 5 14 1 1e+37 0 0 empty \$0-osc empty 0 -8 0 10 -262144
-1 -1 22.6 256;
#X obj 1028 546 nbx 5 14 1 1e+37 0 0 empty \$0-mult empty 0 -8 0 10
-262144 -1 -1 731 256;
#X obj 1015 599 + 1;
#X obj 980 725 delwrite~ \$0-del 2480;
#X obj 961 646 delread4~ \$0-del 2480;
#X obj 1100 647 delread4~ \$0-del 2480;
#X obj 1100 598 *~ 1000;
#X obj 1100 622 +~ 1000;
#X obj 1165 600 + 1;
#X obj 1101 569 phasor~ 5;
#X obj 1165 575 * 2.1;
#X obj 920 481 mtof;
#X obj 823 522 chair.feedback-cancellation~ 50 1;
#X obj 1101 546 nbx 5 14 1 1e+37 0 0 empty \$0-phasor empty 0 -8 0
10 -262144 -1 -1 22.6 256;
#X obj 822 809 chair.chrismoore-reverb~;
#X obj 921 501 - 50;
#X obj 823 835 hip~ 4;
#X obj 870 835 hip~ 4;
#X obj 846 720 hip~ 4;
#X connect 0 0 1 0;
#X connect 1 0 15 0;
#X connect 1 1 51 0;
#X connect 3 0 1 0;
#X connect 6 0 11 0;
#X connect 9 0 1 0;
#X connect 11 0 2 0;
#X connect 11 0 17 0;
#X connect 12 0 65 0;
#X connect 13 0 40 0;
#X connect 14 0 12 1;
#X connect 15 0 12 0;
#X connect 17 0 16 0;
#X connect 17 0 41 0;
#X connect 18 0 17 1;
#X connect 19 0 67 0;
#X connect 20 0 17 1;
#X connect 21 0 64 0;
#X connect 28 0 27 0;
#X connect 29 0 30 0;
#X connect 30 0 31 0;
#X connect 30 1 32 0;
#X connect 31 0 28 0;
#X connect 32 0 33 0;
#X connect 33 0 28 1;
#X connect 34 0 35 0;
#X connect 34 1 37 0;
#X connect 35 0 36 0;
#X connect 37 0 36 0;
#X connect 38 0 34 0;
#X connect 40 0 14 0;
#X connect 41 0 21 0;
#X connect 42 0 41 1;
#X connect 44 0 5 0;
#X connect 44 1 4 0;
#X connect 45 0 71 0;
#X connect 46 0 47 0;
#X connect 47 0 48 0;
#X connect 48 0 57 0;
#X connect 49 0 45 1;
#X connect 50 0 56 0;
#X connect 51 0 44 0;
#X connect 51 1 7 0;
#X connect 51 2 52 0;
#X connect 53 0 46 0;
#X connect 54 0 47 1;
#X connect 54 0 55 0;
#X connect 54 0 63 0;
#X connect 55 0 48 1;
#X connect 57 0 45 0;
#X connect 57 0 50 0;
#X connect 58 0 45 0;
#X connect 58 0 50 0;
#X connect 59 0 60 0;
#X connect 60 0 58 0;
#X connect 61 0 60 1;
#X connect 62 0 59 0;
#X connect 63 0 59 1;
#X connect 63 0 61 0;
#X connect 64 0 68 0;
#X connect 65 0 56 0;
#X connect 65 0 19 0;
#X connect 66 0 62 0;
#X connect 67 0 69 0;
#X connect 67 1 70 0;
#X connect 68 0 65 1;
#X connect 69 0 10 0;
#X connect 70 0 10 1;
#X connect 71 0 19 0;
