#N canvas 883 278 806 842 10;
#X declare -lib ofelia;
#X obj 27 262 ofHead 50 OFF;
#X obj 512 29 declare -lib ofelia;
#X floatatom 96 201 5 0 0 0 - - -;
#X obj 27 139 ofLoadImage \; @textures \; tickle.gif \; knob.tiff \;
;
#X obj 27 75 ofWindow 791 650 LEFT TOP;
#X msg 27 239 1;
#X obj 27 298 ofDrawImage @textures[0];
#X obj 28 387 tickle~;
#X obj 28 335 tgl 15 0 empty empty empty 17 7 0 10 -262144 -1 -1 1
1;
#X msg 49 359 info;
#N canvas 616 297 1134 829 rotaries 0;
#X obj 58 13 inlet;
#X obj 58 44 route rotary;
#X obj 53 144 outlet;
#X obj 212 86 route 0 1 2;
#X obj 212 122 chair.rotary-limit-range 24;
#X obj 213 154 * 360;
#X obj 605 267 ofHead 50 OFF;
#X msg 605 244 1;
#X obj 606 382 ofDrawImage @textures[1] 59 59;
#X obj 177 375 ofDrawImage @textures[1] 59 59;
#X obj 176 260 ofHead 50 OFF;
#X msg 176 237 1;
#X obj 398 273 ofHead 50 OFF;
#X msg 398 250 1;
#X obj 398 378 ofDrawImage @textures[1] 59 59;
#X obj 606 320 ofSetRectMode CENTER;
#X obj 606 355 ofRotate 0 0 0 1;
#X obj 606 292 ofTranslate 621 106;
#X obj 176 313 ofSetRectMode CENTER;
#X obj 176 348 ofRotate 0 0 0 1;
#X obj 178 285 ofTranslate 170 106;
#X obj 398 321 ofSetRectMode CENTER;
#X obj 398 356 ofRotate 0 0 0 1;
#X obj 398 297 ofTranslate 397 106;
#X obj 408 123 chair.rotary-limit-range 24;
#X obj 409 155 * 360;
#X obj 626 121 chair.rotary-limit-range 24;
#X obj 627 153 * 360;
#X obj 330 219 loadbang;
#X connect 0 0 1 0;
#X connect 1 0 3 0;
#X connect 1 1 2 0;
#X connect 3 0 4 0;
#X connect 3 1 24 0;
#X connect 3 2 26 0;
#X connect 4 0 5 0;
#X connect 5 0 19 1;
#X connect 6 0 17 0;
#X connect 7 0 6 0;
#X connect 10 0 20 0;
#X connect 11 0 10 0;
#X connect 12 0 23 0;
#X connect 13 0 12 0;
#X connect 15 0 16 0;
#X connect 16 0 8 0;
#X connect 17 0 15 0;
#X connect 18 0 19 0;
#X connect 19 0 9 0;
#X connect 20 0 18 0;
#X connect 21 0 22 0;
#X connect 22 0 14 0;
#X connect 23 0 21 0;
#X connect 24 0 25 0;
#X connect 25 0 22 1;
#X connect 26 0 27 0;
#X connect 27 0 16 1;
#X connect 28 0 11 0;
#X connect 28 0 13 0;
#X connect 28 0 7 0;
#X restore 67 414 pd rotaries;
#N canvas 685 266 944 840 position 0;
#X obj 80 40 inlet;
#X obj 80 63 route position;
#X obj 79 143 outlet;
#X obj 503 75 loadbang;
#X obj 503 96 ofGetLastRenderOrder;
#X obj 470 117 ofHead;
#X obj 470 266 ofSetCircleRes 6;
#X obj 470 186 ofSetRectMode CENTER;
#X obj 470 241 ofRotate 30 0 0 1;
#X obj 470 159 ofTranslate 296 371;
#X obj 201 282 loadbang;
#X obj 201 303 ofGetLastRenderOrder;
#X obj 168 324 ofHead;
#X obj 168 393 ofSetRectMode CENTER;
#X obj 168 448 ofRotate 30 0 0 1;
#X obj 168 366 ofTranslate 296 371;
#X obj 168 570 ofCircle 112;
#X obj 226 149 unpack f f;
#X obj 145 121 chair.capsense;
#X obj 168 473 ofSetCircleRes 100;
#X obj 227 194 * 800;
#X obj 274 194 * 400;
#X floatatom 569 305 5 0 0 0 - - -;
#X floatatom 531 305 5 0 0 0 - - -;
#X floatatom 492 303 5 0 0 0 - - -;
#X obj 470 331 ofSetColor 244 101 207 150;
#X obj 168 511 ofSetColor 0 130 150 150;
#X obj 237 539 r \$0-env;
#X obj 470 364 ofCircle 112;
#X connect 0 0 1 0;
#X connect 1 0 18 0;
#X connect 1 1 2 0;
#X connect 3 0 4 0;
#X connect 4 0 5 1;
#X connect 5 0 9 0;
#X connect 6 0 25 0;
#X connect 7 0 8 0;
#X connect 8 0 6 0;
#X connect 9 0 7 0;
#X connect 10 0 11 0;
#X connect 11 0 12 1;
#X connect 12 0 15 0;
#X connect 13 0 14 0;
#X connect 14 0 19 0;
#X connect 15 0 13 0;
#X connect 17 0 20 0;
#X connect 17 1 21 0;
#X connect 18 1 17 0;
#X connect 19 0 26 0;
#X connect 20 0 15 1;
#X connect 21 0 15 2;
#X connect 22 0 25 3;
#X connect 23 0 25 2;
#X connect 24 0 25 1;
#X connect 25 0 28 0;
#X connect 26 0 16 0;
#X connect 27 0 16 1;
#X restore 67 438 pd position;
#X obj 28 487 chair.gain~;
#X obj 28 613 chair.peak-hold~ 0.99;
#X obj 56 539 env~;
#X obj 56 564 s \$0-env;
#X connect 0 0 6 0;
#X connect 3 0 5 0;
#X connect 3 1 2 0;
#X connect 5 0 0 0;
#X connect 7 0 12 0;
#X connect 7 1 10 0;
#X connect 8 0 7 0;
#X connect 9 0 7 0;
#X connect 10 0 11 0;
#X connect 12 0 13 0;
#X connect 12 0 14 0;
#X connect 14 0 15 0;
