#N canvas 1938 253 969 671 10;
#X declare -lib ofelia;
#X declare -path abstractions;
#X declare -path chair;
#X declare -path ofelia/libs/of;
#X declare -path ofelia/libs/pd;
#X declare -path ofelia/libs/ez;
#X obj 581 26 declare -lib ofelia;
#X obj 19 316 tgl 15 0 empty empty empty 17 7 0 10 -262144 -1 -1 1
1;
#X msg 40 332 info;
#N canvas 2741 610 1008 377 rotaries 1;
#X obj 58 13 inlet;
#X obj 58 44 route rotary;
#X obj 53 144 outlet;
#X obj 269 153 route 0 1 2, f 110;
#X obj 264 181 chair.rotary-limit-range 24;
#X obj 264 228 * 360;
#X obj 488 187 chair.rotary-limit-range 24;
#X obj 488 231 * 360;
#X obj 707 190 chair.rotary-limit-range 24;
#X obj 707 235 * 360;
#X obj 309 228 s \$0-led0;
#X obj 528 232 s \$0-led1;
#X obj 745 235 s \$0-led2;
#X obj 707 212 t f f;
#X obj 488 209 t f f;
#X obj 264 203 t f f;
#X obj 242 26 of.draw 60;
#X obj 473 34 of.draw 60;
#X obj 690 30 of.draw 60;
#X obj 242 49 of.enableAlphaBlending;
#X obj 473 55 of.enableAlphaBlending;
#X obj 690 52 of.enableAlphaBlending;
#X obj 242 279 of.rotateZDeg;
#X obj 473 279 of.rotateZDeg;
#X obj 689 281 of.rotateZDeg;
#X obj 242 81 of.translate 170 106;
#X obj 242 306 ez.drawImage \$0-knob 0 0 0 59 59;
#X obj 242 117 of.setRectMode 1;
#X obj 473 112 of.setRectMode 1;
#X obj 690 110 of.setRectMode 1;
#X obj 473 305 ez.drawImage \$0-knob 0 0 0 59 59;
#X obj 473 83 of.translate 397 106;
#X obj 689 305 ez.drawImage \$0-knob 0 0 0 59 59;
#X obj 690 81 of.translate 621 106;
#X connect 0 0 1 0;
#X connect 1 0 3 0;
#X connect 1 1 2 0;
#X connect 3 0 4 0;
#X connect 3 1 6 0;
#X connect 3 2 8 0;
#X connect 4 0 15 0;
#X connect 5 0 22 1;
#X connect 6 0 14 0;
#X connect 7 0 23 1;
#X connect 8 0 13 0;
#X connect 9 0 24 1;
#X connect 13 0 9 0;
#X connect 13 1 12 0;
#X connect 14 0 7 0;
#X connect 14 1 11 0;
#X connect 15 0 5 0;
#X connect 15 1 10 0;
#X connect 16 0 19 0;
#X connect 17 0 20 0;
#X connect 18 0 21 0;
#X connect 19 0 25 0;
#X connect 20 0 31 0;
#X connect 21 0 33 0;
#X connect 22 0 26 0;
#X connect 23 0 30 0;
#X connect 24 0 32 0;
#X connect 25 0 27 0;
#X connect 27 0 22 0;
#X connect 28 0 23 0;
#X connect 29 0 24 0;
#X connect 31 0 28 0;
#X connect 33 0 29 0;
#X restore 58 414 pd rotaries;
#N canvas 2370 498 664 675 position 1;
#X obj 42 34 inlet;
#X obj 42 57 route position;
#X obj 41 137 outlet;
#X obj 202 223 unpack f f;
#X obj 121 116 chair.capsense;
#X floatatom 468 576 5 0 0 0 - - -;
#X floatatom 430 576 5 0 0 0 - - -;
#X floatatom 391 574 5 0 0 0 - - -;
#X obj 111 510 r \$0-env;
#X obj 229 166 chair.hex-mapping;
#X obj 202 142 t l l;
#X obj 392 411 +;
#X msg 392 368 100;
#X obj 435 221 moses 5;
#X obj 495 253 moses 9;
#X obj 495 277 t b b f;
#X obj 435 276 t b b f;
#X obj 553 279 t b b f;
#X msg 514 431 371;
#X msg 572 431 541;
#X obj 354 345 t a b;
#X msg 392 326 set 4;
#X msg 454 432 204;
#X obj 474 367 * 195;
#X obj 534 313 - 5;
#X obj 592 307 - 9;
#X msg 433 327 set 100;
#X obj 202 265 * 791;
#X obj 259 265 + 140;
#X obj 259 244 * 468;
#X text 353 19 Hexagon;
#X text 43 176 Touch;
#X obj 121 146 s \$0-touch;
#X obj 42 198 r \$0-touch;
#X obj 354 43 r \$0-touch;
#X obj 370 66 loadbang;
#X msg 370 89 0;
#X obj 354 470 of.translate 296 371;
#X obj 362 547 of.setCircleRes 6;
#X obj 354 602 of.setColor 244 101 207 110;
#X obj 354 112 of.draw 40;
#X obj 42 265 of.draw;
#X obj 42 337 of.translate 296 371;
#X obj 57 445 of.setCircleRes 100;
#X obj 42 482 of.setColor 0 130 150 60;
#X obj 42 541 of.drawCircle 112;
#X obj 354 626 of.drawCircle 112;
#X msg 411 90 40;
#X msg 48 243 1;
#X obj 57 364 of.setRectMode;
#X obj 375 497 of.setRectMode;
#X obj 42 419 of.rotateZDeg 30;
#X obj 354 522 of.rotateZDeg 30;
#X connect 0 0 1 0;
#X connect 1 0 4 0;
#X connect 1 1 2 0;
#X connect 3 0 27 0;
#X connect 3 1 29 0;
#X connect 4 0 32 0;
#X connect 4 1 10 0;
#X connect 5 0 39 3;
#X connect 6 0 39 2;
#X connect 7 0 39 1;
#X connect 8 0 45 1;
#X connect 9 0 13 0;
#X connect 10 0 3 0;
#X connect 10 1 9 0;
#X connect 11 0 37 1;
#X connect 12 0 11 0;
#X connect 13 0 16 0;
#X connect 13 1 14 0;
#X connect 14 0 15 0;
#X connect 14 1 17 0;
#X connect 15 0 26 0;
#X connect 15 1 18 0;
#X connect 15 2 24 0;
#X connect 16 0 21 0;
#X connect 16 1 22 0;
#X connect 16 2 23 0;
#X connect 17 0 21 0;
#X connect 17 1 19 0;
#X connect 17 2 25 0;
#X connect 18 0 37 2;
#X connect 19 0 37 2;
#X connect 20 0 37 0;
#X connect 20 1 12 0;
#X connect 21 0 12 0;
#X connect 22 0 37 2;
#X connect 23 0 11 1;
#X connect 24 0 23 0;
#X connect 25 0 23 0;
#X connect 26 0 12 0;
#X connect 27 0 42 1;
#X connect 28 0 42 2;
#X connect 29 0 28 0;
#X connect 35 0 36 0;
#X connect 36 0 40 0;
#X connect 37 0 52 0;
#X connect 39 0 46 0;
#X connect 40 0 20 0;
#X connect 41 0 42 0;
#X connect 42 0 51 0;
#X connect 44 0 45 0;
#X connect 47 0 40 1;
#X connect 48 0 41 0;
#X connect 51 0 44 0;
#X connect 52 0 39 0;
#X restore 58 438 pd position;
#X obj 19 487 chair.gain~;
#X obj 19 613 chair.peak-hold~ 0.99;
#X obj 47 539 env~;
#X obj 47 564 s \$0-env;
#X obj 581 48 declare -path abstractions;
#X obj 581 71 declare -path chair;
#N canvas 2163 481 747 633 LED 0;
#X obj 234 237 ofSetColor 0 255 255 130;
#X obj 169 436 outlet;
#X obj 169 168 r \$0-led0;
#X obj 394 152 r \$0-led1;
#X obj 628 155 r \$0-led2;
#X obj 374 210 * 255;
#X obj 599 204 * 255;
#X obj 155 216 * 255;
#X obj 169 192 change;
#X obj 394 181 change;
#X obj 626 179 change;
#X msg 169 342 led 0 \$1 0 \$1;
#X msg 394 343 led 1 0 \$1 \$1;
#X msg 626 342 led 2 \$1 \$1 0;
#X obj 15 87 of.draw;
#X obj 234 81 of.draw;
#X obj 460 76 of.draw;
#X obj 460 148 of.translate 621 45;
#X obj 460 203 of.setCircleRes 100;
#X obj 460 232 of.setColor 255 255 0 130;
#X obj 460 261 of.drawCircle 7;
#X obj 234 266 of.drawCircle 7;
#X obj 15 272 of.drawCircle 7;
#X obj 15 244 of.setColor 255 0 255 150;
#X obj 15 214 of.setCircleRes 100;
#X obj 15 159 of.translate 170 45;
#X obj 234 153 of.translate 395 45;
#X obj 234 208 of.setCircleRes 100;
#X obj 234 180 of.setRectMode;
#X obj 460 175 of.setRectMode;
#X obj 15 186 of.setRectMode;
#X connect 0 0 21 0;
#X connect 2 0 8 0;
#X connect 3 0 9 0;
#X connect 4 0 10 0;
#X connect 5 0 0 4;
#X connect 6 0 19 4;
#X connect 7 0 23 4;
#X connect 8 0 11 0;
#X connect 8 0 7 0;
#X connect 9 0 5 0;
#X connect 9 0 12 0;
#X connect 10 0 13 0;
#X connect 10 0 6 0;
#X connect 11 0 1 0;
#X connect 12 0 1 0;
#X connect 13 0 1 0;
#X connect 14 0 25 0;
#X connect 15 0 26 0;
#X connect 16 0 17 0;
#X connect 17 0 19 0;
#X connect 19 0 20 0;
#X connect 23 0 22 0;
#X connect 25 0 23 0;
#X connect 26 0 0 0;
#X restore 51 359 pd LED;
#X obj 19 387 tickle~;
#X obj 582 5 declare -path ofelia/libs/of;
#X obj 308 104 of.setCircleResolution 60;
#X obj 18 81 of.Window;
#X obj 18 6 loadbang;
#X obj 758 6 declare -path ofelia/libs/pd;
#X msg 26 60 destroy;
#X obj 759 26 declare -path ofelia/libs/ez;
#X floatatom 266 274 5 0 0 0 - - -;
#X text 306 275 0: fail \, 1: success.;
#X obj 266 185 of.setup;
#X obj 266 206 of.disableArbTex;
#X floatatom 446 274 5 0 0 0 - - -;
#X text 486 275 0: fail \, 1: success.;
#X text 371 303 Drawing callback.;
#X text 325 186 Setup callback.;
#X text 374 206 Disable rectangular textures.;
#X msg 266 232 load tickle.png;
#X msg 446 232 load mask.png;
#X obj 266 253 ez.loadImage \$0-tickle;
#X obj 446 253 ez.loadImage \$0-mask;
#X obj 266 349 ez.drawImage \$0-tickle 0 0 -0.001;
#X obj 265 441 ez.drawImage \$0-mask 0 0 0;
#X floatatom 646 276 5 0 0 0 - - -;
#X text 686 277 0: fail \, 1: success.;
#X obj 646 255 ez.loadImage \$0-knob;
#X msg 646 234 load knob.tiff;
#X obj 266 323 of.draw 30;
#X obj 265 387 of.draw 50;
#X msg 18 27 setPosition 30 100 \, setSize 791 650 \, title CHAIR \,
setBackground 0 \, create;
#X obj 265 415 of.enableAlphaBlending;
#X connect 1 0 12 0;
#X connect 2 0 12 0;
#X connect 3 0 4 0;
#X connect 5 0 6 0;
#X connect 5 0 7 0;
#X connect 7 0 8 0;
#X connect 11 0 12 0;
#X connect 12 0 5 0;
#X connect 12 1 3 0;
#X connect 16 0 41 0;
#X connect 18 0 15 0;
#X connect 22 0 23 0;
#X connect 23 0 29 0;
#X connect 23 0 30 0;
#X connect 23 0 38 0;
#X connect 29 0 31 0;
#X connect 30 0 32 0;
#X connect 31 0 20 0;
#X connect 32 0 24 0;
#X connect 37 0 35 0;
#X connect 38 0 37 0;
#X connect 41 0 15 0;
#X connect 42 0 34 0;
