#N canvas 904 274 714 814 10;
#X declare -lib ofelia;
#X obj 27 262 ofHead 50 OFF;
#X obj 354 24 declare -lib ofelia;
#X floatatom 96 201 5 0 0 0 - - -;
#X obj 27 139 ofLoadImage \; @textures \; tickle.gif \; knob.tiff \;
;
#X obj 27 75 ofWindow 791 650 LEFT TOP;
#X msg 27 239 1;
#X obj 27 298 ofDrawImage @textures[0];
#X obj 28 387 tickle~;
#X obj 28 335 tgl 15 0 empty empty empty 17 7 0 10 -262144 -1 -1 1
1;
#X msg 49 359 info;
#N canvas 616 297 1031 486 rotaries 0;
#X obj 58 13 inlet;
#X obj 58 44 route rotary;
#X obj 53 144 outlet;
#X obj 265 135 route 0 1 2, f 110;
#X obj 265 259 chair.rotary-limit-range 24;
#X obj 265 284 * 360;
#X obj 680 340 ofDrawImage @textures[1] 59 59;
#X obj 242 331 ofDrawImage @textures[1] 59 59;
#X obj 461 336 ofDrawImage @textures[1] 59 59;
#X obj 680 82 ofSetRectMode CENTER;
#X obj 680 318 ofRotate 0 0 0 1;
#X obj 680 54 ofTranslate 621 106;
#X obj 242 74 ofSetRectMode CENTER;
#X obj 242 309 ofRotate 0 0 0 1;
#X obj 242 50 ofTranslate 170 106;
#X obj 461 82 ofSetRectMode CENTER;
#X obj 461 314 ofRotate 0 0 0 1;
#X obj 461 58 ofTranslate 397 106;
#X obj 484 267 chair.rotary-limit-range 24;
#X obj 484 289 * 360;
#X obj 703 270 chair.rotary-limit-range 24;
#X obj 703 293 * 360;
#X obj 680 30 ofHead 50;
#X obj 461 34 ofHead 50;
#X obj 242 26 ofHead 50;
#X connect 0 0 1 0;
#X connect 1 0 3 0;
#X connect 1 1 2 0;
#X connect 3 0 4 0;
#X connect 3 1 18 0;
#X connect 3 2 20 0;
#X connect 4 0 5 0;
#X connect 5 0 13 1;
#X connect 9 0 10 0;
#X connect 10 0 6 0;
#X connect 11 0 9 0;
#X connect 12 0 13 0;
#X connect 13 0 7 0;
#X connect 14 0 12 0;
#X connect 15 0 16 0;
#X connect 16 0 8 0;
#X connect 17 0 15 0;
#X connect 18 0 19 0;
#X connect 19 0 16 1;
#X connect 20 0 21 0;
#X connect 21 0 10 1;
#X connect 22 0 11 0;
#X connect 23 0 17 0;
#X connect 24 0 14 0;
#X restore 67 414 pd rotaries;
#N canvas 2500 296 944 840 position 0;
#X obj 42 34 inlet;
#X obj 42 57 route position;
#X obj 41 137 outlet;
#X obj 387 70 loadbang;
#X obj 387 91 ofGetLastRenderOrder;
#X obj 354 112 ofHead;
#X obj 354 547 ofSetCircleRes 6;
#X obj 354 497 ofSetRectMode CENTER;
#X obj 354 522 ofRotate 30 0 0 1;
#X obj 354 470 ofTranslate 296 371;
#X obj 75 223 loadbang;
#X obj 75 244 ofGetLastRenderOrder;
#X obj 42 265 ofHead;
#X obj 42 364 ofSetRectMode CENTER;
#X obj 42 419 ofRotate 30 0 0 1;
#X obj 42 337 ofTranslate 296 371;
#X obj 42 541 ofCircle 112;
#X obj 202 223 unpack f f;
#X obj 121 116 chair.capsense;
#X obj 42 444 ofSetCircleRes 100;
#X floatatom 468 576 5 0 0 0 - - -;
#X floatatom 430 576 5 0 0 0 - - -;
#X floatatom 391 574 5 0 0 0 - - -;
#X obj 354 602 ofSetColor 244 101 207 150;
#X obj 111 510 r \$0-env;
#X obj 354 626 ofCircle 112;
#X obj 229 166 chair.hex-mapping;
#X obj 202 142 t l l;
#X obj 391 411 +;
#X msg 392 368 100;
#X obj 435 221 moses 5;
#X obj 495 253 moses 9;
#X obj 495 277 t b b f;
#X obj 435 276 t b b f;
#X obj 553 279 t b b f;
#X msg 514 431 371;
#X msg 572 431 541;
#X obj 354 345 t a b;
#X msg 391 326 set 4;
#X msg 454 432 204;
#X obj 474 367 * 195;
#X obj 534 313 - 5;
#X obj 592 307 - 9;
#X msg 433 327 set 100;
#X obj 202 265 * 791;
#X obj 259 265 + 140;
#X obj 259 244 * 468;
#X text 353 25 Hexagon;
#X text 43 176 Touch;
#X obj 42 482 ofSetColor 0 130 150 130;
#X obj 121 146 s \$0-touch;
#X obj 42 198 r \$0-touch;
#X obj 354 49 r \$0-touch;
#X connect 0 0 1 0;
#X connect 1 0 18 0;
#X connect 1 1 2 0;
#X connect 3 0 4 0;
#X connect 4 0 5 1;
#X connect 5 0 37 0;
#X connect 6 0 23 0;
#X connect 7 0 8 0;
#X connect 8 0 6 0;
#X connect 9 0 7 0;
#X connect 10 0 11 0;
#X connect 11 0 12 1;
#X connect 12 0 15 0;
#X connect 13 0 14 0;
#X connect 14 0 19 0;
#X connect 15 0 13 0;
#X connect 17 0 44 0;
#X connect 17 1 46 0;
#X connect 18 0 50 0;
#X connect 18 1 27 0;
#X connect 19 0 49 0;
#X connect 20 0 23 3;
#X connect 21 0 23 2;
#X connect 22 0 23 1;
#X connect 23 0 25 0;
#X connect 24 0 16 1;
#X connect 26 0 30 0;
#X connect 27 0 17 0;
#X connect 27 1 26 0;
#X connect 28 0 9 1;
#X connect 29 0 28 0;
#X connect 30 0 33 0;
#X connect 30 1 31 0;
#X connect 31 0 32 0;
#X connect 31 1 34 0;
#X connect 32 0 43 0;
#X connect 32 1 35 0;
#X connect 32 2 41 0;
#X connect 33 0 38 0;
#X connect 33 1 39 0;
#X connect 33 2 40 0;
#X connect 34 0 38 0;
#X connect 34 1 36 0;
#X connect 34 2 42 0;
#X connect 35 0 9 2;
#X connect 36 0 9 2;
#X connect 37 0 9 0;
#X connect 37 1 29 0;
#X connect 38 0 29 0;
#X connect 39 0 9 2;
#X connect 40 0 28 1;
#X connect 41 0 40 0;
#X connect 42 0 40 0;
#X connect 43 0 29 0;
#X connect 44 0 15 1;
#X connect 45 0 15 2;
#X connect 46 0 45 0;
#X connect 49 0 16 0;
#X connect 51 0 12 0;
#X connect 52 0 5 0;
#X restore 67 438 pd position;
#X obj 28 487 chair.gain~;
#X obj 28 613 chair.peak-hold~ 0.99;
#X obj 56 539 env~;
#X obj 56 564 s \$0-env;
#X text 412 308 load .vert and .frag shaders from the path.;
#X obj 239 501 ofApplyShader @shader;
#X obj 239 281 ofWindow 640 400 LEFT TOP 1 55;
#X obj 239 307 ofLoadShader @shader shader;
#X obj 239 333 ofLoadImage @img img.jpg;
#X obj 239 359 ofLoadImage @imgMask img_mask.png;
#X obj 239 416 t b b;
#X obj 266 437 ofExpr \; ofGetWidth \; ofGetHeight \;;
#X obj 239 480 ofRectangle;
#X text 313 481 draw a white rectangle for background.;
#X obj 239 522 ofSetShaderUniformTex imageMask @imgMask 1;
#X obj 239 543 ofDrawImage @img;
#X obj 239 395 ofHead 50 OFF;
#X connect 0 0 6 0;
#X connect 3 0 5 0;
#X connect 3 1 2 0;
#X connect 5 0 0 0;
#X connect 7 0 12 0;
#X connect 7 1 10 0;
#X connect 8 0 7 0;
#X connect 9 0 7 0;
#X connect 10 0 11 0;
#X connect 12 0 13 0;
#X connect 12 0 14 0;
#X connect 14 0 15 0;
#X connect 17 0 26 0;
#X connect 22 0 24 0;
#X connect 22 1 23 0;
#X connect 23 0 24 1;
#X connect 23 0 27 1;
#X connect 23 1 24 2;
#X connect 23 1 27 2;
#X connect 24 0 17 0;
#X connect 26 0 27 0;
#X connect 28 0 22 0;
