#N canvas 956 204 576 671 10;
#X declare -lib ofelia;
#X declare -path abstractions;
#X declare -path chair;
#X obj 354 24 declare -lib ofelia;
#X floatatom 96 200 5 0 0 0 - - -;
#X obj 27 285 ofDrawImage @textures[0];
#X obj 28 316 tgl 15 0 empty empty empty 17 7 0 10 -262144 -1 -1 1
1;
#X msg 49 332 info;
#N canvas 846 629 1031 486 rotaries 0;
#X obj 58 13 inlet;
#X obj 58 44 route rotary;
#X obj 53 144 outlet;
#X obj 265 135 route 0 1 2, f 110;
#X obj 265 237 chair.rotary-limit-range 24;
#X obj 265 284 * 360;
#X obj 680 340 ofDrawImage @textures[1] 59 59;
#X obj 242 331 ofDrawImage @textures[1] 59 59;
#X obj 461 336 ofDrawImage @textures[1] 59 59;
#X obj 680 82 ofSetRectMode CENTER;
#X obj 680 318 ofRotate 0 0 0 1;
#X obj 680 54 ofTranslate 621 106;
#X obj 242 74 ofSetRectMode CENTER;
#X obj 242 309 ofRotate 0 0 0 1;
#X obj 242 50 ofTranslate 170 106;
#X obj 461 82 ofSetRectMode CENTER;
#X obj 461 314 ofRotate 0 0 0 1;
#X obj 461 58 ofTranslate 397 106;
#X obj 484 245 chair.rotary-limit-range 24;
#X obj 484 289 * 360;
#X obj 703 248 chair.rotary-limit-range 24;
#X obj 703 293 * 360;
#X obj 242 26 ofHead 60;
#X obj 461 34 ofHead 60;
#X obj 680 30 ofHead 60;
#X obj 310 284 s \$0-led0;
#X obj 524 290 s \$0-led1;
#X obj 741 293 s \$0-led2;
#X obj 703 270 t f f;
#X obj 484 267 t f f;
#X obj 265 259 t f f;
#X connect 0 0 1 0;
#X connect 1 0 3 0;
#X connect 1 1 2 0;
#X connect 3 0 4 0;
#X connect 3 1 18 0;
#X connect 3 2 20 0;
#X connect 4 0 30 0;
#X connect 5 0 13 1;
#X connect 9 0 10 0;
#X connect 10 0 6 0;
#X connect 11 0 9 0;
#X connect 12 0 13 0;
#X connect 13 0 7 0;
#X connect 14 0 12 0;
#X connect 15 0 16 0;
#X connect 16 0 8 0;
#X connect 17 0 15 0;
#X connect 18 0 29 0;
#X connect 19 0 16 1;
#X connect 20 0 28 0;
#X connect 21 0 10 1;
#X connect 22 0 14 0;
#X connect 23 0 17 0;
#X connect 24 0 11 0;
#X connect 28 0 21 0;
#X connect 28 1 27 0;
#X connect 29 0 19 0;
#X connect 29 1 26 0;
#X connect 30 0 5 0;
#X connect 30 1 25 0;
#X restore 67 414 pd rotaries;
#N canvas 822 181 664 698 position 0;
#X obj 42 34 inlet;
#X obj 42 57 route position;
#X obj 41 137 outlet;
#X obj 354 547 ofSetCircleRes 6;
#X obj 354 497 ofSetRectMode CENTER;
#X obj 354 522 ofRotate 30 0 0 1;
#X obj 354 470 ofTranslate 296 371;
#X obj 75 221 loadbang;
#X obj 75 244 ofGetLastRenderOrder;
#X obj 42 265 ofHead;
#X obj 42 364 ofSetRectMode CENTER;
#X obj 42 419 ofRotate 30 0 0 1;
#X obj 42 337 ofTranslate 296 371;
#X obj 42 541 ofCircle 112;
#X obj 202 223 unpack f f;
#X obj 121 116 chair.capsense;
#X obj 42 444 ofSetCircleRes 100;
#X floatatom 468 576 5 0 0 0 - - -;
#X floatatom 430 576 5 0 0 0 - - -;
#X floatatom 391 574 5 0 0 0 - - -;
#X obj 111 510 r \$0-env;
#X obj 354 626 ofCircle 112;
#X obj 229 166 chair.hex-mapping;
#X obj 202 142 t l l;
#X obj 391 411 +;
#X msg 392 368 4;
#X obj 435 221 moses 5;
#X obj 495 253 moses 9;
#X obj 495 277 t b b f;
#X obj 435 276 t b b f;
#X obj 553 279 t b b f;
#X msg 514 431 371;
#X msg 572 431 541;
#X obj 354 345 t a b;
#X msg 391 326 set 4;
#X msg 454 432 204;
#X obj 474 367 * 195;
#X obj 534 313 - 5;
#X obj 592 307 - 9;
#X msg 433 327 set 100;
#X obj 202 265 * 791;
#X obj 259 265 + 140;
#X obj 259 244 * 468;
#X text 353 19 Hexagon;
#X text 43 176 Touch;
#X obj 121 146 s \$0-touch;
#X obj 42 198 r \$0-touch;
#X obj 354 43 r \$0-touch;
#X obj 354 112 ofHead 40;
#X obj 370 66 loadbang;
#X msg 370 89 0;
#X msg 48 243 0;
#X obj 42 482 ofSetColor 0 130 150 60;
#X obj 354 602 ofSetColor 244 101 207 110;
#X connect 0 0 1 0;
#X connect 1 0 15 0;
#X connect 1 1 2 0;
#X connect 3 0 53 0;
#X connect 4 0 5 0;
#X connect 5 0 3 0;
#X connect 6 0 4 0;
#X connect 7 0 8 0;
#X connect 7 0 51 0;
#X connect 8 0 9 1;
#X connect 9 0 12 0;
#X connect 10 0 11 0;
#X connect 11 0 16 0;
#X connect 12 0 10 0;
#X connect 14 0 40 0;
#X connect 14 1 42 0;
#X connect 15 0 45 0;
#X connect 15 1 23 0;
#X connect 16 0 52 0;
#X connect 17 0 53 3;
#X connect 18 0 53 2;
#X connect 19 0 53 1;
#X connect 20 0 13 1;
#X connect 22 0 26 0;
#X connect 23 0 14 0;
#X connect 23 1 22 0;
#X connect 24 0 6 1;
#X connect 25 0 24 0;
#X connect 26 0 29 0;
#X connect 26 1 27 0;
#X connect 27 0 28 0;
#X connect 27 1 30 0;
#X connect 28 0 39 0;
#X connect 28 1 31 0;
#X connect 28 2 37 0;
#X connect 29 0 34 0;
#X connect 29 1 35 0;
#X connect 29 2 36 0;
#X connect 30 0 34 0;
#X connect 30 1 32 0;
#X connect 30 2 38 0;
#X connect 31 0 6 2;
#X connect 32 0 6 2;
#X connect 33 0 6 0;
#X connect 33 1 25 0;
#X connect 34 0 25 0;
#X connect 35 0 6 2;
#X connect 36 0 24 1;
#X connect 37 0 36 0;
#X connect 38 0 36 0;
#X connect 39 0 25 0;
#X connect 40 0 12 1;
#X connect 41 0 12 2;
#X connect 42 0 41 0;
#X connect 46 0 9 0;
#X connect 47 0 48 0;
#X connect 48 0 33 0;
#X connect 49 0 50 0;
#X connect 50 0 48 0;
#X connect 51 0 9 0;
#X connect 52 0 13 0;
#X connect 53 0 21 0;
#X restore 67 438 pd position;
#X obj 28 487 chair.gain~;
#X obj 28 613 chair.peak-hold~ 0.99;
#X obj 56 539 env~;
#X obj 56 564 s \$0-env;
#X obj 354 46 declare -path abstractions;
#X obj 27 75 ofWindow 791 650 LEFT TOP;
#X obj 354 69 declare -path chair;
#X obj 28 387 tickle~;
#X obj 27 125 ofLoadImage \; @textures \; tickle.png \; knob.tiff \;
mask.png;
#X obj 183 286 ofDrawImage @textures[2];
#X msg 27 52 title CHAIR;
#X obj 27 30 loadbang;
#N canvas 1132 454 747 633 LED 0;
#X obj 493 34 loadbang;
#X obj 493 55 ofGetLastRenderOrder;
#X obj 460 76 ofHead;
#X obj 460 175 ofSetRectMode CENTER;
#X obj 460 203 ofSetCircleRes 100;
#X obj 460 232 ofSetColor 255 255 0 130;
#X obj 460 261 ofCircle 7;
#X obj 460 148 ofTranslate 621 45;
#X obj 48 45 loadbang;
#X obj 48 66 ofGetLastRenderOrder;
#X obj 15 87 ofHead;
#X obj 15 186 ofSetRectMode CENTER;
#X obj 15 214 ofSetCircleRes 100;
#X obj 15 272 ofCircle 7;
#X obj 15 159 ofTranslate 170 45;
#X obj 267 39 loadbang;
#X obj 267 60 ofGetLastRenderOrder;
#X obj 234 81 ofHead;
#X obj 234 180 ofSetRectMode CENTER;
#X obj 234 208 ofSetCircleRes 100;
#X obj 234 266 ofCircle 7;
#X obj 234 153 ofTranslate 395 45;
#X obj 234 237 ofSetColor 0 255 255 130;
#X obj 169 436 outlet;
#X obj 169 168 r \$0-led0;
#X obj 394 152 r \$0-led1;
#X obj 628 155 r \$0-led2;
#X obj 374 210 * 255;
#X obj 599 204 * 255;
#X obj 155 216 * 255;
#X obj 15 243 ofSetColor 255 0 255 150;
#X obj 169 192 change;
#X obj 394 181 change;
#X obj 626 179 change;
#X msg 169 342 led 0 \$1 0 \$1;
#X msg 394 343 led 1 0 \$1 \$1;
#X msg 626 342 led 2 \$1 \$1 0;
#X connect 0 0 1 0;
#X connect 1 0 2 1;
#X connect 2 0 7 0;
#X connect 3 0 4 0;
#X connect 4 0 5 0;
#X connect 5 0 6 0;
#X connect 7 0 3 0;
#X connect 8 0 9 0;
#X connect 9 0 10 1;
#X connect 10 0 14 0;
#X connect 11 0 12 0;
#X connect 12 0 30 0;
#X connect 14 0 11 0;
#X connect 15 0 16 0;
#X connect 16 0 17 1;
#X connect 17 0 21 0;
#X connect 18 0 19 0;
#X connect 19 0 22 0;
#X connect 21 0 18 0;
#X connect 22 0 20 0;
#X connect 24 0 31 0;
#X connect 25 0 32 0;
#X connect 26 0 33 0;
#X connect 27 0 22 4;
#X connect 28 0 5 4;
#X connect 29 0 30 4;
#X connect 30 0 13 0;
#X connect 31 0 34 0;
#X connect 31 0 29 0;
#X connect 32 0 27 0;
#X connect 32 0 35 0;
#X connect 33 0 36 0;
#X connect 33 0 28 0;
#X connect 34 0 23 0;
#X connect 35 0 23 0;
#X connect 36 0 23 0;
#X restore 60 359 pd LED;
#X obj 27 262 ofHead 30;
#X obj 183 264 ofHead 50;
#X connect 3 0 14 0;
#X connect 4 0 14 0;
#X connect 5 0 6 0;
#X connect 7 0 8 0;
#X connect 7 0 9 0;
#X connect 9 0 10 0;
#X connect 14 0 7 0;
#X connect 14 1 5 0;
#X connect 15 1 1 0;
#X connect 17 0 12 0;
#X connect 18 0 17 0;
#X connect 19 0 14 0;
#X connect 20 0 2 0;
#X connect 21 0 16 0;
