#N canvas 117 188 1233 816 10;
#X msg 286 433 \$1 100;
#X obj 286 454 line~;
#X obj 191 490 *~;
#X obj 191 109 mtof;
#X obj 287 369 sqrt;
#X msg 475 437 \$1 100;
#X obj 475 458 line~;
#X obj 380 497 *~;
#X obj 475 376 sqrt;
#X text 198 369 del-1 feedback;
#X text 386 377 del-2 feedback;
#X obj 24 164 inlet~;
#X obj 192 702 outlet~;
#X obj 22 726 delwrite~ \$0-d1 100;
#X text 213 612 del rolloff;
#X obj 192 633 chair.dc-offset~;
#X obj 379 528 *~ -1;
#X floatatom 419 543 5 0 0 0 - - -;
#X obj 51 697 expr~ tanh($v1);
#X obj 286 391 * 0.5;
#X obj 190 345 delread4~ \$0-d1;
#X obj 379 348 delread4~ \$0-d1;
#X obj 475 396 * 0.5;
#X obj 286 413 clip 0 0.4999;
#X obj 475 417 clip 0 0.4999;
#X obj 191 207 /;
#X msg 191 184 1000 \$1;
#X msg 380 197 1000 \$1;
#X obj 380 218 /;
#X obj 191 137 t f f f;
#X obj 380 264 line~;
#X obj 191 255 line~;
#X msg 380 241 \$1 10;
#X msg 191 232 \$1 10;
#X floatatom 475 285 5 0 0 0 - - -;
#X floatatom 442 607 5 0 0 0 - - -;
#X obj 442 630 sig~ 0.25;
#X obj 192 589 lop~ 800;
#X obj 378 601 allp-d~ 3;
#X obj 418 566 sig~ 0.28;
#X obj 379 632 allp-d~;
#X obj 379 700 outlet~;
#X obj 36 206 r \$1-fieldn;
#X obj 36 229 == \$2;
#X obj 579 244 r \$1-params-list;
#X obj 579 267 route \$2;
#X obj 579 290 unpack f f f;
#X obj 579 320 s \$0-param-1;
#X obj 612 345 s \$0-param-2;
#X obj 648 370 s \$0-param-3;
#X obj 475 238 * 0.2;
#X obj 475 261 + 0.8;
#X obj 475 215 r \$0-param-2;
#X obj 237 557 + 1800;
#X obj 191 64 * 26;
#X obj 191 87 + 34;
#X obj 191 44 r \$0-param-1;
#X obj 380 176 * 4.02;
#X obj 191 302 +~;
#X obj 364 302 +~;
#X obj 257 215 osc~ 6.5;
#X obj 272 135 r \$0-param-3;
#X obj 272 158 pow 4;
#X obj 272 181 * 2;
#X obj 257 238 *~;
#X obj 23 251 chair.touchgate~ 0.5 5;
#X obj 577 131 r \$1-fieldn;
#X obj 577 180 switch~ 1 1 1;
#X obj 577 155 chair.polyphony \$2;
#X connect 0 0 1 0;
#X connect 1 0 2 1;
#X connect 2 0 37 0;
#X connect 3 0 29 0;
#X connect 4 0 19 0;
#X connect 5 0 6 0;
#X connect 6 0 7 1;
#X connect 7 0 16 0;
#X connect 8 0 22 0;
#X connect 11 0 65 0;
#X connect 15 0 12 0;
#X connect 15 0 18 0;
#X connect 16 0 38 0;
#X connect 17 0 39 0;
#X connect 18 0 13 0;
#X connect 19 0 23 0;
#X connect 20 0 2 0;
#X connect 21 0 7 0;
#X connect 22 0 24 0;
#X connect 23 0 0 0;
#X connect 24 0 5 0;
#X connect 25 0 33 0;
#X connect 26 0 25 0;
#X connect 27 0 28 0;
#X connect 28 0 32 0;
#X connect 29 0 26 0;
#X connect 29 1 53 0;
#X connect 29 2 57 0;
#X connect 30 0 59 1;
#X connect 31 0 58 0;
#X connect 32 0 30 0;
#X connect 33 0 31 0;
#X connect 34 0 8 0;
#X connect 34 0 4 0;
#X connect 35 0 36 0;
#X connect 36 0 40 2;
#X connect 37 0 15 0;
#X connect 38 0 40 0;
#X connect 39 0 38 2;
#X connect 40 0 37 0;
#X connect 40 0 41 0;
#X connect 42 0 43 0;
#X connect 43 0 65 1;
#X connect 44 0 45 0;
#X connect 45 0 46 0;
#X connect 46 0 47 0;
#X connect 46 1 48 0;
#X connect 46 2 49 0;
#X connect 50 0 51 0;
#X connect 51 0 34 0;
#X connect 52 0 50 0;
#X connect 53 0 37 1;
#X connect 54 0 55 0;
#X connect 55 0 3 0;
#X connect 56 0 54 0;
#X connect 57 0 27 0;
#X connect 58 0 20 0;
#X connect 59 0 21 0;
#X connect 60 0 64 0;
#X connect 61 0 62 0;
#X connect 62 0 63 0;
#X connect 63 0 64 1;
#X connect 64 0 58 1;
#X connect 64 0 59 0;
#X connect 65 0 13 0;
#X connect 66 0 68 0;
#X connect 68 0 67 0;
