#N canvas 168 169 1125 711 10;
#X obj 740 48 block~ 1;
#X obj 24 27 inlet~;
#X obj 178 546 sig~;
#X obj 23 827 +~;
#X obj 51 854 delwrite~ \$0-del 200;
#X obj 24 886 outlet~;
#X floatatom 190 774 5 0 99.99 0 - - -;
#X obj 190 796 / 100;
#X floatatom 169 717 5 0 0 0 - - -;
#X floatatom 184 739 5 0 0 0 - - -;
#X obj 179 476 sig~;
#X obj 906 230 /;
#X msg 906 209 1000 \$1;
#X obj 906 188 mtof;
#X obj 173 649 +~;
#X obj 201 607 noise~;
#X obj 311 305 noise~;
#X obj 180 432 r \$0-param-2;
#X obj 178 503 r \$0-param-3;
#X obj 223 702 r \$0-lowdamp;
#X obj 222 735 r \$0-highdamp;
#X obj 229 772 r \$0-decay;
#X obj 215 227 noise~;
#X obj 264 246 r \$0-param-1;
#X obj 110 404 allp4~ 6.53;
#X obj 215 249 lop~ 10;
#X obj 201 630 lop~ 30;
#X obj 260 353 lop~ 10;
#X obj 109 259 delread4~ \$0-del;
#X floatatom 111 90 5 0 0 0 - - -;
#X floatatom 163 158 5 0 0 0 - - -;
#X obj 906 75 chair.distance;
#X msg 987 54 0.5 0.5;
#X obj 906 118 pow 2;
#X obj 987 32 loadbang;
#X obj 111 69 r \$0-vibra-freq;
#X obj 163 136 r \$0-vibra-amount;
#X obj 906 96 * 2;
#X obj 906 143 * -12;
#X obj 906 164 + 92;
#X floatatom 906 253 5 0 0 0 - - -;
#X obj 906 52 r \$1-xy;
#X obj 739 75 r \$1-params-list;
#X obj 739 98 route \$2;
#X obj 739 121 unpack f f f;
#X obj 739 151 s \$0-param-1;
#X obj 772 176 s \$0-param-2;
#X obj 808 201 s \$0-param-3;
#X obj 24 134 *~;
#X obj 37 89 r \$1-fieldn;
#X obj 37 112 == \$2;
#X obj 174 584 sig~ 0.09;
#X obj 111 769 *~ -1;
#X obj 201 651 *~ 0.1;
#X obj 214 273 *~ 0.1;
#X obj 261 375 *~ 0.1;
#X obj 180 455 * 0.5;
#X obj 178 525 * 0.5;
#X obj 111 717 hip~ 50;
#X obj 311 328 abs~;
#X obj 112 740 lop~ 4000;
#X obj 111 476 allp~ 2.12;
#X obj 111 547 allp~ 1.5;
#X floatatom 143 196 5 0 0 0 - - -;
#X obj 186 379 +~ 0.515;
#X obj 214 297 +~ 141;
#X obj 264 269 pow 4;
#X obj 264 292 * 150;
#X floatatom 264 315 5 0 0 0 - - -;
#X obj 112 672 allp4~ 5;
#X obj 110 217 +~ 1.1;
#X obj 111 158 *~ 0.17;
#X obj 111 112 osc~ 11;
#X obj 112 799 *~ 0.8;
#X obj 471 554 sig~;
#X floatatom 483 782 5 0 99.99 0 - - -;
#X obj 483 804 / 100;
#X floatatom 462 725 5 0 0 0 - - -;
#X floatatom 477 747 5 0 0 0 - - -;
#X obj 472 484 sig~;
#X obj 466 657 +~;
#X obj 494 615 noise~;
#X obj 604 313 noise~;
#X obj 473 440 r \$0-param-2;
#X obj 471 511 r \$0-param-3;
#X obj 516 710 r \$0-lowdamp;
#X obj 515 743 r \$0-highdamp;
#X obj 522 780 r \$0-decay;
#X obj 508 235 noise~;
#X obj 557 254 r \$0-param-1;
#X obj 403 412 allp4~ 6.53;
#X obj 508 257 lop~ 10;
#X obj 494 638 lop~ 30;
#X obj 553 361 lop~ 10;
#X obj 402 267 delread4~ \$0-del;
#X floatatom 404 98 5 0 0 0 - - -;
#X floatatom 456 166 5 0 0 0 - - -;
#X obj 404 77 r \$0-vibra-freq;
#X obj 456 144 r \$0-vibra-amount;
#X obj 467 592 sig~ 0.09;
#X obj 404 777 *~ -1;
#X obj 494 659 *~ 0.1;
#X obj 507 281 *~ 0.1;
#X obj 554 383 *~ 0.1;
#X obj 473 463 * 0.5;
#X obj 471 533 * 0.5;
#X obj 404 725 hip~ 50;
#X obj 604 336 abs~;
#X obj 405 748 lop~ 4000;
#X obj 404 484 allp~ 2.12;
#X obj 404 555 allp~ 1.5;
#X floatatom 436 204 5 0 0 0 - - -;
#X obj 479 387 +~ 0.515;
#X obj 507 305 +~ 141;
#X obj 557 277 pow 4;
#X obj 557 300 * 150;
#X floatatom 557 323 5 0 0 0 - - -;
#X obj 405 680 allp4~ 5;
#X obj 403 225 +~ 1.1;
#X obj 404 166 *~ 0.17;
#X obj 404 120 osc~ 11;
#X obj 405 807 *~ 0.8;
#X obj 363 829 +~;
#X obj 391 857 delwrite~ \$0-del-r 200;
#X obj 362 886 outlet~;
#X connect 1 0 48 0;
#X connect 2 0 62 2;
#X connect 3 0 4 0;
#X connect 3 0 5 0;
#X connect 6 0 7 0;
#X connect 7 0 73 1;
#X connect 8 0 58 1;
#X connect 9 0 60 1;
#X connect 10 0 61 2;
#X connect 11 0 40 0;
#X connect 12 0 11 0;
#X connect 13 0 12 0;
#X connect 14 0 69 2;
#X connect 15 0 26 0;
#X connect 16 0 59 0;
#X connect 17 0 56 0;
#X connect 18 0 57 0;
#X connect 19 0 8 0;
#X connect 20 0 9 0;
#X connect 21 0 6 0;
#X connect 22 0 25 0;
#X connect 23 0 66 0;
#X connect 24 0 61 0;
#X connect 25 0 54 0;
#X connect 26 0 53 0;
#X connect 27 0 55 0;
#X connect 28 0 24 0;
#X connect 29 0 72 0;
#X connect 30 0 71 1;
#X connect 31 0 37 0;
#X connect 32 0 31 1;
#X connect 33 0 38 0;
#X connect 34 0 32 0;
#X connect 35 0 29 0;
#X connect 36 0 30 0;
#X connect 37 0 33 0;
#X connect 38 0 39 0;
#X connect 39 0 13 0;
#X connect 41 0 31 0;
#X connect 42 0 43 0;
#X connect 43 0 44 0;
#X connect 44 0 45 0;
#X connect 44 1 46 0;
#X connect 44 2 47 0;
#X connect 48 0 3 0;
#X connect 48 0 122 0;
#X connect 49 0 50 0;
#X connect 50 0 48 1;
#X connect 51 0 14 0;
#X connect 52 0 73 0;
#X connect 53 0 14 1;
#X connect 54 0 65 0;
#X connect 55 0 64 0;
#X connect 56 0 10 0;
#X connect 57 0 2 0;
#X connect 58 0 60 0;
#X connect 59 0 27 0;
#X connect 60 0 52 0;
#X connect 61 0 62 0;
#X connect 62 0 69 0;
#X connect 63 0 70 1;
#X connect 64 0 24 2;
#X connect 65 0 24 1;
#X connect 66 0 67 0;
#X connect 67 0 68 0;
#X connect 67 0 65 1;
#X connect 69 0 58 0;
#X connect 70 0 28 0;
#X connect 71 0 70 0;
#X connect 72 0 71 0;
#X connect 73 0 3 1;
#X connect 74 0 110 2;
#X connect 75 0 76 0;
#X connect 76 0 121 1;
#X connect 77 0 106 1;
#X connect 78 0 108 1;
#X connect 79 0 109 2;
#X connect 80 0 117 2;
#X connect 81 0 92 0;
#X connect 82 0 107 0;
#X connect 83 0 104 0;
#X connect 84 0 105 0;
#X connect 85 0 77 0;
#X connect 86 0 78 0;
#X connect 87 0 75 0;
#X connect 88 0 91 0;
#X connect 89 0 114 0;
#X connect 90 0 109 0;
#X connect 91 0 102 0;
#X connect 92 0 101 0;
#X connect 93 0 103 0;
#X connect 94 0 90 0;
#X connect 95 0 120 0;
#X connect 96 0 119 1;
#X connect 97 0 95 0;
#X connect 98 0 96 0;
#X connect 99 0 80 0;
#X connect 100 0 121 0;
#X connect 101 0 80 1;
#X connect 102 0 113 0;
#X connect 103 0 112 0;
#X connect 104 0 79 0;
#X connect 105 0 74 0;
#X connect 106 0 108 0;
#X connect 107 0 93 0;
#X connect 108 0 100 0;
#X connect 109 0 110 0;
#X connect 110 0 117 0;
#X connect 111 0 118 1;
#X connect 112 0 90 2;
#X connect 113 0 90 1;
#X connect 114 0 115 0;
#X connect 115 0 116 0;
#X connect 115 0 113 1;
#X connect 117 0 106 0;
#X connect 118 0 94 0;
#X connect 119 0 118 0;
#X connect 120 0 119 0;
#X connect 121 0 122 1;
#X connect 122 0 123 0;
#X connect 122 0 124 0;
