#N canvas 367 75 689 695 10;
#X obj 43 619 *~;
#X obj 43 529 +~ 1;
#X obj 43 556 tabread4~ sample;
#X obj 485 260 r analysis-window-size;
#X obj 503 280 r analysis-overlap;
#X obj 485 301 /;
#X obj 467 323 *;
#X obj 283 522 -~ 0.5;
#X obj 283 544 *~ 0.5;
#X obj 283 566 cos~;
#X obj 43 505 +~;
#X obj 58 450 r analysis-window-size;
#X obj 43 480 *~;
#X obj 169 307 / 100;
#X obj 43 211 *;
#X obj 43 376 *~;
#X obj 58 131 r analysis-window-size;
#X obj 58 151 / 44.1;
#X obj 43 181 f;
#X obj 198 27 t b b f;
#X obj 43 641 throw~ grain-bus;
#X obj 198 5 r index-\$1;
#X obj 169 263 random;
#X obj 169 285 +;
#X obj 217 211 -;
#X obj 257 233 t b f;
#X obj 217 233 + 1;
#X obj 217 115 r grain-size-hi;
#X obj 217 187 max;
#X obj 371 115 r grain-size-hi;
#X obj 371 187 min;
#X obj 257 137 r grain-size-low;
#X obj 411 137 r grain-size-low;
#X obj 257 159 t b f;
#X obj 411 159 t b f;
#X obj 43 266 vline~;
#X msg 43 240 0 \, 1 \$1;
#X connect 0 0 20 0;
#X connect 1 0 2 0;
#X connect 2 0 0 0;
#X connect 3 0 5 0;
#X connect 4 0 5 1;
#X connect 5 0 6 1;
#X connect 6 0 10 1;
#X connect 7 0 8 0;
#X connect 8 0 9 0;
#X connect 9 0 0 1;
#X connect 10 0 1 0;
#X connect 11 0 12 1;
#X connect 12 0 10 0;
#X connect 13 0 14 1;
#X connect 13 0 15 1;
#X connect 14 0 36 0;
#X connect 15 0 12 0;
#X connect 16 0 17 0;
#X connect 17 0 18 1;
#X connect 18 0 14 0;
#X connect 19 0 18 0;
#X connect 19 1 22 0;
#X connect 19 2 6 0;
#X connect 21 0 19 0;
#X connect 22 0 23 0;
#X connect 23 0 13 0;
#X connect 24 0 26 0;
#X connect 25 0 24 0;
#X connect 25 1 24 1;
#X connect 25 1 23 1;
#X connect 26 0 22 1;
#X connect 27 0 28 0;
#X connect 28 0 24 0;
#X connect 29 0 30 0;
#X connect 30 0 25 0;
#X connect 31 0 33 0;
#X connect 32 0 34 0;
#X connect 33 0 28 0;
#X connect 33 1 28 1;
#X connect 34 0 30 0;
#X connect 34 1 30 1;
#X connect 35 0 7 0;
#X connect 35 0 15 0;
#X connect 36 0 35 0;
