#N canvas 0 30 985 1018 10;
#X declare -path ../chair;
#X obj 77 20 inlet~;
#X obj 80 370 outlet~;
#X obj 201 82 == \$1;
#X obj 201 50 r \$2-current;
#X obj 329 17 inlet;
#X msg 328 62 freq \$1;
#X obj 329 40 mtof;
#X obj 155 370 outlet~;
#X obj 558 47 declare -path ../chair;
#X obj 78 111 chair.touchgate~ 1 10;
#X obj 361 157 r \$2-bend;
#X msg 361 179 bend \$1;
#X obj 364 95 r \$2-sustain;
#X msg 364 119 sustain \$1;
#X obj 358 216 r \$2-damping;
#X msg 358 237 damping \$1;
#X obj 364 263 r \$2-gain;
#X msg 364 284 gain \$1;
#X obj 79 332 faustgen~ simpleKarplus;
#X connect 0 0 9 0;
#X connect 2 0 9 1;
#X connect 3 0 2 0;
#X connect 4 0 6 0;
#X connect 5 0 18 0;
#X connect 6 0 5 0;
#X connect 9 0 18 0;
#X connect 10 0 11 0;
#X connect 11 0 18 0;
#X connect 12 0 13 0;
#X connect 13 0 18 0;
#X connect 14 0 15 0;
#X connect 15 0 18 0;
#X connect 16 0 17 0;
#X connect 17 0 18 0;
#X connect 18 0 1 0;
#X connect 18 1 7 0;
