#N canvas 319 235 902 688 10;
#X obj 206 426 *~ 0.5;
#X obj 264 442 *~ 0.5;
#X obj 339 195 /;
#X msg 339 171 1000 \$1;
#X obj 339 146 mtof;
#X obj 207 390 lop~ 1500;
#X obj 35 480 bp~ 1200 1;
#X obj 207 339 +~;
#X obj 205 266 osc~;
#X obj 205 241 * 1;
#X obj 485 430 hsl 101 15 0 10000 0 1 empty empty lop 5000 5 8 0 10
-262144 -1 -1 5000 1;
#X obj 485 447 hsl 101 15 0 10000 0 1 empty empty bp 5000 5 8 0 10
-262144 -1 -1 5000 1;
#X obj 485 464 hsl 101 15 1 100 1 1 empty empty Q 14.4544 5 8 0 10
-262144 -1 -1 5800 1;
#X obj 339 39 inlet;
#X obj 485 412 hsl 101 15 0 2 0 1 empty empty FM amount -0.0833333
5 8 0 10 -262144 -1 -1 0 1;
#X obj 484 394 hsl 101 15 0 10 0 1 empty empty FM harmonic 3 5 8
0 10 -262144 -1 -1 3700 1;
#X obj 205 130 int;
#X obj 205 154 change;
#X obj 315 443 sqrt;
#X obj 205 555 outlet~;
#N canvas 462 164 450 300 zd 0;
#X obj 135 79 inlet~;
#X obj 137 175 outlet~;
#X obj 286 88 block~ 1;
#X obj 136 107 tabsend~ \$0-fo;
#X obj 136 142 tabreceive~ \$0-fo;
#X obj 275 161 table \$0-fo 1;
#X connect 0 0 3 0;
#X connect 4 0 1 0;
#X restore 264 417 pd zd;
#X obj 205 290 -~ 1;
#X msg 632 381 label FM harmonic \$1;
#X obj 205 179 t b f f;
#X msg 632 423 label lop \$1;
#X msg 632 443 label bp \$1;
#X msg 632 463 label Q \$1;
#X text 248 505 Karplus Strong;
#X text 251 270 FM;
#X msg 632 403 label FM amount \$1;
#X obj 206 508 *~;
#X obj 36 554 delwrite~ \$0-bo 128;
#X obj 206 363 vd~ \$0-bo 128;
#X text 445 585 (c) Liam Goodacre 2016 \, liam.goodacre@gmail.com;
#X obj 36 38 inlet~;
#X floatatom 358 376 5 0 0 0 - - -;
#X obj 315 422 r \$2-feedback;
#X obj 458 205 r \$2-fm-amount;
#X floatatom 473 229 5 0 0 0 - - -;
#X obj 35 454 *~;
#X obj 51 324 == \$1;
#X obj 51 421 line~;
#X obj 51 354 sel 0 1;
#X msg 99 381 1 2;
#X obj 51 292 r \$2-current;
#X text 457 567 Based on:;
#X obj 206 314 *~ 0;
#X obj 357 346 r \$2-timbre;
#X obj 458 272 line;
#X msg 458 250 \$1 20;
#X obj 205 105 line;
#X msg 205 83 \$1 20;
#X obj 414 398 line;
#X msg 414 376 \$1 20;
#X msg 51 381 0 10;
#X connect 0 0 30 0;
#X connect 1 0 30 0;
#X connect 2 0 7 1;
#X connect 3 0 2 0;
#X connect 4 0 9 0;
#X connect 4 0 3 0;
#X connect 5 0 0 0;
#X connect 5 0 20 0;
#X connect 6 0 31 0;
#X connect 7 0 32 0;
#X connect 8 0 21 0;
#X connect 9 0 8 0;
#X connect 10 0 5 1;
#X connect 10 0 24 0;
#X connect 11 0 6 1;
#X connect 11 0 25 0;
#X connect 12 0 6 2;
#X connect 12 0 26 0;
#X connect 13 0 4 0;
#X connect 14 0 29 0;
#X connect 15 0 51 0;
#X connect 16 0 17 0;
#X connect 17 0 23 0;
#X connect 18 0 30 1;
#X connect 20 0 1 0;
#X connect 21 0 46 0;
#X connect 22 0 15 0;
#X connect 23 0 9 0;
#X connect 23 1 9 1;
#X connect 23 2 22 0;
#X connect 24 0 10 0;
#X connect 25 0 11 0;
#X connect 26 0 12 0;
#X connect 29 0 14 0;
#X connect 30 0 31 0;
#X connect 30 0 19 0;
#X connect 32 0 5 0;
#X connect 34 0 39 0;
#X connect 36 0 18 0;
#X connect 37 0 38 0;
#X connect 37 0 49 0;
#X connect 39 0 6 0;
#X connect 40 0 42 0;
#X connect 41 0 39 1;
#X connect 42 0 54 0;
#X connect 42 1 43 0;
#X connect 43 0 41 0;
#X connect 44 0 40 0;
#X connect 46 0 7 0;
#X connect 47 0 35 0;
#X connect 47 0 53 0;
#X connect 48 0 46 1;
#X connect 48 0 14 0;
#X connect 49 0 48 0;
#X connect 50 0 16 0;
#X connect 51 0 50 0;
#X connect 52 0 11 0;
#X connect 52 0 10 0;
#X connect 53 0 52 0;
#X connect 54 0 41 0;
#X coords 0 688 1 687 85 60 0;
