#N canvas 2 54 632 694 10;
#X obj 45 -13 inlet~;
#X obj 163 785 *~ 0.98;
#X obj 46 806 +~;
#X obj 74 833 delwrite~ \$0-del 200;
#X obj 47 865 outlet~;
#X obj 239 633 +~;
#X obj 240 553 noise~;
#X obj 241 264 noise~;
#X obj 163 359 allp~ 2.2;
#X obj 163 423 allp~ 2.5;
#X obj 162 755 *~ -1;
#X obj 241 287 lop~ 100;
#X obj 240 576 lop~ 500;
#X obj 240 597 *~ 0.01;
#X obj 162 726 lop~ 7000;
#X obj 297 579 / 100;
#X obj 162 332 allp4~ 6.53;
#X obj 194 185 noise~;
#X obj 193 254 +~;
#X obj 258 216 r \$0-param-1;
#X obj 241 310 +~ 1;
#X obj 193 231 *~ 0.5;
#X obj 231 359 sig~ 0.5;
#X obj 194 207 lop~ 2000;
#X obj 230 422 sig~ 0.14;
#X obj 281 70 r \$0-param-2;
#X obj 281 141 * 15000;
#X obj 281 164 + 1000;
#X obj 281 93 / 100;
#X obj 281 116 pow 3;
#X obj 297 602 expr 1-$f1;
#X obj 297 469 r \$0-param-2;
#X obj 297 492 pow 3;
#X obj 297 512 expr 1-$f1;
#X obj 297 535 * 0.25;
#X obj 297 558 + 0.75;
#X obj 320 691 r \$0-param-2;
#X obj 320 720 pow 3;
#X obj 320 740 expr 1-$f1;
#X obj 320 784 + 0.7;
#X obj 320 762 * 0.275;
#X obj 164 692 hip~;
#X obj 242 333 *~ 0.75;
#X obj 161 158 delread4~ \$0-del;
#X obj 162 -4 chair.distance;
#X msg 243 -30 0.5 0.5;
#X obj 162 38 pow 2;
#X obj 162 17 / 0.72;
#X obj 162 61 expr 1-$f1;
#X obj 162 82 + 2;
#X obj 243 -52 loadbang;
#X obj 411 530 moses 0.5;
#X obj 464 551 - 0.5;
#X obj 411 553 * 2;
#X obj 464 574 * 2;
#X obj 464 597 pow 2;
#X obj 464 619 * 200;
#X obj 411 575 sqrt;
#X obj 411 484 r \$0-param-3;
#X obj 409 619 + 2000;
#X obj 409 596 * 7000;
#X text 410 841 philipp schmalfuß \, 2018;
#X obj 438 113 block~ 1;
#X obj 163 635 allp4~ 4;
#X obj 433 181 r \$1-params-list;
#X obj 433 204 route \$2;
#X obj 433 227 unpack f f f;
#X obj 433 257 s \$0-param-1;
#X obj 466 282 s \$0-param-2;
#X obj 502 307 s \$0-param-3;
#X obj 258 238 * 10;
#X obj 162 -46 r \$1-xy;
#X obj 46 105 *~;
#X obj 61 59 r \$1-fieldn;
#X obj 61 82 == \$2;
#X floatatom 209 92 5 0 0 0 - - -;
#X obj 162 119 sig~ 2.95;
#X connect 0 0 72 0;
#X connect 1 0 2 1;
#X connect 2 0 3 0;
#X connect 2 0 4 0;
#X connect 5 0 63 2;
#X connect 6 0 12 0;
#X connect 7 0 11 0;
#X connect 8 0 9 0;
#X connect 9 0 63 0;
#X connect 10 0 1 0;
#X connect 11 0 20 0;
#X connect 12 0 13 0;
#X connect 13 0 5 0;
#X connect 14 0 10 0;
#X connect 15 0 30 0;
#X connect 15 0 13 1;
#X connect 16 0 8 0;
#X connect 17 0 23 0;
#X connect 18 0 16 1;
#X connect 19 0 70 0;
#X connect 20 0 42 0;
#X connect 21 0 18 0;
#X connect 22 0 8 2;
#X connect 23 0 21 0;
#X connect 24 0 9 2;
#X connect 25 0 28 0;
#X connect 26 0 27 0;
#X connect 27 0 23 1;
#X connect 28 0 29 0;
#X connect 29 0 26 0;
#X connect 30 0 5 1;
#X connect 31 0 32 0;
#X connect 32 0 33 0;
#X connect 33 0 34 0;
#X connect 34 0 35 0;
#X connect 35 0 15 0;
#X connect 36 0 37 0;
#X connect 37 0 38 0;
#X connect 38 0 40 0;
#X connect 39 0 1 1;
#X connect 40 0 39 0;
#X connect 41 0 14 0;
#X connect 42 0 16 2;
#X connect 43 0 16 0;
#X connect 44 0 47 0;
#X connect 45 0 44 1;
#X connect 46 0 48 0;
#X connect 47 0 46 0;
#X connect 48 0 49 0;
#X connect 49 0 75 0;
#X connect 50 0 45 0;
#X connect 51 0 53 0;
#X connect 51 1 52 0;
#X connect 52 0 54 0;
#X connect 53 0 57 0;
#X connect 54 0 55 0;
#X connect 55 0 56 0;
#X connect 56 0 41 1;
#X connect 57 0 60 0;
#X connect 58 0 51 0;
#X connect 59 0 14 1;
#X connect 60 0 59 0;
#X connect 63 0 41 0;
#X connect 64 0 65 0;
#X connect 65 0 66 0;
#X connect 66 0 67 0;
#X connect 66 1 68 0;
#X connect 66 2 69 0;
#X connect 70 0 18 1;
#X connect 71 0 44 0;
#X connect 72 0 2 0;
#X connect 73 0 74 0;
#X connect 74 0 72 1;
#X connect 76 0 43 0;
