#N canvas 30 61 941 921 10;
#X obj 24 27 inlet~;
#X obj 23 827 +~;
#X obj 51 854 delwrite~ \$0-del 200;
#X obj 24 886 outlet~;
#X obj 717 261 /;
#X msg 717 240 1000 \$1;
#X obj 717 219 mtof;
#X obj 111 661 +~;
#X obj 139 619 noise~;
#X obj 204 642 r \$0-param-2;
#X obj 74 318 noise~;
#X obj 74 340 lop~ 10;
#X obj 139 642 lop~ 30;
#X obj 50 289 delread4~ \$0-del;
#X obj 717 106 chair.distance;
#X msg 798 85 0.5 0.5;
#X obj 717 149 pow 2;
#X obj 798 63 loadbang;
#X obj 717 127 * 2;
#X obj 717 174 * -12;
#X obj 717 195 + 92;
#X floatatom 717 284 5 0 0 0 - - -;
#X obj 718 73 r \$1-xy;
#X obj 527 195 r \$1-params-list;
#X obj 527 218 route \$2;
#X obj 527 241 unpack f f f;
#X obj 527 271 s \$0-param-1;
#X obj 560 296 s \$0-param-2;
#X obj 596 321 s \$0-param-3;
#X obj 37 89 r \$1-fieldn;
#X obj 37 112 == \$2;
#X obj 112 596 sig~ 0.09;
#X obj 51 783 *~ -1;
#X obj 139 663 *~ 0.1;
#X obj 51 738 hip~ 50;
#X obj 191 372 pow 4;
#X obj 143 441 *~ 0.1;
#X obj 142 370 noise~;
#X obj 142 418 +~ 1;
#X obj 142 393 lop~ 10;
#X obj 73 388 +~;
#X obj 49 437 allp4-d~ 6.53;
#X obj 49 495 allp-d~ 2.12;
#X obj 49 566 allp-d~ 1.5;
#X msg 145 516 0.999;
#X obj 50 684 allp4~ 5;
#X obj 124 565 sig~ 0.312;
#X obj 133 466 sig~ 0.367;
#X obj 145 494 loadbang;
#X obj 85 219 r \$0-param-1;
#X obj 191 416 sig~;
#X obj 191 439 lop~ 20;
#X obj 73 364 *~ 0.3;
#X obj 193 396 * 9.99;
#X obj 51 761 lop~ 8000;
#X obj 191 348 r \$0-param-3;
#X obj 52 806 *~ 0.995;
#X obj 204 690 * 6000;
#X obj 204 713 + 2000;
#X obj 204 665 pow 2;
#X obj 115 716 expr 200-$f1;
#X obj 115 693 * 160;
#X obj 84 242 * 7;
#X obj 51 265 +~;
#X obj 284 836 +~;
#X obj 372 670 +~;
#X obj 400 628 noise~;
#X obj 465 651 r \$0-param-2;
#X obj 335 327 noise~;
#X obj 335 349 lop~ 10;
#X obj 400 651 lop~ 30;
#X obj 373 605 sig~ 0.09;
#X obj 312 792 *~ -1;
#X obj 400 672 *~ 0.1;
#X obj 312 747 hip~ 50;
#X obj 452 381 pow 4;
#X obj 404 450 *~ 0.1;
#X obj 403 379 noise~;
#X obj 403 427 +~ 1;
#X obj 403 402 lop~ 10;
#X obj 334 397 +~;
#X obj 310 446 allp4-d~ 6.53;
#X obj 310 504 allp-d~ 2.12;
#X obj 310 575 allp-d~ 1.5;
#X msg 406 525 0.999;
#X obj 311 693 allp4~ 5;
#X obj 385 574 sig~ 0.312;
#X obj 394 475 sig~ 0.367;
#X obj 406 503 loadbang;
#X obj 346 228 r \$0-param-1;
#X obj 452 425 sig~;
#X obj 452 448 lop~ 20;
#X obj 334 373 *~ 0.3;
#X obj 454 405 * 9.99;
#X obj 312 770 lop~ 8000;
#X obj 452 357 r \$0-param-3;
#X obj 313 815 *~ 0.995;
#X obj 465 699 * 6000;
#X obj 465 722 + 2000;
#X obj 465 674 pow 2;
#X obj 376 725 expr 200-$f1;
#X obj 376 702 * 160;
#X obj 345 251 * 7;
#X obj 312 274 +~;
#X obj 311 298 delread4~ \$0-del-r;
#X obj 312 863 delwrite~ \$0-del-r 200;
#X obj 283 887 outlet~;
#X obj 530 168 switch~ 1 1 1;
#X obj 530 18 r \$1-fieldn;
#X obj 530 41 == \$2;
#X obj 586 114 del 6000;
#X msg 563 139 0;
#X msg 530 136 1;
#X msg 557 88 stop;
#X obj 530 64 sel 1, f 13;
#X obj 24 134 chair.touchgate~ 0.5 5;
#X connect 0 0 115 0;
#X connect 1 0 2 0;
#X connect 1 0 3 0;
#X connect 4 0 21 0;
#X connect 5 0 4 0;
#X connect 6 0 5 0;
#X connect 7 0 45 2;
#X connect 8 0 12 0;
#X connect 9 0 59 0;
#X connect 10 0 11 0;
#X connect 11 0 52 0;
#X connect 12 0 33 0;
#X connect 13 0 41 0;
#X connect 14 0 18 0;
#X connect 15 0 14 1;
#X connect 16 0 19 0;
#X connect 17 0 15 0;
#X connect 18 0 16 0;
#X connect 19 0 20 0;
#X connect 20 0 6 0;
#X connect 22 0 14 0;
#X connect 23 0 24 0;
#X connect 24 0 25 0;
#X connect 25 0 26 0;
#X connect 25 1 27 0;
#X connect 25 2 28 0;
#X connect 29 0 30 0;
#X connect 30 0 115 1;
#X connect 31 0 7 0;
#X connect 32 0 56 0;
#X connect 33 0 7 1;
#X connect 34 0 54 0;
#X connect 35 0 53 0;
#X connect 36 0 41 2;
#X connect 37 0 39 0;
#X connect 38 0 36 0;
#X connect 39 0 38 0;
#X connect 40 0 41 1;
#X connect 41 0 42 0;
#X connect 42 0 43 0;
#X connect 43 0 45 0;
#X connect 44 0 42 3;
#X connect 44 0 43 3;
#X connect 45 0 34 0;
#X connect 46 0 43 2;
#X connect 47 0 42 2;
#X connect 48 0 44 0;
#X connect 49 0 62 0;
#X connect 50 0 51 0;
#X connect 51 0 40 1;
#X connect 52 0 40 0;
#X connect 53 0 50 0;
#X connect 54 0 32 0;
#X connect 55 0 35 0;
#X connect 56 0 1 1;
#X connect 57 0 58 0;
#X connect 58 0 54 1;
#X connect 59 0 57 0;
#X connect 59 0 61 0;
#X connect 60 0 34 1;
#X connect 61 0 60 0;
#X connect 62 0 63 1;
#X connect 63 0 13 0;
#X connect 64 0 105 0;
#X connect 64 0 106 0;
#X connect 65 0 85 2;
#X connect 66 0 70 0;
#X connect 67 0 99 0;
#X connect 68 0 69 0;
#X connect 69 0 92 0;
#X connect 70 0 73 0;
#X connect 71 0 65 0;
#X connect 72 0 96 0;
#X connect 73 0 65 1;
#X connect 74 0 94 0;
#X connect 75 0 93 0;
#X connect 76 0 81 2;
#X connect 77 0 79 0;
#X connect 78 0 76 0;
#X connect 79 0 78 0;
#X connect 80 0 81 1;
#X connect 81 0 82 0;
#X connect 82 0 83 0;
#X connect 83 0 85 0;
#X connect 84 0 82 3;
#X connect 84 0 83 3;
#X connect 85 0 74 0;
#X connect 86 0 83 2;
#X connect 87 0 82 2;
#X connect 88 0 84 0;
#X connect 89 0 102 0;
#X connect 90 0 91 0;
#X connect 91 0 80 1;
#X connect 92 0 80 0;
#X connect 93 0 90 0;
#X connect 94 0 72 0;
#X connect 95 0 75 0;
#X connect 96 0 64 1;
#X connect 97 0 98 0;
#X connect 98 0 94 1;
#X connect 99 0 97 0;
#X connect 99 0 101 0;
#X connect 100 0 74 1;
#X connect 101 0 100 0;
#X connect 102 0 103 1;
#X connect 103 0 104 0;
#X connect 104 0 81 0;
#X connect 108 0 109 0;
#X connect 109 0 114 0;
#X connect 110 0 111 0;
#X connect 111 0 107 0;
#X connect 112 0 107 0;
#X connect 113 0 110 0;
#X connect 114 0 112 0;
#X connect 114 0 113 0;
#X connect 114 1 110 0;
#X connect 115 0 1 0;
#X connect 115 0 64 0;
