#N canvas 417 419 1312 924 10;
#X obj 45 -13 inlet~;
#X obj 72 783 *~ 0.98;
#X obj 46 806 +~;
#X obj 55 829 delwrite~ \$0-del 200;
#X obj 47 865 outlet~;
#X obj 148 631 +~;
#X obj 149 551 noise~;
#X obj 150 361 noise~;
#X obj 72 456 allp~ 2.2;
#X obj 72 520 allp~ 2.5;
#X obj 71 753 *~ -1;
#X obj 150 384 lop~ 100;
#X obj 149 574 lop~ 500;
#X obj 149 595 *~ 0.01;
#X obj 71 724 lop~ 7000;
#X obj 206 577 / 100;
#X obj 71 429 allp4~ 6.53;
#X obj 103 282 noise~;
#X obj 102 351 +~;
#X obj 167 313 r \$0-param-1;
#X obj 150 407 +~ 1;
#X obj 102 328 *~ 0.5;
#X obj 140 456 sig~ 0.5;
#X obj 103 304 lop~ 2000;
#X obj 139 519 sig~ 0.14;
#X obj 228 175 r \$0-param-2;
#X obj 228 246 * 15000;
#X obj 228 269 + 1000;
#X obj 228 198 / 100;
#X obj 228 221 pow 3;
#X obj 206 600 expr 1-$f1;
#X obj 206 467 r \$0-param-2;
#X obj 206 490 pow 3;
#X obj 206 510 expr 1-$f1;
#X obj 206 533 * 0.25;
#X obj 206 556 + 0.75;
#X obj 140 693 r \$0-param-2;
#X obj 140 722 pow 3;
#X obj 140 742 expr 1-$f1;
#X obj 140 786 + 0.7;
#X obj 140 764 * 0.275;
#X obj 73 690 hip~;
#X obj 151 430 *~ 0.75;
#X obj 929 129 chair.distance;
#X msg 1010 103 0.5 0.5;
#X obj 929 171 pow 2;
#X obj 929 150 / 0.72;
#X obj 929 194 expr 1-$f1;
#X obj 929 215 + 2;
#X obj 1010 81 loadbang;
#X obj 288 524 moses 0.5;
#X obj 341 545 - 0.5;
#X obj 288 547 * 2;
#X obj 341 568 * 2;
#X obj 341 591 pow 2;
#X obj 341 613 * 200;
#X obj 288 569 sqrt;
#X obj 288 478 r \$0-param-3;
#X obj 286 613 + 2000;
#X obj 286 590 * 7000;
#X obj 700 193 r \$1-params-list;
#X obj 700 216 route \$2;
#X obj 700 239 unpack f f f;
#X obj 700 269 s \$0-param-1;
#X obj 733 294 s \$0-param-2;
#X obj 769 319 s \$0-param-3;
#X obj 167 335 * 10;
#X obj 929 87 r \$1-xy;
#X obj 174 15 r \$1-fieldn;
#X obj 174 38 == \$2;
#X obj 71 253 delread~ \$0-del 2.95;
#X obj 72 633 allp4~ 4;
#X obj 408 785 *~ 0.98;
#X obj 380 808 +~;
#X obj 484 633 +~;
#X obj 485 553 noise~;
#X obj 486 363 noise~;
#X obj 408 458 allp~ 2.2;
#X obj 408 522 allp~ 2.5;
#X obj 407 755 *~ -1;
#X obj 486 386 lop~ 100;
#X obj 485 576 lop~ 500;
#X obj 485 597 *~ 0.01;
#X obj 407 726 lop~ 7000;
#X obj 542 579 / 100;
#X obj 407 431 allp4~ 6.53;
#X obj 439 284 noise~;
#X obj 438 353 +~;
#X obj 503 315 r \$0-param-1;
#X obj 486 409 +~ 1;
#X obj 438 330 *~ 0.5;
#X obj 476 458 sig~ 0.5;
#X obj 439 306 lop~ 2000;
#X obj 475 521 sig~ 0.14;
#X obj 564 177 r \$0-param-2;
#X obj 564 248 * 15000;
#X obj 564 271 + 1000;
#X obj 564 200 / 100;
#X obj 564 223 pow 3;
#X obj 542 602 expr 1-$f1;
#X obj 542 469 r \$0-param-2;
#X obj 542 492 pow 3;
#X obj 542 512 expr 1-$f1;
#X obj 542 535 * 0.25;
#X obj 542 558 + 0.75;
#X obj 476 695 r \$0-param-2;
#X obj 476 724 pow 3;
#X obj 476 744 expr 1-$f1;
#X obj 476 788 + 0.7;
#X obj 476 766 * 0.275;
#X obj 409 692 hip~;
#X obj 487 432 *~ 0.75;
#X obj 624 526 moses 0.5;
#X obj 677 547 - 0.5;
#X obj 624 549 * 2;
#X obj 677 570 * 2;
#X obj 677 593 pow 2;
#X obj 677 615 * 200;
#X obj 624 571 sqrt;
#X obj 624 480 r \$0-param-3;
#X obj 622 615 + 2000;
#X obj 622 592 * 7000;
#X obj 503 337 * 10;
#X obj 408 635 allp4~ 4;
#X obj 381 860 outlet~;
#X obj 407 255 delread~ \$0-del-r 2.95;
#X obj 391 831 delwrite~ \$0-del-r 200;
#X obj 701 164 switch~ 1 1 1;
#X obj 701 14 r \$1-fieldn;
#X obj 701 37 == \$2;
#X msg 734 135 0;
#X msg 701 132 1;
#X msg 728 84 stop;
#X obj 701 60 sel 1, f 13;
#X obj 46 60 chair.touchgate~ 0.5 5;
#X obj 771 86 t b;
#X obj 757 110 del 6000;
#X connect 0 0 134 0;
#X connect 1 0 2 1;
#X connect 2 0 3 0;
#X connect 2 0 4 0;
#X connect 5 0 71 2;
#X connect 6 0 12 0;
#X connect 7 0 11 0;
#X connect 8 0 9 0;
#X connect 9 0 71 0;
#X connect 10 0 1 0;
#X connect 11 0 20 0;
#X connect 12 0 13 0;
#X connect 13 0 5 0;
#X connect 14 0 10 0;
#X connect 15 0 30 0;
#X connect 15 0 13 1;
#X connect 16 0 8 0;
#X connect 17 0 23 0;
#X connect 18 0 16 1;
#X connect 19 0 66 0;
#X connect 20 0 42 0;
#X connect 21 0 18 0;
#X connect 22 0 8 2;
#X connect 23 0 21 0;
#X connect 24 0 9 2;
#X connect 25 0 28 0;
#X connect 26 0 27 0;
#X connect 27 0 23 1;
#X connect 28 0 29 0;
#X connect 29 0 26 0;
#X connect 30 0 5 1;
#X connect 31 0 32 0;
#X connect 32 0 33 0;
#X connect 33 0 34 0;
#X connect 34 0 35 0;
#X connect 35 0 15 0;
#X connect 36 0 37 0;
#X connect 37 0 38 0;
#X connect 38 0 40 0;
#X connect 39 0 1 1;
#X connect 40 0 39 0;
#X connect 41 0 14 0;
#X connect 42 0 16 2;
#X connect 43 0 46 0;
#X connect 44 0 43 1;
#X connect 45 0 47 0;
#X connect 46 0 45 0;
#X connect 47 0 48 0;
#X connect 49 0 44 0;
#X connect 50 0 52 0;
#X connect 50 1 51 0;
#X connect 51 0 53 0;
#X connect 52 0 56 0;
#X connect 53 0 54 0;
#X connect 54 0 55 0;
#X connect 55 0 41 1;
#X connect 56 0 59 0;
#X connect 57 0 50 0;
#X connect 58 0 14 1;
#X connect 59 0 58 0;
#X connect 60 0 61 0;
#X connect 61 0 62 0;
#X connect 62 0 63 0;
#X connect 62 1 64 0;
#X connect 62 2 65 0;
#X connect 66 0 18 1;
#X connect 67 0 43 0;
#X connect 68 0 69 0;
#X connect 69 0 134 1;
#X connect 70 0 16 0;
#X connect 71 0 41 0;
#X connect 72 0 73 1;
#X connect 73 0 124 0;
#X connect 73 0 126 0;
#X connect 74 0 123 2;
#X connect 75 0 81 0;
#X connect 76 0 80 0;
#X connect 77 0 78 0;
#X connect 78 0 123 0;
#X connect 79 0 72 0;
#X connect 80 0 89 0;
#X connect 81 0 82 0;
#X connect 82 0 74 0;
#X connect 83 0 79 0;
#X connect 84 0 99 0;
#X connect 84 0 82 1;
#X connect 85 0 77 0;
#X connect 86 0 92 0;
#X connect 87 0 85 1;
#X connect 88 0 122 0;
#X connect 89 0 111 0;
#X connect 90 0 87 0;
#X connect 91 0 77 2;
#X connect 92 0 90 0;
#X connect 93 0 78 2;
#X connect 94 0 97 0;
#X connect 95 0 96 0;
#X connect 96 0 92 1;
#X connect 97 0 98 0;
#X connect 98 0 95 0;
#X connect 99 0 74 1;
#X connect 100 0 101 0;
#X connect 101 0 102 0;
#X connect 102 0 103 0;
#X connect 103 0 104 0;
#X connect 104 0 84 0;
#X connect 105 0 106 0;
#X connect 106 0 107 0;
#X connect 107 0 109 0;
#X connect 108 0 72 1;
#X connect 109 0 108 0;
#X connect 110 0 83 0;
#X connect 111 0 85 2;
#X connect 112 0 114 0;
#X connect 112 1 113 0;
#X connect 113 0 115 0;
#X connect 114 0 118 0;
#X connect 115 0 116 0;
#X connect 116 0 117 0;
#X connect 117 0 110 1;
#X connect 118 0 121 0;
#X connect 119 0 112 0;
#X connect 120 0 83 1;
#X connect 121 0 120 0;
#X connect 122 0 87 1;
#X connect 123 0 110 0;
#X connect 125 0 85 0;
#X connect 128 0 129 0;
#X connect 129 0 133 0;
#X connect 130 0 127 0;
#X connect 131 0 127 0;
#X connect 132 0 136 0;
#X connect 133 0 131 0;
#X connect 133 0 132 0;
#X connect 133 1 135 0;
#X connect 134 0 2 0;
#X connect 134 0 73 0;
#X connect 135 0 136 0;
#X connect 136 0 130 0;
